// Auto-generated by midi_to_3motors.py
// Song: Linkin Park Numb
#pragma once
#include "../notes.h"
#include "../player.h"

// Duration uses standard macros
// MELODY
static const Step song_linkin_park_numb_melody[] = {
    {NOTE_CS5, MS_16},
    {NOTE_E5, MS_16},
    {NOTE_CS5, MS_16},
    {NOTE_AS4, MS_32},
    {NOTE_A4, MS_16},
    {NOTE_AS4, MS_32},
    {NOTE_FS5, MS_16},
    {NOTE_A5, MS_16},
    {NOTE_A5, MS_16},
    {NOTE_A5, MS_16},
    {NOTE_GS5, MS_32},
    {NOTE_GS5, MS_32},
    {NOTE_GS5, MS_16},
    {NOTE_GS5, MS_DQ},
    {NOTE_GS5, MS_DQ},
    {NOTE_AS4, MS_32},
    {NOTE_AS4, MS_32},
    {NOTE_A4, MS_16},
    {NOTE_A4, MS_16},
    {NOTE_CS5, MS_16},
    {NOTE_AS4, MS_32},
    {NOTE_A4, MS_16},
    {NOTE_AS4, MS_32},
    {NOTE_A5, MS_16},
    {NOTE_GS5, MS_16},
    {NOTE_GS5, MS_16},
    {NOTE_GS5, MS_16},
    {NOTE_E5, MS_32},
    {NOTE_E5, MS_32},
    {NOTE_E5, MS_16},
    {NOTE_E5, MS_DQ},
    {NOTE_E5, MS_DQ},
    {NOTE_AS4, MS_32},
    {NOTE_AS4, MS_32},
    {NOTE_A4, MS_16},
    {NOTE_A4, MS_16},
    {NOTE_CS5, MS_16},
    {NOTE_CS5, MS_16},
    {NOTE_FS5, MS_32},
    {NOTE_FS5, MS_32},
    {NOTE_FS5, MS_32},
    {NOTE_FS5, MS_32},
    {NOTE_A5, MS_16},
    {NOTE_A5, MS_16},
    {NOTE_A5, MS_16},
    {NOTE_GS5, MS_16},
    {NOTE_GS5, MS_16},
    {NOTE_GS5, MS_16},
    {NOTE_GS5, MS_32},
    {NOTE_GS5, MS_32},
    {NOTE_GS5, MS_32},
    {NOTE_GS5, MS_32},
    {NOTE_GS5, MS_16},
    {NOTE_B4, MS_16},
    {NOTE_AS4, MS_16},
    {NOTE_A4, MS_32},
    {NOTE_A4, MS_32},
    {NOTE_AS4, MS_16},
    {NOTE_AS4, MS_16},
    {NOTE_FS4, MS_32},
    {NOTE_FS4, MS_32},
    {NOTE_A4, MS_32},
    {NOTE_CS5, MS_32},
    {NOTE_AS4, MS_16},
    {NOTE_CS5, MS_16},
    {NOTE_AS4, MS_16},
    {NOTE_A4, MS_32},
    {NOTE_A4, MS_32},
    {NOTE_AS4, MS_16},
    {NOTE_AS4, MS_16},
    {NOTE_FS4, MS_32},
    {NOTE_FS4, MS_32},
    {NOTE_A4, MS_32},
    {NOTE_CS5, MS_32},
    {NOTE_AS4, MS_16},
    {NOTE_B4, MS_16},
    {NOTE_AS4, MS_16},
    {NOTE_A4, MS_32},
    {NOTE_A4, MS_32},
    {NOTE_AS4, MS_16},
    {NOTE_AS4, MS_16},
    {NOTE_FS4, MS_32},
    {NOTE_FS4, MS_32},
    {NOTE_FS4, MS_32},
    {NOTE_FS4, MS_32},
    {NOTE_FS4, MS_16},
    {NOTE_FS4, MS_16},
    {NOTE_FS4, MS_16},
    {NOTE_FS4, MS_32},
    {NOTE_FS4, MS_32},
    {NOTE_FS4, MS_16},
    {NOTE_D4, MS_16},
    {NOTE_D4, MS_32},
    {NOTE_D4, MS_32},
    {NOTE_D4, MS_32},
    {NOTE_D4, MS_32},
    {NOTE_D4, MS_16},
    {NOTE_D4, MS_16},
    {NOTE_D4, MS_16},
    {NOTE_D4, MS_32},
    {NOTE_D4, MS_32},
    {NOTE_D4, MS_16},
    {NOTE_CS4, MS_16},
    {NOTE_CS4, MS_32},
    {NOTE_CS4, MS_32},
    {NOTE_B3, MS_32},
    {NOTE_B3, MS_32},
    {NOTE_A3, MS_16},
    {NOTE_A3, MS_16},
    {NOTE_B3, MS_16},
    {NOTE_B3, MS_32},
    {NOTE_B3, MS_32},
    {NOTE_FS3, MS_16},
    {NOTE_B2, MS_16},
    {NOTE_B2, MS_32},
    {NOTE_B2, MS_32},
    {NOTE_B2, MS_32},
    {NOTE_B2, MS_32},
    {NOTE_B2, MS_16},
    {NOTE_B2, MS_16},
    {NOTE_B2, MS_16},
    {NOTE_B2, MS_32},
    {NOTE_B2, MS_32},
    {NOTE_B2, MS_16},
    {NOTE_CS3, MS_16},
    {NOTE_CS3, MS_32},
    {NOTE_CS3, MS_32},
    {NOTE_CS3, MS_32},
    {NOTE_CS3, MS_32},
    {NOTE_CS3, MS_16},
    {NOTE_CS3, MS_16},
    {NOTE_CS3, MS_16},
    {NOTE_CS3, MS_32},
    {NOTE_CS3, MS_32},
    {NOTE_CS3, MS_16},
    {NOTE_CS4, MS_16},
    {NOTE_CS4, MS_32},
    {NOTE_CS4, MS_32},
    {NOTE_D4, MS_32},
    {NOTE_D4, MS_32},
    {NOTE_D4, MS_16},
    {NOTE_D4, MS_16},
    {NOTE_D4, MS_16},
    {NOTE_D4, MS_32},
    {NOTE_D4, MS_32},
    {NOTE_D4, MS_16},
    {NOTE_CS4, MS_16},
    {NOTE_CS4, MS_32},
    {NOTE_CS4, MS_32},
    {NOTE_B3, MS_32},
    {NOTE_B3, MS_32},
    {NOTE_A3, MS_16},
    {NOTE_A3, MS_16},
    {NOTE_B3, MS_16},
    {NOTE_B3, MS_32},
    {NOTE_B3, MS_32},
    {NOTE_FS3, MS_16},
    {NOTE_B2, MS_16},
    {NOTE_B2, MS_32},
    {NOTE_B2, MS_32},
    {NOTE_B2, MS_32},
    {NOTE_B2, MS_32},
    {NOTE_B2, MS_16},
    {NOTE_B2, MS_16},
    {NOTE_B2, MS_16},
    {NOTE_B2, MS_32},
    {NOTE_B2, MS_32},
    {NOTE_B2, MS_16},
    {NOTE_CS3, MS_32},
    {NOTE_CS3, MS_32},
    {NOTE_CS3, MS_32},
    {NOTE_CS3, MS_32},
    {NOTE_FS2, MS_32},
    {NOTE_FS2, MS_32},
    {NOTE_FS2, MS_32},
    {NOTE_FS2, MS_32},
    {NOTE_FS2, MS_32},
    {NOTE_FS2, MS_32},
    {NOTE_FS2, MS_32},
    {NOTE_D2, MS_32},
    {NOTE_FS2, MS_32},
    {NOTE_FS2, MS_32},
    {NOTE_FS2, MS_32},
    {NOTE_FS2, MS_32},
    {NOTE_E2, MS_32},
    {NOTE_E2, MS_32},
    {NOTE_E2, MS_32},
    {NOTE_E2, MS_32},
    {NOTE_E2, MS_32},
    {NOTE_E2, MS_32},
    {NOTE_E2, MS_32},
    {NOTE_E2, MS_32},
    {NOTE_E2, MS_32},
    {NOTE_E2, MS_32},
    {NOTE_E2, MS_32},
    {NOTE_E2, MS_32},
    {NOTE_D2, MS_32},
    {NOTE_D2, MS_32},
    {NOTE_B1, MS_32},
    {NOTE_B1, MS_32},
    {NOTE_B1, MS_32},
    {NOTE_B1, MS_32},
    {NOTE_FS2, MS_32},
    {NOTE_FS2, MS_32},
    {NOTE_FS2, MS_32},
    {NOTE_FS2, MS_32},
    {NOTE_FS2, MS_32},
    {NOTE_FS2, MS_32},
    {NOTE_FS2, MS_32},
    {NOTE_FS2, MS_32},
    {NOTE_FS2, MS_32},
    {NOTE_FS2, MS_32},
    {NOTE_GS2, MS_32},
    {NOTE_GS2, MS_32},
    {NOTE_GS2, MS_32},
    {NOTE_GS2, MS_32},
    {NOTE_A2, MS_32},
    {NOTE_A2, MS_32},
    {NOTE_A2, MS_32},
    {NOTE_A2, MS_32},
    {NOTE_A2, MS_32},
    {NOTE_A2, MS_32},
    {NOTE_A2, MS_32},
    {NOTE_A2, MS_32},
    {NOTE_FS2, MS_32},
    {NOTE_FS2, MS_32},
    {NOTE_FS2, MS_32},
    {NOTE_FS2, MS_32},
    {NOTE_FS2, MS_32},
    {NOTE_FS2, MS_32},
    {NOTE_FS2, MS_32},
    {NOTE_FS2, MS_32},
    {NOTE_FS2, MS_32},
    {NOTE_FS2, MS_32},
    {NOTE_FS2, MS_32},
    {NOTE_FS2, MS_32},
    {NOTE_FS2, MS_32},
    {NOTE_FS2, MS_32},
    {NOTE_FS2, MS_32},
    {NOTE_FS2, MS_32},
    {NOTE_FS2, MS_32},
    {NOTE_FS2, MS_32},
    {NOTE_FS2, MS_32},
    {NOTE_D2, MS_32},
    {NOTE_FS2, MS_32},
    {NOTE_FS2, MS_32},
    {NOTE_FS2, MS_32},
    {NOTE_FS2, MS_32},
    {NOTE_E2, MS_32},
    {NOTE_E2, MS_32},
    {NOTE_E2, MS_32},
    {NOTE_E2, MS_32},
    {NOTE_E2, MS_32},
    {NOTE_E2, MS_32},
    {NOTE_E2, MS_32},
    {NOTE_E2, MS_32},
    {NOTE_E2, MS_32},
    {NOTE_E2, MS_32},
    {NOTE_E2, MS_32},
    {NOTE_E2, MS_32},
    {NOTE_E2, MS_32},
    {NOTE_E2, MS_32},
    {NOTE_E2, MS_32},
    {NOTE_E2, MS_32},
    {NOTE_FS2, MS_16},
    {NOTE_FS2, MS_32},
    {NOTE_FS2, MS_32},
    {NOTE_FS2, MS_32},
    {NOTE_FS2, MS_32},
    {NOTE_FS2, MS_16},
    {NOTE_FS2, MS_16},
    {NOTE_FS2, MS_16},
    {NOTE_FS2, MS_16},
    {NOTE_FS2, MS_16},
    {NOTE_AS2, MS_16},
    {NOTE_AS2, MS_32},
    {NOTE_AS2, MS_32},
    {NOTE_AS2, MS_32},
    {NOTE_AS2, MS_32},
    {NOTE_AS2, MS_16},
    {NOTE_AS2, MS_16},
    {NOTE_AS2, MS_16},
    {NOTE_AS2, MS_32},
    {NOTE_AS2, MS_32},
    {NOTE_AS2, MS_16},
    {NOTE_AS2, MS_16},
    {NOTE_AS2, MS_32},
    {NOTE_AS2, MS_32},
    {NOTE_AS2, MS_32},
    {NOTE_AS2, MS_32},
    {NOTE_AS2, MS_16},
    {NOTE_AS2, MS_16},
    {NOTE_AS2, MS_16},
    {NOTE_AS2, MS_32},
    {NOTE_AS2, MS_32},
    {NOTE_AS2, MS_16},
    {NOTE_AS2, MS_16},
    {NOTE_AS2, MS_32},
    {NOTE_AS2, MS_32},
    {NOTE_AS2, MS_32},
    {NOTE_AS2, MS_32},
    {NOTE_AS2, MS_16},
    {NOTE_AS2, MS_16},
    {NOTE_AS2, MS_16},
    {NOTE_AS2, MS_32},
    {NOTE_AS2, MS_32},
    {NOTE_AS2, MS_16},
    {NOTE_AS2, MS_16},
    {NOTE_AS2, MS_32},
    {NOTE_AS2, MS_32},
    {NOTE_AS2, MS_32},
    {NOTE_AS2, MS_32},
    {NOTE_AS2, MS_16},
    {NOTE_AS2, MS_16},
    {NOTE_AS2, MS_16},
    {NOTE_AS2, MS_16},
    {NOTE_AS2, MS_16},
    {NOTE_AS2, MS_16},
    {NOTE_AS2, MS_32},
    {NOTE_AS2, MS_32},
    {NOTE_AS2, MS_32},
    {NOTE_AS2, MS_32},
    {NOTE_AS2, MS_16},
    {NOTE_AS2, MS_16},
    {NOTE_AS2, MS_16},
    {NOTE_AS2, MS_32},
    {NOTE_AS2, MS_32},
    {NOTE_AS2, MS_16},
    {NOTE_AS2, MS_16},
    {NOTE_AS2, MS_32},
    {NOTE_AS2, MS_32},
    {NOTE_AS2, MS_32},
    {NOTE_AS2, MS_32},
    {NOTE_AS2, MS_16},
    {NOTE_AS2, MS_16},
    {NOTE_AS2, MS_16},
    {NOTE_AS2, MS_32},
    {NOTE_AS2, MS_32},
    {NOTE_AS2, MS_16},
    {NOTE_AS2, MS_16},
    {NOTE_AS2, MS_32},
    {NOTE_AS2, MS_32},
    {NOTE_AS2, MS_32},
    {NOTE_AS2, MS_32},
    {NOTE_AS2, MS_16},
    {NOTE_AS2, MS_16},
    {NOTE_AS2, MS_16},
    {NOTE_AS2, MS_32},
    {NOTE_AS2, MS_32},
    {NOTE_AS2, MS_32},
    {NOTE_AS2, MS_32},
    {NOTE_CS3, MS_16},
    {NOTE_CS3, MS_32},
    {NOTE_CS3, MS_32},
    {NOTE_FS2, MS_32},
    {NOTE_FS2, MS_32},
    {NOTE_FS2, MS_16},
    {NOTE_FS2, MS_16},
    {NOTE_FS2, MS_16},
    {NOTE_FS2, MS_32},
    {NOTE_FS2, MS_32},
    {NOTE_FS2, MS_16},
    {NOTE_B1, MS_16},
    {NOTE_D4, MS_32},
    {NOTE_D4, MS_32},
    {NOTE_D4, MS_32},
    {NOTE_D4, MS_32},
    {NOTE_D4, MS_16},
    {NOTE_D4, MS_16},
    {NOTE_D4, MS_16},
    {NOTE_D4, MS_32},
    {NOTE_D4, MS_32},
    {NOTE_D4, MS_16},
    {NOTE_FS4, MS_16},
    {NOTE_E4, MS_32},
    {NOTE_E4, MS_32},
    {NOTE_E4, MS_32},
    {NOTE_E4, MS_32},
    {NOTE_E4, MS_16},
    {NOTE_E4, MS_16},
    {NOTE_CS4, MS_16},
    {NOTE_CS4, MS_32},
    {NOTE_CS4, MS_32},
    {NOTE_CS4, MS_16},
    {NOTE_D4, MS_16},
    {NOTE_CS4, MS_32},
    {NOTE_CS4, MS_32},
    {NOTE_CS4, MS_32},
    {NOTE_CS4, MS_32},
    {NOTE_B3, MS_16},
    {NOTE_B3, MS_16},
    {NOTE_CS4, MS_16},
    {NOTE_CS4, MS_32},
    {NOTE_CS4, MS_32},
    {NOTE_CS4, MS_16},
    {NOTE_CS4, MS_16},
    {NOTE_FS4, MS_32},
    {NOTE_FS4, MS_32},
    {NOTE_FS4, MS_32},
    {NOTE_FS4, MS_32},
    {NOTE_FS4, MS_16},
    {NOTE_FS4, MS_16},
    {NOTE_FS4, MS_16},
    {NOTE_FS4, MS_32},
    {NOTE_FS4, MS_32},
    {NOTE_FS4, MS_16},
    {NOTE_D4, MS_16},
    {NOTE_D4, MS_32},
    {NOTE_D4, MS_32},
    {NOTE_D4, MS_32},
    {NOTE_D4, MS_32},
    {NOTE_D4, MS_16},
    {NOTE_D4, MS_16},
    {NOTE_D4, MS_16},
    {NOTE_D4, MS_32},
    {NOTE_D4, MS_32},
    {NOTE_D4, MS_16},
    {NOTE_CS4, MS_16},
    {NOTE_CS4, MS_32},
    {NOTE_CS4, MS_32},
    {NOTE_B3, MS_32},
    {NOTE_B3, MS_32},
    {NOTE_A3, MS_16},
    {NOTE_A3, MS_16},
    {NOTE_A3, MS_16},
    {NOTE_A3, MS_32},
    {NOTE_A3, MS_32},
    {NOTE_CS4, MS_16},
    {NOTE_CS4, MS_16},
    {NOTE_B3, MS_32},
    {NOTE_B3, MS_32},
    {NOTE_B3, MS_32},
    {NOTE_B3, MS_32},
    {NOTE_A3, MS_16},
    {NOTE_A3, MS_16},
    {NOTE_B3, MS_16},
    {NOTE_B3, MS_32},
    {NOTE_B3, MS_32},
    {NOTE_B3, MS_16},
    {NOTE_CS4, MS_32},
    {NOTE_CS4, MS_32},
    {NOTE_CS4, MS_32},
    {NOTE_CS4, MS_32},
    {NOTE_CS4, MS_32},
    {NOTE_CS4, MS_32},
    {NOTE_CS4, MS_32},
    {NOTE_CS4, MS_32},
    {NOTE_CS4, MS_32},
    {NOTE_CS4, MS_32},
    {NOTE_CS4, MS_32},
    {NOTE_CS4, MS_32},
    {NOTE_CS4, MS_32},
    {NOTE_CS4, MS_32},
    {NOTE_CS4, MS_32},
    {NOTE_CS4, MS_32},
    {NOTE_E4, MS_32},
    {NOTE_E4, MS_32},
    {NOTE_E4, MS_32},
    {NOTE_E4, MS_32},
    {NOTE_E4, MS_32},
    {NOTE_E4, MS_32},
    {NOTE_E4, MS_32},
    {NOTE_E4, MS_32},
    {NOTE_E4, MS_32},
    {NOTE_E4, MS_32},
    {NOTE_E4, MS_32},
    {NOTE_E4, MS_32},
    {NOTE_CS4, MS_32},
    {NOTE_CS4, MS_32},
    {NOTE_CS4, MS_32},
    {NOTE_CS4, MS_32},
    {NOTE_FS4, MS_32},
    {NOTE_FS4, MS_32},
    {NOTE_FS4, MS_32},
    {NOTE_FS4, MS_32},
    {NOTE_FS4, MS_32},
    {NOTE_FS4, MS_32},
    {NOTE_AS4, MS_32},
    {NOTE_AS4, MS_32},
    {NOTE_CS5, MS_32},
    {NOTE_CS5, MS_32},
    {NOTE_AS4, MS_32},
    {NOTE_AS4, MS_32},
    {NOTE_A4, MS_32},
    {NOTE_A4, MS_32},
    {NOTE_GS4, MS_32},
    {NOTE_GS4, MS_32},
    {NOTE_FS4, MS_32},
    {NOTE_FS4, MS_32},
    {NOTE_FS4, MS_32},
    {NOTE_FS4, MS_32},
    {NOTE_FS4, MS_32},
    {NOTE_FS4, MS_32},
    {NOTE_AS4, MS_32},
    {NOTE_AS4, MS_32},
    {NOTE_CS5, MS_32},
    {NOTE_CS5, MS_32},
    {NOTE_AS4, MS_32},
    {NOTE_AS4, MS_32},
    {NOTE_A4, MS_32},
    {NOTE_A4, MS_32},
    {NOTE_A4, MS_32},
    {NOTE_A4, MS_32},
    {NOTE_AS4, MS_32},
    {NOTE_AS4, MS_32},
    {NOTE_D4, MS_32},
    {NOTE_D4, MS_32},
    {NOTE_D4, MS_32},
    {NOTE_D4, MS_32},
    {NOTE_D4, MS_32},
    {NOTE_D4, MS_32},
    {NOTE_D4, MS_32},
    {NOTE_D4, MS_32},
    {NOTE_D4, MS_32},
    {NOTE_D4, MS_32},
    {NOTE_FS4, MS_32},
    {NOTE_FS4, MS_32},
    {NOTE_FS4, MS_32},
    {NOTE_FS4, MS_32},
    {NOTE_AS4, MS_32},
    {NOTE_AS4, MS_32},
    {NOTE_FS2, MS_32},
    {NOTE_FS2, MS_32},
    {NOTE_FS2, MS_32},
    {NOTE_FS2, MS_32},
    {NOTE_FS2, MS_32},
    {NOTE_FS2, MS_32},
    {NOTE_FS2, MS_32},
    {NOTE_FS2, MS_32},
    {NOTE_FS2, MS_32},
    {NOTE_FS2, MS_32},
    {NOTE_FS2, MS_32},
    {NOTE_FS2, MS_32},
    {NOTE_FS2, MS_32},
    {NOTE_GS2, MS_32},
    {NOTE_FS2, MS_32},
    {NOTE_FS2, MS_32},
    {NOTE_FS2, MS_32},
    {NOTE_FS2, MS_32},
    {NOTE_FS2, MS_32},
    {NOTE_FS2, MS_32},
    {NOTE_FS2, MS_32},
    {NOTE_FS2, MS_32},
    {NOTE_FS2, MS_32},
    {NOTE_FS2, MS_32},
    {NOTE_FS2, MS_32},
    {NOTE_FS2, MS_32},
    {NOTE_GS2, MS_32},
    {NOTE_GS2, MS_32},
    {NOTE_GS2, MS_32},
    {NOTE_GS2, MS_32},
    {NOTE_A2, MS_32},
    {NOTE_A2, MS_32},
    {NOTE_A2, MS_32},
    {NOTE_A2, MS_32},
    {NOTE_A2, MS_32},
    {NOTE_A2, MS_32},
    {NOTE_A2, MS_32},
    {NOTE_A2, MS_32},
    {NOTE_GS2, MS_32},
    {NOTE_GS2, MS_32},
    {NOTE_GS2, MS_32},
    {NOTE_GS2, MS_32},
    {NOTE_GS2, MS_32},
    {NOTE_GS2, MS_32},
    {NOTE_GS2, MS_32},
    {NOTE_GS2, MS_32},
    {NOTE_FS2, MS_16},
    {NOTE_FS2, MS_32},
    {NOTE_FS2, MS_32},
    {NOTE_FS2, MS_32},
    {NOTE_FS2, MS_32},
    {NOTE_FS2, MS_16},
    {NOTE_FS2, MS_16},
    {NOTE_FS2, MS_16},
    {NOTE_FS2, MS_16},
    {NOTE_FS2, MS_16},
    {NOTE_AS2, MS_16},
    {NOTE_AS2, MS_32},
    {NOTE_AS2, MS_32},
    {NOTE_AS2, MS_32},
    {NOTE_AS2, MS_32},
    {NOTE_AS2, MS_16},
    {NOTE_AS2, MS_16},
    {NOTE_AS2, MS_16},
    {NOTE_AS2, MS_32},
    {NOTE_AS2, MS_32},
    {NOTE_AS2, MS_16},
    {NOTE_AS2, MS_16},
    {NOTE_AS2, MS_32},
    {NOTE_AS2, MS_32},
    {NOTE_AS2, MS_32},
    {NOTE_AS2, MS_32},
    {NOTE_AS2, MS_16},
    {NOTE_AS2, MS_16},
    {NOTE_AS2, MS_16},
    {NOTE_AS2, MS_32},
    {NOTE_AS2, MS_32},
    {NOTE_AS2, MS_16},
    {NOTE_AS2, MS_16},
    {NOTE_AS2, MS_32},
    {NOTE_AS2, MS_32},
    {NOTE_AS2, MS_32},
    {NOTE_AS2, MS_32},
    {NOTE_AS2, MS_16},
    {NOTE_AS2, MS_16},
    {NOTE_AS2, MS_16},
    {NOTE_AS2, MS_32},
    {NOTE_AS2, MS_32},
    {NOTE_AS2, MS_16},
    {NOTE_AS2, MS_16},
    {NOTE_AS2, MS_32},
    {NOTE_AS2, MS_32},
    {NOTE_AS2, MS_32},
    {NOTE_AS2, MS_32},
    {NOTE_AS2, MS_16},
    {NOTE_AS2, MS_16},
    {NOTE_AS2, MS_16},
    {NOTE_AS2, MS_16},
    {NOTE_AS2, MS_16},
    {NOTE_AS2, MS_16},
    {NOTE_AS2, MS_32},
    {NOTE_AS2, MS_32},
    {NOTE_AS2, MS_32},
    {NOTE_AS2, MS_32},
    {NOTE_AS2, MS_16},
    {NOTE_AS2, MS_16},
    {NOTE_AS2, MS_16},
    {NOTE_AS2, MS_32},
    {NOTE_AS2, MS_32},
    {NOTE_AS2, MS_16},
    {NOTE_AS2, MS_16},
    {NOTE_AS2, MS_32},
    {NOTE_AS2, MS_32},
    {NOTE_AS2, MS_32},
    {NOTE_AS2, MS_32},
    {NOTE_AS2, MS_16},
    {NOTE_AS2, MS_16},
    {NOTE_AS2, MS_16},
    {NOTE_AS2, MS_32},
    {NOTE_AS2, MS_32},
    {NOTE_AS2, MS_16},
    {NOTE_AS2, MS_16},
    {NOTE_AS2, MS_32},
    {NOTE_AS2, MS_32},
    {NOTE_AS2, MS_32},
    {NOTE_AS2, MS_32},
    {NOTE_AS2, MS_16},
    {NOTE_AS2, MS_16},
    {NOTE_AS2, MS_16},
    {NOTE_AS2, MS_32},
    {NOTE_AS2, MS_32},
    {NOTE_AS2, MS_32},
    {NOTE_AS2, MS_32},
    {NOTE_AS2, MS_16},
    {NOTE_AS2, MS_32},
    {NOTE_AS2, MS_32},
    {NOTE_AS2, MS_32},
    {NOTE_AS2, MS_32},
    {NOTE_AS2, MS_16},
    {NOTE_AS2, MS_16},
    {NOTE_AS2, MS_16},
    {NOTE_AS2, MS_32},
    {NOTE_AS2, MS_32},
    {NOTE_AS2, MS_16},
    {NOTE_AS2, MS_16},
    {NOTE_AS2, MS_32},
    {NOTE_AS2, MS_32},
    {NOTE_AS2, MS_32},
    {NOTE_AS2, MS_32},
    {NOTE_AS2, MS_16},
    {NOTE_AS2, MS_16},
    {NOTE_AS2, MS_16},
    {NOTE_AS2, MS_32},
    {NOTE_AS2, MS_32},
    {NOTE_AS2, MS_16},
    {NOTE_AS2, MS_16},
    {NOTE_AS2, MS_32},
    {NOTE_AS2, MS_32},
    {NOTE_AS2, MS_32},
    {NOTE_AS2, MS_32},
    {NOTE_AS2, MS_16},
    {NOTE_AS2, MS_16},
    {NOTE_AS2, MS_16},
    {NOTE_AS2, MS_32},
    {NOTE_AS2, MS_32},
    {NOTE_AS2, MS_16},
    {NOTE_AS2, MS_16},
    {NOTE_AS2, MS_32},
    {NOTE_AS2, MS_32},
    {NOTE_AS2, MS_32},
    {NOTE_AS2, MS_32},
    {NOTE_AS2, MS_16},
    {NOTE_AS2, MS_16},
    {NOTE_AS2, MS_16},
    {NOTE_AS2, MS_32},
    {NOTE_AS2, MS_32},
    {NOTE_AS2, MS_16},
    {NOTE_AS2, MS_16},
    {NOTE_AS2, MS_32},
    {NOTE_AS2, MS_32},
    {NOTE_AS2, MS_32},
    {NOTE_AS2, MS_32},
    {NOTE_AS2, MS_16},
    {NOTE_AS2, MS_16},
    {NOTE_AS2, MS_16},
    {NOTE_AS2, MS_32},
    {NOTE_AS2, MS_32},
    {NOTE_AS2, MS_16},
    {NOTE_AS2, MS_16},
    {NOTE_AS2, MS_32},
    {NOTE_AS2, MS_32},
    {NOTE_AS2, MS_32},
    {NOTE_AS2, MS_32},
    {NOTE_AS2, MS_16},
    {NOTE_AS2, MS_16},
    {NOTE_AS2, MS_16},
    {NOTE_AS2, MS_32},
    {NOTE_AS2, MS_32},
    {NOTE_AS2, MS_16},
    {NOTE_AS2, MS_16},
    {NOTE_AS2, MS_32},
    {NOTE_AS2, MS_32},
    {NOTE_AS2, MS_32},
    {NOTE_AS2, MS_32},
    {NOTE_AS2, MS_16},
    {NOTE_AS2, MS_16},
    {NOTE_AS2, MS_16},
    {NOTE_AS2, MS_32},
    {NOTE_AS2, MS_32},
    {NOTE_AS2, MS_16},
    {NOTE_AS2, MS_16},
    {NOTE_AS2, MS_32},
    {NOTE_AS2, MS_32},
    {NOTE_AS2, MS_32},
    {NOTE_AS2, MS_32},
    {NOTE_AS2, MS_16},
    {NOTE_AS2, MS_16},
    {NOTE_AS2, MS_16},
    {NOTE_AS2, MS_32},
    {NOTE_AS2, MS_32},
    {NOTE_AS2, MS_16},
    {NOTE_AS2, MS_16},
    {NOTE_AS2, MS_32},
    {NOTE_AS2, MS_32},
    {NOTE_AS2, MS_32},
    {NOTE_AS2, MS_32},
    {NOTE_AS2, MS_16},
    {NOTE_AS2, MS_32},
    {NOTE_AS2, MS_32},
    {NOTE_AS2, MS_16},
    {NOTE_AS2, MS_32},
    {NOTE_AS2, MS_32},
    {NOTE_AS2, MS_32},
    {NOTE_AS2, MS_32},
    {NOTE_AS2, MS_16},
    {NOTE_AS2, MS_32},
    {NOTE_AS2, MS_32},
    {NOTE_AS2, MS_32},
    {NOTE_AS2, MS_32},
    {NOTE_AS2, MS_16},
    {NOTE_AS2, MS_16},
    {NOTE_AS2, MS_16},
    {NOTE_AS2, MS_16},
    {NOTE_AS2, MS_16},
    {NOTE_AS2, MS_16},
    {NOTE_AS2, MS_32},
    {NOTE_AS2, MS_32},
    {NOTE_AS2, MS_32},
    {NOTE_AS2, MS_32},
    {NOTE_AS2, MS_16},
    {NOTE_AS2, MS_16},
    {NOTE_AS2, MS_16},
    {NOTE_AS2, MS_32},
    {NOTE_AS2, MS_32},
    {NOTE_AS2, MS_16},
    {NOTE_AS2, MS_16},
    {NOTE_AS2, MS_32},
    {NOTE_AS2, MS_32},
    {NOTE_AS2, MS_32},
    {NOTE_AS2, MS_32},
    {NOTE_AS2, MS_16},
    {NOTE_AS2, MS_16},
    {NOTE_AS2, MS_16},
    {NOTE_AS2, MS_32},
    {NOTE_AS2, MS_32},
    {NOTE_AS2, MS_16},
    {NOTE_AS2, MS_16},
    {NOTE_AS2, MS_32},
    {NOTE_AS2, MS_32},
    {NOTE_AS2, MS_32},
    {NOTE_AS2, MS_32},
    {NOTE_AS2, MS_16},
    {NOTE_AS2, MS_16},
    {NOTE_AS2, MS_16},
    {NOTE_AS2, MS_32},
    {NOTE_AS2, MS_32},
    {NOTE_AS2, MS_16},
    {NOTE_AS2, MS_16},
    {NOTE_AS2, MS_32},
    {NOTE_AS2, MS_32},
    {NOTE_AS2, MS_32},
    {NOTE_AS2, MS_32},
    {NOTE_AS2, MS_16},
    {NOTE_AS2, MS_16},
    {NOTE_AS2, MS_16},
    {NOTE_AS2, MS_16},
    {NOTE_AS2, MS_16},
    {NOTE_AS2, MS_16},
    {NOTE_AS2, MS_32},
    {NOTE_AS2, MS_32},
    {NOTE_AS2, MS_32},
    {NOTE_AS2, MS_32},
    {NOTE_AS2, MS_16},
    {NOTE_AS2, MS_16},
    {NOTE_AS2, MS_16},
    {NOTE_AS2, MS_32},
    {NOTE_AS2, MS_32},
    {NOTE_AS2, MS_16},
    {NOTE_AS2, MS_16},
    {NOTE_AS2, MS_32},
    {NOTE_AS2, MS_32},
    {NOTE_AS2, MS_32},
    {NOTE_AS2, MS_32},
    {NOTE_AS2, MS_16},
    {NOTE_AS2, MS_16},
    {NOTE_AS2, MS_16},
    {NOTE_AS2, MS_32},
    {NOTE_AS2, MS_32},
    {NOTE_AS2, MS_16},
    {NOTE_AS2, MS_16},
    {NOTE_AS2, MS_32},
    {NOTE_AS2, MS_32},
    {NOTE_AS2, MS_32},
    {NOTE_AS2, MS_32},
    {NOTE_AS2, MS_16},
    {NOTE_AS2, MS_16},
    {NOTE_AS2, MS_16},
    {NOTE_AS2, MS_32},
    {NOTE_AS2, MS_32},
    {NOTE_AS2, MS_32},
    {NOTE_AS2, MS_32},
    {NOTE_AS2, MS_16},
    {NOTE_AS2, MS_32},
    {NOTE_AS2, MS_32},
    {NOTE_AS2, MS_32},
    {NOTE_AS2, MS_32},
    {NOTE_AS2, MS_16},
    {NOTE_AS2, MS_16},
    {NOTE_AS2, MS_16},
    {NOTE_AS2, MS_16},
    {NOTE_AS2, MS_16},
    {NOTE_AS2, MS_16},
    {NOTE_AS2, MS_32},
    {NOTE_AS2, MS_32},
    {NOTE_AS2, MS_32},
    {NOTE_AS2, MS_32},
    {NOTE_AS2, MS_16},
    {NOTE_AS2, MS_16},
    {NOTE_AS2, MS_16},
    {NOTE_AS2, MS_32},
    {NOTE_AS2, MS_32},
    {NOTE_AS2, MS_16},
    {NOTE_AS2, MS_16},
    {NOTE_AS2, MS_32},
    {NOTE_AS2, MS_32},
    {NOTE_AS2, MS_32},
    {NOTE_AS2, MS_32},
    {NOTE_AS2, MS_16},
    {NOTE_AS2, MS_16},
    {NOTE_AS2, MS_16},
    {NOTE_AS2, MS_32},
    {NOTE_AS2, MS_32},
    {NOTE_AS2, MS_16},
    {NOTE_AS2, MS_16},
    {NOTE_AS2, MS_32},
    {NOTE_AS2, MS_32},
    {NOTE_AS2, MS_32},
    {NOTE_AS2, MS_32},
    {NOTE_AS2, MS_16},
    {NOTE_AS2, MS_16},
    {NOTE_AS2, MS_16},
    {NOTE_AS2, MS_32},
    {NOTE_AS2, MS_32},
    {NOTE_AS2, MS_16},
    {NOTE_AS2, MS_16},
    {NOTE_AS2, MS_32},
    {NOTE_AS2, MS_32},
    {NOTE_AS2, MS_32},
    {NOTE_AS2, MS_32},
    {NOTE_AS2, MS_16},
    {NOTE_AS2, MS_16},
    {NOTE_AS2, MS_16},
    {NOTE_AS2, MS_16},
    {NOTE_AS2, MS_16},
    {NOTE_AS2, MS_16},
    {NOTE_AS2, MS_32},
    {NOTE_AS2, MS_32},
    {NOTE_AS2, MS_32},
    {NOTE_AS2, MS_32},
    {NOTE_AS2, MS_16},
    {NOTE_AS2, MS_16},
    {NOTE_AS2, MS_16},
    {NOTE_AS2, MS_32},
    {NOTE_AS2, MS_32},
    {NOTE_AS2, MS_16},
    {NOTE_AS2, MS_16},
    {NOTE_AS2, MS_32},
    {NOTE_AS2, MS_32},
    {NOTE_AS2, MS_32},
    {NOTE_AS2, MS_32},
    {NOTE_AS2, MS_16},
    {NOTE_AS2, MS_16},
    {NOTE_AS2, MS_16},
    {NOTE_AS2, MS_32},
    {NOTE_AS2, MS_32},
    {NOTE_AS2, MS_16},
    {NOTE_AS2, MS_16},
    {NOTE_AS2, MS_32},
    {NOTE_AS2, MS_32},
    {NOTE_AS2, MS_32},
    {NOTE_AS2, MS_32},
    {NOTE_AS2, MS_16},
    {NOTE_AS2, MS_16},
    {NOTE_AS2, MS_16},
    {NOTE_AS2, MS_32},
    {NOTE_AS2, MS_32},
    {NOTE_AS2, MS_32},
    {NOTE_AS2, MS_32},
    {NOTE_GS2, MS_32},
    {NOTE_GS2, MS_32},
    {NOTE_FS2, MS_32},
    {NOTE_FS2, MS_32},
    {NOTE_FS2, MS_32},
    {NOTE_FS2, MS_32},
    {NOTE_FS2, MS_32},
    {NOTE_FS2, MS_32},
    {NOTE_FS2, MS_16},
    {NOTE_FS2, MS_16},
    {NOTE_FS2, MS_32},
    {NOTE_FS2, MS_32},
    {NOTE_FS2, MS_16},
    {NOTE_FS2, MS_32},
    {NOTE_FS2, MS_32},
    {NOTE_FS2, MS_32},
    {NOTE_FS2, MS_32},
    {NOTE_FS2, MS_32},
    {NOTE_FS2, MS_32},
    {NOTE_FS2, MS_32},
    {NOTE_FS2, MS_32},
    {NOTE_FS2, MS_16},
    {NOTE_FS2, MS_16},
    {NOTE_FS2, MS_32},
    {NOTE_FS2, MS_32},
    {NOTE_FS2, MS_16},
    {NOTE_FS2, MS_32},
    {NOTE_FS2, MS_32},
    {NOTE_FS2, MS_32},
    {NOTE_FS2, MS_32},
    {NOTE_FS2, MS_32},
    {NOTE_FS2, MS_32},
    {NOTE_FS2, MS_32},
    {NOTE_FS2, MS_32},
    {NOTE_FS2, MS_16},
    {NOTE_FS2, MS_16},
    {NOTE_FS2, MS_32},
    {NOTE_FS2, MS_32},
    {NOTE_FS2, MS_16},
    {NOTE_FS2, MS_32},
    {NOTE_FS2, MS_32},
    {NOTE_FS2, MS_32},
    {NOTE_FS2, MS_32},
    {NOTE_FS2, MS_32},
    {NOTE_FS2, MS_32},
    {NOTE_FS2, MS_32},
    {NOTE_FS2, MS_32},
    {NOTE_FS2, MS_16},
    {NOTE_FS2, MS_16},
    {NOTE_FS2, MS_32},
    {NOTE_FS2, MS_32},
};

// HARMONY
static const Step song_linkin_park_numb_harmony[] = {
    {NOTE_REST, MS_16},
    {NOTE_REST, MS_16},
    {NOTE_REST, MS_16},
    {NOTE_FS5, MS_32},
    {NOTE_FS5, MS_16},
    {NOTE_FS5, MS_32},
    {NOTE_REST, MS_16},
    {NOTE_REST, MS_16},
    {NOTE_A4, MS_16},
    {NOTE_AS4, MS_16},
    {NOTE_A4, MS_32},
    {NOTE_A4, MS_32},
    {NOTE_REST, MS_16},
    {NOTE_AS4, MS_DQ},
    {NOTE_A4, MS_DQ},
    {NOTE_FS2, MS_32},
    {NOTE_FS2, MS_32},
    {NOTE_CS5, MS_16},
    {NOTE_E5, MS_16},
    {NOTE_AS2, MS_16},
    {NOTE_A5, MS_32},
    {NOTE_A5, MS_16},
    {NOTE_A5, MS_32},
    {NOTE_AS2, MS_16},
    {NOTE_REST, MS_16},
    {NOTE_A4, MS_16},
    {NOTE_AS4, MS_16},
    {NOTE_A4, MS_32},
    {NOTE_A4, MS_32},
    {NOTE_AS2, MS_16},
    {NOTE_AS4, MS_DQ},
    {NOTE_A4, MS_DQ},
    {NOTE_E3, MS_32},
    {NOTE_E3, MS_32},
    {NOTE_CS5, MS_16},
    {NOTE_E5, MS_16},
    {NOTE_E3, MS_16},
    {NOTE_FS5, MS_16},
    {NOTE_FS4, MS_32},
    {NOTE_A4, MS_32},
    {NOTE_CS5, MS_32},
    {NOTE_CS5, MS_32},
    {NOTE_AS4, MS_16},
    {NOTE_CS5, MS_16},
    {NOTE_AS4, MS_16},
    {NOTE_D5, MS_16},
    {NOTE_AS4, MS_16},
    {NOTE_CS5, MS_16},
    {NOTE_FS4, MS_32},
    {NOTE_A4, MS_32},
    {NOTE_CS5, MS_32},
    {NOTE_CS5, MS_32},
    {NOTE_AS4, MS_16},
    {NOTE_D3, MS_16},
    {NOTE_CS5, MS_16},
    {NOTE_E5, MS_32},
    {NOTE_E5, MS_32},
    {NOTE_CS5, MS_16},
    {NOTE_A5, MS_16},
    {NOTE_A5, MS_32},
    {NOTE_A5, MS_32},
    {NOTE_A5, MS_32},
    {NOTE_A5, MS_32},
    {NOTE_GS5, MS_16},
    {NOTE_GS5, MS_16},
    {NOTE_GS5, MS_16},
    {NOTE_E5, MS_32},
    {NOTE_E5, MS_32},
    {NOTE_E5, MS_16},
    {NOTE_E5, MS_16},
    {NOTE_E5, MS_32},
    {NOTE_E5, MS_32},
    {NOTE_E5, MS_32},
    {NOTE_E5, MS_32},
    {NOTE_E5, MS_16},
    {NOTE_E3, MS_16},
    {NOTE_CS5, MS_16},
    {NOTE_E5, MS_32},
    {NOTE_E5, MS_32},
    {NOTE_CS5, MS_16},
    {NOTE_FS5, MS_16},
    {NOTE_FS5, MS_32},
    {NOTE_FS5, MS_32},
    {NOTE_FS5, MS_32},
    {NOTE_FS5, MS_32},
    {NOTE_AS4, MS_16},
    {NOTE_CS4, MS_16},
    {NOTE_AS4, MS_16},
    {NOTE_A4, MS_32},
    {NOTE_A4, MS_32},
    {NOTE_AS4, MS_16},
    {NOTE_AS4, MS_16},
    {NOTE_REST, MS_32},
    {NOTE_A4, MS_32},
    {NOTE_A4, MS_32},
    {NOTE_B3, MS_32},
    {NOTE_AS4, MS_16},
    {NOTE_A3, MS_16},
    {NOTE_AS4, MS_16},
    {NOTE_A4, MS_32},
    {NOTE_A4, MS_32},
    {NOTE_AS4, MS_16},
    {NOTE_AS4, MS_16},
    {NOTE_E3, MS_32},
    {NOTE_A4, MS_32},
    {NOTE_A4, MS_32},
    {NOTE_E3, MS_32},
    {NOTE_AS4, MS_16},
    {NOTE_E3, MS_16},
    {NOTE_AS4, MS_16},
    {NOTE_A4, MS_32},
    {NOTE_A4, MS_32},
    {NOTE_AS4, MS_16},
    {NOTE_AS4, MS_16},
    {NOTE_E4, MS_32},
    {NOTE_A4, MS_32},
    {NOTE_A4, MS_32},
    {NOTE_E4, MS_32},
    {NOTE_AS4, MS_16},
    {NOTE_E4, MS_16},
    {NOTE_AS4, MS_16},
    {NOTE_A4, MS_32},
    {NOTE_A4, MS_32},
    {NOTE_AS4, MS_16},
    {NOTE_AS4, MS_16},
    {NOTE_FS4, MS_32},
    {NOTE_A4, MS_32},
    {NOTE_A4, MS_32},
    {NOTE_FS4, MS_32},
    {NOTE_AS4, MS_16},
    {NOTE_FS4, MS_16},
    {NOTE_AS4, MS_16},
    {NOTE_A4, MS_32},
    {NOTE_A4, MS_32},
    {NOTE_AS4, MS_16},
    {NOTE_AS4, MS_16},
    {NOTE_D4, MS_32},
    {NOTE_A4, MS_32},
    {NOTE_A4, MS_32},
    {NOTE_B3, MS_32},
    {NOTE_AS4, MS_16},
    {NOTE_A3, MS_16},
    {NOTE_AS4, MS_16},
    {NOTE_A4, MS_32},
    {NOTE_A4, MS_32},
    {NOTE_AS4, MS_16},
    {NOTE_AS4, MS_16},
    {NOTE_E3, MS_32},
    {NOTE_A4, MS_32},
    {NOTE_A4, MS_32},
    {NOTE_E3, MS_32},
    {NOTE_AS4, MS_16},
    {NOTE_E3, MS_16},
    {NOTE_AS4, MS_16},
    {NOTE_A4, MS_32},
    {NOTE_A4, MS_32},
    {NOTE_AS4, MS_16},
    {NOTE_AS4, MS_16},
    {NOTE_E4, MS_32},
    {NOTE_A4, MS_32},
    {NOTE_A4, MS_32},
    {NOTE_E4, MS_32},
    {NOTE_AS4, MS_16},
    {NOTE_E4, MS_16},
    {NOTE_AS4, MS_16},
    {NOTE_A4, MS_32},
    {NOTE_A4, MS_32},
    {NOTE_A4, MS_16},
    {NOTE_AS4, MS_32},
    {NOTE_AS4, MS_32},
    {NOTE_D4, MS_32},
    {NOTE_A4, MS_32},
    {NOTE_A4, MS_32},
    {NOTE_FS4, MS_32},
    {NOTE_CS5, MS_32},
    {NOTE_CS5, MS_32},
    {NOTE_CS5, MS_32},
    {NOTE_CS5, MS_32},
    {NOTE_AS4, MS_32},
    {NOTE_AS4, MS_32},
    {NOTE_A4, MS_32},
    {NOTE_A4, MS_32},
    {NOTE_AS4, MS_32},
    {NOTE_AS4, MS_32},
    {NOTE_AS4, MS_32},
    {NOTE_AS4, MS_32},
    {NOTE_E4, MS_32},
    {NOTE_A4, MS_32},
    {NOTE_A4, MS_32},
    {NOTE_FS4, MS_32},
    {NOTE_CS5, MS_32},
    {NOTE_CS5, MS_32},
    {NOTE_CS5, MS_32},
    {NOTE_CS5, MS_32},
    {NOTE_AS4, MS_32},
    {NOTE_AS4, MS_32},
    {NOTE_A4, MS_32},
    {NOTE_A4, MS_32},
    {NOTE_AS4, MS_32},
    {NOTE_AS4, MS_32},
    {NOTE_AS4, MS_32},
    {NOTE_AS4, MS_32},
    {NOTE_FS4, MS_32},
    {NOTE_A4, MS_32},
    {NOTE_A4, MS_32},
    {NOTE_FS4, MS_32},
    {NOTE_CS5, MS_32},
    {NOTE_CS5, MS_32},
    {NOTE_CS5, MS_32},
    {NOTE_CS5, MS_32},
    {NOTE_AS4, MS_32},
    {NOTE_AS4, MS_32},
    {NOTE_A4, MS_32},
    {NOTE_A4, MS_32},
    {NOTE_AS4, MS_32},
    {NOTE_AS4, MS_32},
    {NOTE_AS4, MS_32},
    {NOTE_AS4, MS_32},
    {NOTE_FS4, MS_32},
    {NOTE_A4, MS_32},
    {NOTE_A4, MS_32},
    {NOTE_FS4, MS_32},
    {NOTE_CS5, MS_32},
    {NOTE_CS5, MS_32},
    {NOTE_CS5, MS_32},
    {NOTE_CS5, MS_32},
    {NOTE_AS4, MS_32},
    {NOTE_AS4, MS_32},
    {NOTE_A4, MS_32},
    {NOTE_A4, MS_32},
    {NOTE_A4, MS_32},
    {NOTE_A4, MS_32},
    {NOTE_AS4, MS_32},
    {NOTE_AS4, MS_32},
    {NOTE_D4, MS_32},
    {NOTE_A4, MS_32},
    {NOTE_A4, MS_32},
    {NOTE_FS4, MS_32},
    {NOTE_CS5, MS_32},
    {NOTE_CS5, MS_32},
    {NOTE_CS5, MS_32},
    {NOTE_CS5, MS_32},
    {NOTE_AS4, MS_32},
    {NOTE_AS4, MS_32},
    {NOTE_A4, MS_32},
    {NOTE_A4, MS_32},
    {NOTE_AS4, MS_32},
    {NOTE_AS4, MS_32},
    {NOTE_AS4, MS_32},
    {NOTE_AS4, MS_32},
    {NOTE_E3, MS_32},
    {NOTE_A4, MS_32},
    {NOTE_A4, MS_32},
    {NOTE_FS4, MS_32},
    {NOTE_CS5, MS_32},
    {NOTE_CS5, MS_32},
    {NOTE_CS5, MS_32},
    {NOTE_CS5, MS_32},
    {NOTE_AS4, MS_32},
    {NOTE_AS4, MS_32},
    {NOTE_A4, MS_32},
    {NOTE_A4, MS_32},
    {NOTE_A4, MS_32},
    {NOTE_A4, MS_32},
    {NOTE_CS5, MS_16},
    {NOTE_FS4, MS_32},
    {NOTE_A4, MS_32},
    {NOTE_CS5, MS_32},
    {NOTE_CS5, MS_32},
    {NOTE_AS4, MS_16},
    {NOTE_CS5, MS_16},
    {NOTE_AS4, MS_16},
    {NOTE_D5, MS_16},
    {NOTE_AS4, MS_16},
    {NOTE_CS5, MS_16},
    {NOTE_FS4, MS_32},
    {NOTE_A4, MS_32},
    {NOTE_CS5, MS_32},
    {NOTE_CS5, MS_32},
    {NOTE_AS4, MS_16},
    {NOTE_B4, MS_16},
    {NOTE_AS4, MS_16},
    {NOTE_B4, MS_32},
    {NOTE_B4, MS_32},
    {NOTE_AS4, MS_16},
    {NOTE_CS5, MS_16},
    {NOTE_FS4, MS_32},
    {NOTE_A4, MS_32},
    {NOTE_CS5, MS_32},
    {NOTE_CS5, MS_32},
    {NOTE_AS4, MS_16},
    {NOTE_CS5, MS_16},
    {NOTE_AS4, MS_16},
    {NOTE_D5, MS_32},
    {NOTE_D5, MS_32},
    {NOTE_AS4, MS_16},
    {NOTE_CS5, MS_16},
    {NOTE_FS4, MS_32},
    {NOTE_A4, MS_32},
    {NOTE_CS5, MS_32},
    {NOTE_CS5, MS_32},
    {NOTE_AS4, MS_16},
    {NOTE_B4, MS_16},
    {NOTE_AS4, MS_16},
    {NOTE_B4, MS_32},
    {NOTE_B4, MS_32},
    {NOTE_AS4, MS_16},
    {NOTE_CS5, MS_16},
    {NOTE_FS4, MS_32},
    {NOTE_A4, MS_32},
    {NOTE_CS5, MS_32},
    {NOTE_CS5, MS_32},
    {NOTE_AS4, MS_16},
    {NOTE_CS5, MS_16},
    {NOTE_AS4, MS_16},
    {NOTE_D5, MS_16},
    {NOTE_AS4, MS_16},
    {NOTE_CS5, MS_16},
    {NOTE_FS4, MS_32},
    {NOTE_A4, MS_32},
    {NOTE_CS5, MS_32},
    {NOTE_CS5, MS_32},
    {NOTE_AS4, MS_16},
    {NOTE_B4, MS_16},
    {NOTE_AS4, MS_16},
    {NOTE_B4, MS_32},
    {NOTE_B4, MS_32},
    {NOTE_AS4, MS_16},
    {NOTE_CS5, MS_16},
    {NOTE_FS4, MS_32},
    {NOTE_A4, MS_32},
    {NOTE_CS5, MS_32},
    {NOTE_CS5, MS_32},
    {NOTE_AS4, MS_16},
    {NOTE_CS5, MS_16},
    {NOTE_AS4, MS_16},
    {NOTE_D5, MS_32},
    {NOTE_D5, MS_32},
    {NOTE_AS4, MS_16},
    {NOTE_CS5, MS_16},
    {NOTE_FS4, MS_32},
    {NOTE_A4, MS_32},
    {NOTE_CS5, MS_32},
    {NOTE_CS5, MS_32},
    {NOTE_AS4, MS_16},
    {NOTE_B4, MS_16},
    {NOTE_AS4, MS_16},
    {NOTE_B4, MS_32},
    {NOTE_B4, MS_32},
    {NOTE_A4, MS_32},
    {NOTE_A4, MS_32},
    {NOTE_AS4, MS_16},
    {NOTE_FS4, MS_32},
    {NOTE_A4, MS_32},
    {NOTE_A4, MS_32},
    {NOTE_FS4, MS_32},
    {NOTE_AS4, MS_16},
    {NOTE_FS4, MS_16},
    {NOTE_AS4, MS_16},
    {NOTE_A4, MS_32},
    {NOTE_A4, MS_32},
    {NOTE_AS4, MS_16},
    {NOTE_AS4, MS_16},
    {NOTE_E4, MS_32},
    {NOTE_A4, MS_32},
    {NOTE_A4, MS_32},
    {NOTE_E4, MS_32},
    {NOTE_AS4, MS_16},
    {NOTE_E4, MS_16},
    {NOTE_AS4, MS_16},
    {NOTE_A4, MS_32},
    {NOTE_A4, MS_32},
    {NOTE_AS4, MS_16},
    {NOTE_AS4, MS_16},
    {NOTE_E3, MS_32},
    {NOTE_A4, MS_32},
    {NOTE_A4, MS_32},
    {NOTE_E3, MS_32},
    {NOTE_AS4, MS_16},
    {NOTE_E3, MS_16},
    {NOTE_AS4, MS_16},
    {NOTE_A4, MS_32},
    {NOTE_A4, MS_32},
    {NOTE_AS4, MS_16},
    {NOTE_AS4, MS_16},
    {NOTE_E4, MS_32},
    {NOTE_A4, MS_32},
    {NOTE_A4, MS_32},
    {NOTE_E4, MS_32},
    {NOTE_AS4, MS_16},
    {NOTE_E4, MS_16},
    {NOTE_AS4, MS_16},
    {NOTE_A4, MS_32},
    {NOTE_A4, MS_32},
    {NOTE_AS4, MS_16},
    {NOTE_AS4, MS_16},
    {NOTE_FS3, MS_32},
    {NOTE_A4, MS_32},
    {NOTE_A4, MS_32},
    {NOTE_CS4, MS_32},
    {NOTE_AS4, MS_16},
    {NOTE_CS4, MS_16},
    {NOTE_AS4, MS_16},
    {NOTE_A4, MS_32},
    {NOTE_A4, MS_32},
    {NOTE_AS4, MS_16},
    {NOTE_AS4, MS_16},
    {NOTE_REST, MS_32},
    {NOTE_A4, MS_32},
    {NOTE_A4, MS_32},
    {NOTE_B3, MS_32},
    {NOTE_AS4, MS_16},
    {NOTE_A3, MS_16},
    {NOTE_AS4, MS_16},
    {NOTE_A4, MS_32},
    {NOTE_A4, MS_32},
    {NOTE_AS4, MS_16},
    {NOTE_AS4, MS_16},
    {NOTE_E3, MS_32},
    {NOTE_A4, MS_32},
    {NOTE_A4, MS_32},
    {NOTE_E3, MS_32},
    {NOTE_AS4, MS_16},
    {NOTE_E3, MS_16},
    {NOTE_AS4, MS_16},
    {NOTE_A4, MS_32},
    {NOTE_A4, MS_32},
    {NOTE_AS4, MS_16},
    {NOTE_AS4, MS_16},
    {NOTE_E4, MS_32},
    {NOTE_A4, MS_32},
    {NOTE_A4, MS_32},
    {NOTE_E4, MS_32},
    {NOTE_AS4, MS_16},
    {NOTE_E4, MS_16},
    {NOTE_AS4, MS_16},
    {NOTE_A4, MS_32},
    {NOTE_A4, MS_32},
    {NOTE_A4, MS_16},
    {NOTE_AS4, MS_32},
    {NOTE_AS4, MS_32},
    {NOTE_D4, MS_32},
    {NOTE_A4, MS_32},
    {NOTE_A4, MS_32},
    {NOTE_FS4, MS_32},
    {NOTE_CS5, MS_32},
    {NOTE_CS5, MS_32},
    {NOTE_CS5, MS_32},
    {NOTE_CS5, MS_32},
    {NOTE_AS4, MS_32},
    {NOTE_AS4, MS_32},
    {NOTE_A4, MS_32},
    {NOTE_A4, MS_32},
    {NOTE_AS4, MS_32},
    {NOTE_AS4, MS_32},
    {NOTE_AS4, MS_32},
    {NOTE_AS4, MS_32},
    {NOTE_FS2, MS_32},
    {NOTE_A4, MS_32},
    {NOTE_A4, MS_32},
    {NOTE_FS4, MS_32},
    {NOTE_CS5, MS_32},
    {NOTE_CS5, MS_32},
    {NOTE_CS5, MS_32},
    {NOTE_CS5, MS_32},
    {NOTE_AS4, MS_32},
    {NOTE_AS4, MS_32},
    {NOTE_A4, MS_32},
    {NOTE_A4, MS_32},
    {NOTE_AS4, MS_32},
    {NOTE_AS4, MS_32},
    {NOTE_AS4, MS_32},
    {NOTE_AS4, MS_32},
    {NOTE_REST, MS_32},
    {NOTE_A4, MS_32},
    {NOTE_A4, MS_32},
    {NOTE_E4, MS_32},
    {NOTE_CS5, MS_32},
    {NOTE_CS5, MS_32},
    {NOTE_CS4, MS_32},
    {NOTE_CS4, MS_32},
    {NOTE_CS4, MS_32},
    {NOTE_CS4, MS_32},
    {NOTE_GS4, MS_32},
    {NOTE_GS4, MS_32},
    {NOTE_AS4, MS_32},
    {NOTE_AS4, MS_32},
    {NOTE_AS4, MS_32},
    {NOTE_AS4, MS_32},
    {NOTE_A2, MS_32},
    {NOTE_A4, MS_32},
    {NOTE_A4, MS_32},
    {NOTE_E4, MS_32},
    {NOTE_CS5, MS_32},
    {NOTE_CS5, MS_32},
    {NOTE_CS4, MS_32},
    {NOTE_CS4, MS_32},
    {NOTE_D4, MS_32},
    {NOTE_D4, MS_32},
    {NOTE_D4, MS_32},
    {NOTE_D4, MS_32},
    {NOTE_E4, MS_32},
    {NOTE_E4, MS_32},
    {NOTE_D4, MS_32},
    {NOTE_D4, MS_32},
    {NOTE_CS3, MS_32},
    {NOTE_A4, MS_32},
    {NOTE_A4, MS_32},
    {NOTE_FS4, MS_32},
    {NOTE_CS5, MS_32},
    {NOTE_CS5, MS_32},
    {NOTE_CS5, MS_32},
    {NOTE_CS5, MS_32},
    {NOTE_AS4, MS_32},
    {NOTE_AS4, MS_32},
    {NOTE_A4, MS_32},
    {NOTE_A4, MS_32},
    {NOTE_AS4, MS_32},
    {NOTE_AS4, MS_32},
    {NOTE_E2, MS_32},
    {NOTE_FS2, MS_32},
    {NOTE_REST, MS_32},
    {NOTE_A4, MS_32},
    {NOTE_A4, MS_32},
    {NOTE_FS4, MS_32},
    {NOTE_CS5, MS_32},
    {NOTE_CS5, MS_32},
    {NOTE_CS5, MS_32},
    {NOTE_CS5, MS_32},
    {NOTE_AS4, MS_32},
    {NOTE_AS4, MS_32},
    {NOTE_A4, MS_32},
    {NOTE_A4, MS_32},
    {NOTE_AS4, MS_32},
    {NOTE_AS4, MS_32},
    {NOTE_AS4, MS_32},
    {NOTE_AS4, MS_32},
    {NOTE_FS4, MS_32},
    {NOTE_A4, MS_32},
    {NOTE_A4, MS_32},
    {NOTE_FS4, MS_32},
    {NOTE_CS5, MS_32},
    {NOTE_CS5, MS_32},
    {NOTE_CS5, MS_32},
    {NOTE_CS5, MS_32},
    {NOTE_AS4, MS_32},
    {NOTE_AS4, MS_32},
    {NOTE_A4, MS_32},
    {NOTE_A4, MS_32},
    {NOTE_AS4, MS_32},
    {NOTE_AS4, MS_32},
    {NOTE_AS4, MS_32},
    {NOTE_AS4, MS_32},
    {NOTE_GS4, MS_32},
    {NOTE_A4, MS_32},
    {NOTE_A4, MS_32},
    {NOTE_GS4, MS_32},
    {NOTE_CS5, MS_32},
    {NOTE_CS5, MS_32},
    {NOTE_CS5, MS_32},
    {NOTE_CS5, MS_32},
    {NOTE_AS4, MS_32},
    {NOTE_AS4, MS_32},
    {NOTE_GS4, MS_32},
    {NOTE_A4, MS_32},
    {NOTE_A4, MS_32},
    {NOTE_A4, MS_32},
    {NOTE_CS5, MS_16},
    {NOTE_FS4, MS_32},
    {NOTE_A4, MS_32},
    {NOTE_CS5, MS_32},
    {NOTE_CS5, MS_32},
    {NOTE_AS4, MS_16},
    {NOTE_CS5, MS_16},
    {NOTE_AS4, MS_16},
    {NOTE_D5, MS_16},
    {NOTE_AS4, MS_16},
    {NOTE_CS5, MS_16},
    {NOTE_FS4, MS_32},
    {NOTE_A4, MS_32},
    {NOTE_CS5, MS_32},
    {NOTE_CS5, MS_32},
    {NOTE_AS4, MS_16},
    {NOTE_B4, MS_16},
    {NOTE_AS4, MS_16},
    {NOTE_B4, MS_32},
    {NOTE_B4, MS_32},
    {NOTE_AS4, MS_16},
    {NOTE_CS5, MS_16},
    {NOTE_FS4, MS_32},
    {NOTE_A4, MS_32},
    {NOTE_CS5, MS_32},
    {NOTE_CS5, MS_32},
    {NOTE_AS4, MS_16},
    {NOTE_CS5, MS_16},
    {NOTE_AS4, MS_16},
    {NOTE_D5, MS_32},
    {NOTE_D5, MS_32},
    {NOTE_AS4, MS_16},
    {NOTE_CS5, MS_16},
    {NOTE_FS4, MS_32},
    {NOTE_A4, MS_32},
    {NOTE_CS5, MS_32},
    {NOTE_CS5, MS_32},
    {NOTE_AS4, MS_16},
    {NOTE_B4, MS_16},
    {NOTE_AS4, MS_16},
    {NOTE_B4, MS_32},
    {NOTE_B4, MS_32},
    {NOTE_AS4, MS_16},
    {NOTE_CS5, MS_16},
    {NOTE_FS4, MS_32},
    {NOTE_A4, MS_32},
    {NOTE_CS5, MS_32},
    {NOTE_CS5, MS_32},
    {NOTE_AS4, MS_16},
    {NOTE_CS5, MS_16},
    {NOTE_AS4, MS_16},
    {NOTE_D5, MS_16},
    {NOTE_AS4, MS_16},
    {NOTE_CS5, MS_16},
    {NOTE_FS4, MS_32},
    {NOTE_A4, MS_32},
    {NOTE_CS5, MS_32},
    {NOTE_CS5, MS_32},
    {NOTE_AS4, MS_16},
    {NOTE_B4, MS_16},
    {NOTE_AS4, MS_16},
    {NOTE_B4, MS_32},
    {NOTE_B4, MS_32},
    {NOTE_AS4, MS_16},
    {NOTE_CS5, MS_16},
    {NOTE_FS4, MS_32},
    {NOTE_A4, MS_32},
    {NOTE_CS5, MS_32},
    {NOTE_CS5, MS_32},
    {NOTE_AS4, MS_16},
    {NOTE_CS5, MS_16},
    {NOTE_AS4, MS_16},
    {NOTE_D5, MS_32},
    {NOTE_D5, MS_32},
    {NOTE_AS4, MS_16},
    {NOTE_CS5, MS_16},
    {NOTE_FS4, MS_32},
    {NOTE_A4, MS_32},
    {NOTE_CS5, MS_32},
    {NOTE_CS5, MS_32},
    {NOTE_AS4, MS_16},
    {NOTE_B4, MS_16},
    {NOTE_AS4, MS_16},
    {NOTE_B4, MS_32},
    {NOTE_B4, MS_32},
    {NOTE_A4, MS_32},
    {NOTE_A4, MS_32},
    {NOTE_FS6, MS_16},
    {NOTE_FS6, MS_32},
    {NOTE_FS6, MS_32},
    {NOTE_FS6, MS_32},
    {NOTE_FS6, MS_32},
    {NOTE_FS6, MS_16},
    {NOTE_FS6, MS_16},
    {NOTE_FS6, MS_16},
    {NOTE_FS6, MS_32},
    {NOTE_FS6, MS_32},
    {NOTE_FS6, MS_16},
    {NOTE_FS6, MS_16},
    {NOTE_FS6, MS_32},
    {NOTE_FS6, MS_32},
    {NOTE_FS6, MS_32},
    {NOTE_FS6, MS_32},
    {NOTE_FS6, MS_16},
    {NOTE_FS6, MS_16},
    {NOTE_FS6, MS_16},
    {NOTE_FS6, MS_32},
    {NOTE_FS6, MS_32},
    {NOTE_FS6, MS_16},
    {NOTE_FS6, MS_16},
    {NOTE_FS6, MS_32},
    {NOTE_FS6, MS_32},
    {NOTE_FS6, MS_32},
    {NOTE_FS6, MS_32},
    {NOTE_FS6, MS_16},
    {NOTE_FS6, MS_16},
    {NOTE_FS6, MS_16},
    {NOTE_FS6, MS_32},
    {NOTE_FS6, MS_32},
    {NOTE_FS6, MS_16},
    {NOTE_FS6, MS_16},
    {NOTE_FS6, MS_32},
    {NOTE_FS6, MS_32},
    {NOTE_FS6, MS_32},
    {NOTE_FS6, MS_32},
    {NOTE_FS6, MS_16},
    {NOTE_FS6, MS_16},
    {NOTE_FS6, MS_16},
    {NOTE_FS6, MS_32},
    {NOTE_FS6, MS_32},
    {NOTE_FS6, MS_16},
    {NOTE_FS6, MS_16},
    {NOTE_FS6, MS_32},
    {NOTE_FS6, MS_32},
    {NOTE_FS6, MS_32},
    {NOTE_FS6, MS_32},
    {NOTE_FS6, MS_16},
    {NOTE_FS6, MS_16},
    {NOTE_FS6, MS_16},
    {NOTE_FS6, MS_32},
    {NOTE_FS6, MS_32},
    {NOTE_FS6, MS_16},
    {NOTE_FS6, MS_16},
    {NOTE_FS6, MS_32},
    {NOTE_FS6, MS_32},
    {NOTE_FS6, MS_32},
    {NOTE_FS6, MS_32},
    {NOTE_FS6, MS_16},
    {NOTE_FS6, MS_16},
    {NOTE_FS6, MS_16},
    {NOTE_FS6, MS_32},
    {NOTE_FS6, MS_32},
    {NOTE_FS6, MS_16},
    {NOTE_FS6, MS_16},
    {NOTE_FS6, MS_32},
    {NOTE_FS6, MS_32},
    {NOTE_FS6, MS_32},
    {NOTE_FS6, MS_32},
    {NOTE_FS6, MS_16},
    {NOTE_FS6, MS_16},
    {NOTE_FS6, MS_16},
    {NOTE_FS6, MS_32},
    {NOTE_FS6, MS_32},
    {NOTE_FS6, MS_16},
    {NOTE_FS6, MS_16},
    {NOTE_FS6, MS_32},
    {NOTE_FS6, MS_32},
    {NOTE_FS6, MS_32},
    {NOTE_FS6, MS_32},
    {NOTE_FS6, MS_16},
    {NOTE_FS6, MS_16},
    {NOTE_FS6, MS_16},
    {NOTE_FS6, MS_32},
    {NOTE_FS6, MS_32},
    {NOTE_FS6, MS_16},
    {NOTE_FS6, MS_16},
    {NOTE_FS6, MS_32},
    {NOTE_FS6, MS_32},
    {NOTE_FS6, MS_32},
    {NOTE_FS6, MS_32},
    {NOTE_FS6, MS_16},
    {NOTE_FS6, MS_32},
    {NOTE_FS6, MS_32},
    {NOTE_FS6, MS_16},
    {NOTE_FS6, MS_32},
    {NOTE_FS6, MS_32},
    {NOTE_FS6, MS_32},
    {NOTE_FS6, MS_32},
    {NOTE_FS6, MS_16},
    {NOTE_FS6, MS_32},
    {NOTE_FS6, MS_32},
    {NOTE_FS6, MS_32},
    {NOTE_FS6, MS_32},
    {NOTE_FS6, MS_16},
    {NOTE_FS6, MS_16},
    {NOTE_FS6, MS_16},
    {NOTE_FS6, MS_16},
    {NOTE_FS6, MS_16},
    {NOTE_FS6, MS_16},
    {NOTE_FS6, MS_32},
    {NOTE_FS6, MS_32},
    {NOTE_FS6, MS_32},
    {NOTE_FS6, MS_32},
    {NOTE_FS6, MS_16},
    {NOTE_FS6, MS_16},
    {NOTE_FS6, MS_16},
    {NOTE_FS6, MS_32},
    {NOTE_FS6, MS_32},
    {NOTE_FS6, MS_16},
    {NOTE_FS6, MS_16},
    {NOTE_FS6, MS_32},
    {NOTE_FS6, MS_32},
    {NOTE_FS6, MS_32},
    {NOTE_FS6, MS_32},
    {NOTE_FS6, MS_16},
    {NOTE_FS6, MS_16},
    {NOTE_FS6, MS_16},
    {NOTE_FS6, MS_32},
    {NOTE_FS6, MS_32},
    {NOTE_FS6, MS_16},
    {NOTE_FS6, MS_16},
    {NOTE_FS6, MS_32},
    {NOTE_FS6, MS_32},
    {NOTE_FS6, MS_32},
    {NOTE_FS6, MS_32},
    {NOTE_FS6, MS_16},
    {NOTE_FS6, MS_16},
    {NOTE_FS6, MS_16},
    {NOTE_FS6, MS_32},
    {NOTE_FS6, MS_32},
    {NOTE_FS6, MS_16},
    {NOTE_FS6, MS_16},
    {NOTE_FS6, MS_32},
    {NOTE_FS6, MS_32},
    {NOTE_FS6, MS_32},
    {NOTE_FS6, MS_32},
    {NOTE_FS6, MS_16},
    {NOTE_FS6, MS_16},
    {NOTE_FS6, MS_16},
    {NOTE_FS6, MS_16},
    {NOTE_FS6, MS_16},
    {NOTE_FS6, MS_16},
    {NOTE_FS6, MS_32},
    {NOTE_FS6, MS_32},
    {NOTE_FS6, MS_32},
    {NOTE_FS6, MS_32},
    {NOTE_FS6, MS_16},
    {NOTE_FS6, MS_16},
    {NOTE_FS6, MS_16},
    {NOTE_FS6, MS_32},
    {NOTE_FS6, MS_32},
    {NOTE_FS6, MS_16},
    {NOTE_FS6, MS_16},
    {NOTE_FS6, MS_32},
    {NOTE_FS6, MS_32},
    {NOTE_FS6, MS_32},
    {NOTE_FS6, MS_32},
    {NOTE_FS6, MS_16},
    {NOTE_FS6, MS_16},
    {NOTE_FS6, MS_16},
    {NOTE_FS6, MS_32},
    {NOTE_FS6, MS_32},
    {NOTE_FS6, MS_16},
    {NOTE_FS6, MS_16},
    {NOTE_FS6, MS_32},
    {NOTE_FS6, MS_32},
    {NOTE_FS6, MS_32},
    {NOTE_FS6, MS_32},
    {NOTE_FS6, MS_16},
    {NOTE_FS6, MS_16},
    {NOTE_FS6, MS_16},
    {NOTE_FS6, MS_32},
    {NOTE_FS6, MS_32},
    {NOTE_FS6, MS_32},
    {NOTE_FS6, MS_32},
    {NOTE_FS6, MS_16},
    {NOTE_FS6, MS_32},
    {NOTE_FS6, MS_32},
    {NOTE_FS6, MS_32},
    {NOTE_FS6, MS_32},
    {NOTE_FS6, MS_16},
    {NOTE_FS6, MS_16},
    {NOTE_FS6, MS_16},
    {NOTE_FS6, MS_16},
    {NOTE_FS6, MS_16},
    {NOTE_FS6, MS_16},
    {NOTE_FS6, MS_32},
    {NOTE_FS6, MS_32},
    {NOTE_FS6, MS_32},
    {NOTE_FS6, MS_32},
    {NOTE_FS6, MS_16},
    {NOTE_FS6, MS_16},
    {NOTE_FS6, MS_16},
    {NOTE_FS6, MS_32},
    {NOTE_FS6, MS_32},
    {NOTE_FS6, MS_16},
    {NOTE_FS6, MS_16},
    {NOTE_FS6, MS_32},
    {NOTE_FS6, MS_32},
    {NOTE_FS6, MS_32},
    {NOTE_FS6, MS_32},
    {NOTE_FS6, MS_16},
    {NOTE_FS6, MS_16},
    {NOTE_FS6, MS_16},
    {NOTE_FS6, MS_32},
    {NOTE_FS6, MS_32},
    {NOTE_FS6, MS_16},
    {NOTE_FS6, MS_16},
    {NOTE_FS6, MS_32},
    {NOTE_FS6, MS_32},
    {NOTE_FS6, MS_32},
    {NOTE_FS6, MS_32},
    {NOTE_FS6, MS_16},
    {NOTE_FS6, MS_16},
    {NOTE_FS6, MS_16},
    {NOTE_FS6, MS_32},
    {NOTE_FS6, MS_32},
    {NOTE_FS6, MS_16},
    {NOTE_FS6, MS_16},
    {NOTE_FS6, MS_32},
    {NOTE_FS6, MS_32},
    {NOTE_FS6, MS_32},
    {NOTE_FS6, MS_32},
    {NOTE_FS6, MS_16},
    {NOTE_FS6, MS_16},
    {NOTE_FS6, MS_16},
    {NOTE_FS6, MS_16},
    {NOTE_FS6, MS_16},
    {NOTE_FS6, MS_16},
    {NOTE_FS6, MS_32},
    {NOTE_FS6, MS_32},
    {NOTE_FS6, MS_32},
    {NOTE_FS6, MS_32},
    {NOTE_FS6, MS_16},
    {NOTE_FS6, MS_16},
    {NOTE_FS6, MS_16},
    {NOTE_FS6, MS_32},
    {NOTE_FS6, MS_32},
    {NOTE_FS6, MS_16},
    {NOTE_FS6, MS_16},
    {NOTE_FS6, MS_32},
    {NOTE_FS6, MS_32},
    {NOTE_FS6, MS_32},
    {NOTE_FS6, MS_32},
    {NOTE_FS6, MS_16},
    {NOTE_FS6, MS_16},
    {NOTE_FS6, MS_16},
    {NOTE_FS6, MS_32},
    {NOTE_FS6, MS_32},
    {NOTE_FS6, MS_16},
    {NOTE_FS6, MS_16},
    {NOTE_FS6, MS_32},
    {NOTE_FS6, MS_32},
    {NOTE_FS6, MS_32},
    {NOTE_FS6, MS_32},
    {NOTE_FS6, MS_16},
    {NOTE_FS6, MS_16},
    {NOTE_FS6, MS_16},
    {NOTE_FS6, MS_32},
    {NOTE_FS6, MS_32},
    {NOTE_FS6, MS_32},
    {NOTE_FS6, MS_32},
    {NOTE_FS5, MS_32},
    {NOTE_FS5, MS_32},
    {NOTE_FS5, MS_32},
    {NOTE_FS5, MS_32},
    {NOTE_FS5, MS_32},
    {NOTE_FS5, MS_32},
    {NOTE_A5, MS_32},
    {NOTE_A5, MS_32},
    {NOTE_A5, MS_16},
    {NOTE_A5, MS_16},
    {NOTE_GS5, MS_32},
    {NOTE_GS5, MS_32},
    {NOTE_GS5, MS_16},
    {NOTE_GS5, MS_32},
    {NOTE_GS5, MS_32},
    {NOTE_GS5, MS_32},
    {NOTE_GS5, MS_32},
    {NOTE_GS5, MS_32},
    {NOTE_GS5, MS_32},
    {NOTE_GS5, MS_32},
    {NOTE_GS5, MS_32},
    {NOTE_GS2, MS_16},
    {NOTE_CS5, MS_16},
    {NOTE_E5, MS_32},
    {NOTE_E5, MS_32},
    {NOTE_CS5, MS_16},
    {NOTE_A5, MS_32},
    {NOTE_A5, MS_32},
    {NOTE_A5, MS_32},
    {NOTE_A5, MS_32},
    {NOTE_A5, MS_32},
    {NOTE_A5, MS_32},
    {NOTE_GS5, MS_32},
    {NOTE_GS5, MS_32},
    {NOTE_GS5, MS_16},
    {NOTE_GS5, MS_16},
    {NOTE_E5, MS_32},
    {NOTE_E5, MS_32},
    {NOTE_E5, MS_16},
    {NOTE_E5, MS_32},
    {NOTE_E5, MS_32},
    {NOTE_E5, MS_32},
    {NOTE_E5, MS_32},
    {NOTE_E5, MS_32},
    {NOTE_E5, MS_32},
    {NOTE_E5, MS_32},
    {NOTE_E5, MS_32},
    {NOTE_GS2, MS_16},
    {NOTE_AS4, MS_16},
    {NOTE_A4, MS_32},
    {NOTE_AS2, MS_32},
};

// BASS
static const Step song_linkin_park_numb_bass[] = {
    {NOTE_CS5, MS_16},
    {NOTE_E5, MS_16},
    {NOTE_CS5, MS_16},
    {NOTE_B1, MS_32},
    {NOTE_B1, MS_16},
    {NOTE_B1, MS_32},
    {NOTE_AS2, MS_16},
    {NOTE_A5, MS_16},
    {NOTE_GS2, MS_16},
    {NOTE_FS2, MS_16},
    {NOTE_GS2, MS_32},
    {NOTE_GS2, MS_32},
    {NOTE_AS2, MS_16},
    {NOTE_D2, MS_DQ},
    {NOTE_D2, MS_DQ},
    {NOTE_D2, MS_32},
    {NOTE_D2, MS_32},
    {NOTE_D2, MS_16},
    {NOTE_D2, MS_16},
    {NOTE_D2, MS_16},
    {NOTE_B1, MS_32},
    {NOTE_B1, MS_16},
    {NOTE_B1, MS_32},
    {NOTE_A2, MS_16},
    {NOTE_A2, MS_16},
    {NOTE_GS2, MS_16},
    {NOTE_FS2, MS_16},
    {NOTE_GS2, MS_32},
    {NOTE_GS2, MS_32},
    {NOTE_A2, MS_16},
    {NOTE_E2, MS_DQ},
    {NOTE_E2, MS_DQ},
    {NOTE_E2, MS_32},
    {NOTE_E2, MS_32},
    {NOTE_E2, MS_16},
    {NOTE_E2, MS_16},
    {NOTE_E2, MS_16},
    {NOTE_B1, MS_16},
    {NOTE_FS2, MS_32},
    {NOTE_D2, MS_32},
    {NOTE_D2, MS_32},
    {NOTE_FS2, MS_32},
    {NOTE_B1, MS_16},
    {NOTE_FS2, MS_16},
    {NOTE_B1, MS_16},
    {NOTE_D2, MS_16},
    {NOTE_B1, MS_16},
    {NOTE_B1, MS_16},
    {NOTE_AS2, MS_32},
    {NOTE_D2, MS_32},
    {NOTE_D2, MS_32},
    {NOTE_AS2, MS_32},
    {NOTE_B1, MS_16},
    {NOTE_AS2, MS_16},
    {NOTE_B1, MS_16},
    {NOTE_D2, MS_32},
    {NOTE_D2, MS_32},
    {NOTE_B1, MS_16},
    {NOTE_B1, MS_16},
    {NOTE_A2, MS_32},
    {NOTE_D2, MS_32},
    {NOTE_D2, MS_32},
    {NOTE_A2, MS_32},
    {NOTE_B1, MS_16},
    {NOTE_A2, MS_16},
    {NOTE_B1, MS_16},
    {NOTE_D2, MS_32},
    {NOTE_D2, MS_32},
    {NOTE_B1, MS_16},
    {NOTE_B1, MS_16},
    {NOTE_E2, MS_32},
    {NOTE_D2, MS_32},
    {NOTE_D2, MS_32},
    {NOTE_E2, MS_32},
    {NOTE_B1, MS_16},
    {NOTE_E2, MS_16},
    {NOTE_B1, MS_16},
    {NOTE_D2, MS_32},
    {NOTE_D2, MS_32},
    {NOTE_B1, MS_16},
    {NOTE_B1, MS_16},
    {NOTE_FS2, MS_32},
    {NOTE_D2, MS_32},
    {NOTE_D2, MS_32},
    {NOTE_FS2, MS_32},
    {NOTE_B1, MS_16},
    {NOTE_FS2, MS_16},
    {NOTE_B1, MS_16},
    {NOTE_D2, MS_32},
    {NOTE_D2, MS_32},
    {NOTE_B1, MS_16},
    {NOTE_B1, MS_16},
    {NOTE_CS4, MS_32},
    {NOTE_D2, MS_32},
    {NOTE_D2, MS_32},
    {NOTE_FS2, MS_32},
    {NOTE_B1, MS_16},
    {NOTE_FS2, MS_16},
    {NOTE_B1, MS_16},
    {NOTE_D2, MS_32},
    {NOTE_D2, MS_32},
    {NOTE_B1, MS_16},
    {NOTE_B1, MS_16},
    {NOTE_FS2, MS_32},
    {NOTE_D2, MS_32},
    {NOTE_D2, MS_32},
    {NOTE_FS2, MS_32},
    {NOTE_B1, MS_16},
    {NOTE_FS2, MS_16},
    {NOTE_B1, MS_16},
    {NOTE_D2, MS_32},
    {NOTE_D2, MS_32},
    {NOTE_B1, MS_16},
    {NOTE_B1, MS_16},
    {NOTE_E2, MS_32},
    {NOTE_D2, MS_32},
    {NOTE_D2, MS_32},
    {NOTE_E2, MS_32},
    {NOTE_B1, MS_16},
    {NOTE_E2, MS_16},
    {NOTE_B1, MS_16},
    {NOTE_D2, MS_32},
    {NOTE_D2, MS_32},
    {NOTE_B1, MS_16},
    {NOTE_B1, MS_16},
    {NOTE_FS2, MS_32},
    {NOTE_D2, MS_32},
    {NOTE_D2, MS_32},
    {NOTE_FS2, MS_32},
    {NOTE_B1, MS_16},
    {NOTE_FS2, MS_16},
    {NOTE_B1, MS_16},
    {NOTE_D2, MS_32},
    {NOTE_D2, MS_32},
    {NOTE_B1, MS_16},
    {NOTE_B1, MS_16},
    {NOTE_CS4, MS_32},
    {NOTE_D2, MS_32},
    {NOTE_D2, MS_32},
    {NOTE_FS2, MS_32},
    {NOTE_B1, MS_16},
    {NOTE_FS2, MS_16},
    {NOTE_B1, MS_16},
    {NOTE_D2, MS_32},
    {NOTE_D2, MS_32},
    {NOTE_B1, MS_16},
    {NOTE_B1, MS_16},
    {NOTE_FS2, MS_32},
    {NOTE_D2, MS_32},
    {NOTE_D2, MS_32},
    {NOTE_FS2, MS_32},
    {NOTE_B1, MS_16},
    {NOTE_FS2, MS_16},
    {NOTE_B1, MS_16},
    {NOTE_D2, MS_32},
    {NOTE_D2, MS_32},
    {NOTE_B1, MS_16},
    {NOTE_B1, MS_16},
    {NOTE_E2, MS_32},
    {NOTE_D2, MS_32},
    {NOTE_D2, MS_32},
    {NOTE_E2, MS_32},
    {NOTE_B1, MS_16},
    {NOTE_E2, MS_16},
    {NOTE_B1, MS_16},
    {NOTE_D2, MS_32},
    {NOTE_D2, MS_32},
    {NOTE_E2, MS_16},
    {NOTE_B1, MS_32},
    {NOTE_B1, MS_32},
    {NOTE_FS2, MS_32},
    {NOTE_D2, MS_32},
    {NOTE_D2, MS_32},
    {NOTE_FS2, MS_32},
    {NOTE_B1, MS_32},
    {NOTE_B1, MS_32},
    {NOTE_D2, MS_32},
    {NOTE_D2, MS_32},
    {NOTE_B1, MS_32},
    {NOTE_B1, MS_32},
    {NOTE_FS2, MS_32},
    {NOTE_D2, MS_32},
    {NOTE_B1, MS_32},
    {NOTE_B1, MS_32},
    {NOTE_B1, MS_32},
    {NOTE_B1, MS_32},
    {NOTE_E2, MS_32},
    {NOTE_D2, MS_32},
    {NOTE_D2, MS_32},
    {NOTE_E2, MS_32},
    {NOTE_B1, MS_32},
    {NOTE_B1, MS_32},
    {NOTE_E2, MS_32},
    {NOTE_E2, MS_32},
    {NOTE_B1, MS_32},
    {NOTE_B1, MS_32},
    {NOTE_D2, MS_32},
    {NOTE_D2, MS_32},
    {NOTE_B1, MS_32},
    {NOTE_B1, MS_32},
    {NOTE_B1, MS_32},
    {NOTE_B1, MS_32},
    {NOTE_FS2, MS_32},
    {NOTE_D2, MS_32},
    {NOTE_D2, MS_32},
    {NOTE_FS2, MS_32},
    {NOTE_B1, MS_32},
    {NOTE_B1, MS_32},
    {NOTE_FS2, MS_32},
    {NOTE_FS2, MS_32},
    {NOTE_B1, MS_32},
    {NOTE_B1, MS_32},
    {NOTE_D2, MS_32},
    {NOTE_D2, MS_32},
    {NOTE_B1, MS_32},
    {NOTE_B1, MS_32},
    {NOTE_B1, MS_32},
    {NOTE_B1, MS_32},
    {NOTE_FS2, MS_32},
    {NOTE_D2, MS_32},
    {NOTE_D2, MS_32},
    {NOTE_FS2, MS_32},
    {NOTE_B1, MS_32},
    {NOTE_B1, MS_32},
    {NOTE_E2, MS_32},
    {NOTE_E2, MS_32},
    {NOTE_B1, MS_32},
    {NOTE_B1, MS_32},
    {NOTE_D2, MS_32},
    {NOTE_D2, MS_32},
    {NOTE_B1, MS_32},
    {NOTE_B1, MS_32},
    {NOTE_B1, MS_32},
    {NOTE_B1, MS_32},
    {NOTE_FS2, MS_32},
    {NOTE_D2, MS_32},
    {NOTE_D2, MS_32},
    {NOTE_FS2, MS_32},
    {NOTE_B1, MS_32},
    {NOTE_B1, MS_32},
    {NOTE_D2, MS_32},
    {NOTE_D2, MS_32},
    {NOTE_B1, MS_32},
    {NOTE_B1, MS_32},
    {NOTE_FS2, MS_32},
    {NOTE_D2, MS_32},
    {NOTE_B1, MS_32},
    {NOTE_B1, MS_32},
    {NOTE_B1, MS_32},
    {NOTE_B1, MS_32},
    {NOTE_E2, MS_32},
    {NOTE_D2, MS_32},
    {NOTE_D2, MS_32},
    {NOTE_E2, MS_32},
    {NOTE_B1, MS_32},
    {NOTE_B1, MS_32},
    {NOTE_E2, MS_32},
    {NOTE_E2, MS_32},
    {NOTE_B1, MS_32},
    {NOTE_B1, MS_32},
    {NOTE_E2, MS_32},
    {NOTE_E2, MS_32},
    {NOTE_B1, MS_32},
    {NOTE_B1, MS_32},
    {NOTE_B1, MS_16},
    {NOTE_FS2, MS_32},
    {NOTE_D2, MS_32},
    {NOTE_D2, MS_32},
    {NOTE_FS2, MS_32},
    {NOTE_B1, MS_16},
    {NOTE_FS2, MS_16},
    {NOTE_B1, MS_16},
    {NOTE_D2, MS_16},
    {NOTE_B1, MS_16},
    {NOTE_B1, MS_16},
    {NOTE_AS2, MS_32},
    {NOTE_D2, MS_32},
    {NOTE_D2, MS_32},
    {NOTE_AS2, MS_32},
    {NOTE_B1, MS_16},
    {NOTE_AS2, MS_16},
    {NOTE_B1, MS_16},
    {NOTE_D2, MS_32},
    {NOTE_D2, MS_32},
    {NOTE_B1, MS_16},
    {NOTE_B1, MS_16},
    {NOTE_A2, MS_32},
    {NOTE_D2, MS_32},
    {NOTE_D2, MS_32},
    {NOTE_A2, MS_32},
    {NOTE_B1, MS_16},
    {NOTE_A2, MS_16},
    {NOTE_B1, MS_16},
    {NOTE_D2, MS_32},
    {NOTE_D2, MS_32},
    {NOTE_B1, MS_16},
    {NOTE_B1, MS_16},
    {NOTE_E2, MS_32},
    {NOTE_D2, MS_32},
    {NOTE_D2, MS_32},
    {NOTE_E2, MS_32},
    {NOTE_B1, MS_16},
    {NOTE_E2, MS_16},
    {NOTE_B1, MS_16},
    {NOTE_D2, MS_32},
    {NOTE_D2, MS_32},
    {NOTE_B1, MS_16},
    {NOTE_B1, MS_16},
    {NOTE_FS2, MS_32},
    {NOTE_D2, MS_32},
    {NOTE_D2, MS_32},
    {NOTE_FS2, MS_32},
    {NOTE_B1, MS_16},
    {NOTE_FS2, MS_16},
    {NOTE_B1, MS_16},
    {NOTE_D2, MS_16},
    {NOTE_B1, MS_16},
    {NOTE_B1, MS_16},
    {NOTE_AS2, MS_32},
    {NOTE_D2, MS_32},
    {NOTE_D2, MS_32},
    {NOTE_AS2, MS_32},
    {NOTE_B1, MS_16},
    {NOTE_AS2, MS_16},
    {NOTE_B1, MS_16},
    {NOTE_D2, MS_32},
    {NOTE_D2, MS_32},
    {NOTE_B1, MS_16},
    {NOTE_B1, MS_16},
    {NOTE_A2, MS_32},
    {NOTE_D2, MS_32},
    {NOTE_D2, MS_32},
    {NOTE_A2, MS_32},
    {NOTE_B1, MS_16},
    {NOTE_A2, MS_16},
    {NOTE_B1, MS_16},
    {NOTE_D2, MS_32},
    {NOTE_D2, MS_32},
    {NOTE_B1, MS_16},
    {NOTE_B1, MS_16},
    {NOTE_E2, MS_32},
    {NOTE_D2, MS_32},
    {NOTE_D2, MS_32},
    {NOTE_E2, MS_32},
    {NOTE_B1, MS_16},
    {NOTE_E2, MS_16},
    {NOTE_B1, MS_16},
    {NOTE_D2, MS_32},
    {NOTE_D2, MS_32},
    {NOTE_D2, MS_32},
    {NOTE_D2, MS_32},
    {NOTE_B1, MS_16},
    {NOTE_FS2, MS_32},
    {NOTE_D2, MS_32},
    {NOTE_D2, MS_32},
    {NOTE_FS2, MS_32},
    {NOTE_B1, MS_16},
    {NOTE_FS2, MS_16},
    {NOTE_B1, MS_16},
    {NOTE_D2, MS_32},
    {NOTE_D2, MS_32},
    {NOTE_B1, MS_16},
    {NOTE_B1, MS_16},
    {NOTE_D4, MS_32},
    {NOTE_D2, MS_32},
    {NOTE_D2, MS_32},
    {NOTE_FS2, MS_32},
    {NOTE_B1, MS_16},
    {NOTE_FS2, MS_16},
    {NOTE_B1, MS_16},
    {NOTE_D2, MS_32},
    {NOTE_D2, MS_32},
    {NOTE_B1, MS_16},
    {NOTE_B1, MS_16},
    {NOTE_FS2, MS_32},
    {NOTE_D2, MS_32},
    {NOTE_D2, MS_32},
    {NOTE_FS2, MS_32},
    {NOTE_B1, MS_16},
    {NOTE_FS2, MS_16},
    {NOTE_B1, MS_16},
    {NOTE_D2, MS_32},
    {NOTE_D2, MS_32},
    {NOTE_B1, MS_16},
    {NOTE_B1, MS_16},
    {NOTE_E2, MS_32},
    {NOTE_D2, MS_32},
    {NOTE_D2, MS_32},
    {NOTE_E2, MS_32},
    {NOTE_B1, MS_16},
    {NOTE_E2, MS_16},
    {NOTE_B1, MS_16},
    {NOTE_D2, MS_32},
    {NOTE_D2, MS_32},
    {NOTE_B1, MS_16},
    {NOTE_B1, MS_16},
    {NOTE_FS2, MS_32},
    {NOTE_D2, MS_32},
    {NOTE_D2, MS_32},
    {NOTE_FS2, MS_32},
    {NOTE_B1, MS_16},
    {NOTE_FS2, MS_16},
    {NOTE_B1, MS_16},
    {NOTE_D2, MS_32},
    {NOTE_D2, MS_32},
    {NOTE_B1, MS_16},
    {NOTE_B1, MS_16},
    {NOTE_CS4, MS_32},
    {NOTE_D2, MS_32},
    {NOTE_D2, MS_32},
    {NOTE_FS2, MS_32},
    {NOTE_B1, MS_16},
    {NOTE_FS2, MS_16},
    {NOTE_B1, MS_16},
    {NOTE_D2, MS_32},
    {NOTE_D2, MS_32},
    {NOTE_B1, MS_16},
    {NOTE_B1, MS_16},
    {NOTE_FS2, MS_32},
    {NOTE_D2, MS_32},
    {NOTE_D2, MS_32},
    {NOTE_FS2, MS_32},
    {NOTE_B1, MS_16},
    {NOTE_FS2, MS_16},
    {NOTE_B1, MS_16},
    {NOTE_D2, MS_32},
    {NOTE_D2, MS_32},
    {NOTE_B1, MS_16},
    {NOTE_B1, MS_16},
    {NOTE_E2, MS_32},
    {NOTE_D2, MS_32},
    {NOTE_D2, MS_32},
    {NOTE_E2, MS_32},
    {NOTE_B1, MS_16},
    {NOTE_E2, MS_16},
    {NOTE_B1, MS_16},
    {NOTE_D2, MS_32},
    {NOTE_D2, MS_32},
    {NOTE_E2, MS_16},
    {NOTE_B1, MS_32},
    {NOTE_B1, MS_32},
    {NOTE_FS2, MS_32},
    {NOTE_D2, MS_32},
    {NOTE_D2, MS_32},
    {NOTE_FS2, MS_32},
    {NOTE_B1, MS_32},
    {NOTE_B1, MS_32},
    {NOTE_D2, MS_32},
    {NOTE_D2, MS_32},
    {NOTE_B1, MS_32},
    {NOTE_B1, MS_32},
    {NOTE_FS2, MS_32},
    {NOTE_D2, MS_32},
    {NOTE_B1, MS_32},
    {NOTE_B1, MS_32},
    {NOTE_B1, MS_32},
    {NOTE_B1, MS_32},
    {NOTE_E2, MS_32},
    {NOTE_D2, MS_32},
    {NOTE_D2, MS_32},
    {NOTE_E2, MS_32},
    {NOTE_B1, MS_32},
    {NOTE_B1, MS_32},
    {NOTE_E2, MS_32},
    {NOTE_E2, MS_32},
    {NOTE_B1, MS_32},
    {NOTE_B1, MS_32},
    {NOTE_D2, MS_32},
    {NOTE_D2, MS_32},
    {NOTE_B1, MS_32},
    {NOTE_B1, MS_32},
    {NOTE_B1, MS_32},
    {NOTE_B1, MS_32},
    {NOTE_FS2, MS_32},
    {NOTE_D2, MS_32},
    {NOTE_D2, MS_32},
    {NOTE_FS2, MS_32},
    {NOTE_B1, MS_32},
    {NOTE_B1, MS_32},
    {NOTE_FS2, MS_32},
    {NOTE_FS2, MS_32},
    {NOTE_B1, MS_32},
    {NOTE_B1, MS_32},
    {NOTE_D2, MS_32},
    {NOTE_D2, MS_32},
    {NOTE_B1, MS_32},
    {NOTE_B1, MS_32},
    {NOTE_B1, MS_32},
    {NOTE_B1, MS_32},
    {NOTE_FS2, MS_32},
    {NOTE_D2, MS_32},
    {NOTE_D2, MS_32},
    {NOTE_FS2, MS_32},
    {NOTE_B1, MS_32},
    {NOTE_B1, MS_32},
    {NOTE_E2, MS_32},
    {NOTE_E2, MS_32},
    {NOTE_B1, MS_32},
    {NOTE_B1, MS_32},
    {NOTE_D2, MS_32},
    {NOTE_D2, MS_32},
    {NOTE_B1, MS_32},
    {NOTE_B1, MS_32},
    {NOTE_B1, MS_32},
    {NOTE_B1, MS_32},
    {NOTE_FS2, MS_32},
    {NOTE_D2, MS_32},
    {NOTE_D2, MS_32},
    {NOTE_FS2, MS_32},
    {NOTE_B1, MS_32},
    {NOTE_B1, MS_32},
    {NOTE_D2, MS_32},
    {NOTE_D2, MS_32},
    {NOTE_B1, MS_32},
    {NOTE_B1, MS_32},
    {NOTE_FS2, MS_32},
    {NOTE_D2, MS_32},
    {NOTE_B1, MS_32},
    {NOTE_B1, MS_32},
    {NOTE_B1, MS_32},
    {NOTE_B1, MS_32},
    {NOTE_E2, MS_32},
    {NOTE_D2, MS_32},
    {NOTE_D2, MS_32},
    {NOTE_E2, MS_32},
    {NOTE_B1, MS_32},
    {NOTE_B1, MS_32},
    {NOTE_E2, MS_32},
    {NOTE_E2, MS_32},
    {NOTE_B1, MS_32},
    {NOTE_B1, MS_32},
    {NOTE_D2, MS_32},
    {NOTE_D2, MS_32},
    {NOTE_B1, MS_32},
    {NOTE_B1, MS_32},
    {NOTE_B1, MS_32},
    {NOTE_B1, MS_32},
    {NOTE_FS2, MS_32},
    {NOTE_D2, MS_32},
    {NOTE_D2, MS_32},
    {NOTE_FS2, MS_32},
    {NOTE_B1, MS_32},
    {NOTE_B1, MS_32},
    {NOTE_FS2, MS_32},
    {NOTE_FS2, MS_32},
    {NOTE_B1, MS_32},
    {NOTE_B1, MS_32},
    {NOTE_D2, MS_32},
    {NOTE_D2, MS_32},
    {NOTE_B1, MS_32},
    {NOTE_B1, MS_32},
    {NOTE_B1, MS_32},
    {NOTE_B1, MS_32},
    {NOTE_FS2, MS_32},
    {NOTE_D2, MS_32},
    {NOTE_D2, MS_32},
    {NOTE_FS2, MS_32},
    {NOTE_B1, MS_32},
    {NOTE_B1, MS_32},
    {NOTE_FS2, MS_32},
    {NOTE_FS2, MS_32},
    {NOTE_B1, MS_32},
    {NOTE_B1, MS_32},
    {NOTE_D2, MS_32},
    {NOTE_D2, MS_32},
    {NOTE_B1, MS_32},
    {NOTE_B1, MS_32},
    {NOTE_B1, MS_16},
    {NOTE_FS2, MS_32},
    {NOTE_D2, MS_32},
    {NOTE_D2, MS_32},
    {NOTE_FS2, MS_32},
    {NOTE_B1, MS_16},
    {NOTE_FS2, MS_16},
    {NOTE_B1, MS_16},
    {NOTE_D2, MS_16},
    {NOTE_B1, MS_16},
    {NOTE_B1, MS_16},
    {NOTE_AS2, MS_32},
    {NOTE_D2, MS_32},
    {NOTE_D2, MS_32},
    {NOTE_AS2, MS_32},
    {NOTE_B1, MS_16},
    {NOTE_AS2, MS_16},
    {NOTE_B1, MS_16},
    {NOTE_D2, MS_32},
    {NOTE_D2, MS_32},
    {NOTE_B1, MS_16},
    {NOTE_B1, MS_16},
    {NOTE_A2, MS_32},
    {NOTE_D2, MS_32},
    {NOTE_D2, MS_32},
    {NOTE_A2, MS_32},
    {NOTE_B1, MS_16},
    {NOTE_A2, MS_16},
    {NOTE_B1, MS_16},
    {NOTE_D2, MS_32},
    {NOTE_D2, MS_32},
    {NOTE_B1, MS_16},
    {NOTE_B1, MS_16},
    {NOTE_E2, MS_32},
    {NOTE_D2, MS_32},
    {NOTE_D2, MS_32},
    {NOTE_E2, MS_32},
    {NOTE_B1, MS_16},
    {NOTE_E2, MS_16},
    {NOTE_B1, MS_16},
    {NOTE_D2, MS_32},
    {NOTE_D2, MS_32},
    {NOTE_B1, MS_16},
    {NOTE_B1, MS_16},
    {NOTE_FS2, MS_32},
    {NOTE_D2, MS_32},
    {NOTE_D2, MS_32},
    {NOTE_FS2, MS_32},
    {NOTE_B1, MS_16},
    {NOTE_FS2, MS_16},
    {NOTE_B1, MS_16},
    {NOTE_D2, MS_16},
    {NOTE_B1, MS_16},
    {NOTE_B1, MS_16},
    {NOTE_AS2, MS_32},
    {NOTE_D2, MS_32},
    {NOTE_D2, MS_32},
    {NOTE_AS2, MS_32},
    {NOTE_B1, MS_16},
    {NOTE_AS2, MS_16},
    {NOTE_B1, MS_16},
    {NOTE_D2, MS_32},
    {NOTE_D2, MS_32},
    {NOTE_B1, MS_16},
    {NOTE_B1, MS_16},
    {NOTE_A2, MS_32},
    {NOTE_D2, MS_32},
    {NOTE_D2, MS_32},
    {NOTE_A2, MS_32},
    {NOTE_B1, MS_16},
    {NOTE_A2, MS_16},
    {NOTE_B1, MS_16},
    {NOTE_D2, MS_32},
    {NOTE_D2, MS_32},
    {NOTE_B1, MS_16},
    {NOTE_B1, MS_16},
    {NOTE_E2, MS_32},
    {NOTE_D2, MS_32},
    {NOTE_D2, MS_32},
    {NOTE_E2, MS_32},
    {NOTE_B1, MS_16},
    {NOTE_E2, MS_16},
    {NOTE_B1, MS_16},
    {NOTE_D2, MS_32},
    {NOTE_D2, MS_32},
    {NOTE_D2, MS_32},
    {NOTE_D2, MS_32},
    {NOTE_B1, MS_16},
    {NOTE_D2, MS_32},
    {NOTE_B1, MS_32},
    {NOTE_D2, MS_32},
    {NOTE_D2, MS_32},
    {NOTE_B1, MS_16},
    {NOTE_AS2, MS_16},
    {NOTE_B1, MS_16},
    {NOTE_FS2, MS_32},
    {NOTE_FS2, MS_32},
    {NOTE_FS2, MS_16},
    {NOTE_B1, MS_16},
    {NOTE_E2, MS_32},
    {NOTE_B1, MS_32},
    {NOTE_D2, MS_32},
    {NOTE_D2, MS_32},
    {NOTE_B1, MS_16},
    {NOTE_E2, MS_16},
    {NOTE_B1, MS_16},
    {NOTE_D2, MS_32},
    {NOTE_D2, MS_32},
    {NOTE_D2, MS_16},
    {NOTE_B1, MS_16},
    {NOTE_FS2, MS_32},
    {NOTE_B1, MS_32},
    {NOTE_D2, MS_32},
    {NOTE_D2, MS_32},
    {NOTE_B1, MS_16},
    {NOTE_GS2, MS_16},
    {NOTE_B1, MS_16},
    {NOTE_D2, MS_32},
    {NOTE_D2, MS_32},
    {NOTE_D2, MS_16},
    {NOTE_B1, MS_16},
    {NOTE_A2, MS_32},
    {NOTE_B1, MS_32},
    {NOTE_D2, MS_32},
    {NOTE_D2, MS_32},
    {NOTE_B1, MS_16},
    {NOTE_E2, MS_16},
    {NOTE_B1, MS_16},
    {NOTE_D2, MS_32},
    {NOTE_D2, MS_32},
    {NOTE_D2, MS_16},
    {NOTE_B1, MS_16},
    {NOTE_D2, MS_32},
    {NOTE_B1, MS_32},
    {NOTE_D2, MS_32},
    {NOTE_D2, MS_32},
    {NOTE_B1, MS_16},
    {NOTE_AS2, MS_16},
    {NOTE_B1, MS_16},
    {NOTE_FS2, MS_32},
    {NOTE_FS2, MS_32},
    {NOTE_FS2, MS_16},
    {NOTE_B1, MS_16},
    {NOTE_E2, MS_32},
    {NOTE_B1, MS_32},
    {NOTE_D2, MS_32},
    {NOTE_D2, MS_32},
    {NOTE_B1, MS_16},
    {NOTE_E2, MS_16},
    {NOTE_B1, MS_16},
    {NOTE_D2, MS_32},
    {NOTE_D2, MS_32},
    {NOTE_D2, MS_16},
    {NOTE_B1, MS_16},
    {NOTE_CS2, MS_32},
    {NOTE_B1, MS_32},
    {NOTE_CS2, MS_32},
    {NOTE_CS2, MS_32},
    {NOTE_B1, MS_16},
    {NOTE_CS2, MS_16},
    {NOTE_B1, MS_16},
    {NOTE_CS2, MS_32},
    {NOTE_CS2, MS_32},
    {NOTE_CS2, MS_16},
    {NOTE_B1, MS_16},
    {NOTE_CS2, MS_32},
    {NOTE_B1, MS_32},
    {NOTE_CS2, MS_32},
    {NOTE_CS2, MS_32},
    {NOTE_B1, MS_16},
    {NOTE_CS2, MS_16},
    {NOTE_B1, MS_16},
    {NOTE_CS2, MS_32},
    {NOTE_CS2, MS_32},
    {NOTE_CS2, MS_16},
    {NOTE_B1, MS_16},
    {NOTE_CS2, MS_32},
    {NOTE_B1, MS_32},
    {NOTE_CS2, MS_32},
    {NOTE_CS2, MS_32},
    {NOTE_B1, MS_16},
    {NOTE_CS2, MS_32},
    {NOTE_CS2, MS_32},
    {NOTE_CS2, MS_16},
    {NOTE_CS2, MS_32},
    {NOTE_CS2, MS_32},
    {NOTE_CS2, MS_32},
    {NOTE_CS2, MS_32},
    {NOTE_B1, MS_16},
    {NOTE_FS2, MS_32},
    {NOTE_D2, MS_32},
    {NOTE_D2, MS_32},
    {NOTE_FS2, MS_32},
    {NOTE_B1, MS_16},
    {NOTE_FS2, MS_16},
    {NOTE_B1, MS_16},
    {NOTE_D2, MS_16},
    {NOTE_B1, MS_16},
    {NOTE_B1, MS_16},
    {NOTE_AS2, MS_32},
    {NOTE_D2, MS_32},
    {NOTE_D2, MS_32},
    {NOTE_AS2, MS_32},
    {NOTE_B1, MS_16},
    {NOTE_AS2, MS_16},
    {NOTE_B1, MS_16},
    {NOTE_D2, MS_32},
    {NOTE_D2, MS_32},
    {NOTE_B1, MS_16},
    {NOTE_B1, MS_16},
    {NOTE_A2, MS_32},
    {NOTE_D2, MS_32},
    {NOTE_D2, MS_32},
    {NOTE_A2, MS_32},
    {NOTE_B1, MS_16},
    {NOTE_A2, MS_16},
    {NOTE_B1, MS_16},
    {NOTE_D2, MS_32},
    {NOTE_D2, MS_32},
    {NOTE_B1, MS_16},
    {NOTE_B1, MS_16},
    {NOTE_E2, MS_32},
    {NOTE_D2, MS_32},
    {NOTE_D2, MS_32},
    {NOTE_E2, MS_32},
    {NOTE_B1, MS_16},
    {NOTE_E2, MS_16},
    {NOTE_B1, MS_16},
    {NOTE_D2, MS_32},
    {NOTE_D2, MS_32},
    {NOTE_B1, MS_16},
    {NOTE_B1, MS_16},
    {NOTE_FS2, MS_32},
    {NOTE_D2, MS_32},
    {NOTE_D2, MS_32},
    {NOTE_FS2, MS_32},
    {NOTE_B1, MS_16},
    {NOTE_FS2, MS_16},
    {NOTE_B1, MS_16},
    {NOTE_D2, MS_16},
    {NOTE_B1, MS_16},
    {NOTE_B1, MS_16},
    {NOTE_AS2, MS_32},
    {NOTE_D2, MS_32},
    {NOTE_D2, MS_32},
    {NOTE_AS2, MS_32},
    {NOTE_B1, MS_16},
    {NOTE_AS2, MS_16},
    {NOTE_B1, MS_16},
    {NOTE_D2, MS_32},
    {NOTE_D2, MS_32},
    {NOTE_B1, MS_16},
    {NOTE_B1, MS_16},
    {NOTE_A2, MS_32},
    {NOTE_D2, MS_32},
    {NOTE_D2, MS_32},
    {NOTE_A2, MS_32},
    {NOTE_B1, MS_16},
    {NOTE_A2, MS_16},
    {NOTE_B1, MS_16},
    {NOTE_D2, MS_32},
    {NOTE_D2, MS_32},
    {NOTE_B1, MS_16},
    {NOTE_B1, MS_16},
    {NOTE_E2, MS_32},
    {NOTE_D2, MS_32},
    {NOTE_D2, MS_32},
    {NOTE_E2, MS_32},
    {NOTE_B1, MS_16},
    {NOTE_E2, MS_16},
    {NOTE_B1, MS_16},
    {NOTE_D2, MS_32},
    {NOTE_D2, MS_32},
    {NOTE_D2, MS_32},
    {NOTE_D2, MS_32},
    {NOTE_B1, MS_16},
    {NOTE_FS2, MS_32},
    {NOTE_D2, MS_32},
    {NOTE_D2, MS_32},
    {NOTE_FS2, MS_32},
    {NOTE_B1, MS_16},
    {NOTE_FS2, MS_16},
    {NOTE_B1, MS_16},
    {NOTE_D2, MS_16},
    {NOTE_B1, MS_16},
    {NOTE_B1, MS_16},
    {NOTE_AS2, MS_32},
    {NOTE_D2, MS_32},
    {NOTE_D2, MS_32},
    {NOTE_AS2, MS_32},
    {NOTE_B1, MS_16},
    {NOTE_AS2, MS_16},
    {NOTE_B1, MS_16},
    {NOTE_D2, MS_32},
    {NOTE_D2, MS_32},
    {NOTE_B1, MS_16},
    {NOTE_B1, MS_16},
    {NOTE_A2, MS_32},
    {NOTE_D2, MS_32},
    {NOTE_D2, MS_32},
    {NOTE_A2, MS_32},
    {NOTE_B1, MS_16},
    {NOTE_A2, MS_16},
    {NOTE_B1, MS_16},
    {NOTE_D2, MS_32},
    {NOTE_D2, MS_32},
    {NOTE_B1, MS_16},
    {NOTE_B1, MS_16},
    {NOTE_E2, MS_32},
    {NOTE_D2, MS_32},
    {NOTE_D2, MS_32},
    {NOTE_E2, MS_32},
    {NOTE_B1, MS_16},
    {NOTE_E2, MS_16},
    {NOTE_B1, MS_16},
    {NOTE_D2, MS_32},
    {NOTE_D2, MS_32},
    {NOTE_B1, MS_16},
    {NOTE_B1, MS_16},
    {NOTE_FS2, MS_32},
    {NOTE_D2, MS_32},
    {NOTE_D2, MS_32},
    {NOTE_FS2, MS_32},
    {NOTE_B1, MS_16},
    {NOTE_FS2, MS_16},
    {NOTE_B1, MS_16},
    {NOTE_D2, MS_16},
    {NOTE_B1, MS_16},
    {NOTE_B1, MS_16},
    {NOTE_AS2, MS_32},
    {NOTE_D2, MS_32},
    {NOTE_D2, MS_32},
    {NOTE_AS2, MS_32},
    {NOTE_B1, MS_16},
    {NOTE_AS2, MS_16},
    {NOTE_B1, MS_16},
    {NOTE_D2, MS_32},
    {NOTE_D2, MS_32},
    {NOTE_B1, MS_16},
    {NOTE_B1, MS_16},
    {NOTE_A2, MS_32},
    {NOTE_D2, MS_32},
    {NOTE_D2, MS_32},
    {NOTE_A2, MS_32},
    {NOTE_B1, MS_16},
    {NOTE_A2, MS_16},
    {NOTE_B1, MS_16},
    {NOTE_D2, MS_32},
    {NOTE_D2, MS_32},
    {NOTE_B1, MS_16},
    {NOTE_B1, MS_16},
    {NOTE_E2, MS_32},
    {NOTE_D2, MS_32},
    {NOTE_D2, MS_32},
    {NOTE_E2, MS_32},
    {NOTE_B1, MS_16},
    {NOTE_E2, MS_16},
    {NOTE_B1, MS_16},
    {NOTE_D2, MS_32},
    {NOTE_D2, MS_32},
    {NOTE_D2, MS_32},
    {NOTE_D2, MS_32},
    {NOTE_FS2, MS_32},
    {NOTE_FS2, MS_32},
    {NOTE_FS2, MS_32},
    {NOTE_FS2, MS_32},
    {NOTE_FS2, MS_32},
    {NOTE_FS2, MS_32},
    {NOTE_FS2, MS_32},
    {NOTE_FS2, MS_32},
    {NOTE_FS2, MS_16},
    {NOTE_FS2, MS_16},
    {NOTE_FS2, MS_32},
    {NOTE_FS2, MS_32},
    {NOTE_FS2, MS_16},
    {NOTE_FS2, MS_32},
    {NOTE_FS2, MS_32},
    {NOTE_FS2, MS_32},
    {NOTE_FS2, MS_32},
    {NOTE_FS2, MS_32},
    {NOTE_FS2, MS_32},
    {NOTE_FS2, MS_32},
    {NOTE_FS2, MS_32},
    {NOTE_FS2, MS_16},
    {NOTE_FS2, MS_16},
    {NOTE_FS2, MS_32},
    {NOTE_FS2, MS_32},
    {NOTE_FS2, MS_16},
    {NOTE_FS2, MS_32},
    {NOTE_FS2, MS_32},
    {NOTE_FS2, MS_32},
    {NOTE_FS2, MS_32},
    {NOTE_FS2, MS_32},
    {NOTE_FS2, MS_32},
    {NOTE_FS2, MS_32},
    {NOTE_FS2, MS_32},
    {NOTE_FS2, MS_16},
    {NOTE_FS2, MS_16},
    {NOTE_FS2, MS_32},
    {NOTE_FS2, MS_32},
    {NOTE_FS2, MS_16},
    {NOTE_FS2, MS_32},
    {NOTE_FS2, MS_32},
    {NOTE_FS2, MS_32},
    {NOTE_FS2, MS_32},
    {NOTE_FS2, MS_32},
    {NOTE_FS2, MS_32},
    {NOTE_FS2, MS_32},
    {NOTE_FS2, MS_32},
    {NOTE_FS2, MS_16},
    {NOTE_FS2, MS_16},
    {NOTE_FS2, MS_32},
    {NOTE_FS2, MS_32},
};

#define SONG_LINKIN_PARK_NUMB_MELODY_LEN (sizeof(song_linkin_park_numb_melody) / sizeof(Step))
#define SONG_LINKIN_PARK_NUMB_HARMONY_LEN (sizeof(song_linkin_park_numb_harmony) / sizeof(Step))
#define SONG_LINKIN_PARK_NUMB_BASS_LEN (sizeof(song_linkin_park_numb_bass) / sizeof(Step))