// Auto-generated by midi_to_3motors.py
// Song: Queen   Bohemian Rhapsody
#pragma once
#include "../notes.h"
#include "../player.h"

// Duration uses standard macros
// MELODY
static const Step song_queen___bohemian_rhapsody_melody[] = {
    {NOTE_CS5, MS_Q},
    {NOTE_AS4, MS_64},
    {NOTE_AS4, MS_64},
    {NOTE_AS4, MS_16},
    {NOTE_CS5, MS_64},
    {NOTE_F4, MS_64},
    {NOTE_REST, MS_32},
    {NOTE_F4, MS_Q},
    {NOTE_F4, MS_64},
    {NOTE_AS4, MS_64},
    {NOTE_REST, MS_64},
    {NOTE_AS4, MS_H},
    {NOTE_AS4, MS_64},
    {NOTE_AS4, MS_64},
    {NOTE_AS4, MS_64},
    {NOTE_REST, MS_64},
    {NOTE_AS4, MS_DQ},
    {NOTE_AS4, MS_64},
    {NOTE_CS5, MS_64},
    {NOTE_F4, MS_64},
    {NOTE_REST, MS_Q},
    {NOTE_DS4, MS_Q},
    {NOTE_DS4, MS_64},
    {NOTE_REST, MS_64},
    {NOTE_DS4, MS_Q},
    {NOTE_DS4, MS_64},
    {NOTE_DS4, MS_64},
    {NOTE_F4, MS_Q},
    {NOTE_F4, MS_64},
    {NOTE_F4, MS_64},
    {NOTE_G4, MS_Q},
    {NOTE_GS4, MS_16},
    {NOTE_G4, MS_H},
    {NOTE_DS4, MS_32},
    {NOTE_REST, MS_16},
    {NOTE_DS4, MS_Q},
    {NOTE_DS4, MS_64},
    {NOTE_DS4, MS_64},
    {NOTE_REST, MS_64},
    {NOTE_GS4, MS_Q},
    {NOTE_GS4, MS_64},
    {NOTE_REST, MS_64},
    {NOTE_C5, MS_Q},
    {NOTE_C5, MS_64},
    {NOTE_GS4, MS_64},
    {NOTE_FS4, MS_H},
    {NOTE_FS4, MS_16},
    {NOTE_GS4, MS_64},
    {NOTE_GS4, MS_Q},
    {NOTE_C5, MS_32},
    {NOTE_GS4, MS_Q},
    {NOTE_REST, MS_32},
    {NOTE_GS4, MS_16},
    {NOTE_CS5, MS_64},
    {NOTE_REST, MS_16},
    {NOTE_CS5, MS_16},
    {NOTE_CS5, MS_16},
    {NOTE_CS5, MS_64},
    {NOTE_AS4, MS_Q},
    {NOTE_AS4, MS_32},
    {NOTE_GS4, MS_Q},
    {NOTE_FS4, MS_Q},
    {NOTE_F4, MS_W},
    {NOTE_CS4, MS_64},
    {NOTE_REST, MS_Q},
    {NOTE_CS4, MS_Q},
    {NOTE_CS4, MS_64},
    {NOTE_CS4, MS_64},
    {NOTE_CS4, MS_64},
    {NOTE_AS3, MS_Q},
    {NOTE_AS3, MS_64},
    {NOTE_CS4, MS_Q},
    {NOTE_CS4, MS_64},
    {NOTE_CS4, MS_64},
    {NOTE_AS3, MS_Q},
    {NOTE_AS3, MS_64},
    {NOTE_CS4, MS_Q},
    {NOTE_CS4, MS_32},
    {NOTE_AS3, MS_Q},
    {NOTE_AS3, MS_32},
    {NOTE_CS4, MS_16},
    {NOTE_CS4, MS_64},
    {NOTE_CS4, MS_64},
    {NOTE_CS4, MS_64},
    {NOTE_CS4, MS_64},
    {NOTE_AS3, MS_32},
    {NOTE_AS2, MS_16},
    {NOTE_REST, MS_64},
    {NOTE_CS3, MS_Q},
    {NOTE_CS3, MS_64},
    {NOTE_CS3, MS_64},
    {NOTE_CS3, MS_64},
    {NOTE_CS3, MS_64},
    {NOTE_CS3, MS_Q},
    {NOTE_CS3, MS_Q},
    {NOTE_CS3, MS_64},
    {NOTE_CS3, MS_Q},
    {NOTE_CS3, MS_64},
    {NOTE_CS3, MS_Q},
    {NOTE_CS3, MS_64},
    {NOTE_CS3, MS_64},
    {NOTE_CS3, MS_Q},
    {NOTE_CS3, MS_64},
    {NOTE_CS3, MS_Q},
    {NOTE_CS3, MS_64},
    {NOTE_CS3, MS_32},
    {NOTE_CS3, MS_64},
    {NOTE_CS3, MS_16},
    {NOTE_CS3, MS_Q},
    {NOTE_CS3, MS_64},
    {NOTE_CS3, MS_64},
    {NOTE_CS3, MS_Q},
    {NOTE_CS3, MS_64},
    {NOTE_CS3, MS_Q},
    {NOTE_CS3, MS_64},
    {NOTE_CS3, MS_64},
    {NOTE_CS3, MS_Q},
    {NOTE_CS3, MS_64},
    {NOTE_CS3, MS_Q},
    {NOTE_CS3, MS_64},
    {NOTE_CS3, MS_64},
    {NOTE_CS3, MS_Q},
    {NOTE_CS3, MS_64},
    {NOTE_CS3, MS_32},
    {NOTE_CS3, MS_16},
    {NOTE_CS3, MS_Q},
    {NOTE_CS3, MS_64},
    {NOTE_DS3, MS_64},
    {NOTE_DS3, MS_Q},
    {NOTE_DS3, MS_64},
    {NOTE_DS3, MS_64},
    {NOTE_DS3, MS_64},
    {NOTE_DS3, MS_16},
    {NOTE_DS3, MS_64},
    {NOTE_DS3, MS_64},
    {NOTE_DS3, MS_Q},
    {NOTE_DS3, MS_64},
    {NOTE_DS3, MS_64},
    {NOTE_DS3, MS_64},
    {NOTE_DS3, MS_Q},
    {NOTE_DS3, MS_64},
    {NOTE_DS3, MS_16},
    {NOTE_DS3, MS_32},
    {NOTE_DS3, MS_64},
    {NOTE_DS3, MS_Q},
    {NOTE_DS3, MS_64},
    {NOTE_DS3, MS_16},
    {NOTE_DS3, MS_32},
    {NOTE_DS3, MS_64},
    {NOTE_DS3, MS_16},
    {NOTE_DS3, MS_16},
    {NOTE_DS3, MS_64},
    {NOTE_DS3, MS_64},
    {NOTE_DS3, MS_64},
    {NOTE_GS3, MS_16},
    {NOTE_GS3, MS_64},
    {NOTE_GS3, MS_32},
    {NOTE_GS3, MS_64},
    {NOTE_GS3, MS_64},
    {NOTE_C4, MS_Q},
    {NOTE_GS2, MS_64},
    {NOTE_GS2, MS_Q},
    {NOTE_GS2, MS_64},
    {NOTE_GS2, MS_64},
    {NOTE_GS2, MS_64},
    {NOTE_GS2, MS_32},
    {NOTE_GS2, MS_64},
    {NOTE_GS2, MS_16},
    {NOTE_GS2, MS_16},
    {NOTE_GS2, MS_64},
    {NOTE_DS3, MS_32},
    {NOTE_DS3, MS_Q},
    {NOTE_REST, MS_32},
    {NOTE_F4, MS_Q},
    {NOTE_REST, MS_64},
    {NOTE_FS4, MS_Q},
    {NOTE_DS4, MS_16},
    {NOTE_FS3, MS_32},
    {NOTE_FS3, MS_16},
    {NOTE_DS4, MS_64},
    {NOTE_DS4, MS_64},
    {NOTE_B4, MS_64},
    {NOTE_REST, MS_64},
    {NOTE_AS4, MS_16},
    {NOTE_F4, MS_64},
    {NOTE_F4, MS_64},
    {NOTE_AS2, MS_32},
    {NOTE_REST, MS_Q},
    {NOTE_A2, MS_16},
    {NOTE_A2, MS_64},
    {NOTE_E3, MS_64},
    {NOTE_REST, MS_64},
    {NOTE_E3, MS_16},
    {NOTE_E3, MS_64},
    {NOTE_E3, MS_64},
    {NOTE_E3, MS_64},
    {NOTE_CS4, MS_64},
    {NOTE_CS4, MS_64},
    {NOTE_REST, MS_32},
    {NOTE_D4, MS_16},
    {NOTE_F4, MS_32},
    {NOTE_AS4, MS_64},
    {NOTE_REST, MS_Q},
    {NOTE_B3, MS_16},
    {NOTE_FS3, MS_64},
    {NOTE_FS3, MS_64},
    {NOTE_FS3, MS_64},
    {NOTE_FS3, MS_32},
    {NOTE_FS3, MS_16},
    {NOTE_FS3, MS_64},
    {NOTE_DS4, MS_64},
    {NOTE_B4, MS_64},
    {NOTE_REST, MS_32},
    {NOTE_AS4, MS_16},
    {NOTE_AS4, MS_64},
    {NOTE_F4, MS_64},
    {NOTE_F4, MS_64},
    {NOTE_F4, MS_64},
    {NOTE_AS2, MS_64},
    {NOTE_REST, MS_Q},
    {NOTE_A2, MS_16},
    {NOTE_A2, MS_64},
    {NOTE_A2, MS_64},
    {NOTE_A2, MS_32},
    {NOTE_A2, MS_32},
    {NOTE_E3, MS_64},
    {NOTE_E3, MS_64},
    {NOTE_CS4, MS_32},
    {NOTE_REST, MS_64},
    {NOTE_D4, MS_Q},
    {NOTE_D4, MS_32},
    {NOTE_D4, MS_64},
    {NOTE_D4, MS_32},
    {NOTE_F3, MS_16},
    {NOTE_F3, MS_64},
    {NOTE_REST, MS_64},
    {NOTE_DS3, MS_64},
    {NOTE_DS3, MS_16},
    {NOTE_DS3, MS_32},
    {NOTE_DS3, MS_32},
    {NOTE_DS3, MS_64},
    {NOTE_DS3, MS_16},
    {NOTE_DS3, MS_64},
    {NOTE_DS3, MS_64},
    {NOTE_AS3, MS_16},
    {NOTE_AS3, MS_64},
    {NOTE_AS3, MS_64},
    {NOTE_AS3, MS_64},
    {NOTE_DS4, MS_Q},
    {NOTE_G4, MS_64},
    {NOTE_DS3, MS_64},
    {NOTE_DS3, MS_64},
    {NOTE_D3, MS_16},
    {NOTE_D3, MS_32},
    {NOTE_D3, MS_32},
    {NOTE_D3, MS_32},
    {NOTE_D3, MS_16},
    {NOTE_AS3, MS_64},
    {NOTE_AS3, MS_32},
    {NOTE_AS3, MS_16},
    {NOTE_AS3, MS_64},
    {NOTE_D4, MS_32},
    {NOTE_AS4, MS_16},
    {NOTE_D3, MS_64},
    {NOTE_D3, MS_64},
    {NOTE_CS3, MS_16},
    {NOTE_CS3, MS_32},
    {NOTE_CS3, MS_64},
    {NOTE_CS3, MS_32},
    {NOTE_CS3, MS_16},
    {NOTE_CS3, MS_64},
    {NOTE_CS3, MS_Q},
    {NOTE_CS3, MS_64},
    {NOTE_CS3, MS_64},
    {NOTE_CS3, MS_16},
    {NOTE_CS3, MS_64},
    {NOTE_CS3, MS_64},
    {NOTE_CS3, MS_64},
    {NOTE_CS3, MS_32},
    {NOTE_C3, MS_16},
    {NOTE_C3, MS_16},
    {NOTE_C3, MS_32},
    {NOTE_C3, MS_64},
    {NOTE_C3, MS_16},
    {NOTE_C3, MS_64},
    {NOTE_C3, MS_64},
    {NOTE_C3, MS_16},
    {NOTE_C3, MS_32},
    {NOTE_C3, MS_64},
    {NOTE_C4, MS_Q},
    {NOTE_C4, MS_Q},
    {NOTE_C4, MS_Q},
    {NOTE_C4, MS_32},
    {NOTE_A3, MS_Q},
    {NOTE_A3, MS_16},
    {NOTE_A3, MS_32},
    {NOTE_A3, MS_64},
    {NOTE_A3, MS_64},
    {NOTE_A3, MS_64},
    {NOTE_A3, MS_64},
    {NOTE_A3, MS_32},
    {NOTE_A3, MS_16},
    {NOTE_C4, MS_32},
    {NOTE_C3, MS_16},
    {NOTE_C3, MS_64},
    {NOTE_A3, MS_H},
    {NOTE_REST, MS_64},
    {NOTE_AS3, MS_Q},
    {NOTE_AS3, MS_32},
    {NOTE_F3, MS_16},
    {NOTE_F3, MS_Q},
    {NOTE_F3, MS_Q},
    {NOTE_F3, MS_32},
    {NOTE_AS3, MS_16},
    {NOTE_AS3, MS_Q},
    {NOTE_AS3, MS_64},
    {NOTE_AS3, MS_32},
    {NOTE_AS3, MS_16},
    {NOTE_AS3, MS_64},
    {NOTE_F3, MS_16},
    {NOTE_F3, MS_16},
    {NOTE_F3, MS_64},
    {NOTE_F3, MS_64},
    {NOTE_F3, MS_64},
    {NOTE_AS3, MS_64},
    {NOTE_AS3, MS_Q},
    {NOTE_AS3, MS_64},
    {NOTE_F3, MS_Q},
    {NOTE_F3, MS_Q},
    {NOTE_F3, MS_64},
    {NOTE_F3, MS_Q},
    {NOTE_F3, MS_32},
    {NOTE_AS3, MS_Q},
    {NOTE_AS3, MS_32},
    {NOTE_AS3, MS_16},
    {NOTE_AS3, MS_32},
    {NOTE_AS3, MS_16},
    {NOTE_F4, MS_64},
    {NOTE_F4, MS_32},
    {NOTE_F4, MS_16},
    {NOTE_G4, MS_64},
    {NOTE_G4, MS_64},
    {NOTE_G4, MS_64},
    {NOTE_D4, MS_64},
    {NOTE_D4, MS_16},
    {NOTE_D4, MS_64},
    {NOTE_D4, MS_Q},
    {NOTE_AS3, MS_Q},
    {NOTE_AS3, MS_Q},
    {NOTE_AS3, MS_64},
    {NOTE_AS3, MS_Q},
    {NOTE_AS3, MS_Q},
    {NOTE_AS3, MS_64},
    {NOTE_AS3, MS_16},
    {NOTE_AS3, MS_32},
    {NOTE_AS3, MS_64},
    {NOTE_AS3, MS_64},
    {NOTE_F3, MS_Q},
    {NOTE_F3, MS_64},
    {NOTE_F3, MS_64},
    {NOTE_AS3, MS_64},
    {NOTE_AS3, MS_64},
    {NOTE_AS3, MS_Q},
    {NOTE_AS3, MS_64},
    {NOTE_AS3, MS_64},
    {NOTE_G3, MS_32},
    {NOTE_G3, MS_16},
    {NOTE_G3, MS_64},
    {NOTE_G3, MS_32},
    {NOTE_G3, MS_Q},
    {NOTE_G3, MS_Q},
    {NOTE_G3, MS_16},
    {NOTE_AS3, MS_16},
    {NOTE_AS3, MS_64},
    {NOTE_AS3, MS_Q},
    {NOTE_AS3, MS_64},
    {NOTE_AS3, MS_16},
    {NOTE_AS3, MS_16},
    {NOTE_AS3, MS_32},
    {NOTE_G3, MS_64},
    {NOTE_G3, MS_16},
    {NOTE_G2, MS_64},
    {NOTE_G2, MS_64},
    {NOTE_C3, MS_64},
    {NOTE_C3, MS_16},
    {NOTE_C3, MS_64},
    {NOTE_C3, MS_16},
    {NOTE_C3, MS_64},
    {NOTE_C3, MS_16},
    {NOTE_C3, MS_16},
    {NOTE_C3, MS_16},
    {NOTE_C3, MS_16},
    {NOTE_C3, MS_16},
    {NOTE_C3, MS_32},
    {NOTE_C3, MS_16},
    {NOTE_C3, MS_64},
    {NOTE_C3, MS_Q},
    {NOTE_C3, MS_64},
    {NOTE_C3, MS_16},
    {NOTE_C3, MS_64},
    {NOTE_C3, MS_32},
    {NOTE_C3, MS_16},
    {NOTE_C2, MS_64},
    {NOTE_C4, MS_64},
    {NOTE_C4, MS_32},
    {NOTE_C4, MS_64},
    {NOTE_C4, MS_64},
    {NOTE_DS4, MS_64},
    {NOTE_DS4, MS_64},
    {NOTE_DS4, MS_16},
    {NOTE_G4, MS_64},
    {NOTE_G4, MS_64},
    {NOTE_G4, MS_64},
    {NOTE_G4, MS_32},
    {NOTE_G4, MS_32},
    {NOTE_G4, MS_32},
    {NOTE_C4, MS_64},
    {NOTE_C4, MS_64},
    {NOTE_C4, MS_32},
    {NOTE_C4, MS_64},
    {NOTE_C4, MS_16},
    {NOTE_DS4, MS_64},
    {NOTE_G4, MS_32},
    {NOTE_G4, MS_16},
    {NOTE_G4, MS_64},
    {NOTE_REST, MS_64},
    {NOTE_A4, MS_Q},
    {NOTE_A4, MS_Q},
    {NOTE_A4, MS_Q},
    {NOTE_F4, MS_64},
    {NOTE_F4, MS_64},
    {NOTE_C5, MS_32},
    {NOTE_F3, MS_16},
    {NOTE_AS3, MS_64},
    {NOTE_AS3, MS_16},
    {NOTE_AS3, MS_32},
    {NOTE_AS3, MS_32},
    {NOTE_D4, MS_Q},
    {NOTE_D4, MS_32},
    {NOTE_AS3, MS_Q},
    {NOTE_AS3, MS_64},
    {NOTE_AS3, MS_32},
    {NOTE_AS3, MS_16},
    {NOTE_AS3, MS_64},
    {NOTE_AS3, MS_64},
    {NOTE_AS3, MS_32},
    {NOTE_AS3, MS_64},
    {NOTE_AS3, MS_32},
    {NOTE_AS3, MS_64},
    {NOTE_AS3, MS_Q},
    {NOTE_AS3, MS_64},
    {NOTE_AS3, MS_64},
    {NOTE_AS3, MS_Q},
    {NOTE_AS3, MS_64},
    {NOTE_F3, MS_Q},
    {NOTE_F3, MS_64},
    {NOTE_AS2, MS_64},
    {NOTE_AS2, MS_64},
    {NOTE_G2, MS_64},
    {NOTE_G2, MS_64},
    {NOTE_G2, MS_Q},
    {NOTE_G2, MS_64},
    {NOTE_G2, MS_32},
    {NOTE_G2, MS_16},
    {NOTE_G2, MS_32},
    {NOTE_G2, MS_16},
    {NOTE_G2, MS_Q},
    {NOTE_G2, MS_64},
    {NOTE_G2, MS_Q},
    {NOTE_G2, MS_64},
    {NOTE_G2, MS_Q},
    {NOTE_G2, MS_64},
    {NOTE_G2, MS_32},
    {NOTE_G2, MS_16},
    {NOTE_G2, MS_64},
    {NOTE_G2, MS_64},
    {NOTE_G2, MS_32},
    {NOTE_G2, MS_64},
    {NOTE_G2, MS_16},
    {NOTE_G2, MS_64},
    {NOTE_G2, MS_64},
    {NOTE_C3, MS_64},
    {NOTE_C3, MS_16},
    {NOTE_C3, MS_64},
    {NOTE_C3, MS_64},
    {NOTE_C3, MS_64},
    {NOTE_C3, MS_32},
    {NOTE_C3, MS_64},
    {NOTE_C3, MS_16},
    {NOTE_C3, MS_Q},
    {NOTE_C3, MS_64},
    {NOTE_C3, MS_32},
    {NOTE_C3, MS_32},
    {NOTE_C3, MS_64},
    {NOTE_C3, MS_64},
    {NOTE_G3, MS_64},
    {NOTE_G3, MS_32},
    {NOTE_G4, MS_64},
    {NOTE_G4, MS_32},
    {NOTE_DS4, MS_32},
    {NOTE_DS4, MS_16},
    {NOTE_DS4, MS_32},
    {NOTE_G4, MS_16},
    {NOTE_G4, MS_64},
    {NOTE_G4, MS_64},
    {NOTE_DS4, MS_64},
    {NOTE_DS4, MS_64},
    {NOTE_DS4, MS_16},
    {NOTE_DS4, MS_64},
    {NOTE_DS4, MS_32},
    {NOTE_DS4, MS_64},
    {NOTE_G3, MS_16},
    {NOTE_AS3, MS_Q},
    {NOTE_GS3, MS_16},
    {NOTE_GS3, MS_16},
    {NOTE_GS2, MS_64},
    {NOTE_GS2, MS_64},
    {NOTE_GS2, MS_64},
    {NOTE_GS2, MS_32},
    {NOTE_GS2, MS_64},
    {NOTE_GS2, MS_64},
    {NOTE_GS2, MS_32},
    {NOTE_GS2, MS_64},
    {NOTE_GS2, MS_64},
    {NOTE_GS2, MS_64},
    {NOTE_GS2, MS_32},
    {NOTE_GS2, MS_32},
    {NOTE_GS2, MS_32},
    {NOTE_GS3, MS_64},
    {NOTE_C4, MS_64},
    {NOTE_AS3, MS_64},
    {NOTE_AS3, MS_64},
    {NOTE_AS3, MS_32},
    {NOTE_AS3, MS_32},
    {NOTE_AS3, MS_32},
    {NOTE_G3, MS_64},
    {NOTE_G3, MS_32},
    {NOTE_G3, MS_32},
    {NOTE_REST, MS_32},
    {NOTE_G2, MS_64},
    {NOTE_F2, MS_64},
    {NOTE_F2, MS_32},
    {NOTE_F2, MS_32},
    {NOTE_F2, MS_32},
    {NOTE_F2, MS_64},
    {NOTE_F2, MS_64},
    {NOTE_F2, MS_32},
    {NOTE_F2, MS_64},
    {NOTE_F2, MS_32},
    {NOTE_F2, MS_32},
    {NOTE_F2, MS_64},
    {NOTE_B1, MS_64},
    {NOTE_B1, MS_64},
    {NOTE_B1, MS_Q},
    {NOTE_B1, MS_64},
    {NOTE_B1, MS_64},
    {NOTE_B1, MS_64},
    {NOTE_B1, MS_64},
    {NOTE_B1, MS_16},
    {NOTE_B1, MS_32},
    {NOTE_B1, MS_32},
    {NOTE_B1, MS_32},
    {NOTE_E2, MS_32},
    {NOTE_E2, MS_64},
    {NOTE_E2, MS_64},
    {NOTE_E2, MS_64},
    {NOTE_E2, MS_64},
    {NOTE_E2, MS_64},
    {NOTE_E2, MS_16},
    {NOTE_E2, MS_64},
    {NOTE_E2, MS_64},
    {NOTE_E2, MS_32},
    {NOTE_E2, MS_16},
    {NOTE_E2, MS_64},
    {NOTE_E2, MS_64},
    {NOTE_DS2, MS_32},
    {NOTE_DS2, MS_32},
    {NOTE_DS2, MS_64},
    {NOTE_DS2, MS_64},
    {NOTE_D2, MS_64},
    {NOTE_D2, MS_32},
    {NOTE_D2, MS_64},
    {NOTE_D2, MS_16},
    {NOTE_D2, MS_64},
    {NOTE_D2, MS_64},
    {NOTE_D2, MS_64},
    {NOTE_D2, MS_64},
    {NOTE_D2, MS_64},
    {NOTE_D2, MS_64},
    {NOTE_D2, MS_64},
    {NOTE_D2, MS_64},
    {NOTE_D2, MS_64},
    {NOTE_E2, MS_64},
    {NOTE_E2, MS_64},
    {NOTE_E2, MS_64},
    {NOTE_E2, MS_64},
    {NOTE_E2, MS_16},
    {NOTE_E2, MS_32},
    {NOTE_C2, MS_64},
    {NOTE_C2, MS_Q},
    {NOTE_C2, MS_64},
    {NOTE_C2, MS_64},
    {NOTE_C2, MS_64},
    {NOTE_E2, MS_64},
    {NOTE_E2, MS_64},
    {NOTE_E2, MS_16},
    {NOTE_E2, MS_64},
    {NOTE_E2, MS_64},
    {NOTE_E2, MS_64},
    {NOTE_E2, MS_64},
    {NOTE_E2, MS_32},
    {NOTE_E2, MS_32},
    {NOTE_E2, MS_64},
    {NOTE_E2, MS_64},
    {NOTE_E2, MS_32},
    {NOTE_E2, MS_16},
    {NOTE_E2, MS_64},
    {NOTE_C2, MS_32},
    {NOTE_C2, MS_64},
    {NOTE_C2, MS_16},
    {NOTE_C2, MS_64},
    {NOTE_C2, MS_64},
    {NOTE_C2, MS_64},
    {NOTE_C2, MS_64},
    {NOTE_B1, MS_64},
    {NOTE_B1, MS_64},
    {NOTE_G1, MS_32},
    {NOTE_G1, MS_32},
    {NOTE_G1, MS_64},
    {NOTE_G1, MS_64},
    {NOTE_G1, MS_64},
    {NOTE_FS1, MS_64},
    {NOTE_FS1, MS_16},
    {NOTE_FS1, MS_64},
    {NOTE_FS1, MS_64},
    {NOTE_FS1, MS_64},
    {NOTE_FS1, MS_64},
    {NOTE_FS1, MS_64},
    {NOTE_F1, MS_64},
    {NOTE_F1, MS_64},
    {NOTE_F1, MS_16},
    {NOTE_F1, MS_64},
    {NOTE_F1, MS_64},
    {NOTE_F1, MS_64},
    {NOTE_F1, MS_64},
    {NOTE_F1, MS_64},
    {NOTE_F1, MS_16},
    {NOTE_F1, MS_64},
    {NOTE_F1, MS_64},
    {NOTE_F1, MS_64},
    {NOTE_F1, MS_64},
    {NOTE_F1, MS_64},
    {NOTE_F1, MS_64},
    {NOTE_F1, MS_64},
    {NOTE_F1, MS_32},
    {NOTE_F1, MS_32},
    {NOTE_F1, MS_64},
    {NOTE_B1, MS_64},
    {NOTE_B1, MS_64},
    {NOTE_E2, MS_32},
    {NOTE_E2, MS_64},
    {NOTE_E2, MS_64},
    {NOTE_E2, MS_64},
    {NOTE_E2, MS_64},
    {NOTE_B1, MS_64},
    {NOTE_B1, MS_16},
    {NOTE_B1, MS_32},
    {NOTE_B1, MS_64},
    {NOTE_B1, MS_64},
    {NOTE_B1, MS_64},
    {NOTE_B1, MS_64},
    {NOTE_B1, MS_16},
    {NOTE_DS2, MS_64},
    {NOTE_DS2, MS_64},
    {NOTE_DS2, MS_64},
    {NOTE_D2, MS_64},
    {NOTE_D2, MS_32},
    {NOTE_D2, MS_32},
    {NOTE_D2, MS_64},
    {NOTE_D2, MS_64},
    {NOTE_D2, MS_64},
    {NOTE_D2, MS_64},
    {NOTE_E2, MS_64},
    {NOTE_E2, MS_64},
    {NOTE_E2, MS_64},
    {NOTE_E2, MS_64},
    {NOTE_E2, MS_64},
    {NOTE_E2, MS_64},
    {NOTE_E2, MS_64},
    {NOTE_E2, MS_64},
    {NOTE_E2, MS_64},
    {NOTE_E2, MS_32},
    {NOTE_E2, MS_32},
    {NOTE_E2, MS_64},
    {NOTE_E2, MS_64},
    {NOTE_B1, MS_64},
    {NOTE_B1, MS_16},
    {NOTE_B1, MS_16},
    {NOTE_B1, MS_64},
    {NOTE_B1, MS_64},
    {NOTE_AS1, MS_64},
    {NOTE_AS1, MS_64},
    {NOTE_AS1, MS_32},
    {NOTE_E2, MS_32},
    {NOTE_E2, MS_64},
    {NOTE_E2, MS_64},
    {NOTE_E2, MS_64},
    {NOTE_E2, MS_64},
    {NOTE_E2, MS_32},
    {NOTE_E2, MS_16},
    {NOTE_E2, MS_64},
    {NOTE_E2, MS_64},
    {NOTE_E2, MS_64},
    {NOTE_B1, MS_64},
    {NOTE_B1, MS_16},
    {NOTE_B1, MS_32},
    {NOTE_B1, MS_64},
    {NOTE_B1, MS_64},
    {NOTE_B1, MS_64},
    {NOTE_B1, MS_64},
    {NOTE_B1, MS_64},
    {NOTE_B1, MS_64},
    {NOTE_B1, MS_32},
    {NOTE_B1, MS_64},
    {NOTE_B1, MS_64},
    {NOTE_B1, MS_64},
    {NOTE_B1, MS_64},
    {NOTE_AS1, MS_64},
    {NOTE_AS1, MS_64},
    {NOTE_AS1, MS_64},
    {NOTE_AS1, MS_64},
    {NOTE_AS1, MS_64},
    {NOTE_C2, MS_32},
    {NOTE_C2, MS_64},
    {NOTE_C2, MS_64},
    {NOTE_C2, MS_64},
    {NOTE_C2, MS_64},
    {NOTE_C2, MS_64},
    {NOTE_B1, MS_64},
    {NOTE_B1, MS_64},
    {NOTE_D2, MS_16},
    {NOTE_D2, MS_64},
    {NOTE_DS2, MS_16},
    {NOTE_DS2, MS_16},
    {NOTE_B1, MS_64},
    {NOTE_B1, MS_64},
    {NOTE_B1, MS_64},
    {NOTE_B1, MS_64},
    {NOTE_B1, MS_32},
    {NOTE_B1, MS_16},
    {NOTE_B1, MS_64},
    {NOTE_B1, MS_32},
    {NOTE_DS2, MS_64},
    {NOTE_DS2, MS_32},
    {NOTE_E2, MS_64},
    {NOTE_E2, MS_64},
    {NOTE_E2, MS_64},
    {NOTE_E2, MS_64},
    {NOTE_E2, MS_64},
    {NOTE_E2, MS_64},
    {NOTE_E2, MS_64},
    {NOTE_E2, MS_64},
    {NOTE_E2, MS_64},
    {NOTE_E2, MS_32},
    {NOTE_E2, MS_64},
    {NOTE_E2, MS_64},
    {NOTE_E2, MS_64},
    {NOTE_E2, MS_32},
    {NOTE_E2, MS_32},
    {NOTE_E2, MS_32},
    {NOTE_E2, MS_64},
    {NOTE_E2, MS_64},
    {NOTE_D2, MS_64},
    {NOTE_D2, MS_64},
    {NOTE_D2, MS_16},
    {NOTE_B1, MS_32},
    {NOTE_B1, MS_64},
    {NOTE_B1, MS_64},
    {NOTE_D2, MS_32},
    {NOTE_D2, MS_64},
    {NOTE_D2, MS_64},
    {NOTE_E2, MS_32},
    {NOTE_E2, MS_64},
    {NOTE_E2, MS_64},
    {NOTE_E2, MS_64},
    {NOTE_E2, MS_64},
    {NOTE_E2, MS_64},
    {NOTE_E2, MS_64},
    {NOTE_E2, MS_64},
    {NOTE_E2, MS_64},
    {NOTE_E2, MS_64},
    {NOTE_E2, MS_64},
    {NOTE_E2, MS_32},
    {NOTE_E2, MS_64},
    {NOTE_E2, MS_64},
    {NOTE_E2, MS_32},
    {NOTE_E2, MS_16},
    {NOTE_E2, MS_64},
    {NOTE_E2, MS_64},
    {NOTE_E2, MS_64},
    {NOTE_C2, MS_16},
    {NOTE_B1, MS_32},
    {NOTE_B1, MS_64},
    {NOTE_B1, MS_64},
    {NOTE_B1, MS_64},
    {NOTE_C2, MS_64},
    {NOTE_C2, MS_16},
    {NOTE_C2, MS_64},
    {NOTE_B1, MS_64},
    {NOTE_B1, MS_64},
    {NOTE_B1, MS_64},
    {NOTE_G1, MS_64},
    {NOTE_G1, MS_32},
    {NOTE_G1, MS_16},
    {NOTE_G1, MS_64},
    {NOTE_G1, MS_64},
    {NOTE_B1, MS_16},
    {NOTE_B1, MS_64},
    {NOTE_B1, MS_32},
    {NOTE_B1, MS_32},
    {NOTE_B1, MS_64},
    {NOTE_B1, MS_32},
    {NOTE_B1, MS_64},
    {NOTE_B1, MS_64},
    {NOTE_B1, MS_32},
    {NOTE_B1, MS_64},
    {NOTE_B1, MS_32},
    {NOTE_GS1, MS_64},
    {NOTE_GS1, MS_64},
    {NOTE_GS1, MS_32},
    {NOTE_GS1, MS_64},
    {NOTE_GS1, MS_32},
    {NOTE_GS1, MS_64},
    {NOTE_GS1, MS_64},
    {NOTE_GS1, MS_64},
    {NOTE_GS1, MS_64},
    {NOTE_GS1, MS_64},
    {NOTE_GS1, MS_64},
    {NOTE_GS1, MS_64},
    {NOTE_B1, MS_64},
    {NOTE_B1, MS_16},
    {NOTE_B1, MS_Q},
    {NOTE_B1, MS_Q},
    {NOTE_B1, MS_64},
    {NOTE_B1, MS_Q},
    {NOTE_B1, MS_32},
    {NOTE_B1, MS_Q},
    {NOTE_B1, MS_64},
    {NOTE_B1, MS_32},
    {NOTE_B1, MS_16},
    {NOTE_B1, MS_64},
    {NOTE_B1, MS_Q},
    {NOTE_B1, MS_64},
    {NOTE_B1, MS_64},
    {NOTE_B1, MS_Q},
    {NOTE_B1, MS_64},
    {NOTE_B1, MS_Q},
    {NOTE_B1, MS_32},
    {NOTE_B1, MS_Q},
    {NOTE_B1, MS_64},
    {NOTE_B1, MS_16},
    {NOTE_B1, MS_32},
    {NOTE_B1, MS_64},
    {NOTE_B1, MS_64},
    {NOTE_FS2, MS_64},
    {NOTE_FS2, MS_32},
    {NOTE_FS2, MS_32},
    {NOTE_FS2, MS_64},
    {NOTE_FS2, MS_64},
    {NOTE_FS2, MS_64},
    {NOTE_FS2, MS_64},
    {NOTE_FS2, MS_Q},
    {NOTE_B1, MS_64},
    {NOTE_B1, MS_32},
    {NOTE_B1, MS_16},
    {NOTE_AS1, MS_64},
    {NOTE_AS1, MS_16},
    {NOTE_AS1, MS_64},
    {NOTE_E2, MS_16},
    {NOTE_E2, MS_64},
    {NOTE_E2, MS_64},
    {NOTE_E2, MS_64},
    {NOTE_E2, MS_32},
    {NOTE_E2, MS_16},
    {NOTE_E2, MS_32},
    {NOTE_E2, MS_64},
    {NOTE_E2, MS_16},
    {NOTE_E2, MS_64},
    {NOTE_FS2, MS_64},
    {NOTE_B1, MS_16},
    {NOTE_B1, MS_64},
    {NOTE_B1, MS_32},
    {NOTE_B1, MS_64},
    {NOTE_B1, MS_16},
    {NOTE_B1, MS_64},
    {NOTE_B1, MS_32},
    {NOTE_AS1, MS_64},
    {NOTE_E2, MS_16},
    {NOTE_E2, MS_64},
    {NOTE_E2, MS_64},
    {NOTE_E2, MS_64},
    {NOTE_E2, MS_64},
    {NOTE_E2, MS_64},
    {NOTE_E2, MS_32},
    {NOTE_E2, MS_16},
    {NOTE_E2, MS_64},
    {NOTE_FS2, MS_64},
    {NOTE_B1, MS_16},
    {NOTE_B1, MS_32},
    {NOTE_E2, MS_64},
    {NOTE_E2, MS_16},
    {NOTE_E2, MS_64},
    {NOTE_E2, MS_64},
    {NOTE_E2, MS_64},
    {NOTE_E2, MS_16},
    {NOTE_E2, MS_32},
    {NOTE_E2, MS_64},
    {NOTE_E2, MS_16},
    {NOTE_FS2, MS_32},
    {NOTE_B1, MS_16},
    {NOTE_B1, MS_64},
    {NOTE_B1, MS_64},
    {NOTE_B1, MS_64},
    {NOTE_B1, MS_32},
    {NOTE_B1, MS_16},
    {NOTE_B1, MS_32},
    {NOTE_E2, MS_64},
    {NOTE_E2, MS_16},
    {NOTE_E2, MS_64},
    {NOTE_E2, MS_64},
    {NOTE_E2, MS_64},
    {NOTE_E2, MS_16},
    {NOTE_E2, MS_64},
    {NOTE_E2, MS_64},
    {NOTE_FS2, MS_32},
    {NOTE_B1, MS_16},
    {NOTE_B1, MS_64},
    {NOTE_B1, MS_32},
    {NOTE_E2, MS_64},
    {NOTE_E2, MS_16},
    {NOTE_E2, MS_32},
    {NOTE_E2, MS_64},
    {NOTE_E2, MS_64},
    {NOTE_E2, MS_16},
    {NOTE_E2, MS_64},
    {NOTE_E2, MS_32},
    {NOTE_E2, MS_64},
    {NOTE_E2, MS_16},
    {NOTE_E2, MS_64},
    {NOTE_FS2, MS_32},
    {NOTE_B1, MS_16},
    {NOTE_B1, MS_64},
    {NOTE_B1, MS_16},
    {NOTE_B1, MS_64},
    {NOTE_B1, MS_16},
    {NOTE_B1, MS_64},
    {NOTE_AS1, MS_64},
    {NOTE_AS1, MS_16},
    {NOTE_AS1, MS_64},
    {NOTE_E2, MS_64},
    {NOTE_E2, MS_64},
    {NOTE_E2, MS_64},
    {NOTE_E2, MS_64},
    {NOTE_E2, MS_16},
    {NOTE_E2, MS_64},
    {NOTE_G2, MS_64},
    {NOTE_G2, MS_64},
    {NOTE_G2, MS_64},
    {NOTE_G2, MS_16},
    {NOTE_G2, MS_32},
    {NOTE_G2, MS_64},
    {NOTE_G2, MS_32},
    {NOTE_G2, MS_16},
    {NOTE_G2, MS_32},
    {NOTE_G2, MS_64},
    {NOTE_G2, MS_64},
    {NOTE_G2, MS_16},
    {NOTE_G2, MS_32},
    {NOTE_G2, MS_64},
    {NOTE_G2, MS_16},
    {NOTE_G2, MS_64},
    {NOTE_G2, MS_64},
    {NOTE_G2, MS_64},
    {NOTE_G2, MS_16},
    {NOTE_G2, MS_32},
    {NOTE_G2, MS_16},
    {NOTE_G2, MS_16},
    {NOTE_G2, MS_64},
    {NOTE_G2, MS_64},
    {NOTE_G2, MS_64},
    {NOTE_G2, MS_64},
    {NOTE_G2, MS_16},
    {NOTE_G2, MS_64},
    {NOTE_G2, MS_64},
    {NOTE_FS2, MS_64},
    {NOTE_FS2, MS_64},
    {NOTE_FS2, MS_64},
    {NOTE_E2, MS_16},
    {NOTE_E2, MS_64},
    {NOTE_E2, MS_64},
    {NOTE_FS2, MS_32},
    {NOTE_C2, MS_16},
    {NOTE_C2, MS_32},
    {NOTE_C2, MS_32},
    {NOTE_B1, MS_64},
    {NOTE_E2, MS_64},
    {NOTE_E2, MS_64},
    {NOTE_E2, MS_16},
    {NOTE_E2, MS_64},
    {NOTE_E2, MS_32},
    {NOTE_E2, MS_64},
    {NOTE_E2, MS_16},
    {NOTE_E2, MS_32},
    {NOTE_E2, MS_16},
    {NOTE_E2, MS_64},
    {NOTE_FS2, MS_64},
    {NOTE_C2, MS_16},
    {NOTE_C2, MS_32},
    {NOTE_C2, MS_64},
    {NOTE_C2, MS_32},
    {NOTE_C2, MS_16},
    {NOTE_B1, MS_32},
    {NOTE_G1, MS_64},
    {NOTE_G1, MS_64},
    {NOTE_G1, MS_64},
    {NOTE_G1, MS_32},
    {NOTE_G1, MS_64},
    {NOTE_G1, MS_64},
    {NOTE_B1, MS_64},
    {NOTE_B1, MS_32},
    {NOTE_B1, MS_16},
    {NOTE_B1, MS_64},
    {NOTE_B1, MS_64},
    {NOTE_B1, MS_64},
    {NOTE_B1, MS_32},
    {NOTE_B1, MS_64},
    {NOTE_B1, MS_32},
    {NOTE_B1, MS_64},
    {NOTE_B1, MS_64},
    {NOTE_B1, MS_32},
    {NOTE_E2, MS_64},
    {NOTE_E2, MS_16},
    {NOTE_E2, MS_64},
    {NOTE_E2, MS_64},
    {NOTE_E2, MS_32},
    {NOTE_E2, MS_32},
    {NOTE_E2, MS_64},
    {NOTE_E2, MS_32},
    {NOTE_E2, MS_64},
    {NOTE_E2, MS_64},
    {NOTE_E2, MS_64},
    {NOTE_F2, MS_64},
    {NOTE_F2, MS_16},
    {NOTE_F2, MS_16},
    {NOTE_F2, MS_16},
    {NOTE_F2, MS_16},
    {NOTE_F2, MS_64},
    {NOTE_F2, MS_16},
    {NOTE_F2, MS_64},
    {NOTE_F2, MS_64},
    {NOTE_F2, MS_64},
    {NOTE_F2, MS_64},
    {NOTE_F2, MS_32},
    {NOTE_F2, MS_16},
    {NOTE_F2, MS_64},
    {NOTE_F2, MS_64},
    {NOTE_AS2, MS_Q},
    {NOTE_AS2, MS_32},
    {NOTE_AS2, MS_32},
    {NOTE_AS2, MS_16},
    {NOTE_AS2, MS_32},
    {NOTE_AS2, MS_64},
    {NOTE_AS2, MS_64},
    {NOTE_AS2, MS_16},
    {NOTE_AS2, MS_64},
    {NOTE_AS2, MS_32},
    {NOTE_AS2, MS_64},
    {NOTE_AS2, MS_64},
    {NOTE_AS2, MS_32},
    {NOTE_AS2, MS_64},
    {NOTE_AS2, MS_64},
    {NOTE_AS2, MS_64},
    {NOTE_AS2, MS_32},
    {NOTE_AS2, MS_64},
    {NOTE_AS2, MS_32},
    {NOTE_AS2, MS_64},
    {NOTE_AS2, MS_64},
    {NOTE_AS2, MS_64},
    {NOTE_AS2, MS_16},
    {NOTE_AS2, MS_64},
    {NOTE_AS2, MS_32},
    {NOTE_AS2, MS_64},
    {NOTE_AS2, MS_16},
    {NOTE_AS2, MS_32},
    {NOTE_AS2, MS_16},
    {NOTE_AS2, MS_64},
    {NOTE_FS2, MS_64},
    {NOTE_FS2, MS_32},
    {NOTE_E2, MS_16},
    {NOTE_E2, MS_64},
    {NOTE_FS2, MS_64},
    {NOTE_FS2, MS_64},
    {NOTE_B1, MS_16},
    {NOTE_B1, MS_32},
    {NOTE_B1, MS_64},
    {NOTE_B1, MS_32},
    {NOTE_AS1, MS_64},
    {NOTE_AS1, MS_64},
    {NOTE_AS1, MS_16},
    {NOTE_AS1, MS_64},
    {NOTE_B1, MS_32},
    {NOTE_D2, MS_16},
    {NOTE_E2, MS_64},
    {NOTE_E2, MS_32},
    {NOTE_E2, MS_16},
    {NOTE_E2, MS_64},
    {NOTE_E2, MS_64},
    {NOTE_G2, MS_16},
    {NOTE_G2, MS_32},
    {NOTE_G2, MS_64},
    {NOTE_G2, MS_32},
    {NOTE_G2, MS_64},
    {NOTE_G2, MS_64},
    {NOTE_G2, MS_32},
    {NOTE_G2, MS_64},
    {NOTE_E2, MS_32},
    {NOTE_E2, MS_64},
    {NOTE_E2, MS_64},
    {NOTE_E2, MS_64},
    {NOTE_E2, MS_32},
    {NOTE_E2, MS_64},
    {NOTE_E2, MS_64},
    {NOTE_E2, MS_64},
    {NOTE_E2, MS_64},
    {NOTE_E2, MS_16},
    {NOTE_E2, MS_64},
    {NOTE_E2, MS_64},
    {NOTE_C2, MS_64},
    {NOTE_C2, MS_64},
    {NOTE_C2, MS_16},
    {NOTE_C2, MS_32},
    {NOTE_C2, MS_64},
    {NOTE_C2, MS_64},
    {NOTE_C2, MS_32},
    {NOTE_C2, MS_32},
    {NOTE_C2, MS_64},
    {NOTE_C2, MS_64},
    {NOTE_B1, MS_32},
    {NOTE_B1, MS_64},
    {NOTE_E2, MS_32},
    {NOTE_E2, MS_32},
    {NOTE_E2, MS_64},
    {NOTE_E2, MS_Q},
    {NOTE_E2, MS_64},
    {NOTE_E2, MS_32},
    {NOTE_E2, MS_64},
    {NOTE_E2, MS_64},
    {NOTE_AS1, MS_64},
    {NOTE_AS1, MS_64},
    {NOTE_AS1, MS_16},
    {NOTE_AS1, MS_64},
    {NOTE_A1, MS_64},
    {NOTE_A1, MS_16},
    {NOTE_A1, MS_64},
    {NOTE_A1, MS_16},
    {NOTE_A1, MS_64},
    {NOTE_A1, MS_64},
    {NOTE_A1, MS_32},
    {NOTE_E2, MS_64},
    {NOTE_E2, MS_Q},
    {NOTE_E2, MS_32},
    {NOTE_E2, MS_32},
    {NOTE_E2, MS_64},
    {NOTE_GS2, MS_32},
    {NOTE_GS2, MS_64},
    {NOTE_GS2, MS_Q},
    {NOTE_GS2, MS_64},
    {NOTE_GS2, MS_64},
    {NOTE_GS2, MS_16},
    {NOTE_AS2, MS_64},
    {NOTE_AS2, MS_64},
    {NOTE_E2, MS_64},
    {NOTE_E2, MS_64},
    {NOTE_E2, MS_Q},
    {NOTE_E2, MS_64},
    {NOTE_G2, MS_16},
    {NOTE_G2, MS_32},
    {NOTE_G2, MS_64},
    {NOTE_G2, MS_64},
    {NOTE_FS2, MS_32},
    {NOTE_FS2, MS_32},
    {NOTE_F2, MS_32},
    {NOTE_F2, MS_64},
    {NOTE_F2, MS_64},
    {NOTE_F2, MS_32},
    {NOTE_F2, MS_64},
    {NOTE_F2, MS_16},
    {NOTE_F2, MS_64},
    {NOTE_B1, MS_Q},
    {NOTE_B1, MS_64},
    {NOTE_B1, MS_64},
    {NOTE_B1, MS_64},
    {NOTE_B1, MS_64},
    {NOTE_B1, MS_32},
    {NOTE_B1, MS_32},
    {NOTE_B1, MS_32},
    {NOTE_B1, MS_32},
    {NOTE_B1, MS_32},
    {NOTE_E2, MS_32},
    {NOTE_E2, MS_64},
    {NOTE_E2, MS_32},
    {NOTE_E2, MS_64},
    {NOTE_E2, MS_64},
    {NOTE_E2, MS_16},
    {NOTE_E2, MS_64},
    {NOTE_E2, MS_32},
    {NOTE_E2, MS_64},
    {NOTE_E2, MS_16},
    {NOTE_E2, MS_64},
    {NOTE_E2, MS_64},
    {NOTE_DS2, MS_32},
    {NOTE_DS2, MS_32},
    {NOTE_B1, MS_64},
    {NOTE_B1, MS_16},
    {NOTE_B1, MS_64},
    {NOTE_B1, MS_64},
    {NOTE_B1, MS_32},
    {NOTE_B1, MS_64},
    {NOTE_B1, MS_64},
    {NOTE_B1, MS_64},
    {NOTE_D2, MS_64},
    {NOTE_D2, MS_16},
    {NOTE_D2, MS_64},
    {NOTE_E2, MS_64},
    {NOTE_E2, MS_64},
    {NOTE_E2, MS_64},
    {NOTE_E2, MS_64},
    {NOTE_E2, MS_32},
    {NOTE_E2, MS_64},
    {NOTE_E2, MS_32},
    {NOTE_C2, MS_64},
    {NOTE_C2, MS_32},
    {NOTE_B1, MS_16},
    {NOTE_B1, MS_64},
    {NOTE_B1, MS_64},
    {NOTE_C2, MS_32},
    {NOTE_C2, MS_64},
    {NOTE_C2, MS_32},
    {NOTE_E2, MS_64},
    {NOTE_E2, MS_64},
    {NOTE_E2, MS_64},
    {NOTE_E2, MS_32},
    {NOTE_E2, MS_64},
    {NOTE_E2, MS_32},
    {NOTE_E2, MS_64},
    {NOTE_E2, MS_64},
    {NOTE_E2, MS_32},
    {NOTE_E2, MS_16},
    {NOTE_E2, MS_32},
    {NOTE_E2, MS_64},
    {NOTE_C2, MS_32},
    {NOTE_C2, MS_64},
    {NOTE_C2, MS_32},
    {NOTE_B1, MS_64},
    {NOTE_B1, MS_64},
    {NOTE_B1, MS_32},
    {NOTE_B1, MS_64},
    {NOTE_B1, MS_64},
    {NOTE_E2, MS_64},
    {NOTE_E2, MS_64},
    {NOTE_E2, MS_32},
    {NOTE_E2, MS_64},
    {NOTE_E2, MS_64},
    {NOTE_E2, MS_64},
    {NOTE_E2, MS_64},
    {NOTE_E2, MS_64},
    {NOTE_E2, MS_64},
    {NOTE_E2, MS_64},
    {NOTE_E2, MS_64},
    {NOTE_E2, MS_64},
    {NOTE_E2, MS_64},
    {NOTE_E2, MS_64},
    {NOTE_E2, MS_32},
    {NOTE_E2, MS_64},
    {NOTE_E2, MS_16},
    {NOTE_E2, MS_64},
    {NOTE_E2, MS_64},
    {NOTE_B1, MS_32},
    {NOTE_B1, MS_32},
    {NOTE_B1, MS_64},
    {NOTE_B1, MS_16},
    {NOTE_B1, MS_64},
    {NOTE_B1, MS_32},
    {NOTE_F1, MS_64},
    {NOTE_F1, MS_64},
    {NOTE_F1, MS_64},
    {NOTE_F1, MS_32},
    {NOTE_GS4, MS_64},
    {NOTE_GS4, MS_64},
    {NOTE_GS4, MS_64},
    {NOTE_GS4, MS_64},
    {NOTE_GS4, MS_32},
    {NOTE_GS4, MS_64},
    {NOTE_GS4, MS_64},
    {NOTE_C5, MS_32},
    {NOTE_C5, MS_64},
    {NOTE_C5, MS_32},
    {NOTE_C5, MS_32},
    {NOTE_C5, MS_64},
    {NOTE_C5, MS_32},
    {NOTE_C5, MS_64},
    {NOTE_C5, MS_64},
    {NOTE_C5, MS_32},
    {NOTE_G4, MS_16},
    {NOTE_G4, MS_64},
    {NOTE_GS4, MS_32},
    {NOTE_GS4, MS_32},
    {NOTE_GS4, MS_64},
    {NOTE_GS4, MS_64},
    {NOTE_GS4, MS_64},
    {NOTE_D4, MS_64},
    {NOTE_D4, MS_64},
    {NOTE_C4, MS_64},
    {NOTE_C4, MS_64},
    {NOTE_C4, MS_64},
    {NOTE_C4, MS_32},
    {NOTE_AS4, MS_64},
    {NOTE_E2, MS_64},
    {NOTE_E2, MS_64},
    {NOTE_E2, MS_32},
    {NOTE_E2, MS_32},
    {NOTE_E2, MS_32},
    {NOTE_E2, MS_64},
    {NOTE_E2, MS_64},
    {NOTE_E2, MS_64},
    {NOTE_B1, MS_64},
    {NOTE_B1, MS_32},
    {NOTE_B1, MS_32},
    {NOTE_B1, MS_32},
    {NOTE_B1, MS_64},
    {NOTE_B1, MS_64},
    {NOTE_AS1, MS_64},
    {NOTE_AS1, MS_64},
    {NOTE_AS1, MS_64},
    {NOTE_E2, MS_16},
    {NOTE_E2, MS_64},
    {NOTE_E2, MS_64},
    {NOTE_E2, MS_64},
    {NOTE_E2, MS_64},
    {NOTE_E2, MS_64},
    {NOTE_E2, MS_32},
    {NOTE_E2, MS_16},
    {NOTE_E2, MS_64},
    {NOTE_E2, MS_64},
    {NOTE_E2, MS_64},
    {NOTE_B1, MS_64},
    {NOTE_B1, MS_32},
    {NOTE_B1, MS_32},
    {NOTE_B1, MS_64},
    {NOTE_B1, MS_64},
    {NOTE_B1, MS_64},
    {NOTE_B1, MS_64},
    {NOTE_B1, MS_32},
    {NOTE_B1, MS_32},
    {NOTE_B1, MS_64},
    {NOTE_B1, MS_64},
    {NOTE_B1, MS_64},
    {NOTE_AS1, MS_64},
    {NOTE_AS1, MS_64},
    {NOTE_AS1, MS_64},
    {NOTE_AS2, MS_64},
    {NOTE_AS2, MS_32},
    {NOTE_AS2, MS_64},
    {NOTE_AS2, MS_64},
    {NOTE_AS2, MS_64},
    {NOTE_AS2, MS_64},
    {NOTE_AS2, MS_64},
    {NOTE_A2, MS_64},
    {NOTE_D2, MS_16},
    {NOTE_AS3, MS_32},
    {NOTE_CS3, MS_64},
    {NOTE_CS3, MS_16},
    {NOTE_CS3, MS_16},
    {NOTE_DS2, MS_64},
    {NOTE_DS2, MS_16},
    {NOTE_DS2, MS_16},
    {NOTE_DS2, MS_64},
    {NOTE_DS2, MS_16},
    {NOTE_E2, MS_32},
    {NOTE_E2, MS_32},
    {NOTE_E2, MS_64},
    {NOTE_E2, MS_64},
    {NOTE_E2, MS_64},
    {NOTE_E2, MS_64},
    {NOTE_E2, MS_64},
    {NOTE_E2, MS_64},
    {NOTE_E2, MS_32},
    {NOTE_E2, MS_64},
    {NOTE_E2, MS_64},
    {NOTE_E2, MS_64},
    {NOTE_E2, MS_64},
    {NOTE_E2, MS_32},
    {NOTE_E2, MS_16},
    {NOTE_E2, MS_64},
    {NOTE_E2, MS_64},
    {NOTE_D2, MS_64},
    {NOTE_D2, MS_Q},
    {NOTE_D2, MS_32},
    {NOTE_D2, MS_64},
    {NOTE_D2, MS_64},
    {NOTE_E2, MS_32},
    {NOTE_E2, MS_64},
    {NOTE_E2, MS_64},
    {NOTE_E2, MS_32},
    {NOTE_E2, MS_32},
    {NOTE_E2, MS_64},
    {NOTE_E2, MS_32},
    {NOTE_E2, MS_32},
    {NOTE_E2, MS_64},
    {NOTE_E2, MS_64},
    {NOTE_E2, MS_64},
    {NOTE_E2, MS_32},
    {NOTE_E2, MS_16},
    {NOTE_E2, MS_64},
    {NOTE_C2, MS_32},
    {NOTE_C2, MS_Q},
    {NOTE_C2, MS_64},
    {NOTE_C2, MS_32},
    {NOTE_C2, MS_64},
    {NOTE_C2, MS_32},
    {NOTE_E2, MS_16},
    {NOTE_E2, MS_32},
    {NOTE_E2, MS_64},
    {NOTE_E2, MS_32},
    {NOTE_E2, MS_64},
    {NOTE_E2, MS_32},
    {NOTE_E2, MS_64},
    {NOTE_E2, MS_64},
    {NOTE_E2, MS_64},
    {NOTE_E2, MS_16},
    {NOTE_E2, MS_64},
    {NOTE_C2, MS_64},
    {NOTE_C2, MS_64},
    {NOTE_C2, MS_64},
    {NOTE_C2, MS_64},
    {NOTE_C2, MS_32},
    {NOTE_C2, MS_64},
    {NOTE_C2, MS_16},
    {NOTE_B1, MS_64},
    {NOTE_B1, MS_64},
    {NOTE_G1, MS_64},
    {NOTE_G1, MS_64},
    {NOTE_G1, MS_64},
    {NOTE_G1, MS_64},
    {NOTE_G1, MS_64},
    {NOTE_G1, MS_64},
    {NOTE_FS1, MS_64},
    {NOTE_FS1, MS_64},
    {NOTE_FS1, MS_64},
    {NOTE_FS1, MS_64},
    {NOTE_FS1, MS_64},
    {NOTE_FS1, MS_64},
    {NOTE_FS1, MS_64},
    {NOTE_FS1, MS_64},
    {NOTE_FS1, MS_64},
    {NOTE_F1, MS_64},
    {NOTE_F1, MS_16},
    {NOTE_F1, MS_64},
    {NOTE_F1, MS_16},
    {NOTE_F1, MS_64},
    {NOTE_F1, MS_64},
    {NOTE_F1, MS_64},
    {NOTE_F1, MS_64},
    {NOTE_F1, MS_16},
    {NOTE_F1, MS_64},
    {NOTE_F1, MS_32},
    {NOTE_F1, MS_16},
    {NOTE_F1, MS_64},
    {NOTE_DS3, MS_64},
    {NOTE_DS3, MS_64},
    {NOTE_E3, MS_32},
    {NOTE_E3, MS_32},
    {NOTE_E3, MS_64},
    {NOTE_E3, MS_64},
    {NOTE_E3, MS_64},
    {NOTE_E3, MS_64},
    {NOTE_E3, MS_64},
    {NOTE_E3, MS_64},
    {NOTE_DS3, MS_64},
    {NOTE_C4, MS_32},
    {NOTE_C4, MS_32},
    {NOTE_C4, MS_64},
    {NOTE_C4, MS_32},
    {NOTE_C4, MS_32},
    {NOTE_C4, MS_64},
    {NOTE_C4, MS_64},
    {NOTE_C4, MS_64},
    {NOTE_C4, MS_64},
    {NOTE_GS4, MS_64},
    {NOTE_GS4, MS_64},
    {NOTE_GS4, MS_64},
    {NOTE_GS4, MS_64},
    {NOTE_GS4, MS_32},
    {NOTE_GS4, MS_64},
    {NOTE_GS4, MS_64},
    {NOTE_GS4, MS_32},
    {NOTE_GS4, MS_64},
    {NOTE_GS4, MS_64},
    {NOTE_GS4, MS_64},
    {NOTE_GS4, MS_32},
    {NOTE_GS4, MS_32},
    {NOTE_D4, MS_32},
    {NOTE_D5, MS_64},
    {NOTE_E2, MS_64},
    {NOTE_E2, MS_64},
    {NOTE_E2, MS_16},
    {NOTE_E2, MS_16},
    {NOTE_E2, MS_64},
    {NOTE_B1, MS_64},
    {NOTE_B1, MS_64},
    {NOTE_B1, MS_64},
    {NOTE_B1, MS_64},
    {NOTE_B1, MS_16},
    {NOTE_B1, MS_64},
    {NOTE_B1, MS_64},
    {NOTE_B1, MS_64},
    {NOTE_E2, MS_64},
    {NOTE_E2, MS_64},
    {NOTE_E2, MS_64},
    {NOTE_E2, MS_64},
    {NOTE_E2, MS_64},
    {NOTE_E2, MS_64},
    {NOTE_E2, MS_64},
    {NOTE_E2, MS_64},
    {NOTE_E2, MS_64},
    {NOTE_E2, MS_64},
    {NOTE_E2, MS_64},
    {NOTE_E2, MS_64},
    {NOTE_E2, MS_64},
    {NOTE_E2, MS_64},
    {NOTE_E2, MS_32},
    {NOTE_E2, MS_64},
    {NOTE_E2, MS_64},
    {NOTE_E2, MS_64},
    {NOTE_E2, MS_64},
    {NOTE_E2, MS_64},
    {NOTE_E2, MS_64},
    {NOTE_E2, MS_64},
    {NOTE_E2, MS_64},
    {NOTE_B1, MS_64},
    {NOTE_B1, MS_64},
    {NOTE_B1, MS_64},
    {NOTE_B1, MS_64},
    {NOTE_B1, MS_64},
    {NOTE_B1, MS_64},
    {NOTE_B1, MS_64},
    {NOTE_B1, MS_64},
    {NOTE_B1, MS_64},
    {NOTE_B1, MS_32},
    {NOTE_B1, MS_64},
    {NOTE_B1, MS_64},
    {NOTE_B1, MS_64},
    {NOTE_B1, MS_64},
    {NOTE_E2, MS_64},
    {NOTE_AS2, MS_64},
    {NOTE_AS2, MS_64},
    {NOTE_AS2, MS_64},
    {NOTE_AS2, MS_32},
    {NOTE_AS2, MS_64},
    {NOTE_AS2, MS_64},
    {NOTE_AS2, MS_32},
    {NOTE_AS2, MS_64},
    {NOTE_AS2, MS_64},
    {NOTE_AS2, MS_64},
    {NOTE_A2, MS_64},
    {NOTE_A2, MS_64},
    {NOTE_A2, MS_32},
    {NOTE_D2, MS_64},
    {NOTE_DS2, MS_16},
    {NOTE_DS2, MS_32},
    {NOTE_DS2, MS_32},
    {NOTE_DS2, MS_32},
    {NOTE_DS2, MS_32},
    {NOTE_DS2, MS_64},
    {NOTE_B1, MS_32},
    {NOTE_B1, MS_64},
    {NOTE_B1, MS_64},
    {NOTE_B1, MS_64},
    {NOTE_B1, MS_64},
    {NOTE_B1, MS_64},
    {NOTE_B1, MS_64},
    {NOTE_DS2, MS_64},
    {NOTE_DS2, MS_32},
    {NOTE_E2, MS_64},
    {NOTE_E2, MS_64},
    {NOTE_E2, MS_64},
    {NOTE_E2, MS_64},
    {NOTE_E2, MS_64},
    {NOTE_E2, MS_64},
    {NOTE_E2, MS_32},
    {NOTE_E2, MS_64},
    {NOTE_E2, MS_64},
    {NOTE_E2, MS_32},
    {NOTE_E2, MS_64},
    {NOTE_E2, MS_64},
    {NOTE_E2, MS_64},
    {NOTE_E2, MS_64},
    {NOTE_E2, MS_32},
    {NOTE_E2, MS_64},
    {NOTE_E2, MS_64},
    {NOTE_E2, MS_32},
    {NOTE_E2, MS_64},
    {NOTE_E2, MS_64},
    {NOTE_E2, MS_64},
    {NOTE_D2, MS_32},
    {NOTE_D2, MS_64},
    {NOTE_D2, MS_64},
    {NOTE_D2, MS_64},
    {NOTE_D2, MS_64},
    {NOTE_D2, MS_64},
    {NOTE_D2, MS_64},
    {NOTE_D2, MS_64},
    {NOTE_B1, MS_64},
    {NOTE_B1, MS_64},
    {NOTE_B1, MS_64},
    {NOTE_B1, MS_64},
    {NOTE_B1, MS_64},
    {NOTE_B1, MS_64},
    {NOTE_E2, MS_64},
    {NOTE_E2, MS_64},
    {NOTE_E2, MS_64},
    {NOTE_E2, MS_64},
    {NOTE_E2, MS_64},
    {NOTE_E2, MS_64},
    {NOTE_E2, MS_64},
    {NOTE_E2, MS_64},
    {NOTE_E2, MS_64},
    {NOTE_E2, MS_64},
    {NOTE_E2, MS_64},
    {NOTE_E2, MS_64},
    {NOTE_E2, MS_64},
    {NOTE_E2, MS_32},
    {NOTE_E2, MS_64},
    {NOTE_E2, MS_64},
    {NOTE_E2, MS_64},
    {NOTE_E2, MS_32},
    {NOTE_E2, MS_64},
    {NOTE_E2, MS_64},
    {NOTE_E2, MS_64},
    {NOTE_E2, MS_64},
    {NOTE_E2, MS_32},
    {NOTE_E2, MS_16},
    {NOTE_E2, MS_64},
    {NOTE_C2, MS_32},
    {NOTE_C2, MS_16},
    {NOTE_C2, MS_64},
    {NOTE_C2, MS_32},
    {NOTE_C2, MS_64},
    {NOTE_C2, MS_32},
    {NOTE_C2, MS_64},
    {NOTE_C2, MS_64},
    {NOTE_E2, MS_64},
    {NOTE_E2, MS_64},
    {NOTE_E2, MS_32},
    {NOTE_E2, MS_64},
    {NOTE_E2, MS_64},
    {NOTE_E2, MS_64},
    {NOTE_E2, MS_64},
    {NOTE_E2, MS_32},
    {NOTE_E2, MS_32},
    {NOTE_E2, MS_32},
    {NOTE_E2, MS_64},
    {NOTE_E2, MS_64},
    {NOTE_E2, MS_32},
    {NOTE_E2, MS_32},
    {NOTE_C2, MS_64},
    {NOTE_C2, MS_32},
    {NOTE_C2, MS_32},
    {NOTE_C2, MS_64},
    {NOTE_C2, MS_64},
    {NOTE_C2, MS_32},
    {NOTE_B1, MS_64},
    {NOTE_B1, MS_64},
    {NOTE_B1, MS_64},
    {NOTE_B1, MS_64},
    {NOTE_G1, MS_64},
    {NOTE_G1, MS_64},
    {NOTE_G1, MS_64},
    {NOTE_G1, MS_16},
    {NOTE_FS1, MS_64},
    {NOTE_FS1, MS_64},
    {NOTE_FS1, MS_64},
    {NOTE_FS1, MS_64},
    {NOTE_FS1, MS_64},
    {NOTE_FS1, MS_64},
    {NOTE_FS1, MS_64},
    {NOTE_FS1, MS_64},
    {NOTE_FS1, MS_64},
    {NOTE_FS1, MS_64},
    {NOTE_E2, MS_64},
    {NOTE_E2, MS_64},
    {NOTE_E2, MS_32},
    {NOTE_E2, MS_64},
    {NOTE_E2, MS_16},
    {NOTE_E2, MS_64},
    {NOTE_E2, MS_64},
    {NOTE_B1, MS_64},
    {NOTE_B1, MS_16},
    {NOTE_B1, MS_32},
    {NOTE_B1, MS_64},
    {NOTE_B1, MS_32},
    {NOTE_E2, MS_32},
    {NOTE_E2, MS_64},
    {NOTE_E2, MS_64},
    {NOTE_E2, MS_64},
    {NOTE_E2, MS_64},
    {NOTE_E2, MS_64},
    {NOTE_F3, MS_64},
    {NOTE_F4, MS_64},
    {NOTE_F6, MS_64},
    {NOTE_REST, MS_64},
    {NOTE_E2, MS_64},
    {NOTE_E2, MS_64},
    {NOTE_E2, MS_64},
    {NOTE_REST, MS_64},
    {NOTE_F4, MS_64},
    {NOTE_F4, MS_64},
    {NOTE_F4, MS_32},
    {NOTE_F4, MS_64},
    {NOTE_DS4, MS_64},
    {NOTE_DS4, MS_64},
    {NOTE_DS4, MS_64},
    {NOTE_DS4, MS_64},
    {NOTE_DS4, MS_64},
    {NOTE_DS5, MS_16},
    {NOTE_DS2, MS_32},
    {NOTE_B1, MS_64},
    {NOTE_B1, MS_16},
    {NOTE_B1, MS_16},
    {NOTE_B1, MS_64},
    {NOTE_B1, MS_64},
    {NOTE_B1, MS_64},
    {NOTE_D2, MS_Q},
    {NOTE_CS2, MS_16},
    {NOTE_CS2, MS_16},
    {NOTE_CS2, MS_16},
    {NOTE_CS2, MS_16},
    {NOTE_CS2, MS_64},
    {NOTE_CS2, MS_64},
    {NOTE_CS2, MS_64},
    {NOTE_CS2, MS_64},
    {NOTE_CS2, MS_64},
    {NOTE_CS2, MS_64},
    {NOTE_CS2, MS_64},
    {NOTE_CS2, MS_64},
    {NOTE_CS2, MS_64},
    {NOTE_CS2, MS_32},
    {NOTE_CS2, MS_32},
    {NOTE_CS2, MS_64},
    {NOTE_CS2, MS_64},
    {NOTE_CS2, MS_32},
    {NOTE_CS2, MS_64},
    {NOTE_CS2, MS_32},
    {NOTE_CS2, MS_16},
    {NOTE_CS2, MS_64},
    {NOTE_CS2, MS_64},
    {NOTE_B1, MS_64},
    {NOTE_B1, MS_64},
    {NOTE_B1, MS_64},
    {NOTE_B1, MS_64},
    {NOTE_B1, MS_16},
    {NOTE_AS1, MS_16},
    {NOTE_AS1, MS_16},
    {NOTE_AS1, MS_64},
    {NOTE_AS1, MS_64},
    {NOTE_AS1, MS_64},
    {NOTE_AS1, MS_64},
    {NOTE_AS1, MS_64},
    {NOTE_AS1, MS_16},
    {NOTE_REST, MS_64},
    {NOTE_A1, MS_64},
    {NOTE_A1, MS_32},
    {NOTE_A1, MS_64},
    {NOTE_E2, MS_64},
    {NOTE_E2, MS_16},
    {NOTE_A3, MS_64},
    {NOTE_A3, MS_64},
    {NOTE_CS4, MS_64},
    {NOTE_A5, MS_64},
    {NOTE_REST, MS_16},
    {NOTE_A5, MS_32},
    {NOTE_A5, MS_64},
    {NOTE_REST, MS_16},
    {NOTE_A5, MS_64},
    {NOTE_A5, MS_32},
    {NOTE_E4, MS_64},
    {NOTE_E4, MS_64},
    {NOTE_REST, MS_16},
    {NOTE_A5, MS_64},
    {NOTE_A5, MS_32},
    {NOTE_E4, MS_64},
    {NOTE_E4, MS_64},
    {NOTE_REST, MS_16},
    {NOTE_A5, MS_64},
    {NOTE_A5, MS_32},
    {NOTE_E4, MS_64},
    {NOTE_REST, MS_16},
    {NOTE_A5, MS_64},
    {NOTE_A5, MS_32},
    {NOTE_A5, MS_64},
    {NOTE_REST, MS_16},
    {NOTE_A5, MS_64},
    {NOTE_A5, MS_32},
    {NOTE_REST, MS_16},
    {NOTE_A5, MS_32},
    {NOTE_D5, MS_64},
    {NOTE_D5, MS_64},
    {NOTE_D5, MS_16},
    {NOTE_REST, MS_64},
    {NOTE_A5, MS_64},
    {NOTE_A5, MS_32},
    {NOTE_E4, MS_64},
    {NOTE_REST, MS_32},
    {NOTE_E4, MS_64},
    {NOTE_E4, MS_64},
    {NOTE_REST, MS_32},
    {NOTE_A5, MS_64},
    {NOTE_A5, MS_64},
    {NOTE_A5, MS_64},
    {NOTE_DS4, MS_64},
    {NOTE_DS4, MS_64},
    {NOTE_REST, MS_64},
    {NOTE_C5, MS_32},
    {NOTE_REST, MS_32},
    {NOTE_A5, MS_64},
    {NOTE_A5, MS_32},
    {NOTE_E4, MS_64},
    {NOTE_E4, MS_64},
    {NOTE_REST, MS_64},
    {NOTE_CS5, MS_64},
    {NOTE_REST, MS_32},
    {NOTE_A5, MS_64},
    {NOTE_A5, MS_32},
    {NOTE_A5, MS_64},
    {NOTE_FS4, MS_64},
    {NOTE_FS4, MS_64},
    {NOTE_REST, MS_64},
    {NOTE_D5, MS_32},
    {NOTE_REST, MS_32},
    {NOTE_A5, MS_64},
    {NOTE_A5, MS_64},
    {NOTE_REST, MS_32},
    {NOTE_E4, MS_64},
    {NOTE_E4, MS_64},
    {NOTE_REST, MS_32},
    {NOTE_A5, MS_64},
    {NOTE_A5, MS_32},
    {NOTE_C5, MS_32},
    {NOTE_C5, MS_64},
    {NOTE_C5, MS_64},
    {NOTE_REST, MS_32},
    {NOTE_CS2, MS_64},
    {NOTE_CS2, MS_64},
    {NOTE_REST, MS_32},
    {NOTE_CS2, MS_32},
    {NOTE_CS2, MS_64},
    {NOTE_REST, MS_64},
    {NOTE_D2, MS_32},
    {NOTE_D2, MS_32},
    {NOTE_D2, MS_64},
    {NOTE_D2, MS_64},
    {NOTE_D2, MS_64},
    {NOTE_D2, MS_64},
    {NOTE_FS5, MS_64},
    {NOTE_REST, MS_64},
    {NOTE_CS2, MS_64},
    {NOTE_CS2, MS_64},
    {NOTE_CS2, MS_64},
    {NOTE_A5, MS_64},
    {NOTE_REST, MS_32},
    {NOTE_CS2, MS_32},
    {NOTE_CS4, MS_64},
    {NOTE_REST, MS_64},
    {NOTE_D2, MS_64},
    {NOTE_D2, MS_32},
    {NOTE_D2, MS_32},
    {NOTE_D2, MS_64},
    {NOTE_D2, MS_64},
    {NOTE_A6, MS_64},
    {NOTE_REST, MS_64},
    {NOTE_CS2, MS_64},
    {NOTE_CS2, MS_64},
    {NOTE_CS5, MS_64},
    {NOTE_A5, MS_64},
    {NOTE_REST, MS_64},
    {NOTE_CS2, MS_64},
    {NOTE_CS2, MS_64},
    {NOTE_CS2, MS_64},
    {NOTE_CS2, MS_64},
    {NOTE_REST, MS_64},
    {NOTE_C2, MS_64},
    {NOTE_C2, MS_64},
    {NOTE_C2, MS_64},
    {NOTE_C2, MS_64},
    {NOTE_A5, MS_64},
    {NOTE_REST, MS_64},
    {NOTE_C2, MS_64},
    {NOTE_C2, MS_64},
    {NOTE_C2, MS_64},
    {NOTE_C2, MS_64},
    {NOTE_REST, MS_64},
    {NOTE_CS2, MS_64},
    {NOTE_CS2, MS_32},
    {NOTE_CS2, MS_64},
    {NOTE_CS2, MS_64},
    {NOTE_CS2, MS_64},
    {NOTE_REST, MS_16},
    {NOTE_D2, MS_64},
    {NOTE_D2, MS_32},
    {NOTE_D2, MS_64},
    {NOTE_D2, MS_64},
    {NOTE_D2, MS_64},
    {NOTE_D2, MS_64},
    {NOTE_D2, MS_64},
    {NOTE_REST, MS_32},
    {NOTE_CS2, MS_64},
    {NOTE_CS2, MS_32},
    {NOTE_CS2, MS_64},
    {NOTE_CS2, MS_64},
    {NOTE_REST, MS_16},
    {NOTE_B1, MS_64},
    {NOTE_B1, MS_64},
    {NOTE_G3, MS_64},
    {NOTE_A5, MS_64},
    {NOTE_REST, MS_64},
    {NOTE_G3, MS_64},
    {NOTE_G3, MS_64},
    {NOTE_G3, MS_64},
    {NOTE_REST, MS_32},
    {NOTE_G3, MS_64},
    {NOTE_G3, MS_64},
    {NOTE_G3, MS_64},
    {NOTE_REST, MS_64},
    {NOTE_G3, MS_64},
    {NOTE_E4, MS_64},
    {NOTE_REST, MS_64},
    {NOTE_B1, MS_32},
    {NOTE_B1, MS_64},
    {NOTE_B1, MS_64},
    {NOTE_G2, MS_64},
    {NOTE_REST, MS_16},
    {NOTE_B2, MS_64},
    {NOTE_B2, MS_64},
    {NOTE_B2, MS_64},
    {NOTE_B2, MS_64},
    {NOTE_B2, MS_64},
    {NOTE_REST, MS_16},
    {NOTE_F3, MS_64},
    {NOTE_AS1, MS_64},
    {NOTE_A1, MS_64},
    {NOTE_A1, MS_64},
    {NOTE_A1, MS_64},
    {NOTE_A1, MS_64},
    {NOTE_REST, MS_64},
    {NOTE_A5, MS_64},
    {NOTE_F5, MS_64},
    {NOTE_F5, MS_64},
    {NOTE_F3, MS_64},
    {NOTE_F3, MS_64},
    {NOTE_AS2, MS_64},
    {NOTE_AS2, MS_64},
    {NOTE_REST, MS_64},
    {NOTE_A5, MS_64},
    {NOTE_A5, MS_64},
    {NOTE_A5, MS_64},
    {NOTE_D5, MS_64},
    {NOTE_D5, MS_64},
    {NOTE_C5, MS_64},
    {NOTE_D4, MS_64},
    {NOTE_FS1, MS_64},
    {NOTE_REST, MS_32},
    {NOTE_A5, MS_64},
    {NOTE_A5, MS_64},
    {NOTE_A5, MS_64},
    {NOTE_FS5, MS_64},
    {NOTE_FS5, MS_64},
    {NOTE_D5, MS_64},
    {NOTE_D5, MS_64},
    {NOTE_FS4, MS_64},
    {NOTE_FS4, MS_64},
    {NOTE_FS4, MS_64},
    {NOTE_REST, MS_32},
    {NOTE_E2, MS_64},
    {NOTE_E2, MS_64},
    {NOTE_E2, MS_64},
    {NOTE_E2, MS_64},
    {NOTE_E2, MS_64},
    {NOTE_E2, MS_64},
    {NOTE_E2, MS_64},
    {NOTE_E2, MS_64},
    {NOTE_REST, MS_32},
    {NOTE_B3, MS_32},
    {NOTE_B3, MS_64},
    {NOTE_REST, MS_32},
    {NOTE_B3, MS_32},
    {NOTE_B3, MS_32},
    {NOTE_C4, MS_16},
    {NOTE_C4, MS_64},
    {NOTE_B3, MS_64},
    {NOTE_B3, MS_64},
    {NOTE_REST, MS_64},
    {NOTE_D4, MS_32},
    {NOTE_D5, MS_64},
    {NOTE_REST, MS_32},
    {NOTE_D5, MS_64},
    {NOTE_D5, MS_64},
    {NOTE_REST, MS_32},
    {NOTE_E5, MS_16},
    {NOTE_E5, MS_64},
    {NOTE_D5, MS_32},
    {NOTE_D5, MS_32},
    {NOTE_REST, MS_64},
    {NOTE_G4, MS_32},
    {NOTE_B3, MS_64},
    {NOTE_REST, MS_32},
    {NOTE_B3, MS_32},
    {NOTE_B3, MS_32},
    {NOTE_C4, MS_16},
    {NOTE_B3, MS_32},
    {NOTE_REST, MS_32},
    {NOTE_C4, MS_64},
    {NOTE_C4, MS_64},
    {NOTE_C4, MS_64},
    {NOTE_REST, MS_32},
    {NOTE_D4, MS_64},
    {NOTE_D5, MS_64},
    {NOTE_REST, MS_32},
    {NOTE_E5, MS_32},
    {NOTE_E5, MS_64},
    {NOTE_E5, MS_64},
    {NOTE_D5, MS_32},
    {NOTE_D5, MS_64},
    {NOTE_REST, MS_64},
    {NOTE_D5, MS_64},
    {NOTE_D5, MS_64},
    {NOTE_G4, MS_64},
    {NOTE_REST, MS_32},
    {NOTE_B3, MS_32},
    {NOTE_B3, MS_64},
    {NOTE_B3, MS_64},
    {NOTE_B3, MS_64},
    {NOTE_C4, MS_16},
    {NOTE_C4, MS_64},
    {NOTE_G3, MS_64},
    {NOTE_G3, MS_32},
    {NOTE_G3, MS_64},
    {NOTE_B3, MS_64},
    {NOTE_B3, MS_64},
    {NOTE_C4, MS_32},
    {NOTE_C4, MS_64},
    {NOTE_A3, MS_64},
    {NOTE_A3, MS_64},
    {NOTE_G3, MS_32},
    {NOTE_G3, MS_64},
    {NOTE_G3, MS_64},
    {NOTE_E3, MS_64},
    {NOTE_D3, MS_32},
    {NOTE_D3, MS_64},
    {NOTE_FS3, MS_64},
    {NOTE_D4, MS_64},
    {NOTE_D4, MS_64},
    {NOTE_REST, MS_16},
    {NOTE_C5, MS_32},
    {NOTE_REST, MS_32},
    {NOTE_C5, MS_32},
    {NOTE_REST, MS_32},
    {NOTE_C5, MS_16},
    {NOTE_C6, MS_Q},
    {NOTE_C6, MS_Q},
    {NOTE_C6, MS_16},
    {NOTE_A5, MS_32},
    {NOTE_A5, MS_Q},
    {NOTE_F5, MS_64},
    {NOTE_D5, MS_64},
    {NOTE_C5, MS_64},
    {NOTE_REST, MS_32},
    {NOTE_CS5, MS_32},
    {NOTE_REST, MS_Q},
    {NOTE_C5, MS_64},
    {NOTE_REST, MS_32},
    {NOTE_C5, MS_64},
    {NOTE_REST, MS_32},
    {NOTE_B4, MS_64},
    {NOTE_B4, MS_64},
    {NOTE_REST, MS_16},
    {NOTE_G4, MS_32},
    {NOTE_G4, MS_64},
    {NOTE_REST, MS_16},
    {NOTE_GS4, MS_32},
    {NOTE_GS4, MS_64},
    {NOTE_CS5, MS_64},
    {NOTE_REST, MS_16},
    {NOTE_C5, MS_64},
    {NOTE_C5, MS_64},
    {NOTE_C5, MS_64},
    {NOTE_REST, MS_32},
    {NOTE_C5, MS_64},
    {NOTE_C5, MS_64},
    {NOTE_C5, MS_64},
    {NOTE_REST, MS_32},
    {NOTE_B4, MS_16},
    {NOTE_B4, MS_64},
    {NOTE_B3, MS_32},
    {NOTE_B2, MS_64},
    {NOTE_REST, MS_64},
    {NOTE_C3, MS_16},
    {NOTE_C3, MS_64},
    {NOTE_C3, MS_64},
    {NOTE_C3, MS_32},
    {NOTE_G4, MS_64},
    {NOTE_F4, MS_64},
    {NOTE_F4, MS_64},
    {NOTE_F4, MS_64},
    {NOTE_F4, MS_64},
    {NOTE_F4, MS_64},
    {NOTE_F4, MS_64},
    {NOTE_F4, MS_64},
    {NOTE_AS4, MS_64},
    {NOTE_AS4, MS_64},
    {NOTE_AS4, MS_64},
    {NOTE_D6, MS_32},
    {NOTE_REST, MS_64},
    {NOTE_G2, MS_64},
    {NOTE_G2, MS_64},
    {NOTE_A5, MS_64},
    {NOTE_REST, MS_32},
    {NOTE_G2, MS_64},
    {NOTE_G2, MS_64},
    {NOTE_A5, MS_64},
    {NOTE_REST, MS_32},
    {NOTE_G2, MS_64},
    {NOTE_G2, MS_64},
    {NOTE_G2, MS_32},
    {NOTE_G2, MS_64},
    {NOTE_G2, MS_64},
    {NOTE_F2, MS_64},
    {NOTE_F1, MS_64},
    {NOTE_B5, MS_64},
    {NOTE_REST, MS_32},
    {NOTE_G2, MS_64},
    {NOTE_G2, MS_64},
    {NOTE_G2, MS_64},
    {NOTE_G2, MS_32},
    {NOTE_G2, MS_64},
    {NOTE_F2, MS_64},
    {NOTE_C6, MS_64},
    {NOTE_REST, MS_64},
    {NOTE_A2, MS_64},
    {NOTE_A2, MS_64},
    {NOTE_REST, MS_32},
    {NOTE_A2, MS_64},
    {NOTE_A2, MS_64},
    {NOTE_A2, MS_64},
    {NOTE_REST, MS_32},
    {NOTE_G2, MS_64},
    {NOTE_G2, MS_64},
    {NOTE_G2, MS_64},
    {NOTE_G2, MS_64},
    {NOTE_G2, MS_64},
    {NOTE_G2, MS_64},
    {NOTE_G2, MS_64},
    {NOTE_F1, MS_64},
    {NOTE_C6, MS_32},
    {NOTE_REST, MS_64},
    {NOTE_A5, MS_64},
    {NOTE_A5, MS_64},
    {NOTE_GS4, MS_64},
    {NOTE_REST, MS_32},
    {NOTE_A5, MS_32},
    {NOTE_REST, MS_64},
    {NOTE_F1, MS_32},
    {NOTE_F1, MS_64},
    {NOTE_F1, MS_64},
    {NOTE_F1, MS_64},
    {NOTE_F1, MS_64},
    {NOTE_F1, MS_64},
    {NOTE_F1, MS_64},
    {NOTE_F1, MS_32},
    {NOTE_REST, MS_64},
    {NOTE_AS1, MS_64},
    {NOTE_AS1, MS_64},
    {NOTE_AS1, MS_64},
    {NOTE_AS1, MS_64},
    {NOTE_AS1, MS_32},
    {NOTE_AS1, MS_64},
    {NOTE_AS1, MS_64},
    {NOTE_B1, MS_32},
    {NOTE_B1, MS_64},
    {NOTE_B1, MS_64},
    {NOTE_B1, MS_64},
    {NOTE_B1, MS_64},
    {NOTE_B1, MS_64},
    {NOTE_B1, MS_64},
    {NOTE_B1, MS_64},
    {NOTE_B1, MS_64},
    {NOTE_B1, MS_64},
    {NOTE_B1, MS_64},
    {NOTE_B1, MS_32},
    {NOTE_B1, MS_64},
    {NOTE_B1, MS_32},
    {NOTE_B1, MS_64},
    {NOTE_B1, MS_32},
    {NOTE_B1, MS_64},
    {NOTE_B1, MS_64},
    {NOTE_B1, MS_64},
    {NOTE_B1, MS_64},
    {NOTE_B1, MS_64},
    {NOTE_B1, MS_64},
    {NOTE_B1, MS_64},
    {NOTE_B1, MS_64},
    {NOTE_B1, MS_64},
    {NOTE_B1, MS_64},
    {NOTE_B1, MS_64},
    {NOTE_B1, MS_64},
    {NOTE_B1, MS_64},
    {NOTE_B1, MS_64},
    {NOTE_B1, MS_64},
    {NOTE_B1, MS_64},
    {NOTE_G1, MS_32},
    {NOTE_CS3, MS_32},
    {NOTE_CS3, MS_64},
    {NOTE_C3, MS_64},
    {NOTE_G3, MS_64},
    {NOTE_G3, MS_64},
    {NOTE_REST, MS_64},
    {NOTE_B1, MS_64},
    {NOTE_B1, MS_64},
    {NOTE_B1, MS_64},
    {NOTE_G1, MS_32},
    {NOTE_B1, MS_64},
    {NOTE_B1, MS_64},
    {NOTE_B1, MS_64},
    {NOTE_B1, MS_64},
    {NOTE_B1, MS_64},
    {NOTE_B1, MS_16},
    {NOTE_B1, MS_32},
    {NOTE_B1, MS_32},
    {NOTE_B1, MS_64},
    {NOTE_C5, MS_32},
    {NOTE_REST, MS_64},
    {NOTE_AS4, MS_16},
    {NOTE_AS4, MS_64},
    {NOTE_AS4, MS_16},
    {NOTE_A4, MS_16},
    {NOTE_A4, MS_32},
    {NOTE_F5, MS_64},
    {NOTE_B4, MS_16},
    {NOTE_GS4, MS_64},
    {NOTE_GS4, MS_16},
    {NOTE_G4, MS_64},
    {NOTE_G4, MS_16},
    {NOTE_AS4, MS_64},
    {NOTE_AS4, MS_64},
    {NOTE_F5, MS_64},
    {NOTE_REST, MS_32},
    {NOTE_CS2, MS_64},
    {NOTE_CS2, MS_64},
    {NOTE_CS2, MS_64},
    {NOTE_CS2, MS_64},
    {NOTE_CS2, MS_64},
    {NOTE_REST, MS_32},
    {NOTE_CS2, MS_64},
    {NOTE_CS2, MS_64},
    {NOTE_CS2, MS_64},
    {NOTE_CS2, MS_64},
    {NOTE_REST, MS_64},
    {NOTE_C2, MS_64},
    {NOTE_REST, MS_Q},
    {NOTE_B3, MS_64},
    {NOTE_B3, MS_64},
    {NOTE_FS4, MS_64},
    {NOTE_REST, MS_32},
    {NOTE_FS4, MS_64},
    {NOTE_FS4, MS_64},
    {NOTE_B3, MS_32},
    {NOTE_C4, MS_32},
    {NOTE_C4, MS_64},
    {NOTE_REST, MS_16},
    {NOTE_CS4, MS_64},
    {NOTE_CS4, MS_64},
    {NOTE_CS4, MS_64},
    {NOTE_REST, MS_32},
    {NOTE_CS5, MS_64},
    {NOTE_CS5, MS_64},
    {NOTE_CS4, MS_64},
    {NOTE_REST, MS_64},
    {NOTE_C4, MS_64},
    {NOTE_REST, MS_32},
    {NOTE_C4, MS_32},
    {NOTE_C4, MS_32},
    {NOTE_REST, MS_64},
    {NOTE_B3, MS_64},
    {NOTE_B3, MS_64},
    {NOTE_B3, MS_32},
    {NOTE_B3, MS_64},
    {NOTE_B3, MS_64},
    {NOTE_B3, MS_32},
    {NOTE_REST, MS_64},
    {NOTE_CS3, MS_64},
    {NOTE_CS3, MS_64},
    {NOTE_CS3, MS_64},
    {NOTE_REST, MS_16},
    {NOTE_E3, MS_64},
    {NOTE_E3, MS_64},
    {NOTE_E3, MS_64},
    {NOTE_REST, MS_16},
    {NOTE_CS3, MS_64},
    {NOTE_CS3, MS_64},
    {NOTE_CS3, MS_64},
    {NOTE_CS3, MS_64},
    {NOTE_CS3, MS_64},
    {NOTE_CS3, MS_64},
    {NOTE_REST, MS_16},
    {NOTE_A3, MS_64},
    {NOTE_A3, MS_64},
    {NOTE_A3, MS_64},
    {NOTE_A3, MS_16},
    {NOTE_A3, MS_64},
    {NOTE_A3, MS_32},
    {NOTE_F1, MS_32},
    {NOTE_REST, MS_64},
    {NOTE_C2, MS_64},
    {NOTE_C2, MS_64},
    {NOTE_A5, MS_64},
    {NOTE_REST, MS_32},
    {NOTE_A5, MS_64},
    {NOTE_A5, MS_64},
    {NOTE_A5, MS_64},
    {NOTE_G4, MS_64},
    {NOTE_REST, MS_32},
    {NOTE_F4, MS_64},
    {NOTE_REST, MS_32},
    {NOTE_A5, MS_64},
    {NOTE_REST, MS_32},
    {NOTE_A5, MS_64},
    {NOTE_A5, MS_32},
    {NOTE_REST, MS_32},
    {NOTE_C4, MS_64},
    {NOTE_C4, MS_64},
    {NOTE_C4, MS_64},
    {NOTE_REST, MS_32},
    {NOTE_CS3, MS_64},
    {NOTE_CS3, MS_64},
    {NOTE_F3, MS_64},
    {NOTE_REST, MS_64},
    {NOTE_A3, MS_64},
    {NOTE_A3, MS_64},
    {NOTE_F3, MS_64},
    {NOTE_REST, MS_64},
    {NOTE_CS3, MS_64},
    {NOTE_CS3, MS_64},
    {NOTE_CS3, MS_16},
    {NOTE_CS3, MS_64},
    {NOTE_CS3, MS_64},
    {NOTE_CS3, MS_64},
    {NOTE_F1, MS_16},
    {NOTE_REST, MS_64},
    {NOTE_B1, MS_64},
    {NOTE_B1, MS_64},
    {NOTE_B1, MS_64},
    {NOTE_B1, MS_64},
    {NOTE_B1, MS_64},
    {NOTE_B1, MS_64},
    {NOTE_G2, MS_64},
    {NOTE_REST, MS_16},
    {NOTE_G2, MS_64},
    {NOTE_G2, MS_64},
    {NOTE_G2, MS_64},
    {NOTE_G2, MS_64},
    {NOTE_G2, MS_64},
    {NOTE_REST, MS_16},
    {NOTE_G2, MS_64},
    {NOTE_G2, MS_64},
    {NOTE_G2, MS_64},
    {NOTE_G2, MS_64},
    {NOTE_G2, MS_64},
    {NOTE_REST, MS_16},
    {NOTE_B1, MS_64},
    {NOTE_B1, MS_64},
    {NOTE_B1, MS_64},
    {NOTE_B1, MS_64},
    {NOTE_B1, MS_16},
    {NOTE_B1, MS_64},
    {NOTE_B1, MS_64},
    {NOTE_B1, MS_32},
    {NOTE_B1, MS_64},
    {NOTE_B1, MS_64},
    {NOTE_B1, MS_64},
    {NOTE_B1, MS_64},
    {NOTE_B1, MS_32},
    {NOTE_B1, MS_64},
    {NOTE_B1, MS_64},
    {NOTE_B1, MS_64},
    {NOTE_C4, MS_64},
    {NOTE_C4, MS_64},
    {NOTE_G4, MS_64},
    {NOTE_REST, MS_64},
    {NOTE_A5, MS_64},
    {NOTE_A5, MS_64},
    {NOTE_A4, MS_64},
    {NOTE_A4, MS_64},
    {NOTE_REST, MS_64},
    {NOTE_A5, MS_64},
    {NOTE_A5, MS_64},
    {NOTE_AS4, MS_64},
    {NOTE_AS4, MS_64},
    {NOTE_G4, MS_64},
    {NOTE_REST, MS_64},
    {NOTE_A5, MS_64},
    {NOTE_A5, MS_64},
    {NOTE_A4, MS_64},
    {NOTE_A4, MS_64},
    {NOTE_A4, MS_64},
    {NOTE_REST, MS_64},
    {NOTE_A5, MS_64},
    {NOTE_A5, MS_64},
    {NOTE_A5, MS_64},
    {NOTE_E4, MS_64},
    {NOTE_REST, MS_64},
    {NOTE_G2, MS_64},
    {NOTE_G2, MS_64},
    {NOTE_G2, MS_64},
    {NOTE_F5, MS_64},
    {NOTE_REST, MS_32},
    {NOTE_G2, MS_64},
    {NOTE_G2, MS_64},
    {NOTE_REST, MS_32},
    {NOTE_G2, MS_64},
    {NOTE_G2, MS_64},
    {NOTE_G2, MS_32},
    {NOTE_G2, MS_64},
    {NOTE_F2, MS_64},
    {NOTE_F2, MS_64},
    {NOTE_G4, MS_64},
    {NOTE_F5, MS_64},
    {NOTE_F5, MS_64},
    {NOTE_A4, MS_64},
    {NOTE_A4, MS_64},
    {NOTE_A4, MS_64},
    {NOTE_A4, MS_64},
    {NOTE_A4, MS_64},
    {NOTE_REST, MS_32},
    {NOTE_AS4, MS_64},
    {NOTE_AS4, MS_64},
    {NOTE_AS4, MS_64},
    {NOTE_AS4, MS_64},
    {NOTE_G4, MS_64},
    {NOTE_REST, MS_32},
    {NOTE_F4, MS_64},
    {NOTE_F4, MS_64},
    {NOTE_F4, MS_64},
    {NOTE_A4, MS_64},
    {NOTE_A4, MS_64},
    {NOTE_REST, MS_32},
    {NOTE_G4, MS_64},
    {NOTE_G4, MS_64},
    {NOTE_E4, MS_64},
    {NOTE_E4, MS_64},
    {NOTE_E4, MS_64},
    {NOTE_E4, MS_64},
    {NOTE_REST, MS_64},
    {NOTE_G2, MS_64},
    {NOTE_G2, MS_64},
    {NOTE_G2, MS_64},
    {NOTE_C5, MS_64},
    {NOTE_REST, MS_64},
    {NOTE_G2, MS_64},
    {NOTE_G2, MS_64},
    {NOTE_C5, MS_32},
    {NOTE_C5, MS_64},
    {NOTE_C5, MS_64},
    {NOTE_C5, MS_64},
    {NOTE_C5, MS_64},
    {NOTE_G4, MS_64},
    {NOTE_G4, MS_64},
    {NOTE_G4, MS_64},
    {NOTE_G4, MS_64},
    {NOTE_G4, MS_64},
    {NOTE_F5, MS_64},
    {NOTE_F5, MS_64},
    {NOTE_F5, MS_64},
    {NOTE_F5, MS_64},
    {NOTE_F5, MS_64},
    {NOTE_F5, MS_32},
    {NOTE_F5, MS_64},
    {NOTE_F5, MS_64},
    {NOTE_F5, MS_64},
    {NOTE_F5, MS_64},
    {NOTE_F5, MS_64},
    {NOTE_F5, MS_32},
    {NOTE_F5, MS_64},
    {NOTE_F5, MS_64},
    {NOTE_F5, MS_32},
    {NOTE_F5, MS_64},
    {NOTE_F5, MS_64},
    {NOTE_F5, MS_64},
    {NOTE_F5, MS_64},
    {NOTE_F5, MS_64},
    {NOTE_F5, MS_64},
    {NOTE_REST, MS_64},
    {NOTE_F5, MS_32},
    {NOTE_REST, MS_32},
    {NOTE_F5, MS_32},
    {NOTE_REST, MS_32},
    {NOTE_F5, MS_16},
    {NOTE_F5, MS_64},
    {NOTE_REST, MS_16},
    {NOTE_C5, MS_Q},
    {NOTE_C5, MS_Q},
    {NOTE_C5, MS_Q},
    {NOTE_C5, MS_64},
    {NOTE_DS5, MS_Q},
    {NOTE_DS5, MS_64},
    {NOTE_DS5, MS_64},
    {NOTE_REST, MS_16},
    {NOTE_A5, MS_32},
    {NOTE_C6, MS_32},
    {NOTE_C6, MS_64},
    {NOTE_G2, MS_64},
    {NOTE_REST, MS_16},
    {NOTE_G2, MS_32},
    {NOTE_G2, MS_64},
    {NOTE_G2, MS_64},
    {NOTE_F2, MS_64},
    {NOTE_F2, MS_32},
    {NOTE_REST, MS_64},
    {NOTE_D2, MS_32},
    {NOTE_D2, MS_64},
    {NOTE_D2, MS_64},
    {NOTE_D2, MS_64},
    {NOTE_GS2, MS_64},
    {NOTE_REST, MS_32},
    {NOTE_B1, MS_32},
    {NOTE_B1, MS_64},
    {NOTE_B1, MS_64},
    {NOTE_B1, MS_64},
    {NOTE_B1, MS_64},
    {NOTE_G3, MS_64},
    {NOTE_REST, MS_32},
    {NOTE_A2, MS_32},
    {NOTE_A2, MS_64},
    {NOTE_F2, MS_64},
    {NOTE_GS1, MS_64},
    {NOTE_REST, MS_32},
    {NOTE_G1, MS_32},
    {NOTE_G1, MS_64},
    {NOTE_G1, MS_64},
    {NOTE_G1, MS_64},
    {NOTE_G1, MS_64},
    {NOTE_G1, MS_64},
    {NOTE_D2, MS_64},
    {NOTE_REST, MS_32},
    {NOTE_A5, MS_32},
    {NOTE_A5, MS_64},
    {NOTE_C6, MS_64},
    {NOTE_C6, MS_64},
    {NOTE_C7, MS_64},
    {NOTE_C0, MS_16},
    {NOTE_G5, MS_32},
    {NOTE_REST, MS_32},
    {NOTE_G5, MS_16},
    {NOTE_REST, MS_64},
    {NOTE_A5, MS_16},
    {NOTE_REST, MS_64},
    {NOTE_G5, MS_16},
    {NOTE_G5, MS_64},
    {NOTE_G5, MS_64},
    {NOTE_G5, MS_32},
    {NOTE_G5, MS_32},
    {NOTE_G5, MS_32},
    {NOTE_G5, MS_16},
    {NOTE_G5, MS_64},
    {NOTE_G5, MS_32},
    {NOTE_G4, MS_64},
    {NOTE_G4, MS_64},
    {NOTE_G4, MS_64},
    {NOTE_G4, MS_64},
    {NOTE_G4, MS_64},
    {NOTE_G4, MS_64},
    {NOTE_G4, MS_64},
    {NOTE_E4, MS_64},
    {NOTE_C5, MS_64},
    {NOTE_G5, MS_64},
    {NOTE_G5, MS_64},
    {NOTE_G5, MS_64},
    {NOTE_G5, MS_64},
    {NOTE_G5, MS_64},
    {NOTE_REST, MS_64},
    {NOTE_G2, MS_64},
    {NOTE_G2, MS_64},
    {NOTE_G2, MS_64},
    {NOTE_E3, MS_64},
    {NOTE_E3, MS_64},
    {NOTE_REST, MS_64},
    {NOTE_F2, MS_64},
    {NOTE_F2, MS_64},
    {NOTE_D3, MS_64},
    {NOTE_D3, MS_64},
    {NOTE_REST, MS_64},
    {NOTE_E2, MS_64},
    {NOTE_E2, MS_64},
    {NOTE_G3, MS_64},
    {NOTE_REST, MS_64},
    {NOTE_D2, MS_64},
    {NOTE_D2, MS_64},
    {NOTE_D2, MS_64},
    {NOTE_D2, MS_64},
    {NOTE_D2, MS_64},
    {NOTE_D2, MS_64},
    {NOTE_D2, MS_64},
    {NOTE_REST, MS_32},
    {NOTE_G3, MS_32},
    {NOTE_G3, MS_32},
    {NOTE_B4, MS_64},
    {NOTE_REST, MS_64},
    {NOTE_CS3, MS_64},
    {NOTE_CS3, MS_64},
    {NOTE_CS3, MS_64},
    {NOTE_CS3, MS_64},
    {NOTE_CS3, MS_16},
    {NOTE_CS3, MS_64},
    {NOTE_CS3, MS_64},
    {NOTE_CS3, MS_64},
    {NOTE_CS3, MS_64},
    {NOTE_E3, MS_64},
    {NOTE_E3, MS_64},
    {NOTE_E3, MS_32},
    {NOTE_E3, MS_64},
    {NOTE_A3, MS_64},
    {NOTE_A3, MS_64},
    {NOTE_E3, MS_32},
    {NOTE_E3, MS_64},
    {NOTE_E3, MS_64},
    {NOTE_E3, MS_64},
    {NOTE_E3, MS_64},
    {NOTE_E3, MS_16},
    {NOTE_E3, MS_64},
    {NOTE_E3, MS_64},
    {NOTE_E3, MS_64},
    {NOTE_E3, MS_64},
    {NOTE_E3, MS_64},
    {NOTE_E3, MS_64},
    {NOTE_A1, MS_64},
    {NOTE_A1, MS_64},
    {NOTE_A1, MS_64},
    {NOTE_C4, MS_64},
    {NOTE_C5, MS_64},
    {NOTE_REST, MS_64},
    {NOTE_B5, MS_64},
    {NOTE_B5, MS_64},
    {NOTE_B5, MS_64},
    {NOTE_B5, MS_64},
    {NOTE_G3, MS_64},
    {NOTE_G3, MS_64},
    {NOTE_G3, MS_64},
    {NOTE_GS4, MS_64},
    {NOTE_REST, MS_64},
    {NOTE_CS3, MS_64},
    {NOTE_CS3, MS_64},
    {NOTE_CS3, MS_64},
    {NOTE_CS3, MS_64},
    {NOTE_CS3, MS_64},
    {NOTE_CS3, MS_64},
    {NOTE_C3, MS_64},
    {NOTE_C3, MS_64},
    {NOTE_GS3, MS_64},
    {NOTE_GS3, MS_64},
    {NOTE_GS4, MS_64},
    {NOTE_B5, MS_64},
    {NOTE_REST, MS_64},
    {NOTE_E2, MS_64},
    {NOTE_E2, MS_64},
    {NOTE_E2, MS_64},
    {NOTE_E2, MS_64},
    {NOTE_E2, MS_64},
    {NOTE_E2, MS_16},
    {NOTE_E2, MS_64},
    {NOTE_E2, MS_64},
    {NOTE_B1, MS_64},
    {NOTE_B1, MS_64},
    {NOTE_B1, MS_64},
    {NOTE_B1, MS_64},
    {NOTE_B1, MS_64},
    {NOTE_B1, MS_32},
    {NOTE_E2, MS_64},
    {NOTE_E2, MS_64},
    {NOTE_REST, MS_64},
    {NOTE_B1, MS_64},
    {NOTE_B1, MS_64},
    {NOTE_B1, MS_64},
    {NOTE_B1, MS_64},
    {NOTE_B1, MS_64},
    {NOTE_B1, MS_32},
    {NOTE_CS3, MS_32},
    {NOTE_CS3, MS_64},
    {NOTE_CS3, MS_64},
    {NOTE_CS3, MS_64},
    {NOTE_CS3, MS_32},
    {NOTE_CS3, MS_16},
    {NOTE_CS3, MS_64},
    {NOTE_CS3, MS_64},
    {NOTE_CS3, MS_32},
    {NOTE_CS3, MS_64},
    {NOTE_CS3, MS_64},
    {NOTE_CS3, MS_32},
    {NOTE_CS3, MS_64},
    {NOTE_CS3, MS_64},
    {NOTE_CS3, MS_32},
    {NOTE_CS3, MS_64},
    {NOTE_C3, MS_64},
    {NOTE_C3, MS_64},
    {NOTE_C3, MS_64},
    {NOTE_C3, MS_64},
    {NOTE_E3, MS_64},
    {NOTE_D5, MS_64},
    {NOTE_D5, MS_64},
    {NOTE_C5, MS_32},
    {NOTE_AS4, MS_32},
    {NOTE_AS4, MS_64},
    {NOTE_AS4, MS_64},
    {NOTE_AS4, MS_32},
    {NOTE_AS4, MS_64},
    {NOTE_AS4, MS_64},
    {NOTE_AS4, MS_64},
    {NOTE_AS4, MS_64},
    {NOTE_AS4, MS_64},
    {NOTE_AS4, MS_32},
    {NOTE_AS4, MS_32},
    {NOTE_AS4, MS_64},
    {NOTE_AS4, MS_64},
    {NOTE_AS4, MS_64},
    {NOTE_AS4, MS_64},
    {NOTE_AS4, MS_64},
    {NOTE_AS4, MS_64},
    {NOTE_AS4, MS_32},
    {NOTE_AS4, MS_64},
    {NOTE_AS4, MS_64},
    {NOTE_AS4, MS_64},
    {NOTE_AS4, MS_32},
    {NOTE_AS4, MS_64},
    {NOTE_AS4, MS_64},
    {NOTE_A5, MS_64},
    {NOTE_C5, MS_32},
    {NOTE_D5, MS_64},
    {NOTE_D5, MS_64},
    {NOTE_C2, MS_64},
    {NOTE_C5, MS_32},
    {NOTE_D5, MS_64},
    {NOTE_D5, MS_64},
    {NOTE_E5, MS_64},
    {NOTE_E5, MS_32},
    {NOTE_E5, MS_64},
    {NOTE_E5, MS_64},
    {NOTE_E5, MS_64},
    {NOTE_E5, MS_64},
    {NOTE_E5, MS_32},
    {NOTE_E5, MS_64},
    {NOTE_E5, MS_64},
    {NOTE_E5, MS_64},
    {NOTE_E5, MS_64},
    {NOTE_E5, MS_64},
    {NOTE_E5, MS_64},
    {NOTE_E5, MS_64},
    {NOTE_E5, MS_64},
    {NOTE_E5, MS_64},
    {NOTE_E5, MS_64},
    {NOTE_E5, MS_64},
    {NOTE_E5, MS_64},
    {NOTE_E5, MS_64},
    {NOTE_E5, MS_64},
    {NOTE_E5, MS_64},
    {NOTE_E5, MS_64},
    {NOTE_E5, MS_64},
    {NOTE_E5, MS_64},
    {NOTE_E5, MS_64},
    {NOTE_E5, MS_64},
    {NOTE_E5, MS_64},
    {NOTE_E5, MS_64},
    {NOTE_E5, MS_64},
    {NOTE_E5, MS_64},
    {NOTE_E5, MS_64},
    {NOTE_D5, MS_64},
    {NOTE_D5, MS_64},
    {NOTE_C5, MS_64},
    {NOTE_C5, MS_64},
    {NOTE_CS3, MS_64},
    {NOTE_CS3, MS_64},
    {NOTE_B4, MS_64},
    {NOTE_A5, MS_64},
    {NOTE_A5, MS_64},
    {NOTE_AS5, MS_16},
    {NOTE_AS5, MS_64},
    {NOTE_AS5, MS_64},
    {NOTE_AS5, MS_16},
    {NOTE_AS5, MS_64},
    {NOTE_AS5, MS_32},
    {NOTE_AS5, MS_64},
    {NOTE_AS5, MS_64},
    {NOTE_AS5, MS_64},
    {NOTE_AS5, MS_64},
    {NOTE_AS5, MS_64},
    {NOTE_AS5, MS_64},
    {NOTE_AS5, MS_64},
    {NOTE_AS5, MS_64},
    {NOTE_AS5, MS_64},
    {NOTE_AS5, MS_64},
    {NOTE_AS5, MS_64},
    {NOTE_AS5, MS_64},
    {NOTE_AS5, MS_64},
    {NOTE_AS5, MS_64},
    {NOTE_AS5, MS_64},
    {NOTE_AS5, MS_64},
    {NOTE_AS5, MS_64},
    {NOTE_AS5, MS_64},
    {NOTE_AS5, MS_64},
    {NOTE_AS5, MS_64},
    {NOTE_AS5, MS_64},
    {NOTE_C3, MS_64},
    {NOTE_REST, MS_64},
    {NOTE_CS3, MS_32},
    {NOTE_CS3, MS_64},
    {NOTE_CS3, MS_64},
    {NOTE_CS3, MS_64},
    {NOTE_CS3, MS_64},
    {NOTE_CS3, MS_32},
    {NOTE_CS3, MS_64},
    {NOTE_CS3, MS_64},
    {NOTE_CS3, MS_64},
    {NOTE_CS3, MS_64},
    {NOTE_CS3, MS_64},
    {NOTE_CS3, MS_32},
    {NOTE_CS3, MS_64},
    {NOTE_CS3, MS_64},
    {NOTE_CS3, MS_64},
    {NOTE_CS3, MS_32},
    {NOTE_CS3, MS_32},
    {NOTE_CS3, MS_64},
    {NOTE_CS3, MS_64},
    {NOTE_CS3, MS_32},
    {NOTE_CS3, MS_64},
    {NOTE_CS3, MS_64},
    {NOTE_CS3, MS_64},
    {NOTE_CS3, MS_64},
    {NOTE_CS3, MS_64},
    {NOTE_CS3, MS_64},
    {NOTE_CS3, MS_64},
    {NOTE_CS3, MS_64},
    {NOTE_CS3, MS_64},
    {NOTE_CS3, MS_64},
    {NOTE_CS3, MS_64},
    {NOTE_CS3, MS_64},
    {NOTE_CS3, MS_64},
    {NOTE_CS3, MS_64},
    {NOTE_CS3, MS_64},
    {NOTE_CS3, MS_64},
    {NOTE_CS3, MS_64},
    {NOTE_CS3, MS_64},
    {NOTE_CS3, MS_64},
    {NOTE_CS3, MS_64},
    {NOTE_CS3, MS_64},
    {NOTE_CS3, MS_32},
    {NOTE_CS3, MS_64},
    {NOTE_CS3, MS_64},
    {NOTE_CS3, MS_64},
    {NOTE_CS3, MS_64},
    {NOTE_CS3, MS_64},
    {NOTE_CS3, MS_32},
    {NOTE_CS3, MS_64},
    {NOTE_CS3, MS_64},
    {NOTE_CS3, MS_32},
    {NOTE_CS3, MS_64},
    {NOTE_CS3, MS_64},
    {NOTE_CS3, MS_64},
    {NOTE_CS3, MS_64},
    {NOTE_CS3, MS_64},
    {NOTE_CS3, MS_64},
    {NOTE_CS3, MS_32},
    {NOTE_CS3, MS_64},
    {NOTE_CS3, MS_64},
    {NOTE_CS3, MS_64},
    {NOTE_CS3, MS_64},
    {NOTE_CS3, MS_32},
    {NOTE_CS3, MS_64},
    {NOTE_CS3, MS_64},
    {NOTE_CS3, MS_64},
    {NOTE_CS3, MS_64},
    {NOTE_CS3, MS_64},
    {NOTE_CS3, MS_32},
    {NOTE_CS3, MS_64},
    {NOTE_CS3, MS_64},
    {NOTE_CS3, MS_64},
    {NOTE_CS3, MS_64},
    {NOTE_CS3, MS_32},
    {NOTE_CS3, MS_64},
    {NOTE_CS3, MS_64},
    {NOTE_CS3, MS_64},
    {NOTE_CS3, MS_32},
    {NOTE_CS3, MS_32},
    {NOTE_CS3, MS_64},
    {NOTE_CS3, MS_64},
    {NOTE_CS3, MS_64},
    {NOTE_CS3, MS_64},
    {NOTE_DS3, MS_32},
    {NOTE_DS3, MS_64},
    {NOTE_DS3, MS_64},
    {NOTE_B2, MS_64},
    {NOTE_B2, MS_64},
    {NOTE_C3, MS_32},
    {NOTE_C3, MS_64},
    {NOTE_C3, MS_64},
    {NOTE_D3, MS_64},
    {NOTE_D3, MS_64},
    {NOTE_D3, MS_64},
    {NOTE_DS3, MS_64},
    {NOTE_DS3, MS_64},
    {NOTE_D3, MS_64},
    {NOTE_D3, MS_64},
    {NOTE_D3, MS_64},
    {NOTE_D3, MS_64},
    {NOTE_D3, MS_64},
    {NOTE_D3, MS_64},
    {NOTE_E3, MS_64},
    {NOTE_E3, MS_64},
    {NOTE_E3, MS_64},
    {NOTE_E3, MS_64},
    {NOTE_DS3, MS_64},
    {NOTE_DS3, MS_64},
    {NOTE_DS3, MS_64},
    {NOTE_DS3, MS_64},
    {NOTE_G3, MS_64},
    {NOTE_B3, MS_32},
    {NOTE_B3, MS_64},
    {NOTE_B3, MS_64},
    {NOTE_B3, MS_64},
    {NOTE_C4, MS_64},
    {NOTE_C4, MS_64},
    {NOTE_C4, MS_32},
    {NOTE_C4, MS_64},
    {NOTE_FS2, MS_64},
    {NOTE_FS2, MS_64},
    {NOTE_FS2, MS_64},
    {NOTE_FS2, MS_64},
    {NOTE_FS2, MS_64},
    {NOTE_FS2, MS_64},
    {NOTE_FS2, MS_64},
    {NOTE_FS2, MS_64},
    {NOTE_FS2, MS_64},
    {NOTE_CS3, MS_64},
    {NOTE_CS3, MS_64},
    {NOTE_CS3, MS_64},
    {NOTE_CS3, MS_64},
    {NOTE_D3, MS_64},
    {NOTE_E3, MS_64},
    {NOTE_E3, MS_64},
    {NOTE_DS3, MS_64},
    {NOTE_DS3, MS_64},
    {NOTE_DS3, MS_64},
    {NOTE_DS3, MS_64},
    {NOTE_DS3, MS_64},
    {NOTE_DS3, MS_64},
    {NOTE_DS3, MS_32},
    {NOTE_A2, MS_64},
    {NOTE_CS3, MS_16},
    {NOTE_CS3, MS_64},
    {NOTE_CS3, MS_64},
    {NOTE_CS3, MS_64},
    {NOTE_CS3, MS_64},
    {NOTE_CS3, MS_64},
    {NOTE_CS3, MS_64},
    {NOTE_C3, MS_64},
    {NOTE_C3, MS_64},
    {NOTE_C3, MS_64},
    {NOTE_C3, MS_64},
    {NOTE_C3, MS_64},
    {NOTE_C3, MS_64},
    {NOTE_C3, MS_64},
    {NOTE_C3, MS_64},
    {NOTE_C3, MS_64},
    {NOTE_C3, MS_32},
    {NOTE_C3, MS_64},
    {NOTE_C3, MS_64},
    {NOTE_C3, MS_64},
    {NOTE_C3, MS_64},
    {NOTE_C3, MS_64},
    {NOTE_C3, MS_64},
    {NOTE_C3, MS_64},
    {NOTE_C3, MS_32},
    {NOTE_C3, MS_64},
    {NOTE_C3, MS_64},
    {NOTE_C3, MS_64},
    {NOTE_C3, MS_64},
    {NOTE_C3, MS_64},
    {NOTE_C3, MS_64},
    {NOTE_C3, MS_32},
    {NOTE_C3, MS_64},
    {NOTE_C3, MS_64},
    {NOTE_C3, MS_64},
    {NOTE_C3, MS_64},
    {NOTE_C3, MS_64},
    {NOTE_C3, MS_64},
    {NOTE_C3, MS_64},
    {NOTE_C3, MS_64},
    {NOTE_C3, MS_64},
    {NOTE_C3, MS_32},
    {NOTE_C3, MS_64},
    {NOTE_C3, MS_32},
    {NOTE_C3, MS_64},
    {NOTE_C3, MS_64},
    {NOTE_C3, MS_32},
    {NOTE_C3, MS_64},
    {NOTE_C3, MS_64},
    {NOTE_C3, MS_32},
    {NOTE_C3, MS_64},
    {NOTE_C3, MS_64},
    {NOTE_C3, MS_64},
    {NOTE_C3, MS_64},
    {NOTE_C3, MS_64},
    {NOTE_C3, MS_16},
    {NOTE_C3, MS_64},
    {NOTE_C3, MS_64},
    {NOTE_C3, MS_64},
    {NOTE_C3, MS_64},
    {NOTE_C3, MS_64},
    {NOTE_C3, MS_64},
    {NOTE_AS2, MS_64},
    {NOTE_AS2, MS_32},
    {NOTE_AS2, MS_64},
    {NOTE_AS2, MS_64},
    {NOTE_AS2, MS_64},
    {NOTE_AS2, MS_64},
    {NOTE_AS2, MS_64},
    {NOTE_AS2, MS_64},
    {NOTE_AS2, MS_64},
    {NOTE_G2, MS_64},
    {NOTE_G2, MS_64},
    {NOTE_G2, MS_64},
    {NOTE_G2, MS_64},
    {NOTE_G2, MS_64},
    {NOTE_G2, MS_32},
    {NOTE_G2, MS_64},
    {NOTE_G2, MS_64},
    {NOTE_G2, MS_64},
    {NOTE_G2, MS_64},
    {NOTE_G2, MS_32},
    {NOTE_G2, MS_64},
    {NOTE_G2, MS_32},
    {NOTE_G2, MS_64},
    {NOTE_G2, MS_64},
    {NOTE_G2, MS_64},
    {NOTE_G2, MS_32},
    {NOTE_G2, MS_64},
    {NOTE_G2, MS_64},
    {NOTE_G2, MS_64},
    {NOTE_G2, MS_64},
    {NOTE_G2, MS_64},
    {NOTE_G2, MS_64},
    {NOTE_E2, MS_64},
    {NOTE_G2, MS_64},
    {NOTE_G2, MS_64},
    {NOTE_G2, MS_64},
    {NOTE_G2, MS_64},
    {NOTE_E2, MS_64},
    {NOTE_AS1, MS_64},
    {NOTE_G2, MS_64},
    {NOTE_G2, MS_64},
    {NOTE_G2, MS_64},
    {NOTE_G2, MS_64},
    {NOTE_G2, MS_64},
    {NOTE_G2, MS_64},
    {NOTE_REST, MS_64},
    {NOTE_E2, MS_64},
    {NOTE_E2, MS_64},
    {NOTE_E2, MS_64},
    {NOTE_C2, MS_64},
    {NOTE_C3, MS_64},
    {NOTE_AS2, MS_64},
    {NOTE_AS2, MS_64},
    {NOTE_AS2, MS_64},
    {NOTE_C3, MS_64},
    {NOTE_C3, MS_64},
    {NOTE_C3, MS_64},
    {NOTE_C3, MS_64},
    {NOTE_CS3, MS_64},
    {NOTE_CS3, MS_64},
    {NOTE_CS3, MS_64},
    {NOTE_CS3, MS_Q},
    {NOTE_CS3, MS_64},
    {NOTE_CS3, MS_64},
    {NOTE_CS3, MS_64},
    {NOTE_CS3, MS_64},
    {NOTE_CS3, MS_64},
    {NOTE_DS3, MS_64},
    {NOTE_DS3, MS_64},
    {NOTE_DS3, MS_64},
    {NOTE_CS3, MS_16},
    {NOTE_CS3, MS_64},
    {NOTE_CS3, MS_64},
    {NOTE_CS3, MS_64},
    {NOTE_CS3, MS_64},
    {NOTE_CS3, MS_32},
    {NOTE_CS3, MS_64},
    {NOTE_C3, MS_32},
    {NOTE_C3, MS_32},
    {NOTE_C3, MS_64},
    {NOTE_C3, MS_64},
    {NOTE_C3, MS_64},
    {NOTE_C3, MS_64},
    {NOTE_C3, MS_64},
    {NOTE_C3, MS_64},
    {NOTE_C3, MS_16},
    {NOTE_C3, MS_64},
    {NOTE_C3, MS_64},
    {NOTE_C3, MS_64},
    {NOTE_C3, MS_64},
    {NOTE_C3, MS_64},
    {NOTE_C3, MS_64},
    {NOTE_C3, MS_64},
    {NOTE_C3, MS_32},
    {NOTE_C3, MS_64},
    {NOTE_C3, MS_64},
    {NOTE_C3, MS_64},
    {NOTE_C3, MS_64},
    {NOTE_C3, MS_64},
    {NOTE_C3, MS_64},
    {NOTE_C3, MS_64},
    {NOTE_C3, MS_64},
    {NOTE_C3, MS_64},
    {NOTE_C3, MS_64},
    {NOTE_C3, MS_64},
    {NOTE_C3, MS_64},
    {NOTE_C3, MS_32},
    {NOTE_C3, MS_64},
    {NOTE_C3, MS_64},
    {NOTE_C3, MS_64},
    {NOTE_C3, MS_64},
    {NOTE_C3, MS_64},
    {NOTE_C3, MS_64},
    {NOTE_C3, MS_32},
    {NOTE_C3, MS_64},
    {NOTE_C3, MS_64},
    {NOTE_C3, MS_64},
    {NOTE_C3, MS_32},
    {NOTE_C3, MS_64},
    {NOTE_C3, MS_64},
    {NOTE_C3, MS_64},
    {NOTE_C3, MS_64},
    {NOTE_C3, MS_64},
    {NOTE_C3, MS_64},
    {NOTE_C3, MS_32},
    {NOTE_C3, MS_64},
    {NOTE_C3, MS_64},
    {NOTE_C3, MS_64},
    {NOTE_C3, MS_64},
    {NOTE_C3, MS_64},
    {NOTE_C3, MS_64},
    {NOTE_C3, MS_64},
    {NOTE_C3, MS_32},
    {NOTE_C3, MS_64},
    {NOTE_C3, MS_64},
    {NOTE_C3, MS_64},
    {NOTE_C3, MS_64},
    {NOTE_C3, MS_64},
    {NOTE_C3, MS_64},
    {NOTE_C3, MS_64},
    {NOTE_C3, MS_64},
    {NOTE_C3, MS_64},
    {NOTE_CS3, MS_32},
    {NOTE_CS3, MS_64},
    {NOTE_CS3, MS_64},
    {NOTE_CS3, MS_64},
    {NOTE_CS3, MS_64},
    {NOTE_CS3, MS_64},
    {NOTE_F3, MS_64},
    {NOTE_F3, MS_64},
    {NOTE_F3, MS_64},
    {NOTE_F3, MS_32},
    {NOTE_F3, MS_64},
    {NOTE_F3, MS_32},
    {NOTE_F3, MS_64},
    {NOTE_F3, MS_64},
    {NOTE_F3, MS_64},
    {NOTE_F3, MS_32},
    {NOTE_F3, MS_64},
    {NOTE_F3, MS_32},
    {NOTE_F3, MS_64},
    {NOTE_F3, MS_64},
    {NOTE_F3, MS_64},
    {NOTE_F3, MS_64},
    {NOTE_F3, MS_32},
    {NOTE_F3, MS_64},
    {NOTE_F3, MS_64},
    {NOTE_F3, MS_64},
    {NOTE_F3, MS_32},
    {NOTE_F3, MS_64},
    {NOTE_F3, MS_64},
    {NOTE_F3, MS_64},
    {NOTE_F3, MS_64},
    {NOTE_AS3, MS_64},
    {NOTE_G3, MS_64},
    {NOTE_G3, MS_64},
    {NOTE_G3, MS_64},
    {NOTE_G3, MS_64},
    {NOTE_G3, MS_64},
    {NOTE_G3, MS_64},
    {NOTE_G3, MS_64},
    {NOTE_G3, MS_64},
    {NOTE_G3, MS_64},
    {NOTE_G3, MS_64},
    {NOTE_G3, MS_64},
    {NOTE_G3, MS_32},
    {NOTE_G3, MS_32},
    {NOTE_G3, MS_32},
    {NOTE_G3, MS_64},
    {NOTE_G3, MS_16},
    {NOTE_G3, MS_64},
    {NOTE_G3, MS_32},
    {NOTE_G3, MS_64},
    {NOTE_G3, MS_64},
    {NOTE_G3, MS_64},
    {NOTE_G3, MS_64},
    {NOTE_G3, MS_64},
    {NOTE_G3, MS_64},
    {NOTE_G3, MS_64},
    {NOTE_G3, MS_64},
    {NOTE_G3, MS_32},
    {NOTE_G3, MS_64},
    {NOTE_G3, MS_64},
    {NOTE_D3, MS_64},
    {NOTE_D3, MS_64},
    {NOTE_D3, MS_64},
    {NOTE_D3, MS_64},
    {NOTE_D3, MS_64},
    {NOTE_CS3, MS_16},
    {NOTE_CS3, MS_64},
    {NOTE_CS3, MS_64},
    {NOTE_CS3, MS_64},
    {NOTE_C3, MS_64},
    {NOTE_C3, MS_64},
    {NOTE_C3, MS_64},
    {NOTE_C3, MS_32},
    {NOTE_C3, MS_32},
    {NOTE_C3, MS_64},
    {NOTE_C3, MS_64},
    {NOTE_C3, MS_16},
    {NOTE_C3, MS_32},
    {NOTE_C3, MS_64},
    {NOTE_C3, MS_64},
    {NOTE_C3, MS_32},
    {NOTE_C3, MS_16},
    {NOTE_C3, MS_64},
    {NOTE_C3, MS_64},
    {NOTE_C3, MS_64},
    {NOTE_C3, MS_64},
    {NOTE_C3, MS_64},
    {NOTE_C3, MS_64},
    {NOTE_G3, MS_32},
    {NOTE_G3, MS_64},
    {NOTE_G3, MS_64},
    {NOTE_G3, MS_64},
    {NOTE_G3, MS_64},
    {NOTE_G3, MS_64},
    {NOTE_G3, MS_32},
    {NOTE_G3, MS_64},
    {NOTE_G3, MS_64},
    {NOTE_G3, MS_32},
    {NOTE_G3, MS_64},
    {NOTE_G3, MS_64},
    {NOTE_G3, MS_64},
    {NOTE_G3, MS_64},
    {NOTE_G3, MS_64},
    {NOTE_G3, MS_32},
    {NOTE_G3, MS_64},
    {NOTE_G3, MS_64},
    {NOTE_G3, MS_64},
    {NOTE_G3, MS_64},
    {NOTE_G3, MS_64},
    {NOTE_G3, MS_64},
    {NOTE_G3, MS_32},
    {NOTE_G3, MS_64},
    {NOTE_G3, MS_64},
    {NOTE_G3, MS_64},
    {NOTE_G3, MS_64},
    {NOTE_G3, MS_64},
    {NOTE_G3, MS_64},
    {NOTE_G3, MS_64},
    {NOTE_G3, MS_64},
    {NOTE_D4, MS_64},
    {NOTE_D4, MS_64},
    {NOTE_E2, MS_64},
    {NOTE_E2, MS_64},
    {NOTE_E2, MS_32},
    {NOTE_E2, MS_64},
    {NOTE_E2, MS_64},
    {NOTE_E2, MS_64},
    {NOTE_E2, MS_64},
    {NOTE_G2, MS_64},
    {NOTE_G2, MS_64},
    {NOTE_G2, MS_64},
    {NOTE_G2, MS_32},
    {NOTE_G2, MS_64},
    {NOTE_G2, MS_32},
    {NOTE_G2, MS_64},
    {NOTE_G2, MS_64},
    {NOTE_G2, MS_64},
    {NOTE_G2, MS_64},
    {NOTE_G2, MS_16},
    {NOTE_G2, MS_32},
    {NOTE_G2, MS_64},
    {NOTE_G2, MS_64},
    {NOTE_G2, MS_64},
    {NOTE_G2, MS_64},
    {NOTE_G2, MS_64},
    {NOTE_G2, MS_32},
    {NOTE_G2, MS_32},
    {NOTE_G2, MS_64},
    {NOTE_G2, MS_64},
    {NOTE_G2, MS_64},
    {NOTE_E2, MS_64},
    {NOTE_E2, MS_64},
    {NOTE_E2, MS_64},
    {NOTE_E2, MS_16},
    {NOTE_E2, MS_64},
    {NOTE_E2, MS_64},
    {NOTE_E2, MS_64},
    {NOTE_E2, MS_64},
    {NOTE_E2, MS_64},
    {NOTE_G2, MS_64},
    {NOTE_G2, MS_64},
    {NOTE_G2, MS_64},
    {NOTE_G2, MS_32},
    {NOTE_G2, MS_64},
    {NOTE_G2, MS_32},
    {NOTE_G2, MS_64},
    {NOTE_G2, MS_64},
    {NOTE_G2, MS_64},
    {NOTE_G2, MS_64},
    {NOTE_G2, MS_64},
    {NOTE_E2, MS_64},
    {NOTE_E2, MS_64},
    {NOTE_E2, MS_64},
    {NOTE_E2, MS_32},
    {NOTE_E2, MS_64},
    {NOTE_E2, MS_64},
    {NOTE_E2, MS_64},
    {NOTE_G2, MS_64},
    {NOTE_G2, MS_16},
    {NOTE_G2, MS_64},
    {NOTE_G2, MS_64},
    {NOTE_G2, MS_64},
    {NOTE_G2, MS_64},
    {NOTE_G2, MS_64},
    {NOTE_G2, MS_64},
    {NOTE_E2, MS_64},
    {NOTE_E2, MS_64},
    {NOTE_E2, MS_64},
    {NOTE_E2, MS_64},
    {NOTE_E2, MS_32},
    {NOTE_E2, MS_64},
    {NOTE_E2, MS_64},
    {NOTE_E2, MS_64},
    {NOTE_E2, MS_64},
    {NOTE_E2, MS_64},
    {NOTE_G2, MS_64},
    {NOTE_G2, MS_32},
    {NOTE_G2, MS_32},
    {NOTE_G2, MS_64},
    {NOTE_G2, MS_64},
    {NOTE_G2, MS_64},
    {NOTE_G2, MS_64},
    {NOTE_G2, MS_64},
    {NOTE_G2, MS_64},
    {NOTE_G2, MS_64},
    {NOTE_G2, MS_64},
    {NOTE_G2, MS_64},
    {NOTE_G2, MS_64},
    {NOTE_G2, MS_64},
    {NOTE_G2, MS_64},
    {NOTE_G2, MS_64},
    {NOTE_G2, MS_64},
    {NOTE_G2, MS_32},
    {NOTE_G2, MS_64},
    {NOTE_G2, MS_64},
    {NOTE_G2, MS_64},
    {NOTE_G2, MS_64},
    {NOTE_G2, MS_64},
    {NOTE_G2, MS_64},
    {NOTE_G2, MS_64},
    {NOTE_G2, MS_64},
    {NOTE_G2, MS_64},
    {NOTE_G2, MS_64},
    {NOTE_F2, MS_64},
    {NOTE_F2, MS_32},
    {NOTE_F2, MS_64},
    {NOTE_F2, MS_64},
    {NOTE_E2, MS_64},
    {NOTE_B1, MS_32},
    {NOTE_B1, MS_64},
    {NOTE_B1, MS_64},
    {NOTE_B1, MS_64},
    {NOTE_B1, MS_32},
    {NOTE_AS1, MS_32},
    {NOTE_E2, MS_64},
    {NOTE_E2, MS_16},
    {NOTE_E2, MS_64},
    {NOTE_E2, MS_64},
    {NOTE_C2, MS_64},
    {NOTE_C2, MS_32},
    {NOTE_B1, MS_64},
    {NOTE_B1, MS_64},
    {NOTE_B1, MS_64},
    {NOTE_B1, MS_64},
    {NOTE_B1, MS_64},
    {NOTE_B1, MS_64},
    {NOTE_E2, MS_64},
    {NOTE_F2, MS_64},
    {NOTE_F2, MS_64},
    {NOTE_CS3, MS_64},
    {NOTE_CS3, MS_64},
    {NOTE_CS3, MS_64},
    {NOTE_CS3, MS_64},
    {NOTE_CS3, MS_64},
    {NOTE_CS3, MS_64},
    {NOTE_CS3, MS_64},
    {NOTE_CS3, MS_64},
    {NOTE_CS3, MS_64},
    {NOTE_CS3, MS_32},
    {NOTE_CS3, MS_64},
    {NOTE_CS3, MS_64},
    {NOTE_CS3, MS_64},
    {NOTE_CS3, MS_64},
    {NOTE_CS3, MS_64},
    {NOTE_CS3, MS_64},
    {NOTE_CS3, MS_64},
    {NOTE_CS3, MS_64},
    {NOTE_CS3, MS_64},
    {NOTE_AS2, MS_32},
    {NOTE_AS2, MS_64},
    {NOTE_AS2, MS_64},
    {NOTE_AS2, MS_64},
    {NOTE_C3, MS_64},
    {NOTE_C3, MS_64},
    {NOTE_B2, MS_64},
    {NOTE_B2, MS_64},
    {NOTE_B2, MS_64},
    {NOTE_D3, MS_64},
    {NOTE_C3, MS_64},
    {NOTE_C3, MS_64},
    {NOTE_AS2, MS_64},
    {NOTE_AS2, MS_32},
    {NOTE_AS2, MS_64},
    {NOTE_AS2, MS_64},
    {NOTE_C3, MS_32},
    {NOTE_E2, MS_64},
    {NOTE_E2, MS_32},
    {NOTE_E2, MS_32},
    {NOTE_E2, MS_64},
    {NOTE_E2, MS_64},
    {NOTE_B1, MS_32},
    {NOTE_B1, MS_64},
    {NOTE_B1, MS_64},
    {NOTE_B1, MS_64},
    {NOTE_B1, MS_64},
    {NOTE_AS1, MS_64},
    {NOTE_AS1, MS_64},
    {NOTE_AS1, MS_64},
    {NOTE_E2, MS_64},
    {NOTE_E2, MS_32},
    {NOTE_E2, MS_64},
    {NOTE_E2, MS_64},
    {NOTE_E2, MS_64},
    {NOTE_E2, MS_64},
    {NOTE_E2, MS_64},
    {NOTE_C2, MS_32},
    {NOTE_B1, MS_64},
    {NOTE_B1, MS_64},
    {NOTE_B1, MS_64},
    {NOTE_B1, MS_64},
    {NOTE_B1, MS_64},
    {NOTE_E2, MS_64},
    {NOTE_AS2, MS_64},
    {NOTE_AS2, MS_64},
    {NOTE_F2, MS_64},
    {NOTE_F3, MS_64},
    {NOTE_REST, MS_64},
    {NOTE_CS3, MS_64},
    {NOTE_CS3, MS_64},
    {NOTE_CS3, MS_64},
    {NOTE_CS3, MS_64},
    {NOTE_CS3, MS_64},
    {NOTE_G2, MS_64},
    {NOTE_G3, MS_64},
    {NOTE_B1, MS_32},
    {NOTE_B1, MS_64},
    {NOTE_B1, MS_64},
    {NOTE_B1, MS_64},
    {NOTE_C2, MS_32},
    {NOTE_C2, MS_64},
    {NOTE_C2, MS_64},
    {NOTE_E2, MS_64},
    {NOTE_E2, MS_16},
    {NOTE_E2, MS_64},
    {NOTE_E2, MS_64},
    {NOTE_E2, MS_64},
    {NOTE_E2, MS_64},
    {NOTE_E2, MS_64},
    {NOTE_DS2, MS_32},
    {NOTE_DS2, MS_64},
    {NOTE_E2, MS_64},
    {NOTE_E2, MS_64},
    {NOTE_AS2, MS_64},
    {NOTE_AS2, MS_64},
    {NOTE_AS2, MS_64},
    {NOTE_AS2, MS_64},
    {NOTE_AS2, MS_64},
    {NOTE_AS2, MS_64},
    {NOTE_CS3, MS_64},
    {NOTE_CS3, MS_64},
    {NOTE_CS3, MS_64},
    {NOTE_CS3, MS_64},
    {NOTE_CS3, MS_64},
    {NOTE_CS3, MS_64},
    {NOTE_CS3, MS_64},
    {NOTE_CS3, MS_64},
    {NOTE_CS3, MS_64},
    {NOTE_CS3, MS_64},
    {NOTE_CS3, MS_64},
    {NOTE_GS3, MS_64},
    {NOTE_AS3, MS_64},
    {NOTE_AS3, MS_64},
    {NOTE_AS3, MS_64},
    {NOTE_GS3, MS_64},
    {NOTE_GS3, MS_64},
    {NOTE_AS3, MS_64},
    {NOTE_AS3, MS_64},
    {NOTE_AS3, MS_64},
    {NOTE_GS3, MS_64},
    {NOTE_GS3, MS_64},
    {NOTE_AS3, MS_32},
    {NOTE_AS3, MS_64},
    {NOTE_AS3, MS_64},
    {NOTE_C4, MS_32},
    {NOTE_C4, MS_64},
    {NOTE_CS3, MS_64},
    {NOTE_AS2, MS_32},
    {NOTE_C3, MS_64},
    {NOTE_C3, MS_64},
    {NOTE_D3, MS_64},
    {NOTE_D3, MS_64},
    {NOTE_A3, MS_64},
    {NOTE_C4, MS_64},
    {NOTE_C4, MS_64},
    {NOTE_C4, MS_64},
    {NOTE_B3, MS_64},
    {NOTE_B3, MS_64},
    {NOTE_B3, MS_64},
    {NOTE_B3, MS_64},
    {NOTE_B3, MS_64},
    {NOTE_B3, MS_64},
    {NOTE_B3, MS_64},
    {NOTE_B3, MS_64},
    {NOTE_B3, MS_64},
    {NOTE_B3, MS_64},
    {NOTE_B3, MS_64},
    {NOTE_B3, MS_64},
    {NOTE_B3, MS_64},
    {NOTE_B3, MS_64},
    {NOTE_B3, MS_64},
    {NOTE_B3, MS_64},
    {NOTE_B3, MS_64},
    {NOTE_B3, MS_64},
    {NOTE_B3, MS_64},
    {NOTE_B3, MS_64},
    {NOTE_B3, MS_64},
    {NOTE_B3, MS_64},
    {NOTE_B3, MS_64},
    {NOTE_B3, MS_64},
    {NOTE_AS3, MS_64},
    {NOTE_B3, MS_64},
    {NOTE_B3, MS_64},
    {NOTE_CS4, MS_64},
    {NOTE_CS4, MS_64},
    {NOTE_D4, MS_64},
    {NOTE_D4, MS_64},
    {NOTE_B3, MS_64},
    {NOTE_CS4, MS_64},
    {NOTE_CS4, MS_64},
    {NOTE_D4, MS_64},
    {NOTE_DS4, MS_64},
    {NOTE_DS4, MS_64},
    {NOTE_DS4, MS_64},
    {NOTE_GS4, MS_64},
    {NOTE_GS4, MS_32},
    {NOTE_GS4, MS_64},
    {NOTE_GS4, MS_64},
    {NOTE_GS4, MS_64},
    {NOTE_GS4, MS_64},
    {NOTE_GS4, MS_64},
    {NOTE_GS4, MS_64},
    {NOTE_GS4, MS_64},
    {NOTE_GS4, MS_64},
    {NOTE_GS4, MS_64},
    {NOTE_GS4, MS_64},
    {NOTE_GS4, MS_64},
    {NOTE_GS4, MS_64},
    {NOTE_DS5, MS_64},
    {NOTE_DS5, MS_64},
    {NOTE_D4, MS_64},
    {NOTE_DS4, MS_64},
    {NOTE_C4, MS_64},
    {NOTE_C4, MS_64},
    {NOTE_DS4, MS_16},
    {NOTE_DS4, MS_64},
    {NOTE_CS3, MS_64},
    {NOTE_CS3, MS_64},
    {NOTE_CS3, MS_64},
    {NOTE_CS3, MS_64},
    {NOTE_CS3, MS_64},
    {NOTE_CS3, MS_64},
    {NOTE_CS3, MS_64},
    {NOTE_CS3, MS_64},
    {NOTE_CS3, MS_64},
    {NOTE_CS3, MS_64},
    {NOTE_CS3, MS_64},
    {NOTE_CS3, MS_64},
    {NOTE_CS3, MS_64},
    {NOTE_CS3, MS_64},
    {NOTE_CS3, MS_64},
    {NOTE_CS3, MS_64},
    {NOTE_CS3, MS_64},
    {NOTE_CS3, MS_64},
    {NOTE_CS3, MS_64},
    {NOTE_CS3, MS_64},
    {NOTE_CS3, MS_64},
    {NOTE_CS3, MS_64},
    {NOTE_CS3, MS_64},
    {NOTE_CS3, MS_64},
    {NOTE_CS3, MS_64},
    {NOTE_CS3, MS_64},
    {NOTE_CS3, MS_64},
    {NOTE_CS3, MS_64},
    {NOTE_CS3, MS_64},
    {NOTE_CS3, MS_64},
    {NOTE_CS3, MS_64},
    {NOTE_CS3, MS_64},
    {NOTE_CS3, MS_64},
    {NOTE_CS3, MS_64},
    {NOTE_CS3, MS_64},
    {NOTE_CS3, MS_64},
    {NOTE_CS3, MS_64},
    {NOTE_CS3, MS_64},
    {NOTE_CS3, MS_64},
    {NOTE_CS3, MS_64},
    {NOTE_CS3, MS_64},
    {NOTE_CS3, MS_64},
    {NOTE_CS3, MS_64},
    {NOTE_CS3, MS_64},
    {NOTE_CS3, MS_64},
    {NOTE_CS3, MS_64},
    {NOTE_CS3, MS_64},
    {NOTE_CS3, MS_64},
    {NOTE_CS3, MS_64},
    {NOTE_CS3, MS_64},
    {NOTE_CS3, MS_64},
    {NOTE_CS3, MS_64},
    {NOTE_CS3, MS_64},
    {NOTE_CS3, MS_64},
    {NOTE_CS3, MS_64},
    {NOTE_CS3, MS_64},
    {NOTE_CS3, MS_64},
    {NOTE_CS3, MS_64},
    {NOTE_CS3, MS_64},
    {NOTE_CS3, MS_64},
    {NOTE_CS3, MS_64},
    {NOTE_B1, MS_Q},
    {NOTE_B1, MS_32},
    {NOTE_DS5, MS_H},
    {NOTE_DS5, MS_16},
    {NOTE_DS5, MS_16},
    {NOTE_DS5, MS_16},
    {NOTE_DS5, MS_16},
    {NOTE_DS5, MS_16},
    {NOTE_DS5, MS_16},
    {NOTE_DS5, MS_16},
    {NOTE_DS5, MS_16},
    {NOTE_DS4, MS_16},
    {NOTE_AS3, MS_16},
    {NOTE_F3, MS_16},
    {NOTE_AS3, MS_16},
    {NOTE_DS4, MS_64},
    {NOTE_E3, MS_16},
    {NOTE_E3, MS_16},
    {NOTE_E3, MS_64},
    {NOTE_E3, MS_32},
    {NOTE_E3, MS_64},
    {NOTE_E3, MS_64},
    {NOTE_E3, MS_32},
    {NOTE_E3, MS_64},
    {NOTE_E3, MS_64},
    {NOTE_E3, MS_32},
    {NOTE_E3, MS_64},
    {NOTE_E3, MS_64},
    {NOTE_E3, MS_64},
    {NOTE_E3, MS_64},
    {NOTE_E3, MS_32},
    {NOTE_E3, MS_64},
    {NOTE_E3, MS_64},
    {NOTE_E3, MS_64},
    {NOTE_E3, MS_64},
    {NOTE_E3, MS_64},
    {NOTE_DS3, MS_16},
    {NOTE_AS2, MS_64},
    {NOTE_AS2, MS_32},
    {NOTE_CS3, MS_32},
    {NOTE_CS3, MS_64},
    {NOTE_CS3, MS_32},
    {NOTE_CS3, MS_64},
    {NOTE_CS3, MS_64},
    {NOTE_CS3, MS_64},
    {NOTE_CS3, MS_64},
    {NOTE_CS3, MS_32},
    {NOTE_CS3, MS_64},
    {NOTE_CS3, MS_64},
    {NOTE_CS3, MS_32},
    {NOTE_CS3, MS_64},
    {NOTE_CS3, MS_64},
    {NOTE_CS3, MS_64},
    {NOTE_CS3, MS_64},
    {NOTE_CS3, MS_64},
    {NOTE_CS3, MS_64},
    {NOTE_CS3, MS_64},
    {NOTE_CS3, MS_64},
    {NOTE_CS3, MS_64},
    {NOTE_CS3, MS_32},
    {NOTE_CS3, MS_64},
    {NOTE_CS3, MS_64},
    {NOTE_CS3, MS_32},
    {NOTE_CS3, MS_64},
    {NOTE_D3, MS_64},
    {NOTE_AS2, MS_32},
    {NOTE_AS2, MS_16},
    {NOTE_E2, MS_64},
    {NOTE_E2, MS_16},
    {NOTE_C2, MS_64},
    {NOTE_C2, MS_64},
    {NOTE_C2, MS_64},
    {NOTE_C2, MS_64},
    {NOTE_C2, MS_64},
    {NOTE_C2, MS_64},
    {NOTE_C2, MS_16},
    {NOTE_C2, MS_64},
    {NOTE_C2, MS_16},
    {NOTE_C2, MS_64},
    {NOTE_E2, MS_64},
    {NOTE_E2, MS_32},
    {NOTE_E2, MS_64},
    {NOTE_E2, MS_64},
    {NOTE_E2, MS_64},
    {NOTE_E2, MS_64},
    {NOTE_E2, MS_64},
    {NOTE_E2, MS_64},
    {NOTE_C2, MS_16},
    {NOTE_AS2, MS_64},
    {NOTE_G2, MS_Q},
    {NOTE_G2, MS_32},
    {NOTE_G2, MS_64},
    {NOTE_G2, MS_32},
    {NOTE_G2, MS_64},
    {NOTE_G2, MS_64},
    {NOTE_G2, MS_64},
    {NOTE_D4, MS_64},
    {NOTE_D4, MS_64},
    {NOTE_DS4, MS_16},
    {NOTE_DS4, MS_64},
    {NOTE_DS4, MS_64},
    {NOTE_E3, MS_64},
    {NOTE_E3, MS_64},
    {NOTE_REST, MS_Q},
    {NOTE_B1, MS_DQ},
    {NOTE_G2, MS_64},
    {NOTE_G2, MS_64},
    {NOTE_G2, MS_64},
    {NOTE_G2, MS_64},
    {NOTE_D4, MS_64},
    {NOTE_D4, MS_64},
    {NOTE_DS4, MS_16},
    {NOTE_DS4, MS_64},
    {NOTE_DS4, MS_64},
    {NOTE_DS4, MS_64},
    {NOTE_DS4, MS_64},
    {NOTE_G4, MS_64},
    {NOTE_C5, MS_64},
    {NOTE_DS5, MS_32},
    {NOTE_C2, MS_16},
    {NOTE_B1, MS_Q},
    {NOTE_B1, MS_64},
    {NOTE_AS1, MS_64},
    {NOTE_AS1, MS_64},
    {NOTE_AS1, MS_32},
    {NOTE_AS1, MS_64},
    {NOTE_AS1, MS_64},
    {NOTE_F3, MS_64},
    {NOTE_AS4, MS_64},
    {NOTE_AS4, MS_64},
    {NOTE_AS4, MS_Q},
    {NOTE_AS4, MS_64},
    {NOTE_AS4, MS_64},
    {NOTE_AS4, MS_64},
    {NOTE_AS4, MS_32},
    {NOTE_AS4, MS_64},
    {NOTE_AS4, MS_64},
    {NOTE_DS5, MS_32},
    {NOTE_D5, MS_64},
    {NOTE_D5, MS_H},
    {NOTE_D5, MS_64},
    {NOTE_D5, MS_64},
    {NOTE_D5, MS_64},
    {NOTE_D5, MS_16},
    {NOTE_D5, MS_64},
    {NOTE_D5, MS_32},
    {NOTE_D5, MS_64},
    {NOTE_D5, MS_64},
    {NOTE_D5, MS_32},
    {NOTE_D5, MS_64},
    {NOTE_D5, MS_64},
    {NOTE_D5, MS_64},
    {NOTE_D5, MS_64},
    {NOTE_D5, MS_32},
    {NOTE_D5, MS_64},
    {NOTE_D5, MS_32},
    {NOTE_D5, MS_16},
    {NOTE_D5, MS_64},
    {NOTE_D5, MS_64},
    {NOTE_D5, MS_64},
    {NOTE_D5, MS_16},
    {NOTE_D5, MS_64},
    {NOTE_D5, MS_64},
    {NOTE_D5, MS_64},
    {NOTE_D5, MS_32},
    {NOTE_D5, MS_64},
    {NOTE_D5, MS_32},
    {NOTE_D5, MS_64},
    {NOTE_D5, MS_32},
    {NOTE_D5, MS_64},
    {NOTE_D5, MS_16},
    {NOTE_D5, MS_64},
    {NOTE_D5, MS_64},
    {NOTE_C5, MS_Q},
    {NOTE_C5, MS_16},
    {NOTE_C5, MS_16},
    {NOTE_C5, MS_32},
    {NOTE_C5, MS_32},
    {NOTE_C5, MS_32},
    {NOTE_C5, MS_64},
    {NOTE_C5, MS_64},
    {NOTE_C5, MS_64},
    {NOTE_C5, MS_64},
    {NOTE_C5, MS_64},
    {NOTE_C5, MS_64},
    {NOTE_C5, MS_64},
    {NOTE_C5, MS_32},
    {NOTE_C5, MS_64},
    {NOTE_C5, MS_64},
    {NOTE_AS4, MS_64},
    {NOTE_AS4, MS_64},
    {NOTE_AS4, MS_64},
    {NOTE_AS4, MS_16},
    {NOTE_AS4, MS_64},
    {NOTE_AS4, MS_32},
    {NOTE_AS4, MS_32},
    {NOTE_AS4, MS_16},
    {NOTE_AS4, MS_32},
    {NOTE_AS4, MS_32},
    {NOTE_AS4, MS_64},
    {NOTE_AS4, MS_64},
    {NOTE_AS4, MS_64},
    {NOTE_AS4, MS_32},
    {NOTE_AS4, MS_64},
    {NOTE_AS4, MS_64},
    {NOTE_AS4, MS_32},
    {NOTE_AS4, MS_16},
    {NOTE_AS4, MS_64},
    {NOTE_C5, MS_Q},
    {NOTE_C5, MS_64},
    {NOTE_C5, MS_64},
    {NOTE_G5, MS_Q},
    {NOTE_G5, MS_64},
    {NOTE_G5, MS_64},
    {NOTE_DS5, MS_32},
    {NOTE_DS5, MS_32},
    {NOTE_DS5, MS_32},
    {NOTE_DS5, MS_32},
    {NOTE_C5, MS_64},
    {NOTE_C5, MS_32},
    {NOTE_C5, MS_64},
    {NOTE_C5, MS_16},
    {NOTE_C5, MS_64},
    {NOTE_AS4, MS_16},
    {NOTE_AS4, MS_16},
    {NOTE_AS4, MS_32},
    {NOTE_AS4, MS_64},
    {NOTE_AS4, MS_64},
    {NOTE_AS4, MS_32},
    {NOTE_D4, MS_16},
    {NOTE_D4, MS_64},
    {NOTE_D4, MS_16},
    {NOTE_D4, MS_64},
    {NOTE_G4, MS_64},
    {NOTE_G4, MS_64},
    {NOTE_G4, MS_32},
    {NOTE_G4, MS_64},
    {NOTE_G4, MS_32},
    {NOTE_G4, MS_32},
    {NOTE_G4, MS_64},
    {NOTE_G4, MS_64},
    {NOTE_G4, MS_16},
    {NOTE_G4, MS_16},
    {NOTE_G4, MS_64},
    {NOTE_G4, MS_32},
    {NOTE_G4, MS_32},
    {NOTE_DS4, MS_16},
    {NOTE_DS4, MS_64},
    {NOTE_C4, MS_64},
    {NOTE_C4, MS_32},
    {NOTE_C4, MS_32},
    {NOTE_C4, MS_32},
    {NOTE_C4, MS_64},
    {NOTE_G4, MS_64},
    {NOTE_G4, MS_64},
    {NOTE_DS4, MS_64},
    {NOTE_DS4, MS_64},
    {NOTE_DS4, MS_64},
    {NOTE_DS4, MS_32},
    {NOTE_C5, MS_64},
    {NOTE_C5, MS_32},
    {NOTE_AS4, MS_16},
    {NOTE_AS4, MS_64},
    {NOTE_AS4, MS_32},
    {NOTE_AS4, MS_Q},
    {NOTE_AS4, MS_16},
    {NOTE_AS4, MS_16},
    {NOTE_AS4, MS_64},
    {NOTE_AS4, MS_64},
    {NOTE_AS4, MS_32},
    {NOTE_AS4, MS_32},
    {NOTE_AS4, MS_32},
    {NOTE_AS4, MS_32},
    {NOTE_CS3, MS_Q},
    {NOTE_CS3, MS_64},
    {NOTE_CS3, MS_16},
    {NOTE_CS3, MS_16},
    {NOTE_CS3, MS_16},
    {NOTE_CS3, MS_32},
    {NOTE_C3, MS_32},
    {NOTE_C3, MS_64},
    {NOTE_C3, MS_64},
    {NOTE_C3, MS_64},
    {NOTE_C3, MS_64},
    {NOTE_C3, MS_64},
    {NOTE_C3, MS_64},
    {NOTE_C3, MS_64},
    {NOTE_C3, MS_64},
    {NOTE_C3, MS_64},
    {NOTE_C3, MS_32},
    {NOTE_GS2, MS_32},
    {NOTE_GS2, MS_W},
    {NOTE_GS2, MS_16},
    {NOTE_GS2, MS_16},
    {NOTE_GS2, MS_Q},
    {NOTE_GS2, MS_32},
    {NOTE_GS2, MS_16},
    {NOTE_GS2, MS_32},
    {NOTE_GS2, MS_64},
    {NOTE_GS2, MS_64},
    {NOTE_GS2, MS_64},
    {NOTE_GS2, MS_64},
    {NOTE_GS2, MS_32},
    {NOTE_GS2, MS_64},
    {NOTE_AS2, MS_64},
    {NOTE_AS2, MS_16},
    {NOTE_AS2, MS_Q},
    {NOTE_AS2, MS_64},
    {NOTE_AS2, MS_64},
    {NOTE_AS2, MS_64},
    {NOTE_AS2, MS_64},
    {NOTE_AS2, MS_16},
    {NOTE_AS2, MS_16},
    {NOTE_AS2, MS_64},
    {NOTE_AS2, MS_64},
    {NOTE_AS2, MS_64},
    {NOTE_AS2, MS_16},
    {NOTE_AS2, MS_64},
    {NOTE_AS2, MS_32},
    {NOTE_AS2, MS_Q},
    {NOTE_AS2, MS_16},
    {NOTE_AS2, MS_DQ},
    {NOTE_AS2, MS_64},
    {NOTE_AS2, MS_64},
    {NOTE_AS2, MS_64},
    {NOTE_AS2, MS_16},
    {NOTE_AS2, MS_32},
    {NOTE_AS2, MS_64},
    {NOTE_DS3, MS_64},
    {NOTE_DS3, MS_32},
    {NOTE_AS3, MS_16},
    {NOTE_DS4, MS_16},
    {NOTE_G4, MS_64},
    {NOTE_DS5, MS_32},
    {NOTE_DS5, MS_64},
    {NOTE_DS5, MS_16},
    {NOTE_DS5, MS_64},
    {NOTE_DS5, MS_64},
    {NOTE_DS5, MS_16},
    {NOTE_DS5, MS_32},
    {NOTE_AS4, MS_64},
    {NOTE_AS4, MS_64},
    {NOTE_GS4, MS_Q},
    {NOTE_GS4, MS_64},
    {NOTE_GS4, MS_64},
    {NOTE_AS4, MS_16},
    {NOTE_AS4, MS_64},
    {NOTE_GS4, MS_Q},
    {NOTE_GS4, MS_64},
    {NOTE_GS4, MS_16},
    {NOTE_DS4, MS_64},
    {NOTE_DS4, MS_32},
    {NOTE_DS4, MS_32},
    {NOTE_G4, MS_64},
    {NOTE_G4, MS_16},
    {NOTE_G4, MS_32},
    {NOTE_AS4, MS_64},
    {NOTE_DS4, MS_16},
    {NOTE_DS4, MS_Q},
    {NOTE_DS4, MS_64},
    {NOTE_DS4, MS_64},
    {NOTE_DS4, MS_16},
    {NOTE_AS4, MS_64},
    {NOTE_AS4, MS_32},
    {NOTE_A4, MS_Q},
    {NOTE_A4, MS_64},
    {NOTE_A4, MS_64},
    {NOTE_A4, MS_16},
    {NOTE_A4, MS_64},
    {NOTE_A4, MS_Q},
    {NOTE_A4, MS_64},
    {NOTE_FS4, MS_64},
    {NOTE_D5, MS_32},
    {NOTE_D5, MS_64},
    {NOTE_D5, MS_32},
    {NOTE_D5, MS_64},
    {NOTE_AS4, MS_64},
    {NOTE_AS4, MS_64},
    {NOTE_AS4, MS_Q},
    {NOTE_AS4, MS_64},
    {NOTE_AS4, MS_32},
    {NOTE_AS4, MS_16},
    {NOTE_AS4, MS_32},
    {NOTE_F4, MS_16},
    {NOTE_F4, MS_64},
    {NOTE_F4, MS_32},
    {NOTE_F4, MS_32},
    {NOTE_AS4, MS_64},
    {NOTE_F3, MS_64},
    {NOTE_F3, MS_64},
    {NOTE_F3, MS_Q},
    {NOTE_F3, MS_64},
    {NOTE_F3, MS_64},
    {NOTE_F3, MS_16},
    {NOTE_F3, MS_32},
    {NOTE_F3, MS_16},
    {NOTE_F3, MS_32},
    {NOTE_F3, MS_64},
    {NOTE_F3, MS_64},
    {NOTE_F3, MS_64},
    {NOTE_F3, MS_32},
    {NOTE_F3, MS_32},
    {NOTE_F3, MS_32},
    {NOTE_F3, MS_64},
    {NOTE_E3, MS_16},
    {NOTE_E3, MS_32},
    {NOTE_E3, MS_32},
    {NOTE_E3, MS_64},
    {NOTE_E3, MS_16},
    {NOTE_E3, MS_32},
    {NOTE_E3, MS_Q},
    {NOTE_E3, MS_32},
    {NOTE_E3, MS_32},
    {NOTE_E3, MS_64},
    {NOTE_E3, MS_32},
    {NOTE_E3, MS_64},
    {NOTE_E3, MS_Q},
    {NOTE_E3, MS_64},
    {NOTE_E3, MS_16},
    {NOTE_E3, MS_32},
    {NOTE_E3, MS_64},
    {NOTE_DS3, MS_16},
    {NOTE_DS3, MS_32},
    {NOTE_DS3, MS_64},
    {NOTE_DS3, MS_32},
    {NOTE_DS3, MS_64},
    {NOTE_G2, MS_32},
    {NOTE_B1, MS_32},
    {NOTE_B1, MS_Q},
    {NOTE_B1, MS_64},
    {NOTE_B1, MS_16},
    {NOTE_B1, MS_32},
    {NOTE_B1, MS_32},
    {NOTE_B1, MS_64},
    {NOTE_B1, MS_Q},
    {NOTE_B1, MS_Q},
    {NOTE_B1, MS_64},
    {NOTE_B1, MS_64},
    {NOTE_B1, MS_64},
    {NOTE_B1, MS_64},
    {NOTE_B1, MS_64},
    {NOTE_B1, MS_Q},
    {NOTE_B1, MS_64},
    {NOTE_B1, MS_Q},
    {NOTE_B1, MS_64},
    {NOTE_B1, MS_Q},
    {NOTE_B1, MS_64},
    {NOTE_A1, MS_64},
    {NOTE_A1, MS_16},
    {NOTE_C3, MS_32},
    {NOTE_C3, MS_64},
    {NOTE_C3, MS_64},
    {NOTE_C3, MS_64},
    {NOTE_AS2, MS_64},
    {NOTE_AS2, MS_Q},
    {NOTE_AS2, MS_64},
    {NOTE_AS2, MS_16},
    {NOTE_AS2, MS_16},
    {NOTE_AS2, MS_64},
    {NOTE_AS2, MS_64},
    {NOTE_A2, MS_Q},
    {NOTE_A2, MS_32},
    {NOTE_A2, MS_32},
    {NOTE_A2, MS_Q},
    {NOTE_A2, MS_32},
    {NOTE_A2, MS_64},
    {NOTE_A2, MS_64},
    {NOTE_GS2, MS_DQ},
    {NOTE_GS2, MS_DQ},
    {NOTE_GS2, MS_64},
    {NOTE_GS2, MS_32},
    {NOTE_GS2, MS_32},
    {NOTE_GS2, MS_32},
    {NOTE_G2, MS_32},
    {NOTE_G2, MS_H},
    {NOTE_G2, MS_DH},
    {NOTE_G2, MS_16},
    {NOTE_G2, MS_Q},
    {NOTE_G2, MS_64},
    {NOTE_G2, MS_64},
    {NOTE_F2, MS_64},
    {NOTE_F2, MS_64},
    {NOTE_F2, MS_64},
    {NOTE_F2, MS_W},
    {NOTE_F3, MS_64},
    {NOTE_A3, MS_64},
    {NOTE_C4, MS_H},
};

// HARMONY
static const Step song_queen___bohemian_rhapsody_harmony[] = {
    {NOTE_AS4, MS_Q},
    {NOTE_GS4, MS_64},
    {NOTE_REST, MS_64},
    {NOTE_CS5, MS_16},
    {NOTE_REST, MS_64},
    {NOTE_REST, MS_64},
    {NOTE_REST, MS_32},
    {NOTE_CS5, MS_Q},
    {NOTE_AS4, MS_64},
    {NOTE_REST, MS_64},
    {NOTE_REST, MS_64},
    {NOTE_CS5, MS_H},
    {NOTE_GS4, MS_64},
    {NOTE_REST, MS_64},
    {NOTE_REST, MS_64},
    {NOTE_REST, MS_64},
    {NOTE_CS5, MS_DQ},
    {NOTE_CS5, MS_64},
    {NOTE_REST, MS_64},
    {NOTE_REST, MS_64},
    {NOTE_REST, MS_Q},
    {NOTE_CS5, MS_Q},
    {NOTE_REST, MS_64},
    {NOTE_REST, MS_64},
    {NOTE_CS5, MS_Q},
    {NOTE_CS5, MS_64},
    {NOTE_CS5, MS_64},
    {NOTE_AS4, MS_Q},
    {NOTE_GS4, MS_64},
    {NOTE_REST, MS_64},
    {NOTE_CS5, MS_Q},
    {NOTE_REST, MS_16},
    {NOTE_REST, MS_H},
    {NOTE_REST, MS_32},
    {NOTE_REST, MS_16},
    {NOTE_C5, MS_Q},
    {NOTE_C5, MS_64},
    {NOTE_GS4, MS_64},
    {NOTE_REST, MS_64},
    {NOTE_C5, MS_Q},
    {NOTE_C5, MS_64},
    {NOTE_REST, MS_64},
    {NOTE_GS4, MS_Q},
    {NOTE_GS4, MS_64},
    {NOTE_REST, MS_64},
    {NOTE_CS5, MS_H},
    {NOTE_C5, MS_16},
    {NOTE_C5, MS_64},
    {NOTE_C5, MS_Q},
    {NOTE_REST, MS_32},
    {NOTE_REST, MS_Q},
    {NOTE_REST, MS_32},
    {NOTE_CS5, MS_16},
    {NOTE_REST, MS_64},
    {NOTE_REST, MS_16},
    {NOTE_GS4, MS_16},
    {NOTE_GS4, MS_16},
    {NOTE_REST, MS_64},
    {NOTE_REST, MS_Q},
    {NOTE_REST, MS_32},
    {NOTE_REST, MS_Q},
    {NOTE_REST, MS_Q},
    {NOTE_REST, MS_W},
    {NOTE_REST, MS_64},
    {NOTE_REST, MS_Q},
    {NOTE_F4, MS_Q},
    {NOTE_F4, MS_64},
    {NOTE_F4, MS_64},
    {NOTE_AS3, MS_64},
    {NOTE_F3, MS_Q},
    {NOTE_F4, MS_64},
    {NOTE_F4, MS_Q},
    {NOTE_F3, MS_64},
    {NOTE_AS3, MS_64},
    {NOTE_F3, MS_Q},
    {NOTE_F4, MS_64},
    {NOTE_F4, MS_Q},
    {NOTE_AS3, MS_32},
    {NOTE_F3, MS_Q},
    {NOTE_F4, MS_32},
    {NOTE_F4, MS_16},
    {NOTE_F3, MS_64},
    {NOTE_REST, MS_64},
    {NOTE_F4, MS_64},
    {NOTE_AS3, MS_64},
    {NOTE_REST, MS_32},
    {NOTE_REST, MS_16},
    {NOTE_REST, MS_64},
    {NOTE_F4, MS_Q},
    {NOTE_F4, MS_64},
    {NOTE_CS4, MS_64},
    {NOTE_F4, MS_64},
    {NOTE_F4, MS_64},
    {NOTE_B3, MS_Q},
    {NOTE_FS4, MS_Q},
    {NOTE_GS4, MS_64},
    {NOTE_GS4, MS_Q},
    {NOTE_GS4, MS_64},
    {NOTE_GS4, MS_Q},
    {NOTE_F4, MS_64},
    {NOTE_CS4, MS_64},
    {NOTE_B3, MS_Q},
    {NOTE_F4, MS_64},
    {NOTE_F4, MS_Q},
    {NOTE_CS4, MS_64},
    {NOTE_B3, MS_32},
    {NOTE_B3, MS_64},
    {NOTE_REST, MS_16},
    {NOTE_AS4, MS_Q},
    {NOTE_AS4, MS_64},
    {NOTE_FS4, MS_64},
    {NOTE_AS3, MS_Q},
    {NOTE_AS4, MS_64},
    {NOTE_AS4, MS_Q},
    {NOTE_FS4, MS_64},
    {NOTE_CS4, MS_64},
    {NOTE_AS3, MS_Q},
    {NOTE_AS4, MS_64},
    {NOTE_AS4, MS_Q},
    {NOTE_AS4, MS_64},
    {NOTE_FS4, MS_64},
    {NOTE_AS3, MS_Q},
    {NOTE_AS4, MS_64},
    {NOTE_AS4, MS_32},
    {NOTE_FS4, MS_16},
    {NOTE_FS3, MS_Q},
    {NOTE_REST, MS_64},
    {NOTE_AS5, MS_64},
    {NOTE_AS5, MS_Q},
    {NOTE_AS5, MS_64},
    {NOTE_AS5, MS_64},
    {NOTE_AS5, MS_64},
    {NOTE_AS5, MS_16},
    {NOTE_AS3, MS_64},
    {NOTE_AS5, MS_64},
    {NOTE_AS5, MS_Q},
    {NOTE_AS5, MS_64},
    {NOTE_AS5, MS_64},
    {NOTE_AS5, MS_64},
    {NOTE_AS5, MS_Q},
    {NOTE_AS5, MS_64},
    {NOTE_AS5, MS_16},
    {NOTE_AS5, MS_32},
    {NOTE_AS5, MS_64},
    {NOTE_AS5, MS_Q},
    {NOTE_AS5, MS_64},
    {NOTE_AS5, MS_16},
    {NOTE_AS5, MS_32},
    {NOTE_AS5, MS_64},
    {NOTE_AS5, MS_16},
    {NOTE_AS5, MS_16},
    {NOTE_AS5, MS_64},
    {NOTE_AS5, MS_64},
    {NOTE_GS5, MS_64},
    {NOTE_GS5, MS_16},
    {NOTE_GS5, MS_64},
    {NOTE_DS4, MS_32},
    {NOTE_GS5, MS_64},
    {NOTE_GS5, MS_64},
    {NOTE_GS5, MS_Q},
    {NOTE_AS5, MS_64},
    {NOTE_AS5, MS_Q},
    {NOTE_AS5, MS_64},
    {NOTE_AS5, MS_64},
    {NOTE_AS5, MS_64},
    {NOTE_GS5, MS_32},
    {NOTE_GS5, MS_64},
    {NOTE_FS5, MS_16},
    {NOTE_DS5, MS_16},
    {NOTE_DS5, MS_64},
    {NOTE_DS5, MS_32},
    {NOTE_C4, MS_Q},
    {NOTE_REST, MS_32},
    {NOTE_REST, MS_Q},
    {NOTE_REST, MS_64},
    {NOTE_REST, MS_Q},
    {NOTE_B4, MS_16},
    {NOTE_REST, MS_32},
    {NOTE_B4, MS_16},
    {NOTE_B4, MS_64},
    {NOTE_B4, MS_64},
    {NOTE_REST, MS_64},
    {NOTE_REST, MS_64},
    {NOTE_F4, MS_16},
    {NOTE_D4, MS_64},
    {NOTE_AS3, MS_64},
    {NOTE_REST, MS_32},
    {NOTE_REST, MS_Q},
    {NOTE_A4, MS_16},
    {NOTE_E4, MS_64},
    {NOTE_REST, MS_64},
    {NOTE_REST, MS_64},
    {NOTE_A4, MS_16},
    {NOTE_A4, MS_64},
    {NOTE_A4, MS_64},
    {NOTE_A4, MS_64},
    {NOTE_A4, MS_64},
    {NOTE_REST, MS_64},
    {NOTE_REST, MS_32},
    {NOTE_AS4, MS_16},
    {NOTE_AS4, MS_32},
    {NOTE_REST, MS_64},
    {NOTE_REST, MS_Q},
    {NOTE_B4, MS_16},
    {NOTE_B4, MS_64},
    {NOTE_FS4, MS_64},
    {NOTE_FS4, MS_64},
    {NOTE_REST, MS_32},
    {NOTE_B4, MS_16},
    {NOTE_B4, MS_64},
    {NOTE_B4, MS_64},
    {NOTE_REST, MS_64},
    {NOTE_REST, MS_32},
    {NOTE_F4, MS_16},
    {NOTE_F4, MS_64},
    {NOTE_AS3, MS_64},
    {NOTE_AS3, MS_64},
    {NOTE_REST, MS_64},
    {NOTE_REST, MS_64},
    {NOTE_REST, MS_Q},
    {NOTE_A4, MS_16},
    {NOTE_A4, MS_64},
    {NOTE_A4, MS_64},
    {NOTE_E3, MS_32},
    {NOTE_A4, MS_32},
    {NOTE_A4, MS_64},
    {NOTE_A4, MS_64},
    {NOTE_REST, MS_32},
    {NOTE_REST, MS_64},
    {NOTE_AS4, MS_Q},
    {NOTE_F4, MS_32},
    {NOTE_AS3, MS_64},
    {NOTE_F3, MS_32},
    {NOTE_REST, MS_16},
    {NOTE_REST, MS_64},
    {NOTE_REST, MS_64},
    {NOTE_AS4, MS_64},
    {NOTE_DS4, MS_16},
    {NOTE_AS3, MS_32},
    {NOTE_G4, MS_32},
    {NOTE_DS4, MS_64},
    {NOTE_DS4, MS_16},
    {NOTE_AS4, MS_64},
    {NOTE_AS4, MS_64},
    {NOTE_AS4, MS_16},
    {NOTE_AS4, MS_64},
    {NOTE_REST, MS_64},
    {NOTE_G4, MS_64},
    {NOTE_G4, MS_Q},
    {NOTE_REST, MS_64},
    {NOTE_REST, MS_64},
    {NOTE_F4, MS_64},
    {NOTE_F4, MS_16},
    {NOTE_F4, MS_32},
    {NOTE_F4, MS_32},
    {NOTE_D4, MS_32},
    {NOTE_D4, MS_16},
    {NOTE_F4, MS_64},
    {NOTE_F4, MS_32},
    {NOTE_AS4, MS_16},
    {NOTE_AS4, MS_64},
    {NOTE_AS4, MS_32},
    {NOTE_REST, MS_16},
    {NOTE_REST, MS_64},
    {NOTE_E4, MS_64},
    {NOTE_E4, MS_16},
    {NOTE_E4, MS_32},
    {NOTE_AS3, MS_64},
    {NOTE_G4, MS_32},
    {NOTE_CS4, MS_16},
    {NOTE_CS4, MS_64},
    {NOTE_G4, MS_Q},
    {NOTE_G4, MS_64},
    {NOTE_G4, MS_64},
    {NOTE_AS4, MS_16},
    {NOTE_AS4, MS_64},
    {NOTE_AS4, MS_64},
    {NOTE_F4, MS_64},
    {NOTE_A4, MS_32},
    {NOTE_A4, MS_16},
    {NOTE_A4, MS_16},
    {NOTE_A4, MS_32},
    {NOTE_A4, MS_64},
    {NOTE_C4, MS_16},
    {NOTE_F4, MS_64},
    {NOTE_C4, MS_64},
    {NOTE_A3, MS_16},
    {NOTE_REST, MS_32},
    {NOTE_DS4, MS_64},
    {NOTE_DS4, MS_Q},
    {NOTE_C5, MS_Q},
    {NOTE_C5, MS_Q},
    {NOTE_C5, MS_32},
    {NOTE_C5, MS_Q},
    {NOTE_C5, MS_16},
    {NOTE_C5, MS_32},
    {NOTE_G4, MS_64},
    {NOTE_F4, MS_64},
    {NOTE_C5, MS_64},
    {NOTE_C5, MS_64},
    {NOTE_DS4, MS_32},
    {NOTE_C4, MS_16},
    {NOTE_C3, MS_32},
    {NOTE_REST, MS_16},
    {NOTE_REST, MS_64},
    {NOTE_REST, MS_H},
    {NOTE_REST, MS_64},
    {NOTE_AS2, MS_Q},
    {NOTE_F3, MS_32},
    {NOTE_AS2, MS_16},
    {NOTE_AS3, MS_Q},
    {NOTE_D4, MS_Q},
    {NOTE_G5, MS_32},
    {NOTE_G5, MS_16},
    {NOTE_G5, MS_Q},
    {NOTE_G5, MS_64},
    {NOTE_G5, MS_32},
    {NOTE_G5, MS_16},
    {NOTE_G5, MS_64},
    {NOTE_G5, MS_16},
    {NOTE_G5, MS_16},
    {NOTE_G5, MS_64},
    {NOTE_G5, MS_64},
    {NOTE_G5, MS_64},
    {NOTE_G5, MS_64},
    {NOTE_G4, MS_Q},
    {NOTE_G4, MS_64},
    {NOTE_G4, MS_Q},
    {NOTE_G4, MS_Q},
    {NOTE_G4, MS_64},
    {NOTE_D4, MS_Q},
    {NOTE_G5, MS_32},
    {NOTE_G5, MS_Q},
    {NOTE_G5, MS_32},
    {NOTE_G5, MS_16},
    {NOTE_G5, MS_32},
    {NOTE_G5, MS_16},
    {NOTE_G5, MS_64},
    {NOTE_G5, MS_32},
    {NOTE_G5, MS_16},
    {NOTE_G5, MS_64},
    {NOTE_G5, MS_64},
    {NOTE_G5, MS_64},
    {NOTE_D5, MS_64},
    {NOTE_D5, MS_16},
    {NOTE_D5, MS_64},
    {NOTE_D5, MS_Q},
    {NOTE_D5, MS_Q},
    {NOTE_D5, MS_Q},
    {NOTE_G5, MS_64},
    {NOTE_G5, MS_Q},
    {NOTE_G5, MS_Q},
    {NOTE_G5, MS_64},
    {NOTE_G5, MS_16},
    {NOTE_G5, MS_32},
    {NOTE_G5, MS_64},
    {NOTE_G5, MS_64},
    {NOTE_G5, MS_Q},
    {NOTE_G5, MS_64},
    {NOTE_G5, MS_64},
    {NOTE_G5, MS_64},
    {NOTE_G5, MS_64},
    {NOTE_C5, MS_Q},
    {NOTE_D4, MS_64},
    {NOTE_D5, MS_64},
    {NOTE_D5, MS_32},
    {NOTE_D5, MS_16},
    {NOTE_D5, MS_64},
    {NOTE_D5, MS_32},
    {NOTE_D5, MS_Q},
    {NOTE_D5, MS_Q},
    {NOTE_A5, MS_16},
    {NOTE_A5, MS_16},
    {NOTE_A5, MS_64},
    {NOTE_A5, MS_Q},
    {NOTE_A5, MS_64},
    {NOTE_A5, MS_16},
    {NOTE_A5, MS_16},
    {NOTE_A5, MS_32},
    {NOTE_A5, MS_64},
    {NOTE_A5, MS_16},
    {NOTE_A5, MS_64},
    {NOTE_A5, MS_64},
    {NOTE_A5, MS_64},
    {NOTE_DS5, MS_16},
    {NOTE_DS5, MS_64},
    {NOTE_F5, MS_16},
    {NOTE_F5, MS_64},
    {NOTE_DS5, MS_16},
    {NOTE_DS5, MS_16},
    {NOTE_D5, MS_16},
    {NOTE_D5, MS_16},
    {NOTE_G4, MS_16},
    {NOTE_D6, MS_32},
    {NOTE_D6, MS_16},
    {NOTE_D6, MS_64},
    {NOTE_D6, MS_Q},
    {NOTE_D6, MS_64},
    {NOTE_D6, MS_16},
    {NOTE_D6, MS_64},
    {NOTE_D6, MS_32},
    {NOTE_D6, MS_16},
    {NOTE_D6, MS_64},
    {NOTE_D6, MS_64},
    {NOTE_D6, MS_32},
    {NOTE_D6, MS_64},
    {NOTE_D6, MS_64},
    {NOTE_D6, MS_64},
    {NOTE_DS5, MS_64},
    {NOTE_DS5, MS_16},
    {NOTE_DS5, MS_64},
    {NOTE_C3, MS_64},
    {NOTE_F5, MS_64},
    {NOTE_F5, MS_32},
    {NOTE_F5, MS_32},
    {NOTE_DS5, MS_32},
    {NOTE_DS5, MS_64},
    {NOTE_DS5, MS_64},
    {NOTE_DS5, MS_32},
    {NOTE_DS4, MS_64},
    {NOTE_D5, MS_16},
    {NOTE_D5, MS_64},
    {NOTE_D5, MS_32},
    {NOTE_C5, MS_16},
    {NOTE_REST, MS_64},
    {NOTE_REST, MS_64},
    {NOTE_F3, MS_Q},
    {NOTE_DS4, MS_Q},
    {NOTE_F4, MS_Q},
    {NOTE_F3, MS_64},
    {NOTE_C5, MS_64},
    {NOTE_F3, MS_32},
    {NOTE_REST, MS_16},
    {NOTE_D5, MS_64},
    {NOTE_D5, MS_16},
    {NOTE_D4, MS_32},
    {NOTE_D5, MS_32},
    {NOTE_D5, MS_Q},
    {NOTE_D5, MS_32},
    {NOTE_D5, MS_Q},
    {NOTE_D5, MS_64},
    {NOTE_C5, MS_32},
    {NOTE_AS4, MS_16},
    {NOTE_D4, MS_64},
    {NOTE_G5, MS_64},
    {NOTE_G5, MS_32},
    {NOTE_G5, MS_64},
    {NOTE_G5, MS_32},
    {NOTE_G5, MS_64},
    {NOTE_G5, MS_Q},
    {NOTE_G5, MS_64},
    {NOTE_G5, MS_64},
    {NOTE_G5, MS_Q},
    {NOTE_G5, MS_64},
    {NOTE_G5, MS_Q},
    {NOTE_G5, MS_64},
    {NOTE_G5, MS_64},
    {NOTE_G5, MS_64},
    {NOTE_A5, MS_64},
    {NOTE_A5, MS_64},
    {NOTE_A5, MS_Q},
    {NOTE_A5, MS_64},
    {NOTE_A5, MS_32},
    {NOTE_D4, MS_16},
    {NOTE_D4, MS_32},
    {NOTE_AS3, MS_16},
    {NOTE_D4, MS_Q},
    {NOTE_A5, MS_64},
    {NOTE_A5, MS_Q},
    {NOTE_A5, MS_64},
    {NOTE_A5, MS_Q},
    {NOTE_A5, MS_64},
    {NOTE_A5, MS_32},
    {NOTE_A5, MS_16},
    {NOTE_A5, MS_64},
    {NOTE_A5, MS_64},
    {NOTE_A5, MS_32},
    {NOTE_A5, MS_64},
    {NOTE_A5, MS_16},
    {NOTE_A5, MS_64},
    {NOTE_AS5, MS_64},
    {NOTE_AS5, MS_64},
    {NOTE_AS5, MS_16},
    {NOTE_G4, MS_64},
    {NOTE_AS5, MS_64},
    {NOTE_AS5, MS_64},
    {NOTE_AS5, MS_32},
    {NOTE_G4, MS_64},
    {NOTE_AS5, MS_16},
    {NOTE_AS5, MS_Q},
    {NOTE_AS5, MS_64},
    {NOTE_AS5, MS_32},
    {NOTE_AS5, MS_32},
    {NOTE_G4, MS_64},
    {NOTE_AS5, MS_64},
    {NOTE_AS5, MS_64},
    {NOTE_AS5, MS_32},
    {NOTE_AS5, MS_64},
    {NOTE_AS5, MS_32},
    {NOTE_AS5, MS_32},
    {NOTE_AS5, MS_16},
    {NOTE_G5, MS_32},
    {NOTE_G5, MS_16},
    {NOTE_REST, MS_64},
    {NOTE_DS5, MS_64},
    {NOTE_DS5, MS_64},
    {NOTE_DS5, MS_64},
    {NOTE_D5, MS_16},
    {NOTE_D5, MS_64},
    {NOTE_D5, MS_32},
    {NOTE_C5, MS_64},
    {NOTE_C5, MS_16},
    {NOTE_C5, MS_Q},
    {NOTE_C5, MS_16},
    {NOTE_C5, MS_16},
    {NOTE_C5, MS_64},
    {NOTE_C5, MS_64},
    {NOTE_C5, MS_64},
    {NOTE_C5, MS_32},
    {NOTE_C5, MS_64},
    {NOTE_C5, MS_64},
    {NOTE_C5, MS_32},
    {NOTE_C5, MS_64},
    {NOTE_C5, MS_64},
    {NOTE_C5, MS_64},
    {NOTE_C5, MS_32},
    {NOTE_C5, MS_32},
    {NOTE_C5, MS_32},
    {NOTE_C5, MS_64},
    {NOTE_C5, MS_64},
    {NOTE_C5, MS_64},
    {NOTE_DS4, MS_64},
    {NOTE_DS4, MS_32},
    {NOTE_DS4, MS_32},
    {NOTE_DS4, MS_32},
    {NOTE_DS4, MS_64},
    {NOTE_DS4, MS_32},
    {NOTE_DS4, MS_32},
    {NOTE_REST, MS_32},
    {NOTE_DS4, MS_64},
    {NOTE_DS4, MS_64},
    {NOTE_DS4, MS_32},
    {NOTE_DS4, MS_32},
    {NOTE_DS4, MS_32},
    {NOTE_DS4, MS_64},
    {NOTE_DS4, MS_64},
    {NOTE_DS4, MS_32},
    {NOTE_F3, MS_64},
    {NOTE_F3, MS_32},
    {NOTE_F3, MS_32},
    {NOTE_REST, MS_64},
    {NOTE_AS5, MS_64},
    {NOTE_AS5, MS_64},
    {NOTE_AS5, MS_Q},
    {NOTE_AS5, MS_64},
    {NOTE_AS5, MS_64},
    {NOTE_AS5, MS_64},
    {NOTE_AS5, MS_64},
    {NOTE_AS5, MS_16},
    {NOTE_AS5, MS_32},
    {NOTE_AS5, MS_32},
    {NOTE_AS5, MS_32},
    {NOTE_AS5, MS_32},
    {NOTE_AS5, MS_64},
    {NOTE_AS5, MS_64},
    {NOTE_AS5, MS_64},
    {NOTE_AS5, MS_64},
    {NOTE_AS5, MS_64},
    {NOTE_AS5, MS_16},
    {NOTE_AS5, MS_64},
    {NOTE_AS5, MS_64},
    {NOTE_AS5, MS_32},
    {NOTE_AS5, MS_16},
    {NOTE_AS5, MS_64},
    {NOTE_AS5, MS_64},
    {NOTE_AS5, MS_32},
    {NOTE_AS5, MS_32},
    {NOTE_AS5, MS_64},
    {NOTE_AS5, MS_64},
    {NOTE_AS5, MS_64},
    {NOTE_AS5, MS_32},
    {NOTE_AS5, MS_64},
    {NOTE_AS5, MS_16},
    {NOTE_AS5, MS_64},
    {NOTE_AS5, MS_64},
    {NOTE_AS5, MS_64},
    {NOTE_AS5, MS_64},
    {NOTE_AS5, MS_64},
    {NOTE_AS5, MS_64},
    {NOTE_AS5, MS_64},
    {NOTE_AS5, MS_64},
    {NOTE_AS5, MS_64},
    {NOTE_C6, MS_64},
    {NOTE_C6, MS_64},
    {NOTE_C6, MS_64},
    {NOTE_C6, MS_64},
    {NOTE_C6, MS_16},
    {NOTE_C6, MS_32},
    {NOTE_C6, MS_64},
    {NOTE_C6, MS_Q},
    {NOTE_C6, MS_64},
    {NOTE_C6, MS_64},
    {NOTE_C6, MS_64},
    {NOTE_C6, MS_64},
    {NOTE_C6, MS_64},
    {NOTE_C6, MS_16},
    {NOTE_C6, MS_64},
    {NOTE_C6, MS_64},
    {NOTE_C6, MS_64},
    {NOTE_C6, MS_64},
    {NOTE_C6, MS_32},
    {NOTE_C6, MS_32},
    {NOTE_C6, MS_64},
    {NOTE_C6, MS_64},
    {NOTE_C6, MS_32},
    {NOTE_C6, MS_16},
    {NOTE_C6, MS_64},
    {NOTE_C6, MS_32},
    {NOTE_C6, MS_64},
    {NOTE_C6, MS_16},
    {NOTE_C6, MS_64},
    {NOTE_C6, MS_64},
    {NOTE_C6, MS_64},
    {NOTE_C6, MS_64},
    {NOTE_C6, MS_64},
    {NOTE_C6, MS_64},
    {NOTE_C6, MS_32},
    {NOTE_C6, MS_32},
    {NOTE_C6, MS_64},
    {NOTE_C6, MS_64},
    {NOTE_C6, MS_64},
    {NOTE_C6, MS_64},
    {NOTE_C6, MS_16},
    {NOTE_C6, MS_64},
    {NOTE_C6, MS_64},
    {NOTE_C6, MS_64},
    {NOTE_C6, MS_64},
    {NOTE_C6, MS_64},
    {NOTE_C6, MS_64},
    {NOTE_C6, MS_64},
    {NOTE_C6, MS_16},
    {NOTE_C6, MS_64},
    {NOTE_C6, MS_64},
    {NOTE_C6, MS_64},
    {NOTE_C6, MS_64},
    {NOTE_C6, MS_64},
    {NOTE_C6, MS_16},
    {NOTE_C6, MS_64},
    {NOTE_C6, MS_64},
    {NOTE_C6, MS_64},
    {NOTE_C6, MS_64},
    {NOTE_C6, MS_64},
    {NOTE_C6, MS_64},
    {NOTE_C6, MS_64},
    {NOTE_C6, MS_32},
    {NOTE_C6, MS_32},
    {NOTE_C6, MS_64},
    {NOTE_C6, MS_64},
    {NOTE_C6, MS_64},
    {NOTE_C6, MS_32},
    {NOTE_C6, MS_64},
    {NOTE_C6, MS_64},
    {NOTE_C6, MS_64},
    {NOTE_C6, MS_64},
    {NOTE_C6, MS_64},
    {NOTE_C6, MS_16},
    {NOTE_C6, MS_32},
    {NOTE_C6, MS_64},
    {NOTE_C6, MS_64},
    {NOTE_C6, MS_64},
    {NOTE_C6, MS_64},
    {NOTE_C6, MS_16},
    {NOTE_C6, MS_64},
    {NOTE_C6, MS_64},
    {NOTE_C6, MS_64},
    {NOTE_C6, MS_64},
    {NOTE_C6, MS_32},
    {NOTE_C6, MS_32},
    {NOTE_C6, MS_64},
    {NOTE_C6, MS_64},
    {NOTE_C6, MS_64},
    {NOTE_C6, MS_64},
    {NOTE_C6, MS_64},
    {NOTE_C6, MS_64},
    {NOTE_C6, MS_64},
    {NOTE_C6, MS_64},
    {NOTE_C6, MS_64},
    {NOTE_C6, MS_64},
    {NOTE_C6, MS_64},
    {NOTE_AS4, MS_64},
    {NOTE_AS4, MS_64},
    {NOTE_AS4, MS_32},
    {NOTE_AS4, MS_32},
    {NOTE_D4, MS_64},
    {NOTE_F5, MS_64},
    {NOTE_F5, MS_64},
    {NOTE_F5, MS_16},
    {NOTE_AS3, MS_16},
    {NOTE_F5, MS_64},
    {NOTE_F5, MS_64},
    {NOTE_F5, MS_64},
    {NOTE_F5, MS_64},
    {NOTE_F5, MS_32},
    {NOTE_F5, MS_32},
    {NOTE_F4, MS_64},
    {NOTE_G5, MS_64},
    {NOTE_G5, MS_64},
    {NOTE_G5, MS_64},
    {NOTE_G5, MS_32},
    {NOTE_AS3, MS_16},
    {NOTE_G5, MS_64},
    {NOTE_G5, MS_64},
    {NOTE_G5, MS_64},
    {NOTE_G5, MS_64},
    {NOTE_G5, MS_16},
    {NOTE_G5, MS_32},
    {NOTE_GS5, MS_64},
    {NOTE_GS5, MS_64},
    {NOTE_GS5, MS_64},
    {NOTE_GS5, MS_64},
    {NOTE_GS5, MS_64},
    {NOTE_GS5, MS_64},
    {NOTE_GS5, MS_32},
    {NOTE_AS3, MS_64},
    {NOTE_AS3, MS_64},
    {NOTE_GS5, MS_64},
    {NOTE_GS5, MS_64},
    {NOTE_GS5, MS_64},
    {NOTE_GS5, MS_64},
    {NOTE_GS5, MS_64},
    {NOTE_GS5, MS_64},
    {NOTE_GS5, MS_64},
    {NOTE_GS5, MS_32},
    {NOTE_GS5, MS_64},
    {NOTE_GS5, MS_64},
    {NOTE_GS5, MS_64},
    {NOTE_AS5, MS_64},
    {NOTE_AS5, MS_64},
    {NOTE_AS5, MS_64},
    {NOTE_AS5, MS_64},
    {NOTE_AS5, MS_16},
    {NOTE_AS5, MS_64},
    {NOTE_DS5, MS_16},
    {NOTE_DS5, MS_16},
    {NOTE_DS5, MS_64},
    {NOTE_DS5, MS_64},
    {NOTE_G5, MS_64},
    {NOTE_G5, MS_64},
    {NOTE_G5, MS_32},
    {NOTE_G5, MS_16},
    {NOTE_G5, MS_64},
    {NOTE_G5, MS_32},
    {NOTE_G5, MS_64},
    {NOTE_G5, MS_32},
    {NOTE_G5, MS_64},
    {NOTE_G4, MS_64},
    {NOTE_G4, MS_64},
    {NOTE_F5, MS_64},
    {NOTE_F5, MS_64},
    {NOTE_F5, MS_64},
    {NOTE_F5, MS_64},
    {NOTE_F5, MS_64},
    {NOTE_DS5, MS_64},
    {NOTE_DS5, MS_32},
    {NOTE_DS4, MS_64},
    {NOTE_F5, MS_64},
    {NOTE_F5, MS_64},
    {NOTE_F5, MS_32},
    {NOTE_F5, MS_32},
    {NOTE_F5, MS_32},
    {NOTE_F5, MS_64},
    {NOTE_F5, MS_64},
    {NOTE_F5, MS_64},
    {NOTE_F5, MS_64},
    {NOTE_F5, MS_16},
    {NOTE_F5, MS_32},
    {NOTE_F5, MS_64},
    {NOTE_F5, MS_64},
    {NOTE_F5, MS_32},
    {NOTE_F5, MS_64},
    {NOTE_F5, MS_64},
    {NOTE_F5, MS_32},
    {NOTE_F5, MS_64},
    {NOTE_F5, MS_64},
    {NOTE_DS5, MS_64},
    {NOTE_DS5, MS_64},
    {NOTE_DS5, MS_64},
    {NOTE_DS5, MS_64},
    {NOTE_DS5, MS_64},
    {NOTE_DS5, MS_64},
    {NOTE_DS5, MS_64},
    {NOTE_D5, MS_64},
    {NOTE_D5, MS_32},
    {NOTE_DS5, MS_64},
    {NOTE_DS5, MS_64},
    {NOTE_DS5, MS_32},
    {NOTE_DS5, MS_16},
    {NOTE_DS5, MS_64},
    {NOTE_DS5, MS_64},
    {NOTE_DS5, MS_64},
    {NOTE_DS5, MS_16},
    {NOTE_DS5, MS_32},
    {NOTE_DS5, MS_64},
    {NOTE_DS5, MS_64},
    {NOTE_DS5, MS_64},
    {NOTE_DS5, MS_64},
    {NOTE_DS5, MS_16},
    {NOTE_DS5, MS_64},
    {NOTE_DS5, MS_64},
    {NOTE_C5, MS_64},
    {NOTE_C5, MS_64},
    {NOTE_C5, MS_64},
    {NOTE_C5, MS_32},
    {NOTE_C5, MS_16},
    {NOTE_C5, MS_64},
    {NOTE_C5, MS_64},
    {NOTE_B4, MS_16},
    {NOTE_GS4, MS_64},
    {NOTE_CS5, MS_32},
    {NOTE_CS5, MS_32},
    {NOTE_CS5, MS_64},
    {NOTE_B4, MS_32},
    {NOTE_CS5, MS_64},
    {NOTE_CS5, MS_64},
    {NOTE_CS5, MS_32},
    {NOTE_GS4, MS_64},
    {NOTE_B4, MS_32},
    {NOTE_B4, MS_64},
    {NOTE_GS4, MS_64},
    {NOTE_CS5, MS_32},
    {NOTE_GS4, MS_64},
    {NOTE_B4, MS_32},
    {NOTE_B4, MS_64},
    {NOTE_B4, MS_64},
    {NOTE_GS4, MS_64},
    {NOTE_GS4, MS_64},
    {NOTE_GS4, MS_64},
    {NOTE_GS4, MS_64},
    {NOTE_GS4, MS_64},
    {NOTE_GS4, MS_64},
    {NOTE_DS3, MS_16},
    {NOTE_DS4, MS_Q},
    {NOTE_G4, MS_Q},
    {NOTE_DS4, MS_64},
    {NOTE_AS4, MS_Q},
    {NOTE_AS4, MS_32},
    {NOTE_GS5, MS_Q},
    {NOTE_GS5, MS_64},
    {NOTE_GS5, MS_32},
    {NOTE_GS5, MS_16},
    {NOTE_GS5, MS_64},
    {NOTE_AS4, MS_Q},
    {NOTE_DS5, MS_64},
    {NOTE_DS5, MS_64},
    {NOTE_DS5, MS_Q},
    {NOTE_DS5, MS_64},
    {NOTE_A4, MS_Q},
    {NOTE_DS5, MS_32},
    {NOTE_DS5, MS_Q},
    {NOTE_DS5, MS_64},
    {NOTE_GS4, MS_16},
    {NOTE_GS4, MS_32},
    {NOTE_GS4, MS_64},
    {NOTE_GS4, MS_64},
    {NOTE_GS4, MS_64},
    {NOTE_DS5, MS_32},
    {NOTE_DS5, MS_32},
    {NOTE_DS5, MS_64},
    {NOTE_DS3, MS_64},
    {NOTE_DS3, MS_64},
    {NOTE_REST, MS_64},
    {NOTE_AS3, MS_Q},
    {NOTE_AS3, MS_64},
    {NOTE_AS3, MS_32},
    {NOTE_F3, MS_16},
    {NOTE_F3, MS_64},
    {NOTE_AS3, MS_16},
    {NOTE_AS3, MS_64},
    {NOTE_AS3, MS_16},
    {NOTE_D4, MS_64},
    {NOTE_D4, MS_64},
    {NOTE_D4, MS_64},
    {NOTE_D4, MS_32},
    {NOTE_D4, MS_16},
    {NOTE_G5, MS_32},
    {NOTE_G5, MS_64},
    {NOTE_G5, MS_16},
    {NOTE_G5, MS_64},
    {NOTE_G5, MS_64},
    {NOTE_G5, MS_16},
    {NOTE_G5, MS_64},
    {NOTE_G5, MS_32},
    {NOTE_G5, MS_64},
    {NOTE_G5, MS_16},
    {NOTE_G5, MS_64},
    {NOTE_G5, MS_32},
    {NOTE_G5, MS_64},
    {NOTE_G5, MS_16},
    {NOTE_G5, MS_64},
    {NOTE_G5, MS_64},
    {NOTE_G5, MS_64},
    {NOTE_G5, MS_64},
    {NOTE_G4, MS_64},
    {NOTE_G4, MS_32},
    {NOTE_G4, MS_16},
    {NOTE_G4, MS_64},
    {NOTE_G4, MS_64},
    {NOTE_G4, MS_16},
    {NOTE_G4, MS_32},
    {NOTE_G4, MS_64},
    {NOTE_G4, MS_16},
    {NOTE_G4, MS_64},
    {NOTE_D4, MS_64},
    {NOTE_D4, MS_64},
    {NOTE_D4, MS_16},
    {NOTE_G5, MS_32},
    {NOTE_G5, MS_64},
    {NOTE_G5, MS_16},
    {NOTE_G5, MS_32},
    {NOTE_G5, MS_16},
    {NOTE_G5, MS_64},
    {NOTE_G5, MS_64},
    {NOTE_G5, MS_64},
    {NOTE_G5, MS_32},
    {NOTE_G5, MS_16},
    {NOTE_G5, MS_32},
    {NOTE_G5, MS_64},
    {NOTE_G5, MS_16},
    {NOTE_G5, MS_64},
    {NOTE_G5, MS_64},
    {NOTE_G5, MS_64},
    {NOTE_D4, MS_16},
    {NOTE_D4, MS_64},
    {NOTE_D4, MS_64},
    {NOTE_D4, MS_32},
    {NOTE_D4, MS_16},
    {NOTE_D4, MS_64},
    {NOTE_F3, MS_32},
    {NOTE_F3, MS_64},
    {NOTE_F3, MS_16},
    {NOTE_D4, MS_32},
    {NOTE_D4, MS_64},
    {NOTE_D4, MS_64},
    {NOTE_D4, MS_16},
    {NOTE_G5, MS_64},
    {NOTE_G5, MS_32},
    {NOTE_G5, MS_64},
    {NOTE_G5, MS_16},
    {NOTE_G5, MS_64},
    {NOTE_G5, MS_32},
    {NOTE_G5, MS_16},
    {NOTE_G5, MS_64},
    {NOTE_G5, MS_16},
    {NOTE_G5, MS_64},
    {NOTE_G5, MS_16},
    {NOTE_G5, MS_64},
    {NOTE_G5, MS_64},
    {NOTE_G5, MS_16},
    {NOTE_G5, MS_64},
    {NOTE_G5, MS_64},
    {NOTE_G5, MS_64},
    {NOTE_G5, MS_64},
    {NOTE_C4, MS_64},
    {NOTE_C4, MS_16},
    {NOTE_AS3, MS_64},
    {NOTE_D4, MS_64},
    {NOTE_D4, MS_64},
    {NOTE_D4, MS_64},
    {NOTE_D4, MS_16},
    {NOTE_D4, MS_32},
    {NOTE_AS3, MS_64},
    {NOTE_AS3, MS_32},
    {NOTE_AS3, MS_16},
    {NOTE_D4, MS_32},
    {NOTE_D4, MS_64},
    {NOTE_D4, MS_64},
    {NOTE_D4, MS_16},
    {NOTE_A5, MS_32},
    {NOTE_A5, MS_64},
    {NOTE_A5, MS_16},
    {NOTE_A5, MS_64},
    {NOTE_A5, MS_64},
    {NOTE_A5, MS_64},
    {NOTE_A5, MS_16},
    {NOTE_A5, MS_32},
    {NOTE_A5, MS_16},
    {NOTE_A5, MS_16},
    {NOTE_A5, MS_64},
    {NOTE_A5, MS_64},
    {NOTE_A5, MS_64},
    {NOTE_A5, MS_64},
    {NOTE_A5, MS_16},
    {NOTE_A5, MS_64},
    {NOTE_A5, MS_64},
    {NOTE_A5, MS_64},
    {NOTE_A5, MS_64},
    {NOTE_DS4, MS_64},
    {NOTE_DS4, MS_16},
    {NOTE_C3, MS_64},
    {NOTE_C3, MS_64},
    {NOTE_F4, MS_32},
    {NOTE_F4, MS_16},
    {NOTE_C3, MS_32},
    {NOTE_DS4, MS_32},
    {NOTE_DS4, MS_64},
    {NOTE_DS4, MS_64},
    {NOTE_DS4, MS_64},
    {NOTE_D4, MS_16},
    {NOTE_G4, MS_64},
    {NOTE_G4, MS_32},
    {NOTE_G4, MS_64},
    {NOTE_G4, MS_16},
    {NOTE_D6, MS_32},
    {NOTE_D6, MS_16},
    {NOTE_D6, MS_64},
    {NOTE_D6, MS_64},
    {NOTE_D6, MS_16},
    {NOTE_D6, MS_32},
    {NOTE_D6, MS_64},
    {NOTE_D6, MS_32},
    {NOTE_D6, MS_16},
    {NOTE_D6, MS_32},
    {NOTE_D6, MS_64},
    {NOTE_D6, MS_64},
    {NOTE_D6, MS_64},
    {NOTE_D6, MS_32},
    {NOTE_D6, MS_64},
    {NOTE_D6, MS_64},
    {NOTE_D6, MS_64},
    {NOTE_C5, MS_32},
    {NOTE_C5, MS_16},
    {NOTE_C5, MS_64},
    {NOTE_C5, MS_64},
    {NOTE_C5, MS_64},
    {NOTE_C5, MS_32},
    {NOTE_C5, MS_64},
    {NOTE_C5, MS_32},
    {NOTE_C5, MS_64},
    {NOTE_C5, MS_64},
    {NOTE_C5, MS_32},
    {NOTE_C5, MS_64},
    {NOTE_C5, MS_16},
    {NOTE_C5, MS_64},
    {NOTE_C5, MS_64},
    {NOTE_C5, MS_32},
    {NOTE_C5, MS_32},
    {NOTE_C5, MS_64},
    {NOTE_C5, MS_32},
    {NOTE_G4, MS_64},
    {NOTE_C4, MS_64},
    {NOTE_A4, MS_64},
    {NOTE_A4, MS_64},
    {NOTE_A4, MS_16},
    {NOTE_A4, MS_16},
    {NOTE_A4, MS_16},
    {NOTE_A4, MS_16},
    {NOTE_A4, MS_64},
    {NOTE_A4, MS_16},
    {NOTE_F4, MS_64},
    {NOTE_C5, MS_64},
    {NOTE_C5, MS_64},
    {NOTE_C5, MS_64},
    {NOTE_C4, MS_32},
    {NOTE_C4, MS_16},
    {NOTE_F3, MS_64},
    {NOTE_D4, MS_64},
    {NOTE_D4, MS_Q},
    {NOTE_D4, MS_32},
    {NOTE_D4, MS_32},
    {NOTE_D4, MS_16},
    {NOTE_D4, MS_32},
    {NOTE_F3, MS_64},
    {NOTE_F3, MS_64},
    {NOTE_F3, MS_16},
    {NOTE_D4, MS_64},
    {NOTE_C4, MS_32},
    {NOTE_C4, MS_64},
    {NOTE_C4, MS_64},
    {NOTE_AS3, MS_32},
    {NOTE_AS3, MS_64},
    {NOTE_F3, MS_64},
    {NOTE_G5, MS_64},
    {NOTE_G5, MS_32},
    {NOTE_G5, MS_64},
    {NOTE_G5, MS_32},
    {NOTE_G5, MS_64},
    {NOTE_G5, MS_64},
    {NOTE_G5, MS_64},
    {NOTE_G5, MS_16},
    {NOTE_G5, MS_64},
    {NOTE_G5, MS_32},
    {NOTE_G5, MS_64},
    {NOTE_G5, MS_16},
    {NOTE_G5, MS_32},
    {NOTE_G5, MS_16},
    {NOTE_G5, MS_64},
    {NOTE_G5, MS_64},
    {NOTE_D4, MS_32},
    {NOTE_D4, MS_16},
    {NOTE_D4, MS_64},
    {NOTE_D4, MS_64},
    {NOTE_D4, MS_64},
    {NOTE_D4, MS_16},
    {NOTE_F4, MS_32},
    {NOTE_G4, MS_64},
    {NOTE_G4, MS_32},
    {NOTE_G4, MS_64},
    {NOTE_G4, MS_64},
    {NOTE_G4, MS_16},
    {NOTE_G4, MS_64},
    {NOTE_G4, MS_32},
    {NOTE_G4, MS_16},
    {NOTE_A5, MS_64},
    {NOTE_A5, MS_32},
    {NOTE_A5, MS_16},
    {NOTE_A5, MS_64},
    {NOTE_A5, MS_64},
    {NOTE_A5, MS_16},
    {NOTE_A5, MS_32},
    {NOTE_A5, MS_64},
    {NOTE_A5, MS_32},
    {NOTE_A5, MS_64},
    {NOTE_A5, MS_64},
    {NOTE_A5, MS_32},
    {NOTE_A5, MS_64},
    {NOTE_A5, MS_32},
    {NOTE_A5, MS_64},
    {NOTE_A5, MS_64},
    {NOTE_A5, MS_64},
    {NOTE_A5, MS_32},
    {NOTE_A5, MS_64},
    {NOTE_A5, MS_64},
    {NOTE_A5, MS_64},
    {NOTE_A5, MS_64},
    {NOTE_AS4, MS_16},
    {NOTE_DS4, MS_64},
    {NOTE_DS4, MS_64},
    {NOTE_DS4, MS_64},
    {NOTE_AS4, MS_64},
    {NOTE_AS4, MS_16},
    {NOTE_G3, MS_32},
    {NOTE_C4, MS_64},
    {NOTE_AS4, MS_64},
    {NOTE_AS4, MS_32},
    {NOTE_C4, MS_32},
    {NOTE_AS4, MS_64},
    {NOTE_AS4, MS_64},
    {NOTE_AS4, MS_32},
    {NOTE_DS4, MS_64},
    {NOTE_DS4, MS_32},
    {NOTE_AS4, MS_32},
    {NOTE_AS4, MS_64},
    {NOTE_AS4, MS_Q},
    {NOTE_AS4, MS_64},
    {NOTE_AS4, MS_32},
    {NOTE_AS4, MS_64},
    {NOTE_AS4, MS_64},
    {NOTE_AS4, MS_64},
    {NOTE_G4, MS_64},
    {NOTE_G4, MS_16},
    {NOTE_G4, MS_64},
    {NOTE_DS4, MS_64},
    {NOTE_DS4, MS_16},
    {NOTE_DS4, MS_64},
    {NOTE_DS4, MS_16},
    {NOTE_D4, MS_64},
    {NOTE_D4, MS_64},
    {NOTE_G3, MS_32},
    {NOTE_G3, MS_64},
    {NOTE_DS4, MS_Q},
    {NOTE_DS4, MS_32},
    {NOTE_DS4, MS_32},
    {NOTE_GS3, MS_64},
    {NOTE_GS3, MS_32},
    {NOTE_CS3, MS_64},
    {NOTE_DS4, MS_Q},
    {NOTE_DS4, MS_64},
    {NOTE_DS4, MS_64},
    {NOTE_C4, MS_16},
    {NOTE_C4, MS_64},
    {NOTE_C4, MS_64},
    {NOTE_DS4, MS_64},
    {NOTE_DS4, MS_64},
    {NOTE_DS4, MS_Q},
    {NOTE_DS4, MS_64},
    {NOTE_DS4, MS_16},
    {NOTE_B1, MS_32},
    {NOTE_REST, MS_64},
    {NOTE_DS4, MS_64},
    {NOTE_DS4, MS_32},
    {NOTE_DS4, MS_32},
    {NOTE_DS4, MS_32},
    {NOTE_DS4, MS_64},
    {NOTE_DS4, MS_64},
    {NOTE_DS4, MS_32},
    {NOTE_F3, MS_64},
    {NOTE_F3, MS_16},
    {NOTE_REST, MS_64},
    {NOTE_DS5, MS_Q},
    {NOTE_DS5, MS_64},
    {NOTE_DS5, MS_64},
    {NOTE_DS5, MS_64},
    {NOTE_DS5, MS_64},
    {NOTE_DS5, MS_32},
    {NOTE_DS5, MS_32},
    {NOTE_DS5, MS_32},
    {NOTE_DS5, MS_32},
    {NOTE_DS5, MS_32},
    {NOTE_DS5, MS_32},
    {NOTE_DS5, MS_64},
    {NOTE_DS5, MS_32},
    {NOTE_DS5, MS_64},
    {NOTE_DS5, MS_64},
    {NOTE_DS5, MS_16},
    {NOTE_DS5, MS_64},
    {NOTE_DS5, MS_32},
    {NOTE_DS5, MS_64},
    {NOTE_DS5, MS_16},
    {NOTE_DS5, MS_64},
    {NOTE_DS5, MS_64},
    {NOTE_DS5, MS_32},
    {NOTE_DS5, MS_32},
    {NOTE_DS5, MS_64},
    {NOTE_F5, MS_16},
    {NOTE_F5, MS_64},
    {NOTE_F5, MS_64},
    {NOTE_F5, MS_32},
    {NOTE_F5, MS_64},
    {NOTE_F5, MS_64},
    {NOTE_F5, MS_64},
    {NOTE_F5, MS_64},
    {NOTE_F5, MS_16},
    {NOTE_F5, MS_64},
    {NOTE_F5, MS_64},
    {NOTE_F5, MS_64},
    {NOTE_F5, MS_64},
    {NOTE_DS5, MS_64},
    {NOTE_DS5, MS_32},
    {NOTE_DS5, MS_64},
    {NOTE_DS5, MS_32},
    {NOTE_DS5, MS_64},
    {NOTE_DS5, MS_32},
    {NOTE_DS5, MS_16},
    {NOTE_DS5, MS_64},
    {NOTE_DS5, MS_64},
    {NOTE_DS5, MS_32},
    {NOTE_DS5, MS_64},
    {NOTE_DS5, MS_32},
    {NOTE_DS5, MS_64},
    {NOTE_DS5, MS_64},
    {NOTE_DS5, MS_64},
    {NOTE_DS5, MS_32},
    {NOTE_DS5, MS_64},
    {NOTE_DS5, MS_32},
    {NOTE_DS5, MS_64},
    {NOTE_D5, MS_64},
    {NOTE_D5, MS_32},
    {NOTE_D5, MS_16},
    {NOTE_D5, MS_32},
    {NOTE_D5, MS_64},
    {NOTE_D5, MS_32},
    {NOTE_D5, MS_64},
    {NOTE_B4, MS_32},
    {NOTE_B4, MS_64},
    {NOTE_DS4, MS_64},
    {NOTE_DS4, MS_32},
    {NOTE_DS4, MS_64},
    {NOTE_DS4, MS_64},
    {NOTE_DS4, MS_64},
    {NOTE_DS4, MS_64},
    {NOTE_DS4, MS_32},
    {NOTE_DS4, MS_64},
    {NOTE_G4, MS_64},
    {NOTE_C5, MS_64},
    {NOTE_C5, MS_64},
    {NOTE_DS5, MS_64},
    {NOTE_DS5, MS_64},
    {NOTE_DS5, MS_64},
    {NOTE_G5, MS_64},
    {NOTE_G5, MS_64},
    {NOTE_G5, MS_64},
    {NOTE_G5, MS_64},
    {NOTE_GS4, MS_32},
    {NOTE_GS4, MS_64},
    {NOTE_GS4, MS_16},
    {NOTE_GS4, MS_64},
    {NOTE_GS4, MS_64},
    {NOTE_F4, MS_32},
    {NOTE_F4, MS_32},
    {NOTE_C4, MS_64},
    {NOTE_C4, MS_16},
    {NOTE_C5, MS_64},
    {NOTE_C5, MS_32},
    {NOTE_C5, MS_64},
    {NOTE_G5, MS_64},
    {NOTE_G5, MS_64},
    {NOTE_G5, MS_32},
    {NOTE_G5, MS_64},
    {NOTE_F5, MS_64},
    {NOTE_F5, MS_64},
    {NOTE_F5, MS_64},
    {NOTE_F5, MS_32},
    {NOTE_C5, MS_64},
    {NOTE_C5, MS_64},
    {NOTE_F5, MS_32},
    {NOTE_F5, MS_64},
    {NOTE_F5, MS_32},
    {NOTE_F5, MS_32},
    {NOTE_F5, MS_64},
    {NOTE_F5, MS_32},
    {NOTE_F5, MS_64},
    {NOTE_F5, MS_64},
    {NOTE_F5, MS_32},
    {NOTE_F5, MS_16},
    {NOTE_F5, MS_64},
    {NOTE_F5, MS_32},
    {NOTE_F5, MS_32},
    {NOTE_F5, MS_64},
    {NOTE_F5, MS_64},
    {NOTE_F5, MS_64},
    {NOTE_C4, MS_64},
    {NOTE_C4, MS_64},
    {NOTE_E2, MS_64},
    {NOTE_AS4, MS_64},
    {NOTE_AS4, MS_64},
    {NOTE_AS4, MS_32},
    {NOTE_E2, MS_64},
    {NOTE_REST, MS_64},
    {NOTE_D5, MS_64},
    {NOTE_D5, MS_32},
    {NOTE_D5, MS_32},
    {NOTE_D5, MS_32},
    {NOTE_D5, MS_64},
    {NOTE_D5, MS_64},
    {NOTE_F5, MS_64},
    {NOTE_F5, MS_64},
    {NOTE_F5, MS_32},
    {NOTE_F5, MS_32},
    {NOTE_D5, MS_32},
    {NOTE_F5, MS_64},
    {NOTE_F5, MS_64},
    {NOTE_F5, MS_64},
    {NOTE_F5, MS_64},
    {NOTE_F5, MS_64},
    {NOTE_F5, MS_16},
    {NOTE_D5, MS_64},
    {NOTE_D5, MS_64},
    {NOTE_G5, MS_64},
    {NOTE_G5, MS_64},
    {NOTE_G5, MS_64},
    {NOTE_G5, MS_32},
    {NOTE_G5, MS_16},
    {NOTE_D5, MS_64},
    {NOTE_DS5, MS_64},
    {NOTE_G5, MS_64},
    {NOTE_G5, MS_64},
    {NOTE_G5, MS_32},
    {NOTE_G5, MS_32},
    {NOTE_DS5, MS_64},
    {NOTE_GS5, MS_64},
    {NOTE_GS5, MS_64},
    {NOTE_GS5, MS_64},
    {NOTE_GS5, MS_32},
    {NOTE_GS5, MS_32},
    {NOTE_DS5, MS_64},
    {NOTE_F5, MS_64},
    {NOTE_GS5, MS_64},
    {NOTE_GS5, MS_64},
    {NOTE_GS5, MS_64},
    {NOTE_GS5, MS_64},
    {NOTE_GS5, MS_64},
    {NOTE_GS5, MS_32},
    {NOTE_GS5, MS_64},
    {NOTE_GS5, MS_64},
    {NOTE_GS5, MS_64},
    {NOTE_GS5, MS_64},
    {NOTE_GS5, MS_64},
    {NOTE_GS5, MS_64},
    {NOTE_GS5, MS_16},
    {NOTE_GS5, MS_32},
    {NOTE_GS5, MS_64},
    {NOTE_GS5, MS_16},
    {NOTE_GS5, MS_16},
    {NOTE_GS5, MS_64},
    {NOTE_G5, MS_16},
    {NOTE_G5, MS_16},
    {NOTE_G5, MS_64},
    {NOTE_G5, MS_16},
    {NOTE_G5, MS_32},
    {NOTE_G5, MS_32},
    {NOTE_G5, MS_64},
    {NOTE_G5, MS_64},
    {NOTE_G5, MS_64},
    {NOTE_G5, MS_64},
    {NOTE_G5, MS_64},
    {NOTE_G5, MS_64},
    {NOTE_G5, MS_32},
    {NOTE_G5, MS_64},
    {NOTE_G5, MS_64},
    {NOTE_G5, MS_64},
    {NOTE_F5, MS_64},
    {NOTE_F5, MS_32},
    {NOTE_F5, MS_16},
    {NOTE_F5, MS_64},
    {NOTE_F5, MS_64},
    {NOTE_F5, MS_64},
    {NOTE_F5, MS_Q},
    {NOTE_F5, MS_32},
    {NOTE_D5, MS_64},
    {NOTE_D5, MS_64},
    {NOTE_D5, MS_32},
    {NOTE_D5, MS_64},
    {NOTE_D5, MS_64},
    {NOTE_D5, MS_32},
    {NOTE_D5, MS_32},
    {NOTE_D5, MS_64},
    {NOTE_D5, MS_32},
    {NOTE_D5, MS_32},
    {NOTE_D5, MS_64},
    {NOTE_D3, MS_64},
    {NOTE_DS5, MS_64},
    {NOTE_DS5, MS_32},
    {NOTE_DS5, MS_16},
    {NOTE_DS5, MS_64},
    {NOTE_DS5, MS_32},
    {NOTE_DS5, MS_Q},
    {NOTE_G5, MS_64},
    {NOTE_G5, MS_32},
    {NOTE_G5, MS_64},
    {NOTE_G5, MS_32},
    {NOTE_G5, MS_16},
    {NOTE_G5, MS_32},
    {NOTE_G5, MS_64},
    {NOTE_G5, MS_32},
    {NOTE_G5, MS_64},
    {NOTE_G5, MS_32},
    {NOTE_C6, MS_64},
    {NOTE_C6, MS_64},
    {NOTE_C6, MS_64},
    {NOTE_C6, MS_16},
    {NOTE_C6, MS_64},
    {NOTE_C6, MS_64},
    {NOTE_C6, MS_64},
    {NOTE_C6, MS_64},
    {NOTE_C6, MS_64},
    {NOTE_C6, MS_32},
    {NOTE_C6, MS_64},
    {NOTE_C6, MS_16},
    {NOTE_G5, MS_64},
    {NOTE_G5, MS_64},
    {NOTE_G5, MS_64},
    {NOTE_G5, MS_64},
    {NOTE_G5, MS_64},
    {NOTE_G5, MS_64},
    {NOTE_G5, MS_64},
    {NOTE_G5, MS_64},
    {NOTE_G5, MS_64},
    {NOTE_G5, MS_64},
    {NOTE_G5, MS_64},
    {NOTE_G5, MS_64},
    {NOTE_G5, MS_64},
    {NOTE_G5, MS_64},
    {NOTE_G5, MS_64},
    {NOTE_G5, MS_64},
    {NOTE_G5, MS_64},
    {NOTE_D5, MS_64},
    {NOTE_D5, MS_16},
    {NOTE_DS5, MS_64},
    {NOTE_DS5, MS_16},
    {NOTE_DS5, MS_64},
    {NOTE_DS5, MS_64},
    {NOTE_GS4, MS_64},
    {NOTE_F5, MS_64},
    {NOTE_F5, MS_16},
    {NOTE_F5, MS_64},
    {NOTE_E5, MS_32},
    {NOTE_E5, MS_16},
    {NOTE_E5, MS_64},
    {NOTE_E5, MS_64},
    {NOTE_E5, MS_64},
    {NOTE_E5, MS_32},
    {NOTE_E5, MS_32},
    {NOTE_E5, MS_64},
    {NOTE_E5, MS_64},
    {NOTE_E5, MS_64},
    {NOTE_E5, MS_64},
    {NOTE_F5, MS_64},
    {NOTE_F5, MS_64},
    {NOTE_DS5, MS_64},
    {NOTE_DS5, MS_32},
    {NOTE_G5, MS_32},
    {NOTE_G5, MS_64},
    {NOTE_F5, MS_32},
    {NOTE_GS5, MS_32},
    {NOTE_F5, MS_64},
    {NOTE_AS5, MS_64},
    {NOTE_AS5, MS_64},
    {NOTE_G5, MS_64},
    {NOTE_G5, MS_64},
    {NOTE_DS5, MS_64},
    {NOTE_DS5, MS_64},
    {NOTE_GS5, MS_64},
    {NOTE_GS5, MS_32},
    {NOTE_D5, MS_64},
    {NOTE_D5, MS_64},
    {NOTE_AS5, MS_32},
    {NOTE_D5, MS_64},
    {NOTE_D5, MS_64},
    {NOTE_D5, MS_64},
    {NOTE_D5, MS_32},
    {NOTE_D5, MS_32},
    {NOTE_D5, MS_32},
    {NOTE_E2, MS_64},
    {NOTE_REST, MS_64},
    {NOTE_AS5, MS_64},
    {NOTE_AS5, MS_16},
    {NOTE_AS5, MS_16},
    {NOTE_AS5, MS_64},
    {NOTE_AS5, MS_64},
    {NOTE_AS5, MS_64},
    {NOTE_GS5, MS_64},
    {NOTE_GS5, MS_64},
    {NOTE_AS5, MS_16},
    {NOTE_E5, MS_64},
    {NOTE_E5, MS_64},
    {NOTE_G5, MS_64},
    {NOTE_G5, MS_64},
    {NOTE_G5, MS_64},
    {NOTE_G5, MS_64},
    {NOTE_AS5, MS_64},
    {NOTE_AS5, MS_64},
    {NOTE_AS5, MS_64},
    {NOTE_AS5, MS_64},
    {NOTE_AS5, MS_64},
    {NOTE_GS5, MS_64},
    {NOTE_F5, MS_64},
    {NOTE_F5, MS_64},
    {NOTE_G5, MS_64},
    {NOTE_G5, MS_64},
    {NOTE_GS5, MS_64},
    {NOTE_GS5, MS_32},
    {NOTE_GS5, MS_64},
    {NOTE_G5, MS_64},
    {NOTE_G5, MS_64},
    {NOTE_DS5, MS_64},
    {NOTE_F5, MS_64},
    {NOTE_G5, MS_64},
    {NOTE_G5, MS_64},
    {NOTE_G5, MS_64},
    {NOTE_G5, MS_64},
    {NOTE_F5, MS_64},
    {NOTE_F5, MS_64},
    {NOTE_F5, MS_64},
    {NOTE_D5, MS_64},
    {NOTE_DS5, MS_64},
    {NOTE_DS5, MS_64},
    {NOTE_F5, MS_64},
    {NOTE_F5, MS_64},
    {NOTE_DS5, MS_32},
    {NOTE_DS5, MS_64},
    {NOTE_D5, MS_64},
    {NOTE_GS5, MS_64},
    {NOTE_GS5, MS_64},
    {NOTE_GS5, MS_64},
    {NOTE_GS5, MS_64},
    {NOTE_GS5, MS_64},
    {NOTE_GS5, MS_64},
    {NOTE_GS5, MS_32},
    {NOTE_GS5, MS_64},
    {NOTE_GS5, MS_64},
    {NOTE_GS5, MS_32},
    {NOTE_GS5, MS_64},
    {NOTE_GS5, MS_64},
    {NOTE_GS5, MS_64},
    {NOTE_GS5, MS_64},
    {NOTE_GS5, MS_64},
    {NOTE_GS5, MS_32},
    {NOTE_GS5, MS_64},
    {NOTE_G5, MS_16},
    {NOTE_G5, MS_32},
    {NOTE_G5, MS_32},
    {NOTE_G5, MS_32},
    {NOTE_G5, MS_32},
    {NOTE_G5, MS_64},
    {NOTE_G5, MS_32},
    {NOTE_G5, MS_64},
    {NOTE_G5, MS_64},
    {NOTE_G5, MS_64},
    {NOTE_G5, MS_64},
    {NOTE_G5, MS_64},
    {NOTE_DS5, MS_64},
    {NOTE_C5, MS_64},
    {NOTE_F5, MS_32},
    {NOTE_F5, MS_64},
    {NOTE_G5, MS_64},
    {NOTE_G5, MS_64},
    {NOTE_G5, MS_64},
    {NOTE_G5, MS_64},
    {NOTE_G5, MS_64},
    {NOTE_GS5, MS_32},
    {NOTE_GS5, MS_64},
    {NOTE_AS5, MS_64},
    {NOTE_AS5, MS_32},
    {NOTE_AS5, MS_64},
    {NOTE_AS5, MS_64},
    {NOTE_AS5, MS_64},
    {NOTE_AS5, MS_64},
    {NOTE_GS5, MS_32},
    {NOTE_AS5, MS_64},
    {NOTE_AS5, MS_64},
    {NOTE_AS4, MS_32},
    {NOTE_AS4, MS_64},
    {NOTE_F4, MS_64},
    {NOTE_C5, MS_64},
    {NOTE_C5, MS_32},
    {NOTE_C5, MS_64},
    {NOTE_D5, MS_64},
    {NOTE_D5, MS_64},
    {NOTE_D5, MS_64},
    {NOTE_D5, MS_64},
    {NOTE_AS4, MS_64},
    {NOTE_DS5, MS_64},
    {NOTE_DS5, MS_64},
    {NOTE_DS5, MS_64},
    {NOTE_DS5, MS_64},
    {NOTE_C5, MS_64},
    {NOTE_F5, MS_64},
    {NOTE_F5, MS_64},
    {NOTE_F5, MS_64},
    {NOTE_F5, MS_64},
    {NOTE_F5, MS_64},
    {NOTE_G5, MS_64},
    {NOTE_G5, MS_64},
    {NOTE_G5, MS_64},
    {NOTE_G5, MS_64},
    {NOTE_DS5, MS_64},
    {NOTE_GS5, MS_64},
    {NOTE_GS5, MS_64},
    {NOTE_GS5, MS_64},
    {NOTE_GS5, MS_64},
    {NOTE_GS5, MS_64},
    {NOTE_AS5, MS_32},
    {NOTE_AS5, MS_64},
    {NOTE_AS5, MS_64},
    {NOTE_AS5, MS_64},
    {NOTE_AS5, MS_32},
    {NOTE_AS5, MS_64},
    {NOTE_GS5, MS_64},
    {NOTE_GS5, MS_64},
    {NOTE_GS5, MS_64},
    {NOTE_C5, MS_32},
    {NOTE_C5, MS_16},
    {NOTE_C5, MS_64},
    {NOTE_C5, MS_32},
    {NOTE_C5, MS_16},
    {NOTE_AS5, MS_64},
    {NOTE_AS5, MS_32},
    {NOTE_AS5, MS_64},
    {NOTE_AS5, MS_32},
    {NOTE_AS5, MS_64},
    {NOTE_AS5, MS_64},
    {NOTE_AS5, MS_64},
    {NOTE_D5, MS_64},
    {NOTE_D5, MS_32},
    {NOTE_D5, MS_64},
    {NOTE_D5, MS_64},
    {NOTE_DS5, MS_64},
    {NOTE_DS5, MS_64},
    {NOTE_DS5, MS_32},
    {NOTE_F5, MS_32},
    {NOTE_F5, MS_32},
    {NOTE_F5, MS_64},
    {NOTE_F5, MS_64},
    {NOTE_F5, MS_32},
    {NOTE_F5, MS_32},
    {NOTE_F5, MS_64},
    {NOTE_F5, MS_32},
    {NOTE_F5, MS_32},
    {NOTE_F5, MS_64},
    {NOTE_F5, MS_64},
    {NOTE_F5, MS_32},
    {NOTE_AS5, MS_64},
    {NOTE_AS5, MS_64},
    {NOTE_AS5, MS_64},
    {NOTE_D5, MS_64},
    {NOTE_G4, MS_64},
    {NOTE_G4, MS_64},
    {NOTE_DS5, MS_64},
    {NOTE_DS5, MS_16},
    {NOTE_D5, MS_64},
    {NOTE_D5, MS_64},
    {NOTE_D5, MS_64},
    {NOTE_D5, MS_64},
    {NOTE_D5, MS_64},
    {NOTE_DS5, MS_64},
    {NOTE_DS5, MS_64},
    {NOTE_DS5, MS_64},
    {NOTE_DS5, MS_64},
    {NOTE_DS5, MS_64},
    {NOTE_DS5, MS_64},
    {NOTE_GS5, MS_64},
    {NOTE_GS5, MS_32},
    {NOTE_GS5, MS_64},
    {NOTE_GS5, MS_16},
    {NOTE_GS5, MS_64},
    {NOTE_GS5, MS_64},
    {NOTE_GS5, MS_64},
    {NOTE_GS5, MS_16},
    {NOTE_GS5, MS_32},
    {NOTE_GS5, MS_64},
    {NOTE_GS5, MS_32},
    {NOTE_GS5, MS_32},
    {NOTE_GS5, MS_64},
    {NOTE_GS5, MS_64},
    {NOTE_FS2, MS_64},
    {NOTE_REST, MS_64},
    {NOTE_REST, MS_64},
    {NOTE_F6, MS_64},
    {NOTE_F6, MS_64},
    {NOTE_REST, MS_64},
    {NOTE_REST, MS_64},
    {NOTE_G6, MS_64},
    {NOTE_G6, MS_64},
    {NOTE_G6, MS_64},
    {NOTE_REST, MS_64},
    {NOTE_REST, MS_64},
    {NOTE_GS6, MS_64},
    {NOTE_GS6, MS_32},
    {NOTE_GS6, MS_64},
    {NOTE_GS6, MS_64},
    {NOTE_GS6, MS_64},
    {NOTE_GS6, MS_64},
    {NOTE_GS6, MS_64},
    {NOTE_GS6, MS_64},
    {NOTE_GS6, MS_16},
    {NOTE_REST, MS_32},
    {NOTE_REST, MS_64},
    {NOTE_F6, MS_16},
    {NOTE_F6, MS_16},
    {NOTE_F6, MS_64},
    {NOTE_D4, MS_64},
    {NOTE_E2, MS_64},
    {NOTE_E2, MS_Q},
    {NOTE_GS5, MS_16},
    {NOTE_GS5, MS_16},
    {NOTE_GS5, MS_16},
    {NOTE_GS5, MS_16},
    {NOTE_GS5, MS_64},
    {NOTE_GS5, MS_64},
    {NOTE_CS4, MS_64},
    {NOTE_CS4, MS_64},
    {NOTE_CS4, MS_64},
    {NOTE_CS6, MS_64},
    {NOTE_CS6, MS_64},
    {NOTE_CS6, MS_64},
    {NOTE_REST, MS_64},
    {NOTE_REST, MS_32},
    {NOTE_CS3, MS_32},
    {NOTE_CS6, MS_64},
    {NOTE_C4, MS_64},
    {NOTE_REST, MS_32},
    {NOTE_CS6, MS_64},
    {NOTE_CS6, MS_32},
    {NOTE_CS6, MS_16},
    {NOTE_CS6, MS_64},
    {NOTE_CS6, MS_64},
    {NOTE_B3, MS_64},
    {NOTE_CS5, MS_64},
    {NOTE_B3, MS_64},
    {NOTE_B3, MS_64},
    {NOTE_REST, MS_16},
    {NOTE_CS5, MS_16},
    {NOTE_CS5, MS_16},
    {NOTE_AS3, MS_64},
    {NOTE_CS4, MS_64},
    {NOTE_CS4, MS_64},
    {NOTE_AS2, MS_64},
    {NOTE_G2, MS_64},
    {NOTE_REST, MS_16},
    {NOTE_REST, MS_64},
    {NOTE_A5, MS_64},
    {NOTE_A5, MS_32},
    {NOTE_A3, MS_64},
    {NOTE_A3, MS_64},
    {NOTE_REST, MS_16},
    {NOTE_E4, MS_64},
    {NOTE_A5, MS_64},
    {NOTE_A5, MS_64},
    {NOTE_REST, MS_64},
    {NOTE_REST, MS_16},
    {NOTE_E4, MS_32},
    {NOTE_REST, MS_64},
    {NOTE_REST, MS_16},
    {NOTE_REST, MS_64},
    {NOTE_E4, MS_32},
    {NOTE_CS4, MS_64},
    {NOTE_REST, MS_64},
    {NOTE_REST, MS_16},
    {NOTE_REST, MS_64},
    {NOTE_E4, MS_32},
    {NOTE_CS4, MS_64},
    {NOTE_REST, MS_64},
    {NOTE_REST, MS_16},
    {NOTE_REST, MS_64},
    {NOTE_E4, MS_32},
    {NOTE_REST, MS_64},
    {NOTE_REST, MS_16},
    {NOTE_REST, MS_64},
    {NOTE_E4, MS_32},
    {NOTE_E4, MS_64},
    {NOTE_REST, MS_16},
    {NOTE_REST, MS_64},
    {NOTE_E4, MS_32},
    {NOTE_REST, MS_16},
    {NOTE_D5, MS_32},
    {NOTE_FS4, MS_64},
    {NOTE_REST, MS_64},
    {NOTE_REST, MS_16},
    {NOTE_REST, MS_64},
    {NOTE_REST, MS_64},
    {NOTE_CS5, MS_32},
    {NOTE_REST, MS_64},
    {NOTE_REST, MS_32},
    {NOTE_CS5, MS_64},
    {NOTE_CS5, MS_64},
    {NOTE_REST, MS_32},
    {NOTE_REST, MS_64},
    {NOTE_C5, MS_64},
    {NOTE_C5, MS_64},
    {NOTE_C4, MS_64},
    {NOTE_REST, MS_64},
    {NOTE_REST, MS_64},
    {NOTE_REST, MS_32},
    {NOTE_REST, MS_32},
    {NOTE_REST, MS_64},
    {NOTE_CS5, MS_32},
    {NOTE_CS4, MS_64},
    {NOTE_REST, MS_64},
    {NOTE_REST, MS_64},
    {NOTE_REST, MS_64},
    {NOTE_REST, MS_32},
    {NOTE_REST, MS_64},
    {NOTE_D5, MS_32},
    {NOTE_FS4, MS_64},
    {NOTE_REST, MS_64},
    {NOTE_REST, MS_64},
    {NOTE_REST, MS_64},
    {NOTE_REST, MS_32},
    {NOTE_REST, MS_32},
    {NOTE_REST, MS_64},
    {NOTE_CS5, MS_64},
    {NOTE_REST, MS_32},
    {NOTE_CS5, MS_64},
    {NOTE_CS5, MS_64},
    {NOTE_REST, MS_32},
    {NOTE_REST, MS_64},
    {NOTE_C5, MS_32},
    {NOTE_DS4, MS_32},
    {NOTE_REST, MS_64},
    {NOTE_REST, MS_64},
    {NOTE_REST, MS_32},
    {NOTE_E6, MS_64},
    {NOTE_REST, MS_64},
    {NOTE_REST, MS_32},
    {NOTE_E6, MS_32},
    {NOTE_CS5, MS_64},
    {NOTE_REST, MS_64},
    {NOTE_A6, MS_32},
    {NOTE_A6, MS_32},
    {NOTE_A6, MS_64},
    {NOTE_A6, MS_64},
    {NOTE_A6, MS_64},
    {NOTE_A6, MS_64},
    {NOTE_REST, MS_64},
    {NOTE_REST, MS_64},
    {NOTE_E6, MS_64},
    {NOTE_E6, MS_64},
    {NOTE_E6, MS_64},
    {NOTE_REST, MS_64},
    {NOTE_REST, MS_32},
    {NOTE_E6, MS_32},
    {NOTE_CS5, MS_64},
    {NOTE_REST, MS_64},
    {NOTE_A6, MS_64},
    {NOTE_A6, MS_32},
    {NOTE_A6, MS_32},
    {NOTE_A6, MS_64},
    {NOTE_A6, MS_64},
    {NOTE_REST, MS_64},
    {NOTE_REST, MS_64},
    {NOTE_E6, MS_64},
    {NOTE_E6, MS_64},
    {NOTE_A5, MS_64},
    {NOTE_REST, MS_64},
    {NOTE_REST, MS_64},
    {NOTE_E6, MS_64},
    {NOTE_E6, MS_64},
    {NOTE_E6, MS_64},
    {NOTE_REST, MS_64},
    {NOTE_REST, MS_64},
    {NOTE_DS6, MS_64},
    {NOTE_DS6, MS_64},
    {NOTE_DS6, MS_64},
    {NOTE_A5, MS_64},
    {NOTE_REST, MS_64},
    {NOTE_REST, MS_64},
    {NOTE_DS6, MS_64},
    {NOTE_DS6, MS_64},
    {NOTE_DS6, MS_64},
    {NOTE_REST, MS_64},
    {NOTE_REST, MS_64},
    {NOTE_E6, MS_64},
    {NOTE_E6, MS_32},
    {NOTE_E6, MS_64},
    {NOTE_E6, MS_64},
    {NOTE_CS5, MS_64},
    {NOTE_REST, MS_16},
    {NOTE_FS6, MS_64},
    {NOTE_FS6, MS_32},
    {NOTE_FS6, MS_64},
    {NOTE_FS6, MS_64},
    {NOTE_FS6, MS_64},
    {NOTE_FS6, MS_64},
    {NOTE_REST, MS_64},
    {NOTE_REST, MS_32},
    {NOTE_E6, MS_64},
    {NOTE_E6, MS_32},
    {NOTE_E6, MS_64},
    {NOTE_E4, MS_64},
    {NOTE_REST, MS_16},
    {NOTE_C5, MS_64},
    {NOTE_E6, MS_64},
    {NOTE_A5, MS_64},
    {NOTE_REST, MS_64},
    {NOTE_REST, MS_64},
    {NOTE_REST, MS_64},
    {NOTE_C5, MS_64},
    {NOTE_E6, MS_64},
    {NOTE_REST, MS_32},
    {NOTE_A5, MS_64},
    {NOTE_A5, MS_64},
    {NOTE_REST, MS_64},
    {NOTE_REST, MS_64},
    {NOTE_E6, MS_64},
    {NOTE_C5, MS_64},
    {NOTE_REST, MS_64},
    {NOTE_D6, MS_32},
    {NOTE_D6, MS_64},
    {NOTE_B4, MS_64},
    {NOTE_REST, MS_64},
    {NOTE_REST, MS_16},
    {NOTE_D6, MS_64},
    {NOTE_D6, MS_64},
    {NOTE_D6, MS_64},
    {NOTE_D6, MS_64},
    {NOTE_G2, MS_64},
    {NOTE_REST, MS_16},
    {NOTE_A5, MS_64},
    {NOTE_REST, MS_64},
    {NOTE_D6, MS_64},
    {NOTE_D6, MS_64},
    {NOTE_F5, MS_64},
    {NOTE_F5, MS_64},
    {NOTE_REST, MS_64},
    {NOTE_F5, MS_64},
    {NOTE_D5, MS_64},
    {NOTE_AS4, MS_64},
    {NOTE_REST, MS_64},
    {NOTE_D6, MS_64},
    {NOTE_F5, MS_64},
    {NOTE_F5, MS_64},
    {NOTE_REST, MS_64},
    {NOTE_REST, MS_64},
    {NOTE_D5, MS_64},
    {NOTE_FS6, MS_64},
    {NOTE_FS6, MS_64},
    {NOTE_C5, MS_64},
    {NOTE_FS4, MS_64},
    {NOTE_REST, MS_64},
    {NOTE_REST, MS_64},
    {NOTE_REST, MS_32},
    {NOTE_REST, MS_64},
    {NOTE_FS6, MS_64},
    {NOTE_FS6, MS_64},
    {NOTE_FS6, MS_64},
    {NOTE_FS6, MS_64},
    {NOTE_C5, MS_64},
    {NOTE_C5, MS_64},
    {NOTE_C4, MS_64},
    {NOTE_REST, MS_64},
    {NOTE_REST, MS_64},
    {NOTE_REST, MS_32},
    {NOTE_G6, MS_64},
    {NOTE_G6, MS_64},
    {NOTE_G6, MS_64},
    {NOTE_D5, MS_64},
    {NOTE_D5, MS_64},
    {NOTE_G4, MS_64},
    {NOTE_D3, MS_64},
    {NOTE_REST, MS_64},
    {NOTE_REST, MS_32},
    {NOTE_G4, MS_32},
    {NOTE_REST, MS_64},
    {NOTE_REST, MS_32},
    {NOTE_G4, MS_32},
    {NOTE_REST, MS_32},
    {NOTE_G4, MS_16},
    {NOTE_G4, MS_64},
    {NOTE_G4, MS_64},
    {NOTE_REST, MS_64},
    {NOTE_REST, MS_64},
    {NOTE_D5, MS_32},
    {NOTE_REST, MS_64},
    {NOTE_REST, MS_32},
    {NOTE_D4, MS_64},
    {NOTE_REST, MS_64},
    {NOTE_REST, MS_32},
    {NOTE_E4, MS_16},
    {NOTE_REST, MS_64},
    {NOTE_D4, MS_32},
    {NOTE_REST, MS_32},
    {NOTE_REST, MS_64},
    {NOTE_REST, MS_32},
    {NOTE_REST, MS_64},
    {NOTE_REST, MS_32},
    {NOTE_G4, MS_32},
    {NOTE_REST, MS_32},
    {NOTE_G4, MS_16},
    {NOTE_REST, MS_32},
    {NOTE_REST, MS_32},
    {NOTE_D5, MS_64},
    {NOTE_D5, MS_64},
    {NOTE_REST, MS_64},
    {NOTE_REST, MS_32},
    {NOTE_D5, MS_64},
    {NOTE_REST, MS_64},
    {NOTE_REST, MS_32},
    {NOTE_E4, MS_32},
    {NOTE_REST, MS_64},
    {NOTE_REST, MS_64},
    {NOTE_D4, MS_32},
    {NOTE_REST, MS_64},
    {NOTE_REST, MS_64},
    {NOTE_G4, MS_64},
    {NOTE_G4, MS_64},
    {NOTE_B3, MS_64},
    {NOTE_REST, MS_32},
    {NOTE_D5, MS_32},
    {NOTE_D5, MS_64},
    {NOTE_D5, MS_64},
    {NOTE_REST, MS_64},
    {NOTE_E5, MS_16},
    {NOTE_G4, MS_64},
    {NOTE_D5, MS_64},
    {NOTE_D5, MS_32},
    {NOTE_D5, MS_64},
    {NOTE_G4, MS_64},
    {NOTE_C5, MS_64},
    {NOTE_C5, MS_32},
    {NOTE_C5, MS_64},
    {NOTE_G4, MS_64},
    {NOTE_B4, MS_64},
    {NOTE_B4, MS_32},
    {NOTE_G4, MS_64},
    {NOTE_G4, MS_64},
    {NOTE_REST, MS_64},
    {NOTE_A4, MS_32},
    {NOTE_FS4, MS_64},
    {NOTE_FS4, MS_64},
    {NOTE_FS4, MS_64},
    {NOTE_REST, MS_64},
    {NOTE_REST, MS_16},
    {NOTE_C6, MS_32},
    {NOTE_REST, MS_32},
    {NOTE_C6, MS_32},
    {NOTE_REST, MS_32},
    {NOTE_C6, MS_16},
    {NOTE_A5, MS_Q},
    {NOTE_A5, MS_Q},
    {NOTE_A5, MS_16},
    {NOTE_F5, MS_32},
    {NOTE_F5, MS_Q},
    {NOTE_D5, MS_64},
    {NOTE_REST, MS_64},
    {NOTE_REST, MS_64},
    {NOTE_REST, MS_32},
    {NOTE_GS4, MS_32},
    {NOTE_REST, MS_Q},
    {NOTE_G4, MS_64},
    {NOTE_REST, MS_32},
    {NOTE_G4, MS_64},
    {NOTE_REST, MS_32},
    {NOTE_FS4, MS_64},
    {NOTE_REST, MS_64},
    {NOTE_REST, MS_16},
    {NOTE_C5, MS_32},
    {NOTE_C5, MS_64},
    {NOTE_REST, MS_16},
    {NOTE_CS5, MS_32},
    {NOTE_CS5, MS_64},
    {NOTE_REST, MS_64},
    {NOTE_REST, MS_16},
    {NOTE_G4, MS_64},
    {NOTE_G4, MS_64},
    {NOTE_REST, MS_64},
    {NOTE_REST, MS_32},
    {NOTE_G4, MS_64},
    {NOTE_G4, MS_64},
    {NOTE_REST, MS_64},
    {NOTE_REST, MS_32},
    {NOTE_FS4, MS_16},
    {NOTE_FS4, MS_64},
    {NOTE_FS3, MS_32},
    {NOTE_REST, MS_64},
    {NOTE_REST, MS_64},
    {NOTE_C5, MS_16},
    {NOTE_C5, MS_64},
    {NOTE_C5, MS_64},
    {NOTE_G4, MS_32},
    {NOTE_REST, MS_64},
    {NOTE_D6, MS_64},
    {NOTE_D6, MS_64},
    {NOTE_D6, MS_64},
    {NOTE_D6, MS_64},
    {NOTE_D6, MS_64},
    {NOTE_D6, MS_64},
    {NOTE_D6, MS_64},
    {NOTE_D6, MS_64},
    {NOTE_D6, MS_64},
    {NOTE_D6, MS_64},
    {NOTE_REST, MS_32},
    {NOTE_REST, MS_64},
    {NOTE_C6, MS_64},
    {NOTE_C6, MS_64},
    {NOTE_REST, MS_64},
    {NOTE_REST, MS_32},
    {NOTE_C6, MS_64},
    {NOTE_C6, MS_64},
    {NOTE_REST, MS_64},
    {NOTE_REST, MS_32},
    {NOTE_B5, MS_64},
    {NOTE_B5, MS_64},
    {NOTE_B5, MS_32},
    {NOTE_B5, MS_64},
    {NOTE_B5, MS_64},
    {NOTE_B5, MS_64},
    {NOTE_B5, MS_64},
    {NOTE_REST, MS_64},
    {NOTE_REST, MS_32},
    {NOTE_C6, MS_64},
    {NOTE_C6, MS_64},
    {NOTE_C6, MS_64},
    {NOTE_C6, MS_32},
    {NOTE_C6, MS_64},
    {NOTE_C6, MS_64},
    {NOTE_REST, MS_64},
    {NOTE_REST, MS_64},
    {NOTE_D6, MS_64},
    {NOTE_D6, MS_64},
    {NOTE_REST, MS_32},
    {NOTE_D6, MS_64},
    {NOTE_D6, MS_64},
    {NOTE_D6, MS_64},
    {NOTE_REST, MS_32},
    {NOTE_C6, MS_64},
    {NOTE_C6, MS_64},
    {NOTE_C6, MS_64},
    {NOTE_C6, MS_64},
    {NOTE_C6, MS_64},
    {NOTE_C6, MS_64},
    {NOTE_C6, MS_64},
    {NOTE_C6, MS_64},
    {NOTE_REST, MS_32},
    {NOTE_REST, MS_64},
    {NOTE_B5, MS_64},
    {NOTE_B5, MS_64},
    {NOTE_F3, MS_64},
    {NOTE_REST, MS_32},
    {NOTE_B5, MS_32},
    {NOTE_REST, MS_64},
    {NOTE_C6, MS_32},
    {NOTE_C6, MS_64},
    {NOTE_C6, MS_64},
    {NOTE_C6, MS_64},
    {NOTE_C6, MS_64},
    {NOTE_C6, MS_64},
    {NOTE_B1, MS_64},
    {NOTE_REST, MS_32},
    {NOTE_REST, MS_64},
    {NOTE_D6, MS_64},
    {NOTE_D6, MS_64},
    {NOTE_D6, MS_64},
    {NOTE_D6, MS_64},
    {NOTE_D6, MS_32},
    {NOTE_D6, MS_64},
    {NOTE_AS3, MS_64},
    {NOTE_CS3, MS_32},
    {NOTE_D6, MS_64},
    {NOTE_D6, MS_64},
    {NOTE_D6, MS_64},
    {NOTE_D6, MS_64},
    {NOTE_AS4, MS_64},
    {NOTE_CS3, MS_64},
    {NOTE_E6, MS_64},
    {NOTE_E6, MS_64},
    {NOTE_E6, MS_64},
    {NOTE_G2, MS_64},
    {NOTE_C6, MS_32},
    {NOTE_C6, MS_64},
    {NOTE_C6, MS_32},
    {NOTE_REST, MS_64},
    {NOTE_REST, MS_32},
    {NOTE_C6, MS_64},
    {NOTE_C6, MS_64},
    {NOTE_A5, MS_64},
    {NOTE_A4, MS_64},
    {NOTE_A2, MS_64},
    {NOTE_C6, MS_64},
    {NOTE_C6, MS_64},
    {NOTE_F4, MS_64},
    {NOTE_G2, MS_64},
    {NOTE_G2, MS_64},
    {NOTE_B5, MS_64},
    {NOTE_B5, MS_64},
    {NOTE_B5, MS_64},
    {NOTE_B5, MS_64},
    {NOTE_B5, MS_64},
    {NOTE_CS3, MS_64},
    {NOTE_CS3, MS_32},
    {NOTE_REST, MS_32},
    {NOTE_B5, MS_64},
    {NOTE_B5, MS_64},
    {NOTE_A5, MS_64},
    {NOTE_A5, MS_64},
    {NOTE_REST, MS_64},
    {NOTE_B5, MS_64},
    {NOTE_B5, MS_64},
    {NOTE_B5, MS_64},
    {NOTE_G3, MS_32},
    {NOTE_C6, MS_64},
    {NOTE_C6, MS_64},
    {NOTE_C6, MS_64},
    {NOTE_G4, MS_64},
    {NOTE_E4, MS_64},
    {NOTE_AS2, MS_16},
    {NOTE_C5, MS_32},
    {NOTE_REST, MS_32},
    {NOTE_C5, MS_64},
    {NOTE_REST, MS_32},
    {NOTE_REST, MS_64},
    {NOTE_D5, MS_16},
    {NOTE_REST, MS_64},
    {NOTE_F5, MS_16},
    {NOTE_C5, MS_16},
    {NOTE_F5, MS_32},
    {NOTE_REST, MS_64},
    {NOTE_REST, MS_16},
    {NOTE_REST, MS_64},
    {NOTE_F5, MS_16},
    {NOTE_F5, MS_64},
    {NOTE_AS4, MS_16},
    {NOTE_REST, MS_64},
    {NOTE_F5, MS_64},
    {NOTE_REST, MS_64},
    {NOTE_REST, MS_32},
    {NOTE_CS5, MS_64},
    {NOTE_CS5, MS_64},
    {NOTE_CS5, MS_64},
    {NOTE_CS5, MS_64},
    {NOTE_REST, MS_64},
    {NOTE_REST, MS_32},
    {NOTE_CS5, MS_64},
    {NOTE_CS5, MS_64},
    {NOTE_CS4, MS_64},
    {NOTE_REST, MS_64},
    {NOTE_REST, MS_64},
    {NOTE_C5, MS_64},
    {NOTE_REST, MS_Q},
    {NOTE_B4, MS_64},
    {NOTE_B4, MS_64},
    {NOTE_REST, MS_64},
    {NOTE_REST, MS_32},
    {NOTE_B4, MS_64},
    {NOTE_B4, MS_64},
    {NOTE_REST, MS_32},
    {NOTE_C5, MS_32},
    {NOTE_REST, MS_64},
    {NOTE_REST, MS_16},
    {NOTE_CS5, MS_64},
    {NOTE_CS5, MS_64},
    {NOTE_CS5, MS_64},
    {NOTE_REST, MS_32},
    {NOTE_GS4, MS_64},
    {NOTE_GS4, MS_64},
    {NOTE_REST, MS_64},
    {NOTE_REST, MS_64},
    {NOTE_C5, MS_64},
    {NOTE_REST, MS_32},
    {NOTE_C5, MS_32},
    {NOTE_REST, MS_32},
    {NOTE_REST, MS_64},
    {NOTE_B4, MS_64},
    {NOTE_B4, MS_64},
    {NOTE_B4, MS_32},
    {NOTE_B4, MS_64},
    {NOTE_B4, MS_64},
    {NOTE_REST, MS_32},
    {NOTE_REST, MS_64},
    {NOTE_A5, MS_64},
    {NOTE_C5, MS_64},
    {NOTE_REST, MS_64},
    {NOTE_REST, MS_16},
    {NOTE_A5, MS_64},
    {NOTE_A5, MS_64},
    {NOTE_B1, MS_64},
    {NOTE_REST, MS_16},
    {NOTE_G4, MS_64},
    {NOTE_G4, MS_64},
    {NOTE_A5, MS_64},
    {NOTE_A5, MS_64},
    {NOTE_A5, MS_64},
    {NOTE_REST, MS_64},
    {NOTE_REST, MS_16},
    {NOTE_C5, MS_64},
    {NOTE_A5, MS_64},
    {NOTE_A5, MS_64},
    {NOTE_F5, MS_16},
    {NOTE_F5, MS_64},
    {NOTE_REST, MS_32},
    {NOTE_REST, MS_32},
    {NOTE_REST, MS_64},
    {NOTE_A5, MS_64},
    {NOTE_A5, MS_64},
    {NOTE_REST, MS_64},
    {NOTE_REST, MS_32},
    {NOTE_G4, MS_64},
    {NOTE_G4, MS_64},
    {NOTE_G4, MS_64},
    {NOTE_REST, MS_64},
    {NOTE_REST, MS_32},
    {NOTE_A5, MS_64},
    {NOTE_REST, MS_32},
    {NOTE_AS4, MS_64},
    {NOTE_REST, MS_32},
    {NOTE_REST, MS_64},
    {NOTE_A4, MS_32},
    {NOTE_REST, MS_32},
    {NOTE_A5, MS_64},
    {NOTE_A5, MS_64},
    {NOTE_A5, MS_64},
    {NOTE_REST, MS_32},
    {NOTE_C5, MS_64},
    {NOTE_F5, MS_64},
    {NOTE_REST, MS_64},
    {NOTE_REST, MS_64},
    {NOTE_C5, MS_64},
    {NOTE_F5, MS_64},
    {NOTE_REST, MS_64},
    {NOTE_REST, MS_64},
    {NOTE_C5, MS_64},
    {NOTE_F5, MS_64},
    {NOTE_F5, MS_16},
    {NOTE_A4, MS_64},
    {NOTE_F2, MS_64},
    {NOTE_B1, MS_64},
    {NOTE_REST, MS_16},
    {NOTE_REST, MS_64},
    {NOTE_G4, MS_64},
    {NOTE_A5, MS_64},
    {NOTE_A5, MS_64},
    {NOTE_A5, MS_64},
    {NOTE_C5, MS_64},
    {NOTE_G2, MS_64},
    {NOTE_REST, MS_64},
    {NOTE_REST, MS_16},
    {NOTE_C5, MS_64},
    {NOTE_A5, MS_64},
    {NOTE_A5, MS_64},
    {NOTE_A5, MS_64},
    {NOTE_REST, MS_64},
    {NOTE_REST, MS_16},
    {NOTE_G4, MS_64},
    {NOTE_A5, MS_64},
    {NOTE_A5, MS_64},
    {NOTE_A5, MS_64},
    {NOTE_REST, MS_64},
    {NOTE_REST, MS_16},
    {NOTE_C5, MS_64},
    {NOTE_A5, MS_64},
    {NOTE_A5, MS_64},
    {NOTE_A5, MS_64},
    {NOTE_F5, MS_16},
    {NOTE_C5, MS_64},
    {NOTE_A4, MS_64},
    {NOTE_CS3, MS_32},
    {NOTE_CS3, MS_64},
    {NOTE_A5, MS_64},
    {NOTE_A5, MS_64},
    {NOTE_G4, MS_64},
    {NOTE_CS3, MS_32},
    {NOTE_A5, MS_64},
    {NOTE_A5, MS_64},
    {NOTE_A5, MS_64},
    {NOTE_G4, MS_64},
    {NOTE_G4, MS_64},
    {NOTE_REST, MS_64},
    {NOTE_REST, MS_64},
    {NOTE_REST, MS_64},
    {NOTE_A4, MS_64},
    {NOTE_F4, MS_64},
    {NOTE_REST, MS_64},
    {NOTE_REST, MS_64},
    {NOTE_REST, MS_64},
    {NOTE_AS4, MS_64},
    {NOTE_G4, MS_64},
    {NOTE_REST, MS_64},
    {NOTE_REST, MS_64},
    {NOTE_REST, MS_64},
    {NOTE_REST, MS_64},
    {NOTE_A4, MS_64},
    {NOTE_F4, MS_64},
    {NOTE_F4, MS_64},
    {NOTE_REST, MS_64},
    {NOTE_REST, MS_64},
    {NOTE_REST, MS_64},
    {NOTE_G4, MS_64},
    {NOTE_E4, MS_64},
    {NOTE_REST, MS_64},
    {NOTE_REST, MS_64},
    {NOTE_C5, MS_64},
    {NOTE_F5, MS_64},
    {NOTE_F5, MS_64},
    {NOTE_REST, MS_64},
    {NOTE_REST, MS_32},
    {NOTE_C5, MS_64},
    {NOTE_F5, MS_64},
    {NOTE_REST, MS_32},
    {NOTE_C5, MS_64},
    {NOTE_F5, MS_64},
    {NOTE_C5, MS_32},
    {NOTE_F5, MS_64},
    {NOTE_F5, MS_64},
    {NOTE_A5, MS_64},
    {NOTE_A5, MS_64},
    {NOTE_A5, MS_64},
    {NOTE_REST, MS_64},
    {NOTE_F4, MS_64},
    {NOTE_A5, MS_64},
    {NOTE_A5, MS_64},
    {NOTE_A5, MS_64},
    {NOTE_A5, MS_64},
    {NOTE_REST, MS_32},
    {NOTE_G4, MS_64},
    {NOTE_A5, MS_64},
    {NOTE_A5, MS_64},
    {NOTE_A5, MS_64},
    {NOTE_A5, MS_64},
    {NOTE_REST, MS_32},
    {NOTE_A4, MS_64},
    {NOTE_A5, MS_64},
    {NOTE_A5, MS_64},
    {NOTE_A5, MS_64},
    {NOTE_REST, MS_64},
    {NOTE_REST, MS_32},
    {NOTE_E4, MS_64},
    {NOTE_A5, MS_64},
    {NOTE_A5, MS_64},
    {NOTE_A5, MS_64},
    {NOTE_A5, MS_64},
    {NOTE_REST, MS_64},
    {NOTE_REST, MS_64},
    {NOTE_C5, MS_64},
    {NOTE_C5, MS_64},
    {NOTE_F5, MS_64},
    {NOTE_REST, MS_64},
    {NOTE_REST, MS_64},
    {NOTE_C5, MS_64},
    {NOTE_F5, MS_64},
    {NOTE_REST, MS_32},
    {NOTE_G4, MS_64},
    {NOTE_F5, MS_64},
    {NOTE_F4, MS_64},
    {NOTE_F4, MS_64},
    {NOTE_F5, MS_64},
    {NOTE_A5, MS_64},
    {NOTE_A5, MS_64},
    {NOTE_A5, MS_64},
    {NOTE_A5, MS_64},
    {NOTE_REST, MS_64},
    {NOTE_A4, MS_64},
    {NOTE_A5, MS_64},
    {NOTE_A5, MS_64},
    {NOTE_A5, MS_64},
    {NOTE_REST, MS_32},
    {NOTE_AS4, MS_64},
    {NOTE_A5, MS_64},
    {NOTE_A5, MS_64},
    {NOTE_A5, MS_64},
    {NOTE_REST, MS_64},
    {NOTE_REST, MS_32},
    {NOTE_A5, MS_64},
    {NOTE_REST, MS_64},
    {NOTE_REST, MS_32},
    {NOTE_A5, MS_64},
    {NOTE_A5, MS_64},
    {NOTE_A5, MS_64},
    {NOTE_A5, MS_64},
    {NOTE_E4, MS_64},
    {NOTE_REST, MS_64},
    {NOTE_REST, MS_64},
    {NOTE_REST, MS_32},
    {NOTE_REST, MS_32},
    {NOTE_REST, MS_32},
    {NOTE_REST, MS_32},
    {NOTE_REST, MS_16},
    {NOTE_REST, MS_64},
    {NOTE_REST, MS_16},
    {NOTE_C6, MS_Q},
    {NOTE_C6, MS_Q},
    {NOTE_C6, MS_Q},
    {NOTE_C6, MS_64},
    {NOTE_C6, MS_Q},
    {NOTE_GS5, MS_64},
    {NOTE_F5, MS_64},
    {NOTE_REST, MS_16},
    {NOTE_C6, MS_32},
    {NOTE_C5, MS_32},
    {NOTE_C5, MS_64},
    {NOTE_REST, MS_64},
    {NOTE_REST, MS_16},
    {NOTE_B5, MS_32},
    {NOTE_B5, MS_64},
    {NOTE_B5, MS_64},
    {NOTE_A2, MS_64},
    {NOTE_REST, MS_32},
    {NOTE_REST, MS_64},
    {NOTE_DS6, MS_32},
    {NOTE_DS6, MS_64},
    {NOTE_DS6, MS_64},
    {NOTE_GS3, MS_64},
    {NOTE_GS3, MS_64},
    {NOTE_REST, MS_32},
    {NOTE_D6, MS_32},
    {NOTE_D6, MS_64},
    {NOTE_D6, MS_64},
    {NOTE_D6, MS_64},
    {NOTE_F5, MS_64},
    {NOTE_REST, MS_64},
    {NOTE_REST, MS_32},
    {NOTE_GS6, MS_32},
    {NOTE_GS6, MS_64},
    {NOTE_F3, MS_64},
    {NOTE_REST, MS_64},
    {NOTE_REST, MS_32},
    {NOTE_G6, MS_32},
    {NOTE_G6, MS_64},
    {NOTE_G6, MS_64},
    {NOTE_B5, MS_64},
    {NOTE_D3, MS_64},
    {NOTE_D3, MS_64},
    {NOTE_D3, MS_64},
    {NOTE_REST, MS_32},
    {NOTE_C7, MS_32},
    {NOTE_C7, MS_64},
    {NOTE_C7, MS_64},
    {NOTE_C7, MS_64},
    {NOTE_CS3, MS_64},
    {NOTE_REST, MS_16},
    {NOTE_REST, MS_32},
    {NOTE_REST, MS_32},
    {NOTE_REST, MS_16},
    {NOTE_REST, MS_64},
    {NOTE_REST, MS_16},
    {NOTE_REST, MS_64},
    {NOTE_REST, MS_16},
    {NOTE_G4, MS_64},
    {NOTE_G4, MS_64},
    {NOTE_REST, MS_32},
    {NOTE_G4, MS_32},
    {NOTE_REST, MS_32},
    {NOTE_A4, MS_16},
    {NOTE_A3, MS_64},
    {NOTE_G4, MS_32},
    {NOTE_REST, MS_64},
    {NOTE_G5, MS_64},
    {NOTE_A5, MS_64},
    {NOTE_A5, MS_64},
    {NOTE_A5, MS_64},
    {NOTE_REST, MS_64},
    {NOTE_G5, MS_64},
    {NOTE_A5, MS_64},
    {NOTE_A5, MS_64},
    {NOTE_REST, MS_64},
    {NOTE_REST, MS_64},
    {NOTE_F5, MS_64},
    {NOTE_A5, MS_64},
    {NOTE_REST, MS_64},
    {NOTE_REST, MS_64},
    {NOTE_G5, MS_64},
    {NOTE_A5, MS_64},
    {NOTE_A5, MS_64},
    {NOTE_A5, MS_64},
    {NOTE_G5, MS_64},
    {NOTE_REST, MS_64},
    {NOTE_G5, MS_64},
    {NOTE_A5, MS_64},
    {NOTE_A5, MS_64},
    {NOTE_G5, MS_64},
    {NOTE_REST, MS_64},
    {NOTE_G5, MS_64},
    {NOTE_A5, MS_64},
    {NOTE_A5, MS_64},
    {NOTE_REST, MS_64},
    {NOTE_G5, MS_64},
    {NOTE_A5, MS_64},
    {NOTE_A5, MS_64},
    {NOTE_G5, MS_64},
    {NOTE_G5, MS_64},
    {NOTE_B3, MS_64},
    {NOTE_REST, MS_64},
    {NOTE_REST, MS_32},
    {NOTE_G5, MS_32},
    {NOTE_G5, MS_32},
    {NOTE_REST, MS_64},
    {NOTE_REST, MS_64},
    {NOTE_C5, MS_64},
    {NOTE_C6, MS_64},
    {NOTE_C6, MS_64},
    {NOTE_C6, MS_64},
    {NOTE_C6, MS_16},
    {NOTE_C6, MS_64},
    {NOTE_C6, MS_64},
    {NOTE_A5, MS_64},
    {NOTE_E3, MS_64},
    {NOTE_REST, MS_64},
    {NOTE_C6, MS_64},
    {NOTE_C6, MS_32},
    {NOTE_C5, MS_64},
    {NOTE_C5, MS_64},
    {NOTE_REST, MS_64},
    {NOTE_C6, MS_32},
    {NOTE_C6, MS_64},
    {NOTE_C6, MS_64},
    {NOTE_A4, MS_64},
    {NOTE_B1, MS_64},
    {NOTE_REST, MS_16},
    {NOTE_C6, MS_64},
    {NOTE_C6, MS_64},
    {NOTE_C6, MS_64},
    {NOTE_A5, MS_64},
    {NOTE_REST, MS_64},
    {NOTE_C6, MS_64},
    {NOTE_C6, MS_64},
    {NOTE_C6, MS_64},
    {NOTE_C6, MS_64},
    {NOTE_C6, MS_64},
    {NOTE_REST, MS_64},
    {NOTE_REST, MS_64},
    {NOTE_B4, MS_64},
    {NOTE_A5, MS_64},
    {NOTE_A5, MS_64},
    {NOTE_A5, MS_64},
    {NOTE_REST, MS_64},
    {NOTE_B5, MS_64},
    {NOTE_B5, MS_64},
    {NOTE_B5, MS_64},
    {NOTE_REST, MS_64},
    {NOTE_B5, MS_64},
    {NOTE_B5, MS_64},
    {NOTE_B5, MS_64},
    {NOTE_B5, MS_64},
    {NOTE_REST, MS_64},
    {NOTE_B5, MS_64},
    {NOTE_B5, MS_64},
    {NOTE_B5, MS_64},
    {NOTE_B5, MS_64},
    {NOTE_B5, MS_64},
    {NOTE_B5, MS_64},
    {NOTE_REST, MS_64},
    {NOTE_REST, MS_64},
    {NOTE_A5, MS_64},
    {NOTE_A5, MS_64},
    {NOTE_E5, MS_64},
    {NOTE_E5, MS_64},
    {NOTE_E5, MS_64},
    {NOTE_REST, MS_16},
    {NOTE_E5, MS_64},
    {NOTE_A5, MS_64},
    {NOTE_A5, MS_64},
    {NOTE_A5, MS_64},
    {NOTE_A5, MS_64},
    {NOTE_E5, MS_64},
    {NOTE_E5, MS_64},
    {NOTE_E5, MS_32},
    {NOTE_E5, MS_64},
    {NOTE_REST, MS_64},
    {NOTE_REST, MS_64},
    {NOTE_D5, MS_64},
    {NOTE_D5, MS_64},
    {NOTE_A5, MS_64},
    {NOTE_A5, MS_64},
    {NOTE_A5, MS_64},
    {NOTE_D5, MS_32},
    {NOTE_D5, MS_32},
    {NOTE_D5, MS_64},
    {NOTE_A5, MS_64},
    {NOTE_A5, MS_64},
    {NOTE_D5, MS_32},
    {NOTE_D5, MS_16},
    {NOTE_A5, MS_64},
    {NOTE_A5, MS_64},
    {NOTE_D5, MS_32},
    {NOTE_D5, MS_64},
    {NOTE_D5, MS_64},
    {NOTE_D5, MS_32},
    {NOTE_A5, MS_64},
    {NOTE_A5, MS_64},
    {NOTE_D5, MS_32},
    {NOTE_C5, MS_64},
    {NOTE_C5, MS_64},
    {NOTE_C5, MS_64},
    {NOTE_C5, MS_64},
    {NOTE_C5, MS_64},
    {NOTE_D5, MS_64},
    {NOTE_REST, MS_64},
    {NOTE_A5, MS_64},
    {NOTE_A5, MS_32},
    {NOTE_D5, MS_32},
    {NOTE_C5, MS_64},
    {NOTE_C5, MS_64},
    {NOTE_G4, MS_32},
    {NOTE_C5, MS_64},
    {NOTE_A5, MS_64},
    {NOTE_A5, MS_64},
    {NOTE_D5, MS_64},
    {NOTE_G4, MS_64},
    {NOTE_C5, MS_32},
    {NOTE_D5, MS_32},
    {NOTE_G4, MS_64},
    {NOTE_C5, MS_64},
    {NOTE_A5, MS_64},
    {NOTE_A5, MS_64},
    {NOTE_D5, MS_64},
    {NOTE_G4, MS_64},
    {NOTE_C5, MS_32},
    {NOTE_D5, MS_64},
    {NOTE_D5, MS_64},
    {NOTE_G4, MS_64},
    {NOTE_C5, MS_32},
    {NOTE_A5, MS_64},
    {NOTE_A5, MS_64},
    {NOTE_A3, MS_64},
    {NOTE_A3, MS_32},
    {NOTE_A3, MS_64},
    {NOTE_C2, MS_64},
    {NOTE_REST, MS_64},
    {NOTE_REST, MS_32},
    {NOTE_A5, MS_64},
    {NOTE_A5, MS_64},
    {NOTE_A5, MS_64},
    {NOTE_C5, MS_32},
    {NOTE_D5, MS_64},
    {NOTE_D5, MS_64},
    {NOTE_D5, MS_64},
    {NOTE_AS4, MS_64},
    {NOTE_C5, MS_32},
    {NOTE_D5, MS_64},
    {NOTE_A5, MS_64},
    {NOTE_A5, MS_64},
    {NOTE_A5, MS_64},
    {NOTE_C5, MS_64},
    {NOTE_D5, MS_64},
    {NOTE_D5, MS_64},
    {NOTE_AS4, MS_64},
    {NOTE_AS4, MS_64},
    {NOTE_AS4, MS_64},
    {NOTE_D5, MS_64},
    {NOTE_A5, MS_64},
    {NOTE_A5, MS_64},
    {NOTE_A5, MS_64},
    {NOTE_A5, MS_64},
    {NOTE_C5, MS_64},
    {NOTE_D5, MS_64},
    {NOTE_AS4, MS_64},
    {NOTE_C5, MS_64},
    {NOTE_C5, MS_64},
    {NOTE_C5, MS_64},
    {NOTE_D5, MS_64},
    {NOTE_A5, MS_64},
    {NOTE_A5, MS_64},
    {NOTE_A5, MS_64},
    {NOTE_CS3, MS_64},
    {NOTE_C5, MS_64},
    {NOTE_CS3, MS_64},
    {NOTE_CS3, MS_64},
    {NOTE_C3, MS_64},
    {NOTE_B4, MS_64},
    {NOTE_REST, MS_64},
    {NOTE_REST, MS_64},
    {NOTE_C6, MS_64},
    {NOTE_C6, MS_16},
    {NOTE_C6, MS_64},
    {NOTE_C6, MS_64},
    {NOTE_C6, MS_16},
    {NOTE_C6, MS_64},
    {NOTE_C6, MS_32},
    {NOTE_C6, MS_64},
    {NOTE_C6, MS_64},
    {NOTE_C6, MS_64},
    {NOTE_C6, MS_64},
    {NOTE_C6, MS_64},
    {NOTE_C6, MS_64},
    {NOTE_C6, MS_64},
    {NOTE_E5, MS_64},
    {NOTE_E5, MS_64},
    {NOTE_E5, MS_64},
    {NOTE_E5, MS_64},
    {NOTE_E5, MS_64},
    {NOTE_E5, MS_64},
    {NOTE_E5, MS_64},
    {NOTE_E5, MS_64},
    {NOTE_REST, MS_64},
    {NOTE_E5, MS_64},
    {NOTE_REST, MS_64},
    {NOTE_E5, MS_64},
    {NOTE_E5, MS_64},
    {NOTE_E5, MS_64},
    {NOTE_REST, MS_64},
    {NOTE_REST, MS_64},
    {NOTE_F4, MS_32},
    {NOTE_F4, MS_64},
    {NOTE_F4, MS_64},
    {NOTE_F4, MS_64},
    {NOTE_A3, MS_64},
    {NOTE_A3, MS_32},
    {NOTE_A3, MS_64},
    {NOTE_A3, MS_64},
    {NOTE_A3, MS_64},
    {NOTE_AS3, MS_64},
    {NOTE_AS3, MS_64},
    {NOTE_AS3, MS_32},
    {NOTE_AS3, MS_64},
    {NOTE_AS3, MS_64},
    {NOTE_AS2, MS_64},
    {NOTE_B3, MS_32},
    {NOTE_B3, MS_32},
    {NOTE_B3, MS_64},
    {NOTE_B2, MS_64},
    {NOTE_C4, MS_32},
    {NOTE_C3, MS_64},
    {NOTE_D4, MS_64},
    {NOTE_D4, MS_64},
    {NOTE_D4, MS_64},
    {NOTE_DS3, MS_64},
    {NOTE_E4, MS_64},
    {NOTE_E4, MS_64},
    {NOTE_E4, MS_64},
    {NOTE_F4, MS_64},
    {NOTE_F4, MS_64},
    {NOTE_F4, MS_64},
    {NOTE_F4, MS_64},
    {NOTE_E3, MS_64},
    {NOTE_F4, MS_64},
    {NOTE_F4, MS_64},
    {NOTE_F4, MS_64},
    {NOTE_F4, MS_64},
    {NOTE_F4, MS_64},
    {NOTE_F4, MS_64},
    {NOTE_F4, MS_64},
    {NOTE_F4, MS_64},
    {NOTE_A3, MS_32},
    {NOTE_A3, MS_64},
    {NOTE_A3, MS_64},
    {NOTE_AS3, MS_64},
    {NOTE_AS3, MS_64},
    {NOTE_AS3, MS_64},
    {NOTE_AS3, MS_32},
    {NOTE_AS3, MS_64},
    {NOTE_AS3, MS_64},
    {NOTE_B3, MS_32},
    {NOTE_C4, MS_64},
    {NOTE_C4, MS_64},
    {NOTE_C4, MS_64},
    {NOTE_C4, MS_64},
    {NOTE_B2, MS_64},
    {NOTE_D4, MS_64},
    {NOTE_D4, MS_32},
    {NOTE_D4, MS_64},
    {NOTE_D4, MS_64},
    {NOTE_C4, MS_64},
    {NOTE_C4, MS_64},
    {NOTE_C4, MS_32},
    {NOTE_C4, MS_64},
    {NOTE_C4, MS_64},
    {NOTE_C4, MS_64},
    {NOTE_FS2, MS_64},
    {NOTE_F4, MS_64},
    {NOTE_F4, MS_32},
    {NOTE_F4, MS_64},
    {NOTE_F4, MS_64},
    {NOTE_F4, MS_64},
    {NOTE_F4, MS_64},
    {NOTE_A3, MS_32},
    {NOTE_A3, MS_64},
    {NOTE_A3, MS_64},
    {NOTE_A3, MS_64},
    {NOTE_AS3, MS_32},
    {NOTE_AS3, MS_32},
    {NOTE_AS3, MS_64},
    {NOTE_AS3, MS_64},
    {NOTE_AS2, MS_64},
    {NOTE_B3, MS_64},
    {NOTE_B3, MS_32},
    {NOTE_B3, MS_64},
    {NOTE_B3, MS_64},
    {NOTE_REST, MS_64},
    {NOTE_C4, MS_64},
    {NOTE_C4, MS_32},
    {NOTE_C2, MS_64},
    {NOTE_D4, MS_64},
    {NOTE_D4, MS_64},
    {NOTE_D4, MS_64},
    {NOTE_D4, MS_64},
    {NOTE_E4, MS_64},
    {NOTE_E4, MS_64},
    {NOTE_E4, MS_64},
    {NOTE_E4, MS_64},
    {NOTE_F4, MS_64},
    {NOTE_F4, MS_64},
    {NOTE_F4, MS_64},
    {NOTE_F4, MS_64},
    {NOTE_F4, MS_64},
    {NOTE_REST, MS_64},
    {NOTE_G4, MS_64},
    {NOTE_G4, MS_64},
    {NOTE_G4, MS_64},
    {NOTE_G4, MS_64},
    {NOTE_G4, MS_64},
    {NOTE_G4, MS_64},
    {NOTE_G4, MS_64},
    {NOTE_REST, MS_32},
    {NOTE_DS3, MS_64},
    {NOTE_DS3, MS_64},
    {NOTE_C4, MS_64},
    {NOTE_DS3, MS_64},
    {NOTE_DS3, MS_64},
    {NOTE_FS2, MS_32},
    {NOTE_C3, MS_64},
    {NOTE_REST, MS_64},
    {NOTE_CS4, MS_64},
    {NOTE_CS4, MS_64},
    {NOTE_CS4, MS_64},
    {NOTE_DS3, MS_64},
    {NOTE_DS3, MS_64},
    {NOTE_D4, MS_64},
    {NOTE_D4, MS_64},
    {NOTE_D4, MS_64},
    {NOTE_D4, MS_64},
    {NOTE_E4, MS_64},
    {NOTE_E4, MS_64},
    {NOTE_E4, MS_64},
    {NOTE_E4, MS_64},
    {NOTE_REST, MS_64},
    {NOTE_D4, MS_64},
    {NOTE_D4, MS_64},
    {NOTE_D4, MS_64},
    {NOTE_D4, MS_64},
    {NOTE_E3, MS_64},
    {NOTE_E3, MS_64},
    {NOTE_D3, MS_64},
    {NOTE_D3, MS_32},
    {NOTE_REST, MS_64},
    {NOTE_C5, MS_16},
    {NOTE_C5, MS_64},
    {NOTE_C5, MS_64},
    {NOTE_C5, MS_64},
    {NOTE_C5, MS_64},
    {NOTE_C5, MS_64},
    {NOTE_C5, MS_64},
    {NOTE_C5, MS_64},
    {NOTE_C5, MS_64},
    {NOTE_C5, MS_64},
    {NOTE_C5, MS_64},
    {NOTE_C5, MS_64},
    {NOTE_C5, MS_64},
    {NOTE_C5, MS_64},
    {NOTE_C5, MS_64},
    {NOTE_C5, MS_64},
    {NOTE_C5, MS_32},
    {NOTE_C5, MS_64},
    {NOTE_C5, MS_64},
    {NOTE_C5, MS_64},
    {NOTE_C5, MS_64},
    {NOTE_C5, MS_64},
    {NOTE_C5, MS_64},
    {NOTE_C5, MS_64},
    {NOTE_C5, MS_32},
    {NOTE_C5, MS_64},
    {NOTE_C5, MS_64},
    {NOTE_C5, MS_64},
    {NOTE_C5, MS_64},
    {NOTE_C5, MS_64},
    {NOTE_C5, MS_64},
    {NOTE_C5, MS_32},
    {NOTE_C5, MS_64},
    {NOTE_C5, MS_64},
    {NOTE_C5, MS_64},
    {NOTE_C5, MS_64},
    {NOTE_C5, MS_64},
    {NOTE_C5, MS_64},
    {NOTE_C5, MS_64},
    {NOTE_G4, MS_64},
    {NOTE_G4, MS_64},
    {NOTE_C4, MS_32},
    {NOTE_C4, MS_64},
    {NOTE_G4, MS_32},
    {NOTE_G4, MS_64},
    {NOTE_G4, MS_64},
    {NOTE_G2, MS_32},
    {NOTE_C5, MS_64},
    {NOTE_C5, MS_64},
    {NOTE_C5, MS_32},
    {NOTE_C5, MS_64},
    {NOTE_C5, MS_64},
    {NOTE_C5, MS_64},
    {NOTE_C5, MS_64},
    {NOTE_C5, MS_64},
    {NOTE_C5, MS_16},
    {NOTE_A4, MS_64},
    {NOTE_A4, MS_64},
    {NOTE_A4, MS_64},
    {NOTE_C4, MS_64},
    {NOTE_F2, MS_64},
    {NOTE_REST, MS_64},
    {NOTE_C5, MS_64},
    {NOTE_C5, MS_32},
    {NOTE_C5, MS_64},
    {NOTE_C5, MS_64},
    {NOTE_C5, MS_64},
    {NOTE_C5, MS_64},
    {NOTE_C5, MS_64},
    {NOTE_C5, MS_64},
    {NOTE_C5, MS_64},
    {NOTE_C5, MS_64},
    {NOTE_C5, MS_64},
    {NOTE_C5, MS_64},
    {NOTE_C5, MS_64},
    {NOTE_C5, MS_64},
    {NOTE_C5, MS_32},
    {NOTE_C5, MS_64},
    {NOTE_C5, MS_64},
    {NOTE_C5, MS_64},
    {NOTE_C5, MS_64},
    {NOTE_C5, MS_32},
    {NOTE_C5, MS_64},
    {NOTE_C5, MS_32},
    {NOTE_C5, MS_64},
    {NOTE_C5, MS_64},
    {NOTE_C5, MS_64},
    {NOTE_C5, MS_32},
    {NOTE_C5, MS_64},
    {NOTE_C5, MS_64},
    {NOTE_C5, MS_64},
    {NOTE_C5, MS_64},
    {NOTE_C5, MS_64},
    {NOTE_E2, MS_64},
    {NOTE_REST, MS_64},
    {NOTE_G4, MS_64},
    {NOTE_G4, MS_64},
    {NOTE_G4, MS_64},
    {NOTE_AS4, MS_64},
    {NOTE_AS4, MS_64},
    {NOTE_AS4, MS_64},
    {NOTE_AS4, MS_64},
    {NOTE_AS3, MS_64},
    {NOTE_C5, MS_64},
    {NOTE_C5, MS_64},
    {NOTE_C4, MS_64},
    {NOTE_C3, MS_64},
    {NOTE_REST, MS_64},
    {NOTE_C5, MS_64},
    {NOTE_C5, MS_64},
    {NOTE_C5, MS_64},
    {NOTE_C5, MS_64},
    {NOTE_C5, MS_64},
    {NOTE_AS4, MS_64},
    {NOTE_AS4, MS_64},
    {NOTE_AS4, MS_64},
    {NOTE_AS4, MS_64},
    {NOTE_AS3, MS_64},
    {NOTE_DS5, MS_64},
    {NOTE_DS5, MS_64},
    {NOTE_DS5, MS_64},
    {NOTE_DS5, MS_64},
    {NOTE_DS5, MS_64},
    {NOTE_DS5, MS_Q},
    {NOTE_DS5, MS_64},
    {NOTE_DS5, MS_64},
    {NOTE_DS5, MS_64},
    {NOTE_DS5, MS_64},
    {NOTE_DS5, MS_64},
    {NOTE_E2, MS_64},
    {NOTE_REST, MS_64},
    {NOTE_C5, MS_64},
    {NOTE_C5, MS_16},
    {NOTE_C5, MS_64},
    {NOTE_C5, MS_64},
    {NOTE_C5, MS_64},
    {NOTE_C5, MS_64},
    {NOTE_C5, MS_32},
    {NOTE_C5, MS_64},
    {NOTE_C5, MS_32},
    {NOTE_C5, MS_32},
    {NOTE_C5, MS_64},
    {NOTE_C5, MS_64},
    {NOTE_C5, MS_64},
    {NOTE_C5, MS_64},
    {NOTE_C5, MS_64},
    {NOTE_C5, MS_64},
    {NOTE_C5, MS_16},
    {NOTE_C5, MS_64},
    {NOTE_C5, MS_64},
    {NOTE_C5, MS_64},
    {NOTE_C5, MS_64},
    {NOTE_C5, MS_64},
    {NOTE_C5, MS_64},
    {NOTE_C5, MS_64},
    {NOTE_C5, MS_32},
    {NOTE_C5, MS_64},
    {NOTE_C5, MS_64},
    {NOTE_C5, MS_64},
    {NOTE_C5, MS_64},
    {NOTE_C5, MS_64},
    {NOTE_C5, MS_64},
    {NOTE_C5, MS_64},
    {NOTE_C5, MS_64},
    {NOTE_C5, MS_64},
    {NOTE_C5, MS_64},
    {NOTE_C5, MS_64},
    {NOTE_C5, MS_64},
    {NOTE_C5, MS_32},
    {NOTE_C5, MS_64},
    {NOTE_C5, MS_64},
    {NOTE_C5, MS_64},
    {NOTE_C5, MS_64},
    {NOTE_C5, MS_64},
    {NOTE_C5, MS_64},
    {NOTE_C5, MS_32},
    {NOTE_C5, MS_64},
    {NOTE_C5, MS_64},
    {NOTE_C5, MS_64},
    {NOTE_C5, MS_32},
    {NOTE_C5, MS_64},
    {NOTE_G4, MS_64},
    {NOTE_C4, MS_64},
    {NOTE_E2, MS_64},
    {NOTE_REST, MS_64},
    {NOTE_C5, MS_64},
    {NOTE_C5, MS_32},
    {NOTE_C5, MS_64},
    {NOTE_C5, MS_64},
    {NOTE_C5, MS_64},
    {NOTE_C5, MS_64},
    {NOTE_C5, MS_64},
    {NOTE_C5, MS_64},
    {NOTE_C5, MS_64},
    {NOTE_C5, MS_32},
    {NOTE_C5, MS_64},
    {NOTE_C5, MS_64},
    {NOTE_C5, MS_64},
    {NOTE_C5, MS_64},
    {NOTE_C5, MS_64},
    {NOTE_C5, MS_64},
    {NOTE_AS2, MS_64},
    {NOTE_REST, MS_64},
    {NOTE_D5, MS_64},
    {NOTE_D5, MS_32},
    {NOTE_D5, MS_64},
    {NOTE_D5, MS_64},
    {NOTE_D5, MS_64},
    {NOTE_D5, MS_64},
    {NOTE_D5, MS_64},
    {NOTE_D5, MS_64},
    {NOTE_D5, MS_64},
    {NOTE_D5, MS_64},
    {NOTE_D5, MS_32},
    {NOTE_D5, MS_64},
    {NOTE_D5, MS_32},
    {NOTE_D5, MS_64},
    {NOTE_D5, MS_64},
    {NOTE_D5, MS_64},
    {NOTE_D5, MS_32},
    {NOTE_D5, MS_64},
    {NOTE_D5, MS_32},
    {NOTE_D5, MS_64},
    {NOTE_D5, MS_64},
    {NOTE_D5, MS_64},
    {NOTE_D5, MS_64},
    {NOTE_D5, MS_32},
    {NOTE_D5, MS_64},
    {NOTE_D5, MS_64},
    {NOTE_D5, MS_64},
    {NOTE_D5, MS_32},
    {NOTE_D5, MS_64},
    {NOTE_D5, MS_64},
    {NOTE_AS3, MS_64},
    {NOTE_AS3, MS_64},
    {NOTE_D5, MS_64},
    {NOTE_D5, MS_64},
    {NOTE_D5, MS_64},
    {NOTE_D5, MS_64},
    {NOTE_D5, MS_64},
    {NOTE_D5, MS_64},
    {NOTE_D5, MS_64},
    {NOTE_D5, MS_64},
    {NOTE_D5, MS_64},
    {NOTE_D5, MS_64},
    {NOTE_D5, MS_64},
    {NOTE_D5, MS_64},
    {NOTE_D5, MS_32},
    {NOTE_D5, MS_32},
    {NOTE_D5, MS_32},
    {NOTE_D5, MS_64},
    {NOTE_D5, MS_16},
    {NOTE_D5, MS_64},
    {NOTE_D5, MS_32},
    {NOTE_D5, MS_64},
    {NOTE_D5, MS_64},
    {NOTE_D5, MS_64},
    {NOTE_D5, MS_64},
    {NOTE_D5, MS_64},
    {NOTE_D5, MS_64},
    {NOTE_D5, MS_64},
    {NOTE_D5, MS_64},
    {NOTE_AS4, MS_32},
    {NOTE_AS4, MS_64},
    {NOTE_D4, MS_64},
    {NOTE_D4, MS_64},
    {NOTE_AS2, MS_64},
    {NOTE_G2, MS_64},
    {NOTE_REST, MS_64},
    {NOTE_E5, MS_64},
    {NOTE_E5, MS_16},
    {NOTE_E5, MS_64},
    {NOTE_E5, MS_64},
    {NOTE_E5, MS_64},
    {NOTE_E5, MS_64},
    {NOTE_E5, MS_64},
    {NOTE_E5, MS_64},
    {NOTE_E5, MS_32},
    {NOTE_E5, MS_32},
    {NOTE_E5, MS_64},
    {NOTE_E5, MS_64},
    {NOTE_E5, MS_16},
    {NOTE_E5, MS_32},
    {NOTE_E5, MS_64},
    {NOTE_E5, MS_64},
    {NOTE_E5, MS_32},
    {NOTE_E5, MS_16},
    {NOTE_E5, MS_64},
    {NOTE_E5, MS_64},
    {NOTE_E5, MS_64},
    {NOTE_E5, MS_64},
    {NOTE_C4, MS_64},
    {NOTE_D5, MS_64},
    {NOTE_D5, MS_32},
    {NOTE_D5, MS_64},
    {NOTE_D5, MS_64},
    {NOTE_D5, MS_64},
    {NOTE_D5, MS_64},
    {NOTE_D5, MS_64},
    {NOTE_D5, MS_32},
    {NOTE_D5, MS_64},
    {NOTE_D5, MS_64},
    {NOTE_D5, MS_32},
    {NOTE_D5, MS_64},
    {NOTE_D5, MS_64},
    {NOTE_D5, MS_64},
    {NOTE_D5, MS_64},
    {NOTE_D5, MS_64},
    {NOTE_D5, MS_32},
    {NOTE_D5, MS_64},
    {NOTE_D5, MS_64},
    {NOTE_D5, MS_64},
    {NOTE_D5, MS_64},
    {NOTE_D5, MS_64},
    {NOTE_D5, MS_64},
    {NOTE_D5, MS_32},
    {NOTE_D5, MS_64},
    {NOTE_D5, MS_64},
    {NOTE_D5, MS_64},
    {NOTE_D5, MS_64},
    {NOTE_D5, MS_64},
    {NOTE_D5, MS_64},
    {NOTE_D5, MS_64},
    {NOTE_D5, MS_64},
    {NOTE_AS4, MS_64},
    {NOTE_REST, MS_64},
    {NOTE_REST, MS_64},
    {NOTE_E5, MS_64},
    {NOTE_E5, MS_32},
    {NOTE_E5, MS_64},
    {NOTE_E5, MS_64},
    {NOTE_E5, MS_64},
    {NOTE_E5, MS_64},
    {NOTE_E5, MS_64},
    {NOTE_E5, MS_64},
    {NOTE_E5, MS_64},
    {NOTE_E5, MS_32},
    {NOTE_E5, MS_64},
    {NOTE_E5, MS_32},
    {NOTE_E5, MS_64},
    {NOTE_E5, MS_64},
    {NOTE_E5, MS_64},
    {NOTE_E5, MS_64},
    {NOTE_E5, MS_16},
    {NOTE_E5, MS_32},
    {NOTE_E5, MS_64},
    {NOTE_E5, MS_64},
    {NOTE_E5, MS_64},
    {NOTE_E5, MS_64},
    {NOTE_E5, MS_64},
    {NOTE_E5, MS_32},
    {NOTE_E5, MS_32},
    {NOTE_E5, MS_64},
    {NOTE_C5, MS_64},
    {NOTE_C4, MS_64},
    {NOTE_C4, MS_64},
    {NOTE_C3, MS_64},
    {NOTE_D5, MS_64},
    {NOTE_D5, MS_16},
    {NOTE_D5, MS_64},
    {NOTE_D5, MS_64},
    {NOTE_D5, MS_64},
    {NOTE_D5, MS_64},
    {NOTE_D5, MS_64},
    {NOTE_D5, MS_64},
    {NOTE_D5, MS_64},
    {NOTE_D5, MS_64},
    {NOTE_D5, MS_32},
    {NOTE_D5, MS_64},
    {NOTE_D5, MS_32},
    {NOTE_D5, MS_64},
    {NOTE_D5, MS_64},
    {NOTE_D5, MS_64},
    {NOTE_D5, MS_64},
    {NOTE_D5, MS_64},
    {NOTE_D4, MS_64},
    {NOTE_D4, MS_64},
    {NOTE_E5, MS_64},
    {NOTE_E5, MS_32},
    {NOTE_E5, MS_64},
    {NOTE_E5, MS_64},
    {NOTE_E5, MS_64},
    {NOTE_E5, MS_64},
    {NOTE_E5, MS_16},
    {NOTE_E5, MS_64},
    {NOTE_E5, MS_64},
    {NOTE_E5, MS_64},
    {NOTE_E5, MS_64},
    {NOTE_E5, MS_64},
    {NOTE_C5, MS_64},
    {NOTE_C5, MS_64},
    {NOTE_C5, MS_64},
    {NOTE_C4, MS_64},
    {NOTE_D5, MS_64},
    {NOTE_D5, MS_32},
    {NOTE_D5, MS_64},
    {NOTE_D5, MS_64},
    {NOTE_D5, MS_64},
    {NOTE_D5, MS_64},
    {NOTE_D5, MS_64},
    {NOTE_D5, MS_64},
    {NOTE_D5, MS_32},
    {NOTE_D5, MS_32},
    {NOTE_D5, MS_64},
    {NOTE_D5, MS_64},
    {NOTE_D5, MS_64},
    {NOTE_D5, MS_64},
    {NOTE_AS4, MS_64},
    {NOTE_D4, MS_64},
    {NOTE_REST, MS_64},
    {NOTE_E5, MS_64},
    {NOTE_E5, MS_64},
    {NOTE_E5, MS_64},
    {NOTE_E5, MS_64},
    {NOTE_E5, MS_64},
    {NOTE_E5, MS_64},
    {NOTE_E5, MS_64},
    {NOTE_E5, MS_32},
    {NOTE_E5, MS_64},
    {NOTE_E5, MS_64},
    {NOTE_E5, MS_64},
    {NOTE_E5, MS_64},
    {NOTE_E5, MS_64},
    {NOTE_E5, MS_64},
    {NOTE_E5, MS_64},
    {NOTE_C5, MS_64},
    {NOTE_C5, MS_64},
    {NOTE_C4, MS_64},
    {NOTE_F5, MS_64},
    {NOTE_F5, MS_32},
    {NOTE_F5, MS_64},
    {NOTE_F5, MS_64},
    {NOTE_A4, MS_64},
    {NOTE_A4, MS_32},
    {NOTE_A4, MS_64},
    {NOTE_A4, MS_64},
    {NOTE_A4, MS_64},
    {NOTE_AS4, MS_32},
    {NOTE_AS4, MS_32},
    {NOTE_AS4, MS_64},
    {NOTE_B4, MS_16},
    {NOTE_B4, MS_64},
    {NOTE_B4, MS_64},
    {NOTE_C5, MS_64},
    {NOTE_C5, MS_32},
    {NOTE_D5, MS_64},
    {NOTE_D5, MS_64},
    {NOTE_D5, MS_64},
    {NOTE_E5, MS_64},
    {NOTE_E5, MS_64},
    {NOTE_E5, MS_64},
    {NOTE_F5, MS_64},
    {NOTE_F5, MS_64},
    {NOTE_F5, MS_64},
    {NOTE_F5, MS_64},
    {NOTE_E3, MS_64},
    {NOTE_F5, MS_64},
    {NOTE_F5, MS_64},
    {NOTE_F5, MS_64},
    {NOTE_F5, MS_64},
    {NOTE_F5, MS_64},
    {NOTE_F5, MS_64},
    {NOTE_A4, MS_64},
    {NOTE_A4, MS_32},
    {NOTE_A4, MS_64},
    {NOTE_A4, MS_64},
    {NOTE_AS4, MS_64},
    {NOTE_AS4, MS_64},
    {NOTE_AS4, MS_64},
    {NOTE_AS4, MS_64},
    {NOTE_AS4, MS_64},
    {NOTE_AS4, MS_64},
    {NOTE_E2, MS_64},
    {NOTE_B4, MS_32},
    {NOTE_B4, MS_64},
    {NOTE_C5, MS_64},
    {NOTE_C5, MS_64},
    {NOTE_C5, MS_64},
    {NOTE_C5, MS_64},
    {NOTE_REST, MS_64},
    {NOTE_D5, MS_64},
    {NOTE_D5, MS_64},
    {NOTE_D5, MS_64},
    {NOTE_C5, MS_64},
    {NOTE_C5, MS_64},
    {NOTE_C5, MS_64},
    {NOTE_C5, MS_32},
    {NOTE_C5, MS_64},
    {NOTE_C5, MS_64},
    {NOTE_C5, MS_32},
    {NOTE_REST, MS_64},
    {NOTE_F5, MS_32},
    {NOTE_F5, MS_32},
    {NOTE_F5, MS_64},
    {NOTE_F5, MS_64},
    {NOTE_A4, MS_32},
    {NOTE_A4, MS_64},
    {NOTE_A4, MS_64},
    {NOTE_AS4, MS_64},
    {NOTE_AS4, MS_64},
    {NOTE_AS4, MS_64},
    {NOTE_AS4, MS_64},
    {NOTE_AS4, MS_64},
    {NOTE_AS4, MS_64},
    {NOTE_B4, MS_32},
    {NOTE_B4, MS_64},
    {NOTE_B4, MS_64},
    {NOTE_B4, MS_64},
    {NOTE_C5, MS_64},
    {NOTE_C5, MS_64},
    {NOTE_C5, MS_32},
    {NOTE_D5, MS_64},
    {NOTE_D5, MS_64},
    {NOTE_C3, MS_64},
    {NOTE_E5, MS_64},
    {NOTE_E5, MS_64},
    {NOTE_E5, MS_64},
    {NOTE_E5, MS_64},
    {NOTE_F5, MS_64},
    {NOTE_F5, MS_64},
    {NOTE_F5, MS_64},
    {NOTE_REST, MS_64},
    {NOTE_G5, MS_64},
    {NOTE_G5, MS_64},
    {NOTE_G5, MS_64},
    {NOTE_G5, MS_64},
    {NOTE_G5, MS_64},
    {NOTE_G5, MS_64},
    {NOTE_G5, MS_64},
    {NOTE_B4, MS_32},
    {NOTE_B4, MS_64},
    {NOTE_B4, MS_64},
    {NOTE_C5, MS_64},
    {NOTE_C5, MS_32},
    {NOTE_C5, MS_64},
    {NOTE_C5, MS_64},
    {NOTE_C5, MS_64},
    {NOTE_D5, MS_16},
    {NOTE_D5, MS_64},
    {NOTE_D5, MS_64},
    {NOTE_D5, MS_64},
    {NOTE_AS2, MS_64},
    {NOTE_DS5, MS_64},
    {NOTE_DS5, MS_32},
    {NOTE_E5, MS_64},
    {NOTE_E5, MS_64},
    {NOTE_E5, MS_64},
    {NOTE_F5, MS_64},
    {NOTE_F5, MS_64},
    {NOTE_E3, MS_64},
    {NOTE_G5, MS_64},
    {NOTE_G5, MS_64},
    {NOTE_G5, MS_64},
    {NOTE_FS5, MS_64},
    {NOTE_FS5, MS_64},
    {NOTE_FS5, MS_64},
    {NOTE_GS5, MS_64},
    {NOTE_GS5, MS_64},
    {NOTE_GS5, MS_64},
    {NOTE_AS5, MS_64},
    {NOTE_AS5, MS_64},
    {NOTE_AS5, MS_64},
    {NOTE_GS3, MS_64},
    {NOTE_GS3, MS_64},
    {NOTE_E2, MS_64},
    {NOTE_E2, MS_64},
    {NOTE_REST, MS_64},
    {NOTE_GS5, MS_64},
    {NOTE_GS5, MS_64},
    {NOTE_GS5, MS_64},
    {NOTE_AS5, MS_64},
    {NOTE_AS5, MS_64},
    {NOTE_C6, MS_64},
    {NOTE_C6, MS_64},
    {NOTE_C6, MS_64},
    {NOTE_C6, MS_32},
    {NOTE_CS3, MS_64},
    {NOTE_C4, MS_64},
    {NOTE_CS3, MS_32},
    {NOTE_REST, MS_64},
    {NOTE_REST, MS_64},
    {NOTE_AS5, MS_32},
    {NOTE_C6, MS_64},
    {NOTE_C6, MS_64},
    {NOTE_D6, MS_64},
    {NOTE_D6, MS_64},
    {NOTE_D6, MS_64},
    {NOTE_REST, MS_64},
    {NOTE_FS5, MS_64},
    {NOTE_FS5, MS_64},
    {NOTE_FS5, MS_64},
    {NOTE_FS5, MS_64},
    {NOTE_FS5, MS_64},
    {NOTE_FS5, MS_64},
    {NOTE_FS5, MS_64},
    {NOTE_FS5, MS_64},
    {NOTE_FS5, MS_64},
    {NOTE_FS5, MS_64},
    {NOTE_FS5, MS_64},
    {NOTE_FS5, MS_64},
    {NOTE_FS5, MS_64},
    {NOTE_FS5, MS_64},
    {NOTE_FS5, MS_64},
    {NOTE_FS5, MS_64},
    {NOTE_FS5, MS_64},
    {NOTE_FS5, MS_64},
    {NOTE_FS5, MS_64},
    {NOTE_FS5, MS_64},
    {NOTE_FS5, MS_64},
    {NOTE_FS5, MS_64},
    {NOTE_FS5, MS_64},
    {NOTE_FS4, MS_64},
    {NOTE_FS4, MS_64},
    {NOTE_AS3, MS_64},
    {NOTE_FS3, MS_64},
    {NOTE_F3, MS_64},
    {NOTE_REST, MS_64},
    {NOTE_REST, MS_64},
    {NOTE_D4, MS_64},
    {NOTE_AS3, MS_64},
    {NOTE_REST, MS_64},
    {NOTE_REST, MS_64},
    {NOTE_REST, MS_64},
    {NOTE_DS5, MS_64},
    {NOTE_DS5, MS_64},
    {NOTE_DS5, MS_64},
    {NOTE_DS5, MS_64},
    {NOTE_DS5, MS_64},
    {NOTE_DS5, MS_64},
    {NOTE_DS5, MS_32},
    {NOTE_DS5, MS_64},
    {NOTE_DS5, MS_64},
    {NOTE_DS5, MS_64},
    {NOTE_DS5, MS_64},
    {NOTE_DS5, MS_64},
    {NOTE_DS5, MS_64},
    {NOTE_DS5, MS_64},
    {NOTE_DS5, MS_64},
    {NOTE_DS5, MS_64},
    {NOTE_DS5, MS_64},
    {NOTE_DS5, MS_64},
    {NOTE_DS5, MS_64},
    {NOTE_C4, MS_64},
    {NOTE_D4, MS_64},
    {NOTE_AS2, MS_64},
    {NOTE_AS2, MS_64},
    {NOTE_AS2, MS_64},
    {NOTE_AS2, MS_64},
    {NOTE_AS2, MS_16},
    {NOTE_REST, MS_64},
    {NOTE_F5, MS_64},
    {NOTE_F5, MS_64},
    {NOTE_F5, MS_64},
    {NOTE_F5, MS_64},
    {NOTE_F5, MS_64},
    {NOTE_F5, MS_64},
    {NOTE_F5, MS_64},
    {NOTE_F5, MS_64},
    {NOTE_F5, MS_64},
    {NOTE_F5, MS_64},
    {NOTE_F5, MS_64},
    {NOTE_F5, MS_64},
    {NOTE_F5, MS_64},
    {NOTE_F5, MS_64},
    {NOTE_F5, MS_64},
    {NOTE_F5, MS_64},
    {NOTE_F5, MS_64},
    {NOTE_F5, MS_64},
    {NOTE_F5, MS_64},
    {NOTE_F5, MS_64},
    {NOTE_F5, MS_64},
    {NOTE_F5, MS_64},
    {NOTE_F5, MS_64},
    {NOTE_F5, MS_64},
    {NOTE_F5, MS_64},
    {NOTE_F5, MS_64},
    {NOTE_F5, MS_64},
    {NOTE_F5, MS_64},
    {NOTE_F5, MS_64},
    {NOTE_F5, MS_64},
    {NOTE_F5, MS_64},
    {NOTE_F5, MS_64},
    {NOTE_F5, MS_64},
    {NOTE_F5, MS_64},
    {NOTE_F5, MS_64},
    {NOTE_F5, MS_64},
    {NOTE_F5, MS_64},
    {NOTE_F5, MS_64},
    {NOTE_F5, MS_64},
    {NOTE_F5, MS_64},
    {NOTE_F5, MS_64},
    {NOTE_F5, MS_64},
    {NOTE_F5, MS_64},
    {NOTE_F5, MS_64},
    {NOTE_F5, MS_64},
    {NOTE_F5, MS_64},
    {NOTE_F5, MS_64},
    {NOTE_F5, MS_64},
    {NOTE_F5, MS_64},
    {NOTE_F5, MS_64},
    {NOTE_F5, MS_64},
    {NOTE_F5, MS_64},
    {NOTE_F5, MS_64},
    {NOTE_F5, MS_64},
    {NOTE_F5, MS_64},
    {NOTE_F5, MS_64},
    {NOTE_F5, MS_64},
    {NOTE_F5, MS_64},
    {NOTE_F5, MS_64},
    {NOTE_F5, MS_64},
    {NOTE_F5, MS_64},
    {NOTE_F5, MS_Q},
    {NOTE_F5, MS_32},
    {NOTE_F5, MS_H},
    {NOTE_REST, MS_16},
    {NOTE_AS3, MS_16},
    {NOTE_A3, MS_16},
    {NOTE_AS3, MS_16},
    {NOTE_C4, MS_16},
    {NOTE_AS3, MS_16},
    {NOTE_D4, MS_16},
    {NOTE_AS3, MS_16},
    {NOTE_REST, MS_16},
    {NOTE_REST, MS_16},
    {NOTE_F4, MS_16},
    {NOTE_REST, MS_16},
    {NOTE_G4, MS_64},
    {NOTE_DS5, MS_16},
    {NOTE_DS5, MS_16},
    {NOTE_DS5, MS_64},
    {NOTE_DS5, MS_32},
    {NOTE_DS5, MS_64},
    {NOTE_DS5, MS_64},
    {NOTE_DS5, MS_32},
    {NOTE_DS5, MS_64},
    {NOTE_DS5, MS_64},
    {NOTE_DS5, MS_32},
    {NOTE_AS4, MS_64},
    {NOTE_AS2, MS_64},
    {NOTE_DS5, MS_64},
    {NOTE_DS5, MS_64},
    {NOTE_DS5, MS_32},
    {NOTE_DS5, MS_64},
    {NOTE_DS5, MS_64},
    {NOTE_AS4, MS_64},
    {NOTE_DS3, MS_64},
    {NOTE_DS3, MS_64},
    {NOTE_AS2, MS_16},
    {NOTE_E2, MS_64},
    {NOTE_D5, MS_32},
    {NOTE_D5, MS_32},
    {NOTE_D5, MS_64},
    {NOTE_D5, MS_32},
    {NOTE_D5, MS_64},
    {NOTE_D5, MS_64},
    {NOTE_D5, MS_64},
    {NOTE_D5, MS_64},
    {NOTE_D5, MS_32},
    {NOTE_D5, MS_64},
    {NOTE_D5, MS_64},
    {NOTE_D5, MS_32},
    {NOTE_D5, MS_64},
    {NOTE_D5, MS_64},
    {NOTE_AS4, MS_64},
    {NOTE_D4, MS_64},
    {NOTE_D4, MS_64},
    {NOTE_D4, MS_64},
    {NOTE_D5, MS_64},
    {NOTE_D5, MS_64},
    {NOTE_D5, MS_64},
    {NOTE_D5, MS_32},
    {NOTE_D5, MS_64},
    {NOTE_AS4, MS_64},
    {NOTE_D3, MS_32},
    {NOTE_D3, MS_64},
    {NOTE_AS2, MS_64},
    {NOTE_E2, MS_32},
    {NOTE_C5, MS_16},
    {NOTE_C5, MS_64},
    {NOTE_C5, MS_16},
    {NOTE_C5, MS_64},
    {NOTE_C5, MS_64},
    {NOTE_C5, MS_64},
    {NOTE_C5, MS_64},
    {NOTE_C5, MS_64},
    {NOTE_C5, MS_64},
    {NOTE_C5, MS_16},
    {NOTE_C5, MS_64},
    {NOTE_C5, MS_16},
    {NOTE_C5, MS_64},
    {NOTE_C5, MS_64},
    {NOTE_C5, MS_32},
    {NOTE_C5, MS_64},
    {NOTE_AS4, MS_64},
    {NOTE_AS4, MS_64},
    {NOTE_AS4, MS_64},
    {NOTE_AS4, MS_64},
    {NOTE_AS4, MS_64},
    {NOTE_AS4, MS_16},
    {NOTE_AS4, MS_64},
    {NOTE_G5, MS_Q},
    {NOTE_G5, MS_32},
    {NOTE_G5, MS_64},
    {NOTE_G5, MS_32},
    {NOTE_G5, MS_64},
    {NOTE_G5, MS_64},
    {NOTE_G5, MS_64},
    {NOTE_G5, MS_64},
    {NOTE_G5, MS_64},
    {NOTE_G5, MS_16},
    {NOTE_G5, MS_64},
    {NOTE_DS5, MS_64},
    {NOTE_REST, MS_64},
    {NOTE_REST, MS_64},
    {NOTE_REST, MS_Q},
    {NOTE_G5, MS_DQ},
    {NOTE_G5, MS_64},
    {NOTE_G5, MS_64},
    {NOTE_G5, MS_64},
    {NOTE_G5, MS_64},
    {NOTE_G5, MS_64},
    {NOTE_G5, MS_64},
    {NOTE_G5, MS_16},
    {NOTE_DS5, MS_64},
    {NOTE_DS5, MS_64},
    {NOTE_DS5, MS_64},
    {NOTE_DS5, MS_64},
    {NOTE_DS5, MS_64},
    {NOTE_DS5, MS_64},
    {NOTE_REST, MS_32},
    {NOTE_REST, MS_16},
    {NOTE_F5, MS_Q},
    {NOTE_F5, MS_64},
    {NOTE_F5, MS_64},
    {NOTE_F5, MS_64},
    {NOTE_F5, MS_32},
    {NOTE_F5, MS_64},
    {NOTE_F5, MS_64},
    {NOTE_F5, MS_64},
    {NOTE_F5, MS_64},
    {NOTE_F5, MS_64},
    {NOTE_DS5, MS_Q},
    {NOTE_DS5, MS_64},
    {NOTE_G5, MS_64},
    {NOTE_G5, MS_64},
    {NOTE_G5, MS_32},
    {NOTE_G5, MS_64},
    {NOTE_G5, MS_64},
    {NOTE_G5, MS_32},
    {NOTE_G5, MS_64},
    {NOTE_FS5, MS_H},
    {NOTE_G5, MS_64},
    {NOTE_G5, MS_64},
    {NOTE_G5, MS_64},
    {NOTE_G5, MS_16},
    {NOTE_G5, MS_64},
    {NOTE_G5, MS_32},
    {NOTE_A5, MS_64},
    {NOTE_A5, MS_64},
    {NOTE_A5, MS_32},
    {NOTE_A5, MS_64},
    {NOTE_A5, MS_64},
    {NOTE_G5, MS_64},
    {NOTE_G5, MS_64},
    {NOTE_G5, MS_32},
    {NOTE_AS5, MS_64},
    {NOTE_AS5, MS_32},
    {NOTE_AS5, MS_16},
    {NOTE_AS5, MS_64},
    {NOTE_AS5, MS_64},
    {NOTE_AS5, MS_64},
    {NOTE_AS5, MS_16},
    {NOTE_AS5, MS_64},
    {NOTE_AS5, MS_64},
    {NOTE_AS5, MS_64},
    {NOTE_AS5, MS_32},
    {NOTE_AS5, MS_64},
    {NOTE_AS5, MS_32},
    {NOTE_AS5, MS_64},
    {NOTE_AS5, MS_32},
    {NOTE_AS5, MS_64},
    {NOTE_AS5, MS_16},
    {NOTE_AS5, MS_64},
    {NOTE_AS5, MS_64},
    {NOTE_CS3, MS_Q},
    {NOTE_DS3, MS_16},
    {NOTE_DS3, MS_16},
    {NOTE_GS4, MS_32},
    {NOTE_GS4, MS_32},
    {NOTE_GS4, MS_32},
    {NOTE_GS4, MS_64},
    {NOTE_GS4, MS_64},
    {NOTE_D5, MS_64},
    {NOTE_D5, MS_64},
    {NOTE_D5, MS_64},
    {NOTE_D5, MS_64},
    {NOTE_D5, MS_64},
    {NOTE_D5, MS_32},
    {NOTE_D5, MS_64},
    {NOTE_D5, MS_64},
    {NOTE_GS4, MS_64},
    {NOTE_G4, MS_64},
    {NOTE_G4, MS_64},
    {NOTE_G4, MS_16},
    {NOTE_G4, MS_64},
    {NOTE_G4, MS_32},
    {NOTE_G4, MS_32},
    {NOTE_G4, MS_16},
    {NOTE_DS4, MS_32},
    {NOTE_DS4, MS_32},
    {NOTE_DS4, MS_64},
    {NOTE_DS4, MS_64},
    {NOTE_DS3, MS_64},
    {NOTE_CS3, MS_32},
    {NOTE_CS3, MS_64},
    {NOTE_CS3, MS_64},
    {NOTE_DS2, MS_32},
    {NOTE_REST, MS_16},
    {NOTE_REST, MS_64},
    {NOTE_GS5, MS_Q},
    {NOTE_CS3, MS_64},
    {NOTE_G5, MS_64},
    {NOTE_DS4, MS_Q},
    {NOTE_DS4, MS_64},
    {NOTE_DS5, MS_64},
    {NOTE_C5, MS_32},
    {NOTE_C5, MS_32},
    {NOTE_C5, MS_32},
    {NOTE_C5, MS_32},
    {NOTE_G4, MS_64},
    {NOTE_DS4, MS_32},
    {NOTE_DS4, MS_64},
    {NOTE_DS4, MS_16},
    {NOTE_AS4, MS_64},
    {NOTE_G4, MS_16},
    {NOTE_G4, MS_16},
    {NOTE_G4, MS_32},
    {NOTE_D4, MS_64},
    {NOTE_D4, MS_64},
    {NOTE_D4, MS_32},
    {NOTE_D3, MS_16},
    {NOTE_AS4, MS_64},
    {NOTE_AS4, MS_16},
    {NOTE_AS4, MS_64},
    {NOTE_AS4, MS_64},
    {NOTE_AS4, MS_64},
    {NOTE_AS4, MS_32},
    {NOTE_AS4, MS_64},
    {NOTE_AS4, MS_32},
    {NOTE_AS4, MS_32},
    {NOTE_G3, MS_64},
    {NOTE_E2, MS_64},
    {NOTE_G5, MS_16},
    {NOTE_G5, MS_16},
    {NOTE_G5, MS_64},
    {NOTE_F5, MS_32},
    {NOTE_F5, MS_32},
    {NOTE_F5, MS_16},
    {NOTE_F5, MS_64},
    {NOTE_F5, MS_64},
    {NOTE_DS5, MS_32},
    {NOTE_DS5, MS_32},
    {NOTE_DS5, MS_32},
    {NOTE_DS5, MS_64},
    {NOTE_DS5, MS_64},
    {NOTE_DS5, MS_64},
    {NOTE_D5, MS_64},
    {NOTE_D5, MS_64},
    {NOTE_D5, MS_64},
    {NOTE_C5, MS_32},
    {NOTE_REST, MS_64},
    {NOTE_AS4, MS_32},
    {NOTE_G4, MS_16},
    {NOTE_G4, MS_64},
    {NOTE_G4, MS_32},
    {NOTE_G4, MS_Q},
    {NOTE_G4, MS_16},
    {NOTE_G4, MS_16},
    {NOTE_G4, MS_64},
    {NOTE_G4, MS_64},
    {NOTE_G4, MS_32},
    {NOTE_G4, MS_32},
    {NOTE_G4, MS_32},
    {NOTE_AS2, MS_32},
    {NOTE_G5, MS_Q},
    {NOTE_C5, MS_64},
    {NOTE_DS5, MS_16},
    {NOTE_DS5, MS_16},
    {NOTE_F5, MS_16},
    {NOTE_F5, MS_32},
    {NOTE_F5, MS_32},
    {NOTE_G5, MS_64},
    {NOTE_G5, MS_64},
    {NOTE_G5, MS_64},
    {NOTE_G5, MS_64},
    {NOTE_G5, MS_64},
    {NOTE_DS5, MS_64},
    {NOTE_DS5, MS_64},
    {NOTE_DS5, MS_64},
    {NOTE_DS5, MS_64},
    {NOTE_DS5, MS_32},
    {NOTE_DS5, MS_32},
    {NOTE_B4, MS_W},
    {NOTE_B4, MS_16},
    {NOTE_B4, MS_16},
    {NOTE_B4, MS_Q},
    {NOTE_B4, MS_32},
    {NOTE_B4, MS_16},
    {NOTE_B4, MS_32},
    {NOTE_B4, MS_64},
    {NOTE_B4, MS_64},
    {NOTE_B4, MS_64},
    {NOTE_B4, MS_64},
    {NOTE_GS3, MS_32},
    {NOTE_G5, MS_64},
    {NOTE_G5, MS_64},
    {NOTE_G5, MS_16},
    {NOTE_F5, MS_Q},
    {NOTE_F5, MS_64},
    {NOTE_F4, MS_64},
    {NOTE_DS4, MS_64},
    {NOTE_C4, MS_64},
    {NOTE_F5, MS_16},
    {NOTE_F5, MS_16},
    {NOTE_F5, MS_64},
    {NOTE_F5, MS_64},
    {NOTE_DS5, MS_64},
    {NOTE_DS5, MS_16},
    {NOTE_AS3, MS_64},
    {NOTE_DS5, MS_32},
    {NOTE_DS5, MS_Q},
    {NOTE_C5, MS_16},
    {NOTE_C5, MS_DQ},
    {NOTE_D5, MS_64},
    {NOTE_D5, MS_64},
    {NOTE_D5, MS_64},
    {NOTE_D5, MS_16},
    {NOTE_D5, MS_32},
    {NOTE_D5, MS_64},
    {NOTE_D5, MS_64},
    {NOTE_DS5, MS_32},
    {NOTE_DS5, MS_16},
    {NOTE_DS5, MS_16},
    {NOTE_DS5, MS_64},
    {NOTE_AS2, MS_32},
    {NOTE_G4, MS_64},
    {NOTE_G4, MS_16},
    {NOTE_G4, MS_64},
    {NOTE_AS4, MS_64},
    {NOTE_AS4, MS_16},
    {NOTE_REST, MS_32},
    {NOTE_REST, MS_64},
    {NOTE_C5, MS_64},
    {NOTE_C5, MS_Q},
    {NOTE_D5, MS_64},
    {NOTE_D5, MS_64},
    {NOTE_D5, MS_16},
    {NOTE_C5, MS_64},
    {NOTE_C5, MS_Q},
    {NOTE_D5, MS_64},
    {NOTE_D5, MS_16},
    {NOTE_D5, MS_64},
    {NOTE_D5, MS_32},
    {NOTE_AS4, MS_32},
    {NOTE_AS4, MS_64},
    {NOTE_AS4, MS_16},
    {NOTE_AS4, MS_32},
    {NOTE_DS4, MS_64},
    {NOTE_G3, MS_16},
    {NOTE_G4, MS_Q},
    {NOTE_G4, MS_64},
    {NOTE_AS4, MS_64},
    {NOTE_AS4, MS_16},
    {NOTE_G3, MS_64},
    {NOTE_REST, MS_32},
    {NOTE_C5, MS_Q},
    {NOTE_D5, MS_64},
    {NOTE_D5, MS_64},
    {NOTE_D5, MS_16},
    {NOTE_FS4, MS_64},
    {NOTE_C5, MS_Q},
    {NOTE_D5, MS_64},
    {NOTE_D5, MS_64},
    {NOTE_FS3, MS_32},
    {NOTE_FS3, MS_64},
    {NOTE_REST, MS_32},
    {NOTE_AS4, MS_64},
    {NOTE_F4, MS_64},
    {NOTE_F4, MS_64},
    {NOTE_F4, MS_Q},
    {NOTE_F4, MS_64},
    {NOTE_D4, MS_32},
    {NOTE_D4, MS_16},
    {NOTE_F4, MS_32},
    {NOTE_D4, MS_16},
    {NOTE_F3, MS_64},
    {NOTE_AS4, MS_32},
    {NOTE_AS4, MS_32},
    {NOTE_F3, MS_64},
    {NOTE_REST, MS_64},
    {NOTE_REST, MS_64},
    {NOTE_AS4, MS_Q},
    {NOTE_AS4, MS_64},
    {NOTE_GS4, MS_64},
    {NOTE_GS4, MS_16},
    {NOTE_F4, MS_32},
    {NOTE_GS4, MS_16},
    {NOTE_GS4, MS_32},
    {NOTE_F4, MS_64},
    {NOTE_G4, MS_64},
    {NOTE_G4, MS_64},
    {NOTE_G4, MS_32},
    {NOTE_REST, MS_32},
    {NOTE_REST, MS_32},
    {NOTE_G4, MS_64},
    {NOTE_G4, MS_16},
    {NOTE_G4, MS_32},
    {NOTE_G4, MS_32},
    {NOTE_G4, MS_64},
    {NOTE_G4, MS_16},
    {NOTE_G4, MS_32},
    {NOTE_E4, MS_Q},
    {NOTE_AS4, MS_32},
    {NOTE_AS4, MS_32},
    {NOTE_E4, MS_64},
    {NOTE_E4, MS_32},
    {NOTE_AS4, MS_64},
    {NOTE_AS4, MS_Q},
    {NOTE_AS4, MS_64},
    {NOTE_GS4, MS_16},
    {NOTE_C4, MS_32},
    {NOTE_GS4, MS_64},
    {NOTE_GS4, MS_16},
    {NOTE_C4, MS_32},
    {NOTE_G4, MS_64},
    {NOTE_G4, MS_32},
    {NOTE_G4, MS_64},
    {NOTE_G4, MS_32},
    {NOTE_REST, MS_32},
    {NOTE_G4, MS_Q},
    {NOTE_G4, MS_64},
    {NOTE_G4, MS_16},
    {NOTE_G4, MS_32},
    {NOTE_G4, MS_32},
    {NOTE_G4, MS_64},
    {NOTE_G4, MS_Q},
    {NOTE_G4, MS_Q},
    {NOTE_G4, MS_64},
    {NOTE_G4, MS_64},
    {NOTE_G4, MS_64},
    {NOTE_G4, MS_64},
    {NOTE_F4, MS_64},
    {NOTE_F4, MS_Q},
    {NOTE_F4, MS_64},
    {NOTE_CS3, MS_Q},
    {NOTE_F3, MS_64},
    {NOTE_F4, MS_Q},
    {NOTE_F4, MS_64},
    {NOTE_F4, MS_64},
    {NOTE_F4, MS_16},
    {NOTE_F4, MS_32},
    {NOTE_F4, MS_64},
    {NOTE_D4, MS_64},
    {NOTE_D4, MS_64},
    {NOTE_D4, MS_64},
    {NOTE_D4, MS_Q},
    {NOTE_AS3, MS_64},
    {NOTE_D4, MS_16},
    {NOTE_D4, MS_16},
    {NOTE_D4, MS_64},
    {NOTE_C4, MS_64},
    {NOTE_C4, MS_Q},
    {NOTE_C4, MS_32},
    {NOTE_REST, MS_32},
    {NOTE_C4, MS_Q},
    {NOTE_C4, MS_32},
    {NOTE_REST, MS_64},
    {NOTE_B3, MS_64},
    {NOTE_B3, MS_DQ},
    {NOTE_F4, MS_DQ},
    {NOTE_F4, MS_64},
    {NOTE_F4, MS_32},
    {NOTE_F4, MS_32},
    {NOTE_F4, MS_32},
    {NOTE_F4, MS_32},
    {NOTE_D4, MS_H},
    {NOTE_F4, MS_DH},
    {NOTE_F4, MS_16},
    {NOTE_F4, MS_Q},
    {NOTE_AS3, MS_64},
    {NOTE_REST, MS_64},
    {NOTE_F3, MS_64},
    {NOTE_A3, MS_64},
    {NOTE_C4, MS_64},
    {NOTE_F4, MS_W},
    {NOTE_F4, MS_64},
    {NOTE_C4, MS_64},
    {NOTE_REST, MS_H},
};

// BASS
static const Step song_queen___bohemian_rhapsody_bass[] = {
    {NOTE_F4, MS_Q},
    {NOTE_F4, MS_64},
    {NOTE_GS4, MS_64},
    {NOTE_F4, MS_16},
    {NOTE_F4, MS_64},
    {NOTE_F4, MS_64},
    {NOTE_REST, MS_32},
    {NOTE_F4, MS_Q},
    {NOTE_F4, MS_64},
    {NOTE_AS4, MS_64},
    {NOTE_REST, MS_64},
    {NOTE_F4, MS_H},
    {NOTE_F4, MS_64},
    {NOTE_GS4, MS_64},
    {NOTE_AS4, MS_64},
    {NOTE_REST, MS_64},
    {NOTE_F4, MS_DQ},
    {NOTE_F4, MS_64},
    {NOTE_F4, MS_64},
    {NOTE_F4, MS_64},
    {NOTE_REST, MS_Q},
    {NOTE_DS4, MS_Q},
    {NOTE_DS4, MS_64},
    {NOTE_REST, MS_64},
    {NOTE_DS4, MS_Q},
    {NOTE_DS4, MS_64},
    {NOTE_DS4, MS_64},
    {NOTE_F4, MS_Q},
    {NOTE_F4, MS_64},
    {NOTE_F4, MS_64},
    {NOTE_G4, MS_Q},
    {NOTE_F4, MS_16},
    {NOTE_DS4, MS_H},
    {NOTE_DS4, MS_32},
    {NOTE_REST, MS_16},
    {NOTE_DS4, MS_Q},
    {NOTE_DS4, MS_64},
    {NOTE_DS4, MS_64},
    {NOTE_REST, MS_64},
    {NOTE_DS4, MS_Q},
    {NOTE_DS4, MS_64},
    {NOTE_REST, MS_64},
    {NOTE_DS4, MS_Q},
    {NOTE_DS4, MS_64},
    {NOTE_GS4, MS_64},
    {NOTE_DS4, MS_H},
    {NOTE_DS4, MS_16},
    {NOTE_DS4, MS_64},
    {NOTE_GS4, MS_Q},
    {NOTE_C5, MS_32},
    {NOTE_GS4, MS_Q},
    {NOTE_REST, MS_32},
    {NOTE_CS4, MS_16},
    {NOTE_CS5, MS_64},
    {NOTE_REST, MS_16},
    {NOTE_CS4, MS_16},
    {NOTE_CS4, MS_16},
    {NOTE_CS4, MS_64},
    {NOTE_FS4, MS_Q},
    {NOTE_AS4, MS_32},
    {NOTE_F4, MS_Q},
    {NOTE_DS4, MS_Q},
    {NOTE_CS4, MS_W},
    {NOTE_CS4, MS_64},
    {NOTE_REST, MS_Q},
    {NOTE_AS2, MS_Q},
    {NOTE_AS2, MS_64},
    {NOTE_AS2, MS_64},
    {NOTE_AS2, MS_64},
    {NOTE_AS2, MS_Q},
    {NOTE_AS2, MS_64},
    {NOTE_AS2, MS_Q},
    {NOTE_AS2, MS_64},
    {NOTE_AS2, MS_64},
    {NOTE_AS2, MS_Q},
    {NOTE_AS2, MS_64},
    {NOTE_AS2, MS_Q},
    {NOTE_AS2, MS_32},
    {NOTE_AS2, MS_Q},
    {NOTE_AS2, MS_32},
    {NOTE_AS2, MS_16},
    {NOTE_AS2, MS_64},
    {NOTE_AS2, MS_64},
    {NOTE_AS2, MS_64},
    {NOTE_AS2, MS_64},
    {NOTE_AS2, MS_32},
    {NOTE_AS2, MS_16},
    {NOTE_REST, MS_64},
    {NOTE_CS3, MS_Q},
    {NOTE_CS3, MS_64},
    {NOTE_CS3, MS_64},
    {NOTE_CS3, MS_64},
    {NOTE_CS3, MS_64},
    {NOTE_CS3, MS_Q},
    {NOTE_CS3, MS_Q},
    {NOTE_CS3, MS_64},
    {NOTE_CS3, MS_Q},
    {NOTE_CS3, MS_64},
    {NOTE_CS3, MS_Q},
    {NOTE_CS3, MS_64},
    {NOTE_CS3, MS_64},
    {NOTE_CS3, MS_Q},
    {NOTE_CS3, MS_64},
    {NOTE_CS3, MS_Q},
    {NOTE_CS3, MS_64},
    {NOTE_CS3, MS_32},
    {NOTE_CS3, MS_64},
    {NOTE_CS3, MS_16},
    {NOTE_FS2, MS_Q},
    {NOTE_FS2, MS_64},
    {NOTE_FS2, MS_64},
    {NOTE_FS2, MS_Q},
    {NOTE_FS2, MS_64},
    {NOTE_FS2, MS_Q},
    {NOTE_FS2, MS_64},
    {NOTE_FS2, MS_64},
    {NOTE_FS2, MS_Q},
    {NOTE_FS2, MS_64},
    {NOTE_FS2, MS_Q},
    {NOTE_FS2, MS_64},
    {NOTE_FS2, MS_64},
    {NOTE_FS2, MS_Q},
    {NOTE_FS2, MS_64},
    {NOTE_FS2, MS_32},
    {NOTE_FS2, MS_16},
    {NOTE_FS2, MS_Q},
    {NOTE_FS2, MS_64},
    {NOTE_DS3, MS_64},
    {NOTE_DS3, MS_Q},
    {NOTE_DS3, MS_64},
    {NOTE_DS3, MS_64},
    {NOTE_DS3, MS_64},
    {NOTE_DS3, MS_16},
    {NOTE_DS3, MS_64},
    {NOTE_DS3, MS_64},
    {NOTE_DS3, MS_Q},
    {NOTE_DS3, MS_64},
    {NOTE_DS3, MS_64},
    {NOTE_DS3, MS_64},
    {NOTE_DS3, MS_Q},
    {NOTE_DS3, MS_64},
    {NOTE_DS3, MS_16},
    {NOTE_DS3, MS_32},
    {NOTE_DS3, MS_64},
    {NOTE_DS3, MS_Q},
    {NOTE_DS3, MS_64},
    {NOTE_DS3, MS_16},
    {NOTE_DS3, MS_32},
    {NOTE_DS3, MS_64},
    {NOTE_DS3, MS_16},
    {NOTE_DS3, MS_16},
    {NOTE_DS3, MS_64},
    {NOTE_GS2, MS_64},
    {NOTE_GS2, MS_64},
    {NOTE_GS2, MS_16},
    {NOTE_GS2, MS_64},
    {NOTE_GS2, MS_32},
    {NOTE_GS2, MS_64},
    {NOTE_GS2, MS_64},
    {NOTE_GS2, MS_Q},
    {NOTE_GS2, MS_64},
    {NOTE_GS2, MS_Q},
    {NOTE_GS2, MS_64},
    {NOTE_GS2, MS_64},
    {NOTE_GS2, MS_64},
    {NOTE_GS2, MS_32},
    {NOTE_GS2, MS_64},
    {NOTE_GS2, MS_16},
    {NOTE_GS2, MS_16},
    {NOTE_GS2, MS_64},
    {NOTE_DS3, MS_32},
    {NOTE_DS3, MS_Q},
    {NOTE_REST, MS_32},
    {NOTE_F4, MS_Q},
    {NOTE_REST, MS_64},
    {NOTE_FS4, MS_Q},
    {NOTE_B2, MS_16},
    {NOTE_FS3, MS_32},
    {NOTE_B2, MS_16},
    {NOTE_DS4, MS_64},
    {NOTE_DS4, MS_64},
    {NOTE_B4, MS_64},
    {NOTE_REST, MS_64},
    {NOTE_AS2, MS_16},
    {NOTE_AS2, MS_64},
    {NOTE_AS2, MS_64},
    {NOTE_AS2, MS_32},
    {NOTE_REST, MS_Q},
    {NOTE_A2, MS_16},
    {NOTE_A2, MS_64},
    {NOTE_E3, MS_64},
    {NOTE_REST, MS_64},
    {NOTE_A2, MS_16},
    {NOTE_E3, MS_64},
    {NOTE_E3, MS_64},
    {NOTE_E3, MS_64},
    {NOTE_CS4, MS_64},
    {NOTE_CS4, MS_64},
    {NOTE_REST, MS_32},
    {NOTE_AS2, MS_16},
    {NOTE_AS2, MS_32},
    {NOTE_AS3, MS_64},
    {NOTE_REST, MS_Q},
    {NOTE_B2, MS_16},
    {NOTE_B2, MS_64},
    {NOTE_B2, MS_64},
    {NOTE_FS3, MS_64},
    {NOTE_FS3, MS_32},
    {NOTE_B2, MS_16},
    {NOTE_FS3, MS_64},
    {NOTE_DS4, MS_64},
    {NOTE_B4, MS_64},
    {NOTE_REST, MS_32},
    {NOTE_AS2, MS_16},
    {NOTE_AS2, MS_64},
    {NOTE_AS2, MS_64},
    {NOTE_AS2, MS_64},
    {NOTE_AS2, MS_64},
    {NOTE_AS2, MS_64},
    {NOTE_REST, MS_Q},
    {NOTE_A2, MS_16},
    {NOTE_A2, MS_64},
    {NOTE_A2, MS_64},
    {NOTE_A2, MS_32},
    {NOTE_A2, MS_32},
    {NOTE_E3, MS_64},
    {NOTE_E3, MS_64},
    {NOTE_CS4, MS_32},
    {NOTE_REST, MS_64},
    {NOTE_AS2, MS_Q},
    {NOTE_AS2, MS_32},
    {NOTE_AS2, MS_64},
    {NOTE_AS2, MS_32},
    {NOTE_AS2, MS_16},
    {NOTE_F3, MS_64},
    {NOTE_REST, MS_64},
    {NOTE_DS3, MS_64},
    {NOTE_DS3, MS_16},
    {NOTE_DS3, MS_32},
    {NOTE_DS3, MS_32},
    {NOTE_DS3, MS_64},
    {NOTE_DS3, MS_16},
    {NOTE_DS3, MS_64},
    {NOTE_DS3, MS_64},
    {NOTE_AS3, MS_16},
    {NOTE_AS3, MS_64},
    {NOTE_AS3, MS_64},
    {NOTE_DS3, MS_64},
    {NOTE_DS3, MS_Q},
    {NOTE_DS3, MS_64},
    {NOTE_DS3, MS_64},
    {NOTE_D3, MS_64},
    {NOTE_D3, MS_16},
    {NOTE_D3, MS_32},
    {NOTE_D3, MS_32},
    {NOTE_D3, MS_32},
    {NOTE_D3, MS_16},
    {NOTE_AS3, MS_64},
    {NOTE_AS3, MS_32},
    {NOTE_AS3, MS_16},
    {NOTE_D3, MS_64},
    {NOTE_D3, MS_32},
    {NOTE_D3, MS_16},
    {NOTE_D3, MS_64},
    {NOTE_CS3, MS_64},
    {NOTE_CS3, MS_16},
    {NOTE_CS3, MS_32},
    {NOTE_CS3, MS_64},
    {NOTE_CS3, MS_32},
    {NOTE_CS3, MS_16},
    {NOTE_CS3, MS_64},
    {NOTE_CS3, MS_Q},
    {NOTE_CS3, MS_64},
    {NOTE_CS3, MS_64},
    {NOTE_CS3, MS_16},
    {NOTE_CS3, MS_64},
    {NOTE_CS3, MS_64},
    {NOTE_CS3, MS_64},
    {NOTE_C3, MS_32},
    {NOTE_C3, MS_16},
    {NOTE_C3, MS_16},
    {NOTE_C3, MS_32},
    {NOTE_C3, MS_64},
    {NOTE_C3, MS_16},
    {NOTE_C3, MS_64},
    {NOTE_C3, MS_64},
    {NOTE_C3, MS_16},
    {NOTE_C3, MS_32},
    {NOTE_C3, MS_64},
    {NOTE_C4, MS_Q},
    {NOTE_F2, MS_Q},
    {NOTE_F2, MS_Q},
    {NOTE_F2, MS_32},
    {NOTE_F2, MS_Q},
    {NOTE_F2, MS_16},
    {NOTE_F2, MS_32},
    {NOTE_F2, MS_64},
    {NOTE_F2, MS_64},
    {NOTE_F2, MS_64},
    {NOTE_F2, MS_64},
    {NOTE_F2, MS_32},
    {NOTE_F2, MS_16},
    {NOTE_F2, MS_32},
    {NOTE_F2, MS_16},
    {NOTE_C3, MS_64},
    {NOTE_A3, MS_H},
    {NOTE_REST, MS_64},
    {NOTE_AS1, MS_Q},
    {NOTE_AS1, MS_32},
    {NOTE_AS1, MS_16},
    {NOTE_AS1, MS_Q},
    {NOTE_AS1, MS_Q},
    {NOTE_AS1, MS_32},
    {NOTE_AS1, MS_16},
    {NOTE_AS1, MS_Q},
    {NOTE_AS1, MS_64},
    {NOTE_AS1, MS_32},
    {NOTE_AS1, MS_16},
    {NOTE_AS1, MS_64},
    {NOTE_AS1, MS_16},
    {NOTE_AS2, MS_16},
    {NOTE_AS2, MS_64},
    {NOTE_AS2, MS_64},
    {NOTE_AS1, MS_64},
    {NOTE_AS1, MS_64},
    {NOTE_AS1, MS_Q},
    {NOTE_AS1, MS_64},
    {NOTE_AS1, MS_Q},
    {NOTE_AS1, MS_Q},
    {NOTE_AS1, MS_64},
    {NOTE_AS1, MS_Q},
    {NOTE_AS1, MS_32},
    {NOTE_AS1, MS_Q},
    {NOTE_AS1, MS_32},
    {NOTE_AS1, MS_16},
    {NOTE_AS1, MS_32},
    {NOTE_AS1, MS_16},
    {NOTE_AS1, MS_64},
    {NOTE_AS1, MS_32},
    {NOTE_F3, MS_16},
    {NOTE_F3, MS_64},
    {NOTE_AS1, MS_64},
    {NOTE_AS1, MS_64},
    {NOTE_AS1, MS_64},
    {NOTE_AS1, MS_16},
    {NOTE_AS1, MS_64},
    {NOTE_AS1, MS_Q},
    {NOTE_AS1, MS_Q},
    {NOTE_AS1, MS_Q},
    {NOTE_AS1, MS_64},
    {NOTE_AS1, MS_Q},
    {NOTE_AS1, MS_Q},
    {NOTE_AS1, MS_64},
    {NOTE_AS1, MS_16},
    {NOTE_AS1, MS_32},
    {NOTE_AS1, MS_64},
    {NOTE_AS1, MS_64},
    {NOTE_AS1, MS_Q},
    {NOTE_AS1, MS_64},
    {NOTE_AS1, MS_64},
    {NOTE_G2, MS_64},
    {NOTE_G2, MS_64},
    {NOTE_G2, MS_Q},
    {NOTE_G2, MS_64},
    {NOTE_G2, MS_64},
    {NOTE_G2, MS_32},
    {NOTE_G2, MS_16},
    {NOTE_G2, MS_64},
    {NOTE_G2, MS_32},
    {NOTE_G2, MS_Q},
    {NOTE_G2, MS_Q},
    {NOTE_G2, MS_16},
    {NOTE_G2, MS_16},
    {NOTE_G2, MS_64},
    {NOTE_G2, MS_Q},
    {NOTE_G2, MS_64},
    {NOTE_G2, MS_16},
    {NOTE_G2, MS_16},
    {NOTE_G2, MS_32},
    {NOTE_G2, MS_64},
    {NOTE_G2, MS_16},
    {NOTE_G2, MS_64},
    {NOTE_C2, MS_64},
    {NOTE_C2, MS_64},
    {NOTE_C2, MS_16},
    {NOTE_C2, MS_64},
    {NOTE_C2, MS_16},
    {NOTE_C2, MS_64},
    {NOTE_C2, MS_16},
    {NOTE_C2, MS_16},
    {NOTE_C2, MS_16},
    {NOTE_C2, MS_16},
    {NOTE_C2, MS_16},
    {NOTE_C2, MS_32},
    {NOTE_C2, MS_16},
    {NOTE_C2, MS_64},
    {NOTE_C2, MS_Q},
    {NOTE_C2, MS_64},
    {NOTE_C2, MS_16},
    {NOTE_C2, MS_64},
    {NOTE_C2, MS_32},
    {NOTE_C2, MS_16},
    {NOTE_C2, MS_64},
    {NOTE_C4, MS_64},
    {NOTE_C4, MS_32},
    {NOTE_C4, MS_64},
    {NOTE_C2, MS_64},
    {NOTE_C2, MS_64},
    {NOTE_C2, MS_64},
    {NOTE_C2, MS_16},
    {NOTE_C2, MS_64},
    {NOTE_C2, MS_64},
    {NOTE_C2, MS_64},
    {NOTE_C3, MS_32},
    {NOTE_C2, MS_32},
    {NOTE_C2, MS_32},
    {NOTE_C2, MS_64},
    {NOTE_C2, MS_64},
    {NOTE_C3, MS_32},
    {NOTE_C3, MS_64},
    {NOTE_C3, MS_16},
    {NOTE_C3, MS_64},
    {NOTE_C3, MS_32},
    {NOTE_C3, MS_16},
    {NOTE_C3, MS_64},
    {NOTE_REST, MS_64},
    {NOTE_F2, MS_Q},
    {NOTE_F2, MS_Q},
    {NOTE_F2, MS_Q},
    {NOTE_F2, MS_64},
    {NOTE_F2, MS_64},
    {NOTE_F2, MS_32},
    {NOTE_F2, MS_16},
    {NOTE_F2, MS_64},
    {NOTE_AS2, MS_16},
    {NOTE_AS2, MS_32},
    {NOTE_AS2, MS_32},
    {NOTE_AS2, MS_Q},
    {NOTE_AS2, MS_32},
    {NOTE_AS2, MS_Q},
    {NOTE_AS2, MS_64},
    {NOTE_AS2, MS_32},
    {NOTE_AS2, MS_16},
    {NOTE_AS2, MS_64},
    {NOTE_AS2, MS_64},
    {NOTE_AS2, MS_32},
    {NOTE_AS2, MS_64},
    {NOTE_AS2, MS_32},
    {NOTE_AS2, MS_64},
    {NOTE_AS2, MS_Q},
    {NOTE_AS2, MS_64},
    {NOTE_AS2, MS_64},
    {NOTE_AS2, MS_Q},
    {NOTE_AS2, MS_64},
    {NOTE_AS2, MS_Q},
    {NOTE_AS2, MS_64},
    {NOTE_AS2, MS_64},
    {NOTE_AS2, MS_64},
    {NOTE_G2, MS_64},
    {NOTE_G2, MS_64},
    {NOTE_G2, MS_Q},
    {NOTE_G2, MS_64},
    {NOTE_G2, MS_32},
    {NOTE_G2, MS_16},
    {NOTE_G2, MS_32},
    {NOTE_G2, MS_16},
    {NOTE_G2, MS_Q},
    {NOTE_G2, MS_64},
    {NOTE_G2, MS_Q},
    {NOTE_G2, MS_64},
    {NOTE_G2, MS_Q},
    {NOTE_G2, MS_64},
    {NOTE_G2, MS_32},
    {NOTE_G2, MS_16},
    {NOTE_G2, MS_64},
    {NOTE_G2, MS_64},
    {NOTE_G2, MS_32},
    {NOTE_G2, MS_64},
    {NOTE_G2, MS_16},
    {NOTE_G2, MS_64},
    {NOTE_G2, MS_64},
    {NOTE_C3, MS_64},
    {NOTE_C3, MS_16},
    {NOTE_C3, MS_64},
    {NOTE_C3, MS_64},
    {NOTE_C3, MS_64},
    {NOTE_C3, MS_32},
    {NOTE_C3, MS_64},
    {NOTE_C3, MS_16},
    {NOTE_C3, MS_Q},
    {NOTE_C3, MS_64},
    {NOTE_B2, MS_32},
    {NOTE_B2, MS_32},
    {NOTE_B2, MS_64},
    {NOTE_B2, MS_64},
    {NOTE_G3, MS_64},
    {NOTE_G3, MS_32},
    {NOTE_G4, MS_64},
    {NOTE_AS2, MS_32},
    {NOTE_AS2, MS_32},
    {NOTE_AS2, MS_16},
    {NOTE_AS2, MS_32},
    {NOTE_AS2, MS_16},
    {NOTE_G3, MS_64},
    {NOTE_A2, MS_64},
    {NOTE_A2, MS_64},
    {NOTE_A2, MS_64},
    {NOTE_A2, MS_16},
    {NOTE_A2, MS_64},
    {NOTE_A2, MS_32},
    {NOTE_A2, MS_64},
    {NOTE_A2, MS_16},
    {NOTE_GS2, MS_Q},
    {NOTE_GS2, MS_16},
    {NOTE_GS2, MS_16},
    {NOTE_GS2, MS_64},
    {NOTE_B1, MS_64},
    {NOTE_GS2, MS_64},
    {NOTE_GS2, MS_32},
    {NOTE_B1, MS_64},
    {NOTE_GS2, MS_64},
    {NOTE_GS2, MS_32},
    {NOTE_B1, MS_64},
    {NOTE_GS2, MS_64},
    {NOTE_GS2, MS_64},
    {NOTE_GS2, MS_32},
    {NOTE_B1, MS_32},
    {NOTE_GS2, MS_32},
    {NOTE_GS3, MS_64},
    {NOTE_C4, MS_64},
    {NOTE_B1, MS_64},
    {NOTE_B1, MS_64},
    {NOTE_AS3, MS_32},
    {NOTE_B1, MS_32},
    {NOTE_AS3, MS_32},
    {NOTE_B1, MS_64},
    {NOTE_G3, MS_32},
    {NOTE_B1, MS_32},
    {NOTE_REST, MS_32},
    {NOTE_B1, MS_64},
    {NOTE_B1, MS_64},
    {NOTE_F2, MS_32},
    {NOTE_B1, MS_32},
    {NOTE_F2, MS_32},
    {NOTE_B1, MS_64},
    {NOTE_B1, MS_64},
    {NOTE_F2, MS_32},
    {NOTE_F2, MS_64},
    {NOTE_B1, MS_32},
    {NOTE_F2, MS_32},
    {NOTE_F2, MS_64},
    {NOTE_B1, MS_64},
    {NOTE_B1, MS_64},
    {NOTE_B1, MS_Q},
    {NOTE_B1, MS_64},
    {NOTE_B1, MS_64},
    {NOTE_B1, MS_64},
    {NOTE_B1, MS_64},
    {NOTE_B1, MS_16},
    {NOTE_B1, MS_32},
    {NOTE_B1, MS_32},
    {NOTE_B1, MS_32},
    {NOTE_E2, MS_32},
    {NOTE_B1, MS_64},
    {NOTE_B1, MS_64},
    {NOTE_B1, MS_64},
    {NOTE_B1, MS_64},
    {NOTE_DS2, MS_64},
    {NOTE_E2, MS_16},
    {NOTE_B1, MS_64},
    {NOTE_B1, MS_64},
    {NOTE_B1, MS_32},
    {NOTE_B1, MS_16},
    {NOTE_B1, MS_64},
    {NOTE_B1, MS_64},
    {NOTE_B1, MS_32},
    {NOTE_B1, MS_32},
    {NOTE_B1, MS_64},
    {NOTE_B1, MS_64},
    {NOTE_AS1, MS_64},
    {NOTE_AS1, MS_32},
    {NOTE_AS1, MS_64},
    {NOTE_AS1, MS_16},
    {NOTE_AS1, MS_64},
    {NOTE_AS1, MS_64},
    {NOTE_AS1, MS_64},
    {NOTE_AS1, MS_64},
    {NOTE_AS1, MS_64},
    {NOTE_AS1, MS_64},
    {NOTE_AS1, MS_64},
    {NOTE_AS1, MS_64},
    {NOTE_AS1, MS_64},
    {NOTE_AS1, MS_64},
    {NOTE_AS1, MS_64},
    {NOTE_AS1, MS_64},
    {NOTE_B1, MS_64},
    {NOTE_B1, MS_16},
    {NOTE_B1, MS_32},
    {NOTE_B1, MS_64},
    {NOTE_B1, MS_Q},
    {NOTE_B1, MS_64},
    {NOTE_B1, MS_64},
    {NOTE_C2, MS_64},
    {NOTE_E2, MS_64},
    {NOTE_E2, MS_64},
    {NOTE_E2, MS_16},
    {NOTE_B1, MS_64},
    {NOTE_B1, MS_64},
    {NOTE_C2, MS_64},
    {NOTE_C2, MS_64},
    {NOTE_E2, MS_32},
    {NOTE_E2, MS_32},
    {NOTE_B1, MS_64},
    {NOTE_B1, MS_64},
    {NOTE_B1, MS_32},
    {NOTE_B1, MS_16},
    {NOTE_B1, MS_64},
    {NOTE_B1, MS_32},
    {NOTE_B1, MS_64},
    {NOTE_B1, MS_16},
    {NOTE_B1, MS_64},
    {NOTE_B1, MS_64},
    {NOTE_B1, MS_64},
    {NOTE_G1, MS_64},
    {NOTE_G1, MS_64},
    {NOTE_G1, MS_64},
    {NOTE_G1, MS_32},
    {NOTE_G1, MS_32},
    {NOTE_G1, MS_64},
    {NOTE_G1, MS_64},
    {NOTE_FS1, MS_64},
    {NOTE_FS1, MS_64},
    {NOTE_FS1, MS_16},
    {NOTE_FS1, MS_64},
    {NOTE_FS1, MS_64},
    {NOTE_FS1, MS_64},
    {NOTE_FS1, MS_64},
    {NOTE_F1, MS_64},
    {NOTE_F1, MS_64},
    {NOTE_F1, MS_64},
    {NOTE_F1, MS_16},
    {NOTE_F1, MS_64},
    {NOTE_F1, MS_64},
    {NOTE_F1, MS_64},
    {NOTE_F1, MS_64},
    {NOTE_F1, MS_64},
    {NOTE_F1, MS_16},
    {NOTE_F1, MS_64},
    {NOTE_F1, MS_64},
    {NOTE_F1, MS_64},
    {NOTE_F1, MS_64},
    {NOTE_F1, MS_64},
    {NOTE_F1, MS_64},
    {NOTE_F1, MS_64},
    {NOTE_F1, MS_32},
    {NOTE_F1, MS_32},
    {NOTE_F1, MS_64},
    {NOTE_B1, MS_64},
    {NOTE_B1, MS_64},
    {NOTE_E2, MS_32},
    {NOTE_E2, MS_64},
    {NOTE_E2, MS_64},
    {NOTE_E2, MS_64},
    {NOTE_B1, MS_64},
    {NOTE_B1, MS_64},
    {NOTE_B1, MS_16},
    {NOTE_B1, MS_32},
    {NOTE_B1, MS_64},
    {NOTE_B1, MS_64},
    {NOTE_B1, MS_64},
    {NOTE_B1, MS_64},
    {NOTE_B1, MS_16},
    {NOTE_DS2, MS_64},
    {NOTE_D2, MS_64},
    {NOTE_D2, MS_64},
    {NOTE_D2, MS_64},
    {NOTE_D2, MS_32},
    {NOTE_D2, MS_32},
    {NOTE_D2, MS_64},
    {NOTE_B1, MS_64},
    {NOTE_D2, MS_64},
    {NOTE_D2, MS_64},
    {NOTE_E2, MS_64},
    {NOTE_E2, MS_64},
    {NOTE_C2, MS_64},
    {NOTE_C2, MS_64},
    {NOTE_C2, MS_64},
    {NOTE_B1, MS_64},
    {NOTE_AS1, MS_64},
    {NOTE_AS1, MS_64},
    {NOTE_AS1, MS_64},
    {NOTE_AS1, MS_32},
    {NOTE_AS1, MS_32},
    {NOTE_AS1, MS_64},
    {NOTE_AS1, MS_64},
    {NOTE_AS1, MS_64},
    {NOTE_AS1, MS_16},
    {NOTE_AS1, MS_16},
    {NOTE_AS1, MS_64},
    {NOTE_AS1, MS_64},
    {NOTE_AS1, MS_64},
    {NOTE_AS1, MS_64},
    {NOTE_AS1, MS_32},
    {NOTE_E2, MS_32},
    {NOTE_E2, MS_64},
    {NOTE_B1, MS_64},
    {NOTE_AS1, MS_64},
    {NOTE_AS1, MS_64},
    {NOTE_AS1, MS_32},
    {NOTE_E2, MS_16},
    {NOTE_B1, MS_64},
    {NOTE_B1, MS_64},
    {NOTE_AS1, MS_64},
    {NOTE_AS1, MS_64},
    {NOTE_AS1, MS_16},
    {NOTE_B1, MS_32},
    {NOTE_B1, MS_64},
    {NOTE_B1, MS_64},
    {NOTE_AS1, MS_64},
    {NOTE_AS1, MS_64},
    {NOTE_AS1, MS_64},
    {NOTE_AS1, MS_64},
    {NOTE_AS1, MS_32},
    {NOTE_AS1, MS_64},
    {NOTE_B1, MS_64},
    {NOTE_B1, MS_64},
    {NOTE_AS1, MS_64},
    {NOTE_AS1, MS_64},
    {NOTE_AS1, MS_64},
    {NOTE_AS1, MS_64},
    {NOTE_AS1, MS_64},
    {NOTE_AS1, MS_64},
    {NOTE_C2, MS_32},
    {NOTE_C2, MS_64},
    {NOTE_C2, MS_64},
    {NOTE_C2, MS_64},
    {NOTE_B1, MS_64},
    {NOTE_B1, MS_64},
    {NOTE_B1, MS_64},
    {NOTE_B1, MS_64},
    {NOTE_D2, MS_16},
    {NOTE_B1, MS_64},
    {NOTE_B1, MS_16},
    {NOTE_B1, MS_16},
    {NOTE_B1, MS_64},
    {NOTE_B1, MS_64},
    {NOTE_B1, MS_64},
    {NOTE_B1, MS_64},
    {NOTE_B1, MS_32},
    {NOTE_B1, MS_16},
    {NOTE_B1, MS_64},
    {NOTE_B1, MS_32},
    {NOTE_DS2, MS_64},
    {NOTE_DS2, MS_32},
    {NOTE_E2, MS_64},
    {NOTE_E2, MS_64},
    {NOTE_E2, MS_64},
    {NOTE_B1, MS_64},
    {NOTE_B1, MS_64},
    {NOTE_B1, MS_64},
    {NOTE_DS2, MS_64},
    {NOTE_DS2, MS_64},
    {NOTE_DS2, MS_64},
    {NOTE_DS2, MS_32},
    {NOTE_DS2, MS_64},
    {NOTE_B1, MS_64},
    {NOTE_B1, MS_64},
    {NOTE_B1, MS_32},
    {NOTE_B1, MS_32},
    {NOTE_B1, MS_32},
    {NOTE_B1, MS_64},
    {NOTE_B1, MS_64},
    {NOTE_B1, MS_64},
    {NOTE_B1, MS_64},
    {NOTE_B1, MS_16},
    {NOTE_B1, MS_32},
    {NOTE_B1, MS_64},
    {NOTE_B1, MS_64},
    {NOTE_D2, MS_32},
    {NOTE_D2, MS_64},
    {NOTE_D2, MS_64},
    {NOTE_E2, MS_32},
    {NOTE_E2, MS_64},
    {NOTE_B1, MS_64},
    {NOTE_B1, MS_64},
    {NOTE_B1, MS_64},
    {NOTE_B1, MS_64},
    {NOTE_D2, MS_64},
    {NOTE_D2, MS_64},
    {NOTE_D2, MS_64},
    {NOTE_D2, MS_64},
    {NOTE_D2, MS_64},
    {NOTE_D2, MS_32},
    {NOTE_B1, MS_64},
    {NOTE_B1, MS_64},
    {NOTE_B1, MS_32},
    {NOTE_B1, MS_16},
    {NOTE_B1, MS_64},
    {NOTE_B1, MS_64},
    {NOTE_B1, MS_64},
    {NOTE_B1, MS_16},
    {NOTE_B1, MS_32},
    {NOTE_B1, MS_64},
    {NOTE_B1, MS_64},
    {NOTE_B1, MS_64},
    {NOTE_C2, MS_64},
    {NOTE_C2, MS_16},
    {NOTE_B1, MS_64},
    {NOTE_B1, MS_64},
    {NOTE_G1, MS_64},
    {NOTE_G1, MS_64},
    {NOTE_G1, MS_64},
    {NOTE_G1, MS_32},
    {NOTE_G1, MS_16},
    {NOTE_G1, MS_64},
    {NOTE_G1, MS_64},
    {NOTE_GS1, MS_16},
    {NOTE_GS1, MS_64},
    {NOTE_GS1, MS_32},
    {NOTE_GS1, MS_32},
    {NOTE_GS1, MS_64},
    {NOTE_GS1, MS_32},
    {NOTE_GS1, MS_64},
    {NOTE_GS1, MS_64},
    {NOTE_GS1, MS_32},
    {NOTE_GS1, MS_64},
    {NOTE_GS1, MS_32},
    {NOTE_GS1, MS_64},
    {NOTE_GS1, MS_64},
    {NOTE_GS1, MS_32},
    {NOTE_GS1, MS_64},
    {NOTE_GS1, MS_32},
    {NOTE_GS1, MS_64},
    {NOTE_GS1, MS_64},
    {NOTE_GS1, MS_64},
    {NOTE_GS1, MS_64},
    {NOTE_GS1, MS_64},
    {NOTE_DS1, MS_64},
    {NOTE_DS1, MS_64},
    {NOTE_DS1, MS_64},
    {NOTE_DS1, MS_16},
    {NOTE_DS1, MS_Q},
    {NOTE_DS1, MS_Q},
    {NOTE_DS1, MS_64},
    {NOTE_DS1, MS_Q},
    {NOTE_DS1, MS_32},
    {NOTE_DS1, MS_Q},
    {NOTE_DS1, MS_64},
    {NOTE_DS1, MS_32},
    {NOTE_DS1, MS_16},
    {NOTE_DS1, MS_64},
    {NOTE_DS1, MS_Q},
    {NOTE_DS1, MS_64},
    {NOTE_DS1, MS_64},
    {NOTE_DS1, MS_Q},
    {NOTE_DS1, MS_64},
    {NOTE_DS1, MS_Q},
    {NOTE_DS1, MS_32},
    {NOTE_DS1, MS_Q},
    {NOTE_DS1, MS_64},
    {NOTE_DS1, MS_16},
    {NOTE_DS1, MS_32},
    {NOTE_DS1, MS_64},
    {NOTE_B1, MS_64},
    {NOTE_FS2, MS_64},
    {NOTE_FS2, MS_32},
    {NOTE_FS2, MS_32},
    {NOTE_FS2, MS_64},
    {NOTE_FS2, MS_64},
    {NOTE_FS2, MS_64},
    {NOTE_FS2, MS_64},
    {NOTE_AS1, MS_Q},
    {NOTE_AS1, MS_64},
    {NOTE_AS1, MS_32},
    {NOTE_AS1, MS_16},
    {NOTE_AS1, MS_64},
    {NOTE_AS1, MS_16},
    {NOTE_AS1, MS_64},
    {NOTE_E2, MS_16},
    {NOTE_B1, MS_64},
    {NOTE_AS1, MS_64},
    {NOTE_AS1, MS_64},
    {NOTE_AS1, MS_32},
    {NOTE_E2, MS_16},
    {NOTE_AS1, MS_32},
    {NOTE_AS1, MS_64},
    {NOTE_AS1, MS_16},
    {NOTE_AS1, MS_64},
    {NOTE_AS1, MS_64},
    {NOTE_AS1, MS_16},
    {NOTE_AS1, MS_64},
    {NOTE_AS1, MS_32},
    {NOTE_AS1, MS_64},
    {NOTE_AS1, MS_16},
    {NOTE_AS1, MS_64},
    {NOTE_AS1, MS_32},
    {NOTE_AS1, MS_64},
    {NOTE_E2, MS_16},
    {NOTE_E2, MS_64},
    {NOTE_E2, MS_64},
    {NOTE_AS1, MS_64},
    {NOTE_AS1, MS_64},
    {NOTE_AS1, MS_64},
    {NOTE_AS1, MS_32},
    {NOTE_AS1, MS_16},
    {NOTE_AS1, MS_64},
    {NOTE_AS1, MS_64},
    {NOTE_AS1, MS_16},
    {NOTE_AS1, MS_32},
    {NOTE_E2, MS_64},
    {NOTE_E2, MS_16},
    {NOTE_AS1, MS_64},
    {NOTE_AS1, MS_64},
    {NOTE_AS1, MS_64},
    {NOTE_E2, MS_16},
    {NOTE_AS1, MS_32},
    {NOTE_AS1, MS_64},
    {NOTE_AS1, MS_16},
    {NOTE_AS1, MS_32},
    {NOTE_AS1, MS_16},
    {NOTE_F1, MS_64},
    {NOTE_F1, MS_64},
    {NOTE_F1, MS_64},
    {NOTE_F1, MS_32},
    {NOTE_F1, MS_16},
    {NOTE_F1, MS_32},
    {NOTE_F1, MS_64},
    {NOTE_F1, MS_16},
    {NOTE_F1, MS_64},
    {NOTE_AS1, MS_64},
    {NOTE_AS1, MS_64},
    {NOTE_AS1, MS_16},
    {NOTE_AS1, MS_64},
    {NOTE_AS1, MS_64},
    {NOTE_AS1, MS_32},
    {NOTE_AS1, MS_16},
    {NOTE_AS1, MS_64},
    {NOTE_AS1, MS_32},
    {NOTE_E2, MS_64},
    {NOTE_E2, MS_16},
    {NOTE_AS1, MS_32},
    {NOTE_AS1, MS_64},
    {NOTE_AS1, MS_64},
    {NOTE_E2, MS_16},
    {NOTE_AS1, MS_64},
    {NOTE_AS1, MS_32},
    {NOTE_AS1, MS_64},
    {NOTE_AS1, MS_16},
    {NOTE_AS1, MS_64},
    {NOTE_AS1, MS_32},
    {NOTE_AS1, MS_16},
    {NOTE_AS1, MS_64},
    {NOTE_AS1, MS_16},
    {NOTE_AS1, MS_64},
    {NOTE_AS1, MS_16},
    {NOTE_AS1, MS_64},
    {NOTE_AS1, MS_64},
    {NOTE_AS1, MS_16},
    {NOTE_AS1, MS_64},
    {NOTE_G1, MS_64},
    {NOTE_G1, MS_64},
    {NOTE_G1, MS_64},
    {NOTE_G1, MS_64},
    {NOTE_G1, MS_16},
    {NOTE_G1, MS_64},
    {NOTE_G1, MS_64},
    {NOTE_G1, MS_64},
    {NOTE_G1, MS_64},
    {NOTE_G1, MS_16},
    {NOTE_G1, MS_32},
    {NOTE_G1, MS_64},
    {NOTE_E2, MS_32},
    {NOTE_E2, MS_16},
    {NOTE_G1, MS_32},
    {NOTE_G1, MS_64},
    {NOTE_G1, MS_64},
    {NOTE_E2, MS_16},
    {NOTE_G1, MS_32},
    {NOTE_G1, MS_64},
    {NOTE_G1, MS_16},
    {NOTE_G1, MS_64},
    {NOTE_G1, MS_64},
    {NOTE_G1, MS_64},
    {NOTE_G1, MS_16},
    {NOTE_G1, MS_32},
    {NOTE_G1, MS_16},
    {NOTE_G1, MS_16},
    {NOTE_G1, MS_64},
    {NOTE_G1, MS_64},
    {NOTE_G1, MS_64},
    {NOTE_G1, MS_64},
    {NOTE_G1, MS_16},
    {NOTE_G1, MS_64},
    {NOTE_G1, MS_64},
    {NOTE_G1, MS_64},
    {NOTE_B1, MS_64},
    {NOTE_B1, MS_64},
    {NOTE_B1, MS_16},
    {NOTE_B1, MS_64},
    {NOTE_B1, MS_64},
    {NOTE_B1, MS_32},
    {NOTE_B1, MS_16},
    {NOTE_B1, MS_32},
    {NOTE_B1, MS_32},
    {NOTE_B1, MS_64},
    {NOTE_E2, MS_64},
    {NOTE_E2, MS_64},
    {NOTE_E2, MS_16},
    {NOTE_B1, MS_64},
    {NOTE_B1, MS_32},
    {NOTE_C2, MS_64},
    {NOTE_E2, MS_16},
    {NOTE_B1, MS_32},
    {NOTE_B1, MS_16},
    {NOTE_B1, MS_64},
    {NOTE_B1, MS_64},
    {NOTE_B1, MS_16},
    {NOTE_B1, MS_32},
    {NOTE_B1, MS_64},
    {NOTE_B1, MS_32},
    {NOTE_B1, MS_16},
    {NOTE_G1, MS_32},
    {NOTE_G1, MS_64},
    {NOTE_G1, MS_64},
    {NOTE_G1, MS_64},
    {NOTE_G1, MS_32},
    {NOTE_G1, MS_64},
    {NOTE_G1, MS_64},
    {NOTE_B1, MS_64},
    {NOTE_B1, MS_32},
    {NOTE_B1, MS_16},
    {NOTE_B1, MS_64},
    {NOTE_B1, MS_64},
    {NOTE_B1, MS_64},
    {NOTE_B1, MS_32},
    {NOTE_B1, MS_64},
    {NOTE_B1, MS_32},
    {NOTE_B1, MS_64},
    {NOTE_B1, MS_64},
    {NOTE_B1, MS_32},
    {NOTE_E2, MS_64},
    {NOTE_E2, MS_16},
    {NOTE_E2, MS_64},
    {NOTE_E2, MS_64},
    {NOTE_G1, MS_32},
    {NOTE_G1, MS_32},
    {NOTE_FS1, MS_64},
    {NOTE_FS1, MS_32},
    {NOTE_FS1, MS_64},
    {NOTE_FS1, MS_64},
    {NOTE_F1, MS_64},
    {NOTE_F1, MS_64},
    {NOTE_F1, MS_16},
    {NOTE_F1, MS_16},
    {NOTE_F1, MS_16},
    {NOTE_F1, MS_16},
    {NOTE_F1, MS_64},
    {NOTE_F1, MS_16},
    {NOTE_F1, MS_64},
    {NOTE_F1, MS_64},
    {NOTE_F1, MS_64},
    {NOTE_F1, MS_64},
    {NOTE_F1, MS_32},
    {NOTE_F1, MS_16},
    {NOTE_F1, MS_64},
    {NOTE_AS1, MS_64},
    {NOTE_AS1, MS_Q},
    {NOTE_AS1, MS_32},
    {NOTE_AS1, MS_32},
    {NOTE_AS1, MS_16},
    {NOTE_AS1, MS_32},
    {NOTE_AS1, MS_64},
    {NOTE_AS1, MS_64},
    {NOTE_E2, MS_16},
    {NOTE_AS1, MS_64},
    {NOTE_AS1, MS_32},
    {NOTE_AS1, MS_64},
    {NOTE_AS1, MS_64},
    {NOTE_AS1, MS_32},
    {NOTE_E2, MS_64},
    {NOTE_E2, MS_64},
    {NOTE_AS1, MS_64},
    {NOTE_AS1, MS_32},
    {NOTE_AS1, MS_64},
    {NOTE_AS1, MS_32},
    {NOTE_AS1, MS_64},
    {NOTE_AS1, MS_64},
    {NOTE_AS1, MS_64},
    {NOTE_AS1, MS_16},
    {NOTE_AS1, MS_64},
    {NOTE_AS1, MS_32},
    {NOTE_AS1, MS_64},
    {NOTE_AS1, MS_16},
    {NOTE_AS1, MS_32},
    {NOTE_AS1, MS_16},
    {NOTE_E2, MS_64},
    {NOTE_G1, MS_64},
    {NOTE_G1, MS_32},
    {NOTE_G1, MS_16},
    {NOTE_G1, MS_64},
    {NOTE_G1, MS_64},
    {NOTE_G1, MS_64},
    {NOTE_G1, MS_16},
    {NOTE_G1, MS_32},
    {NOTE_B1, MS_64},
    {NOTE_AS1, MS_32},
    {NOTE_AS1, MS_64},
    {NOTE_AS1, MS_64},
    {NOTE_AS1, MS_16},
    {NOTE_AS1, MS_64},
    {NOTE_B1, MS_32},
    {NOTE_D2, MS_16},
    {NOTE_B1, MS_64},
    {NOTE_B1, MS_32},
    {NOTE_B1, MS_16},
    {NOTE_B1, MS_64},
    {NOTE_B1, MS_64},
    {NOTE_B1, MS_16},
    {NOTE_B1, MS_32},
    {NOTE_B1, MS_64},
    {NOTE_B1, MS_32},
    {NOTE_B1, MS_64},
    {NOTE_B1, MS_64},
    {NOTE_E2, MS_32},
    {NOTE_E2, MS_64},
    {NOTE_B1, MS_32},
    {NOTE_B1, MS_64},
    {NOTE_D2, MS_64},
    {NOTE_D2, MS_64},
    {NOTE_D2, MS_32},
    {NOTE_D2, MS_64},
    {NOTE_D2, MS_64},
    {NOTE_B1, MS_64},
    {NOTE_B1, MS_64},
    {NOTE_B1, MS_16},
    {NOTE_B1, MS_64},
    {NOTE_B1, MS_64},
    {NOTE_B1, MS_64},
    {NOTE_B1, MS_64},
    {NOTE_B1, MS_16},
    {NOTE_B1, MS_32},
    {NOTE_B1, MS_64},
    {NOTE_B1, MS_64},
    {NOTE_C2, MS_32},
    {NOTE_C2, MS_32},
    {NOTE_C2, MS_64},
    {NOTE_C2, MS_64},
    {NOTE_B1, MS_32},
    {NOTE_B1, MS_64},
    {NOTE_E2, MS_32},
    {NOTE_E2, MS_32},
    {NOTE_E2, MS_64},
    {NOTE_AS1, MS_Q},
    {NOTE_AS1, MS_64},
    {NOTE_AS1, MS_32},
    {NOTE_AS1, MS_64},
    {NOTE_AS1, MS_64},
    {NOTE_AS1, MS_64},
    {NOTE_AS1, MS_64},
    {NOTE_AS1, MS_16},
    {NOTE_AS1, MS_64},
    {NOTE_A1, MS_64},
    {NOTE_A1, MS_16},
    {NOTE_A1, MS_64},
    {NOTE_A1, MS_16},
    {NOTE_A1, MS_64},
    {NOTE_A1, MS_64},
    {NOTE_A1, MS_32},
    {NOTE_E2, MS_64},
    {NOTE_GS1, MS_Q},
    {NOTE_GS1, MS_32},
    {NOTE_GS1, MS_32},
    {NOTE_GS1, MS_64},
    {NOTE_GS1, MS_32},
    {NOTE_GS1, MS_64},
    {NOTE_GS1, MS_Q},
    {NOTE_GS1, MS_64},
    {NOTE_GS1, MS_64},
    {NOTE_GS1, MS_16},
    {NOTE_GS1, MS_64},
    {NOTE_GS1, MS_64},
    {NOTE_G1, MS_64},
    {NOTE_G1, MS_64},
    {NOTE_G1, MS_Q},
    {NOTE_G1, MS_64},
    {NOTE_G1, MS_16},
    {NOTE_G1, MS_32},
    {NOTE_G2, MS_64},
    {NOTE_AS1, MS_64},
    {NOTE_AS1, MS_32},
    {NOTE_AS1, MS_32},
    {NOTE_AS1, MS_32},
    {NOTE_AS1, MS_64},
    {NOTE_AS1, MS_64},
    {NOTE_AS1, MS_32},
    {NOTE_AS1, MS_64},
    {NOTE_AS1, MS_16},
    {NOTE_AS1, MS_64},
    {NOTE_B1, MS_Q},
    {NOTE_B1, MS_64},
    {NOTE_B1, MS_64},
    {NOTE_B1, MS_64},
    {NOTE_B1, MS_64},
    {NOTE_B1, MS_32},
    {NOTE_B1, MS_32},
    {NOTE_B1, MS_32},
    {NOTE_B1, MS_32},
    {NOTE_B1, MS_32},
    {NOTE_E2, MS_32},
    {NOTE_B1, MS_64},
    {NOTE_B1, MS_32},
    {NOTE_B1, MS_64},
    {NOTE_DS2, MS_64},
    {NOTE_E2, MS_16},
    {NOTE_B1, MS_64},
    {NOTE_B1, MS_32},
    {NOTE_B1, MS_64},
    {NOTE_B1, MS_16},
    {NOTE_B1, MS_64},
    {NOTE_B1, MS_64},
    {NOTE_B1, MS_32},
    {NOTE_B1, MS_32},
    {NOTE_B1, MS_64},
    {NOTE_B1, MS_16},
    {NOTE_B1, MS_64},
    {NOTE_B1, MS_64},
    {NOTE_B1, MS_32},
    {NOTE_B1, MS_64},
    {NOTE_B1, MS_64},
    {NOTE_B1, MS_64},
    {NOTE_D2, MS_64},
    {NOTE_D2, MS_16},
    {NOTE_D2, MS_64},
    {NOTE_E2, MS_64},
    {NOTE_E2, MS_64},
    {NOTE_B1, MS_64},
    {NOTE_B1, MS_64},
    {NOTE_B1, MS_32},
    {NOTE_B1, MS_64},
    {NOTE_B1, MS_32},
    {NOTE_B1, MS_64},
    {NOTE_B1, MS_32},
    {NOTE_B1, MS_16},
    {NOTE_B1, MS_64},
    {NOTE_B1, MS_64},
    {NOTE_C2, MS_32},
    {NOTE_C2, MS_64},
    {NOTE_C2, MS_32},
    {NOTE_E2, MS_64},
    {NOTE_G1, MS_64},
    {NOTE_G1, MS_64},
    {NOTE_G1, MS_32},
    {NOTE_E2, MS_64},
    {NOTE_E2, MS_32},
    {NOTE_B1, MS_64},
    {NOTE_B1, MS_64},
    {NOTE_B1, MS_32},
    {NOTE_B1, MS_16},
    {NOTE_B1, MS_32},
    {NOTE_B1, MS_64},
    {NOTE_B1, MS_32},
    {NOTE_B1, MS_64},
    {NOTE_B1, MS_32},
    {NOTE_B1, MS_64},
    {NOTE_B1, MS_64},
    {NOTE_B1, MS_32},
    {NOTE_B1, MS_64},
    {NOTE_B1, MS_64},
    {NOTE_E2, MS_64},
    {NOTE_C2, MS_64},
    {NOTE_E2, MS_32},
    {NOTE_E2, MS_64},
    {NOTE_G1, MS_64},
    {NOTE_G1, MS_64},
    {NOTE_G1, MS_64},
    {NOTE_G1, MS_64},
    {NOTE_FS1, MS_64},
    {NOTE_FS1, MS_64},
    {NOTE_FS1, MS_64},
    {NOTE_FS1, MS_64},
    {NOTE_FS1, MS_64},
    {NOTE_F1, MS_64},
    {NOTE_F1, MS_32},
    {NOTE_F1, MS_64},
    {NOTE_F1, MS_16},
    {NOTE_B1, MS_64},
    {NOTE_F1, MS_64},
    {NOTE_F1, MS_32},
    {NOTE_F1, MS_32},
    {NOTE_F1, MS_64},
    {NOTE_B1, MS_16},
    {NOTE_F1, MS_64},
    {NOTE_F1, MS_32},
    {NOTE_F1, MS_64},
    {NOTE_F1, MS_64},
    {NOTE_F1, MS_64},
    {NOTE_F1, MS_32},
    {NOTE_GS4, MS_64},
    {NOTE_B1, MS_64},
    {NOTE_B1, MS_64},
    {NOTE_DS3, MS_64},
    {NOTE_E3, MS_32},
    {NOTE_E2, MS_64},
    {NOTE_E2, MS_64},
    {NOTE_E2, MS_32},
    {NOTE_B1, MS_64},
    {NOTE_B1, MS_32},
    {NOTE_B1, MS_32},
    {NOTE_B1, MS_64},
    {NOTE_B1, MS_32},
    {NOTE_B1, MS_64},
    {NOTE_B1, MS_64},
    {NOTE_B1, MS_32},
    {NOTE_B1, MS_16},
    {NOTE_D2, MS_64},
    {NOTE_D2, MS_32},
    {NOTE_D2, MS_32},
    {NOTE_D2, MS_64},
    {NOTE_E2, MS_64},
    {NOTE_E2, MS_64},
    {NOTE_B1, MS_64},
    {NOTE_D2, MS_64},
    {NOTE_D2, MS_64},
    {NOTE_D2, MS_64},
    {NOTE_C2, MS_64},
    {NOTE_C2, MS_32},
    {NOTE_C2, MS_64},
    {NOTE_C2, MS_64},
    {NOTE_AS1, MS_64},
    {NOTE_AS1, MS_32},
    {NOTE_AS1, MS_32},
    {NOTE_AS1, MS_32},
    {NOTE_B1, MS_64},
    {NOTE_B1, MS_64},
    {NOTE_AS1, MS_64},
    {NOTE_AS1, MS_64},
    {NOTE_AS1, MS_32},
    {NOTE_B1, MS_32},
    {NOTE_B1, MS_32},
    {NOTE_AS1, MS_64},
    {NOTE_AS1, MS_64},
    {NOTE_AS1, MS_64},
    {NOTE_AS1, MS_64},
    {NOTE_AS1, MS_64},
    {NOTE_E2, MS_16},
    {NOTE_E2, MS_64},
    {NOTE_AS1, MS_64},
    {NOTE_AS1, MS_64},
    {NOTE_AS1, MS_64},
    {NOTE_AS1, MS_64},
    {NOTE_AS1, MS_32},
    {NOTE_E2, MS_16},
    {NOTE_E2, MS_64},
    {NOTE_AS1, MS_64},
    {NOTE_AS1, MS_64},
    {NOTE_AS1, MS_64},
    {NOTE_AS1, MS_32},
    {NOTE_B1, MS_32},
    {NOTE_AS1, MS_64},
    {NOTE_AS1, MS_64},
    {NOTE_AS1, MS_64},
    {NOTE_AS1, MS_64},
    {NOTE_AS1, MS_32},
    {NOTE_B1, MS_32},
    {NOTE_B1, MS_64},
    {NOTE_AS1, MS_64},
    {NOTE_AS1, MS_64},
    {NOTE_AS1, MS_64},
    {NOTE_AS1, MS_64},
    {NOTE_AS1, MS_64},
    {NOTE_C2, MS_64},
    {NOTE_C2, MS_32},
    {NOTE_C2, MS_64},
    {NOTE_C2, MS_64},
    {NOTE_C2, MS_64},
    {NOTE_B1, MS_64},
    {NOTE_B1, MS_64},
    {NOTE_B1, MS_64},
    {NOTE_D2, MS_16},
    {NOTE_AS3, MS_32},
    {NOTE_B1, MS_64},
    {NOTE_B1, MS_16},
    {NOTE_B1, MS_16},
    {NOTE_B1, MS_64},
    {NOTE_B1, MS_16},
    {NOTE_B1, MS_16},
    {NOTE_B1, MS_64},
    {NOTE_B1, MS_16},
    {NOTE_B1, MS_32},
    {NOTE_E2, MS_32},
    {NOTE_E2, MS_64},
    {NOTE_B1, MS_64},
    {NOTE_B1, MS_64},
    {NOTE_DS2, MS_64},
    {NOTE_DS2, MS_64},
    {NOTE_DS2, MS_64},
    {NOTE_DS2, MS_32},
    {NOTE_E2, MS_64},
    {NOTE_E2, MS_64},
    {NOTE_B1, MS_64},
    {NOTE_B1, MS_64},
    {NOTE_B1, MS_32},
    {NOTE_B1, MS_16},
    {NOTE_B1, MS_64},
    {NOTE_B1, MS_64},
    {NOTE_B1, MS_64},
    {NOTE_B1, MS_Q},
    {NOTE_B1, MS_32},
    {NOTE_D2, MS_64},
    {NOTE_D2, MS_64},
    {NOTE_E2, MS_32},
    {NOTE_E2, MS_64},
    {NOTE_E2, MS_64},
    {NOTE_E2, MS_32},
    {NOTE_B1, MS_32},
    {NOTE_B1, MS_64},
    {NOTE_D2, MS_32},
    {NOTE_E2, MS_32},
    {NOTE_E2, MS_64},
    {NOTE_E2, MS_64},
    {NOTE_B1, MS_64},
    {NOTE_B1, MS_32},
    {NOTE_B1, MS_16},
    {NOTE_B1, MS_64},
    {NOTE_B1, MS_32},
    {NOTE_B1, MS_Q},
    {NOTE_B1, MS_64},
    {NOTE_B1, MS_32},
    {NOTE_B1, MS_64},
    {NOTE_C2, MS_32},
    {NOTE_E2, MS_16},
    {NOTE_B1, MS_32},
    {NOTE_C2, MS_64},
    {NOTE_E2, MS_32},
    {NOTE_E2, MS_64},
    {NOTE_E2, MS_32},
    {NOTE_B1, MS_64},
    {NOTE_B1, MS_64},
    {NOTE_B1, MS_64},
    {NOTE_B1, MS_16},
    {NOTE_B1, MS_64},
    {NOTE_B1, MS_64},
    {NOTE_B1, MS_64},
    {NOTE_B1, MS_64},
    {NOTE_B1, MS_64},
    {NOTE_B1, MS_32},
    {NOTE_B1, MS_64},
    {NOTE_B1, MS_16},
    {NOTE_G1, MS_64},
    {NOTE_G1, MS_64},
    {NOTE_G1, MS_64},
    {NOTE_G1, MS_64},
    {NOTE_G1, MS_64},
    {NOTE_G1, MS_64},
    {NOTE_G1, MS_64},
    {NOTE_G1, MS_64},
    {NOTE_FS1, MS_64},
    {NOTE_FS1, MS_64},
    {NOTE_FS1, MS_64},
    {NOTE_FS1, MS_64},
    {NOTE_FS1, MS_64},
    {NOTE_FS1, MS_64},
    {NOTE_FS1, MS_64},
    {NOTE_FS1, MS_64},
    {NOTE_FS1, MS_64},
    {NOTE_F1, MS_64},
    {NOTE_F1, MS_16},
    {NOTE_F1, MS_64},
    {NOTE_F1, MS_16},
    {NOTE_F1, MS_64},
    {NOTE_F1, MS_64},
    {NOTE_F1, MS_64},
    {NOTE_F1, MS_64},
    {NOTE_F1, MS_16},
    {NOTE_F1, MS_64},
    {NOTE_F1, MS_32},
    {NOTE_F1, MS_16},
    {NOTE_F1, MS_64},
    {NOTE_DS3, MS_64},
    {NOTE_B1, MS_64},
    {NOTE_B1, MS_32},
    {NOTE_F2, MS_32},
    {NOTE_E2, MS_64},
    {NOTE_E2, MS_64},
    {NOTE_E2, MS_64},
    {NOTE_E2, MS_64},
    {NOTE_E2, MS_64},
    {NOTE_E2, MS_64},
    {NOTE_B1, MS_64},
    {NOTE_B1, MS_32},
    {NOTE_B1, MS_32},
    {NOTE_B1, MS_64},
    {NOTE_B1, MS_32},
    {NOTE_B1, MS_32},
    {NOTE_B1, MS_64},
    {NOTE_B1, MS_64},
    {NOTE_B1, MS_64},
    {NOTE_B1, MS_64},
    {NOTE_B1, MS_64},
    {NOTE_B1, MS_64},
    {NOTE_B1, MS_64},
    {NOTE_B1, MS_64},
    {NOTE_B1, MS_32},
    {NOTE_B1, MS_64},
    {NOTE_B1, MS_64},
    {NOTE_B1, MS_32},
    {NOTE_B1, MS_64},
    {NOTE_B1, MS_64},
    {NOTE_D2, MS_64},
    {NOTE_D2, MS_32},
    {NOTE_D2, MS_32},
    {NOTE_D2, MS_32},
    {NOTE_D2, MS_64},
    {NOTE_D2, MS_64},
    {NOTE_AS1, MS_64},
    {NOTE_AS1, MS_16},
    {NOTE_AS1, MS_16},
    {NOTE_AS1, MS_64},
    {NOTE_AS1, MS_64},
    {NOTE_AS1, MS_64},
    {NOTE_AS1, MS_64},
    {NOTE_AS1, MS_64},
    {NOTE_AS1, MS_16},
    {NOTE_AS1, MS_64},
    {NOTE_B1, MS_64},
    {NOTE_B1, MS_64},
    {NOTE_E2, MS_64},
    {NOTE_E2, MS_64},
    {NOTE_E2, MS_64},
    {NOTE_E2, MS_64},
    {NOTE_E2, MS_64},
    {NOTE_E2, MS_64},
    {NOTE_E2, MS_64},
    {NOTE_E2, MS_64},
    {NOTE_AS1, MS_64},
    {NOTE_AS1, MS_64},
    {NOTE_AS1, MS_64},
    {NOTE_AS1, MS_64},
    {NOTE_E2, MS_64},
    {NOTE_E2, MS_64},
    {NOTE_E2, MS_32},
    {NOTE_E2, MS_64},
    {NOTE_E2, MS_64},
    {NOTE_AS1, MS_64},
    {NOTE_AS1, MS_64},
    {NOTE_AS1, MS_64},
    {NOTE_AS1, MS_64},
    {NOTE_AS1, MS_64},
    {NOTE_AS1, MS_64},
    {NOTE_AS1, MS_64},
    {NOTE_AS1, MS_64},
    {NOTE_AS1, MS_64},
    {NOTE_AS1, MS_64},
    {NOTE_AS1, MS_64},
    {NOTE_AS1, MS_64},
    {NOTE_AS1, MS_64},
    {NOTE_AS1, MS_64},
    {NOTE_AS1, MS_64},
    {NOTE_AS1, MS_32},
    {NOTE_AS1, MS_64},
    {NOTE_AS1, MS_64},
    {NOTE_AS1, MS_64},
    {NOTE_AS1, MS_64},
    {NOTE_E2, MS_64},
    {NOTE_AS2, MS_64},
    {NOTE_AS2, MS_64},
    {NOTE_C2, MS_64},
    {NOTE_C2, MS_32},
    {NOTE_C2, MS_64},
    {NOTE_C2, MS_64},
    {NOTE_AS1, MS_32},
    {NOTE_AS1, MS_64},
    {NOTE_B1, MS_64},
    {NOTE_D2, MS_64},
    {NOTE_D2, MS_64},
    {NOTE_D2, MS_64},
    {NOTE_D2, MS_32},
    {NOTE_D2, MS_64},
    {NOTE_B1, MS_16},
    {NOTE_B1, MS_32},
    {NOTE_B1, MS_32},
    {NOTE_B1, MS_32},
    {NOTE_B1, MS_32},
    {NOTE_B1, MS_64},
    {NOTE_B1, MS_32},
    {NOTE_B1, MS_64},
    {NOTE_B1, MS_64},
    {NOTE_B1, MS_64},
    {NOTE_B1, MS_64},
    {NOTE_B1, MS_64},
    {NOTE_B1, MS_64},
    {NOTE_DS2, MS_64},
    {NOTE_DS2, MS_32},
    {NOTE_E2, MS_64},
    {NOTE_E2, MS_64},
    {NOTE_E2, MS_64},
    {NOTE_E2, MS_64},
    {NOTE_E2, MS_64},
    {NOTE_E2, MS_64},
    {NOTE_B1, MS_32},
    {NOTE_B1, MS_64},
    {NOTE_B1, MS_64},
    {NOTE_DS2, MS_32},
    {NOTE_DS2, MS_64},
    {NOTE_DS2, MS_64},
    {NOTE_E2, MS_64},
    {NOTE_E2, MS_64},
    {NOTE_B1, MS_32},
    {NOTE_B1, MS_64},
    {NOTE_B1, MS_64},
    {NOTE_B1, MS_32},
    {NOTE_B1, MS_64},
    {NOTE_B1, MS_64},
    {NOTE_B1, MS_64},
    {NOTE_B1, MS_32},
    {NOTE_B1, MS_64},
    {NOTE_B1, MS_64},
    {NOTE_B1, MS_64},
    {NOTE_B1, MS_64},
    {NOTE_B1, MS_64},
    {NOTE_B1, MS_64},
    {NOTE_B1, MS_64},
    {NOTE_B1, MS_64},
    {NOTE_B1, MS_64},
    {NOTE_B1, MS_64},
    {NOTE_B1, MS_64},
    {NOTE_B1, MS_64},
    {NOTE_B1, MS_64},
    {NOTE_E2, MS_64},
    {NOTE_E2, MS_64},
    {NOTE_E2, MS_64},
    {NOTE_E2, MS_64},
    {NOTE_E2, MS_64},
    {NOTE_E2, MS_64},
    {NOTE_E2, MS_64},
    {NOTE_E2, MS_64},
    {NOTE_E2, MS_64},
    {NOTE_B1, MS_64},
    {NOTE_B1, MS_64},
    {NOTE_B1, MS_64},
    {NOTE_B1, MS_64},
    {NOTE_B1, MS_32},
    {NOTE_D2, MS_64},
    {NOTE_D2, MS_64},
    {NOTE_D2, MS_64},
    {NOTE_D2, MS_32},
    {NOTE_D2, MS_64},
    {NOTE_D2, MS_64},
    {NOTE_B1, MS_64},
    {NOTE_B1, MS_64},
    {NOTE_B1, MS_32},
    {NOTE_B1, MS_16},
    {NOTE_B1, MS_64},
    {NOTE_B1, MS_32},
    {NOTE_B1, MS_16},
    {NOTE_B1, MS_64},
    {NOTE_B1, MS_32},
    {NOTE_C2, MS_64},
    {NOTE_C2, MS_32},
    {NOTE_C2, MS_64},
    {NOTE_C2, MS_64},
    {NOTE_E2, MS_64},
    {NOTE_G1, MS_64},
    {NOTE_G1, MS_32},
    {NOTE_G1, MS_64},
    {NOTE_G1, MS_64},
    {NOTE_G1, MS_64},
    {NOTE_G1, MS_64},
    {NOTE_AS1, MS_32},
    {NOTE_B1, MS_32},
    {NOTE_B1, MS_32},
    {NOTE_B1, MS_64},
    {NOTE_B1, MS_64},
    {NOTE_B1, MS_32},
    {NOTE_B1, MS_32},
    {NOTE_B1, MS_64},
    {NOTE_B1, MS_32},
    {NOTE_B1, MS_32},
    {NOTE_B1, MS_64},
    {NOTE_B1, MS_64},
    {NOTE_B1, MS_32},
    {NOTE_G1, MS_64},
    {NOTE_G1, MS_64},
    {NOTE_G1, MS_64},
    {NOTE_G1, MS_64},
    {NOTE_G1, MS_64},
    {NOTE_G1, MS_64},
    {NOTE_G1, MS_64},
    {NOTE_G1, MS_16},
    {NOTE_FS1, MS_64},
    {NOTE_FS1, MS_64},
    {NOTE_FS1, MS_64},
    {NOTE_FS1, MS_64},
    {NOTE_FS1, MS_64},
    {NOTE_FS1, MS_64},
    {NOTE_FS1, MS_64},
    {NOTE_FS1, MS_64},
    {NOTE_FS1, MS_64},
    {NOTE_FS1, MS_64},
    {NOTE_E2, MS_64},
    {NOTE_F1, MS_64},
    {NOTE_F1, MS_32},
    {NOTE_F1, MS_64},
    {NOTE_F1, MS_16},
    {NOTE_F1, MS_64},
    {NOTE_F1, MS_64},
    {NOTE_F1, MS_64},
    {NOTE_F1, MS_16},
    {NOTE_F1, MS_32},
    {NOTE_F1, MS_64},
    {NOTE_F1, MS_32},
    {NOTE_F1, MS_32},
    {NOTE_F1, MS_64},
    {NOTE_F1, MS_64},
    {NOTE_F1, MS_64},
    {NOTE_F1, MS_64},
    {NOTE_E2, MS_64},
    {NOTE_F3, MS_64},
    {NOTE_F4, MS_64},
    {NOTE_F6, MS_64},
    {NOTE_REST, MS_64},
    {NOTE_E2, MS_64},
    {NOTE_E2, MS_64},
    {NOTE_E2, MS_64},
    {NOTE_REST, MS_64},
    {NOTE_F4, MS_64},
    {NOTE_B1, MS_64},
    {NOTE_B1, MS_32},
    {NOTE_B1, MS_64},
    {NOTE_B1, MS_64},
    {NOTE_B1, MS_64},
    {NOTE_B1, MS_64},
    {NOTE_B1, MS_64},
    {NOTE_B1, MS_64},
    {NOTE_B1, MS_16},
    {NOTE_B1, MS_32},
    {NOTE_B1, MS_64},
    {NOTE_B1, MS_16},
    {NOTE_B1, MS_16},
    {NOTE_B1, MS_64},
    {NOTE_B1, MS_64},
    {NOTE_B1, MS_64},
    {NOTE_D2, MS_Q},
    {NOTE_B1, MS_16},
    {NOTE_B1, MS_16},
    {NOTE_B1, MS_16},
    {NOTE_B1, MS_16},
    {NOTE_B1, MS_64},
    {NOTE_B1, MS_64},
    {NOTE_B1, MS_64},
    {NOTE_CS2, MS_64},
    {NOTE_CS2, MS_64},
    {NOTE_B1, MS_64},
    {NOTE_B1, MS_64},
    {NOTE_B1, MS_64},
    {NOTE_B1, MS_64},
    {NOTE_CS2, MS_32},
    {NOTE_B1, MS_32},
    {NOTE_B1, MS_64},
    {NOTE_C2, MS_64},
    {NOTE_C2, MS_32},
    {NOTE_B1, MS_64},
    {NOTE_B1, MS_32},
    {NOTE_B1, MS_16},
    {NOTE_B1, MS_64},
    {NOTE_B1, MS_64},
    {NOTE_B1, MS_64},
    {NOTE_B1, MS_64},
    {NOTE_B1, MS_64},
    {NOTE_B1, MS_64},
    {NOTE_B1, MS_16},
    {NOTE_AS1, MS_16},
    {NOTE_AS1, MS_16},
    {NOTE_AS1, MS_64},
    {NOTE_AS1, MS_64},
    {NOTE_AS1, MS_64},
    {NOTE_AS1, MS_64},
    {NOTE_AS1, MS_64},
    {NOTE_AS1, MS_16},
    {NOTE_REST, MS_64},
    {NOTE_A1, MS_64},
    {NOTE_A1, MS_32},
    {NOTE_A1, MS_64},
    {NOTE_E2, MS_64},
    {NOTE_E2, MS_16},
    {NOTE_A3, MS_64},
    {NOTE_A3, MS_64},
    {NOTE_CS4, MS_64},
    {NOTE_A5, MS_64},
    {NOTE_REST, MS_16},
    {NOTE_A3, MS_32},
    {NOTE_E4, MS_64},
    {NOTE_REST, MS_16},
    {NOTE_A5, MS_64},
    {NOTE_A3, MS_32},
    {NOTE_A3, MS_64},
    {NOTE_E4, MS_64},
    {NOTE_REST, MS_16},
    {NOTE_A5, MS_64},
    {NOTE_A3, MS_32},
    {NOTE_A3, MS_64},
    {NOTE_CS4, MS_64},
    {NOTE_REST, MS_16},
    {NOTE_A5, MS_64},
    {NOTE_A3, MS_32},
    {NOTE_E4, MS_64},
    {NOTE_REST, MS_16},
    {NOTE_A5, MS_64},
    {NOTE_A3, MS_32},
    {NOTE_CS4, MS_64},
    {NOTE_REST, MS_16},
    {NOTE_A5, MS_64},
    {NOTE_A3, MS_32},
    {NOTE_REST, MS_16},
    {NOTE_A3, MS_32},
    {NOTE_D4, MS_64},
    {NOTE_FS4, MS_64},
    {NOTE_D5, MS_16},
    {NOTE_REST, MS_64},
    {NOTE_A5, MS_64},
    {NOTE_A3, MS_32},
    {NOTE_CS4, MS_64},
    {NOTE_REST, MS_32},
    {NOTE_A3, MS_64},
    {NOTE_CS4, MS_64},
    {NOTE_REST, MS_32},
    {NOTE_A5, MS_64},
    {NOTE_A3, MS_64},
    {NOTE_A3, MS_64},
    {NOTE_A3, MS_64},
    {NOTE_DS4, MS_64},
    {NOTE_REST, MS_64},
    {NOTE_C5, MS_32},
    {NOTE_REST, MS_32},
    {NOTE_A5, MS_64},
    {NOTE_A3, MS_32},
    {NOTE_A3, MS_64},
    {NOTE_CS4, MS_64},
    {NOTE_REST, MS_64},
    {NOTE_CS5, MS_64},
    {NOTE_REST, MS_32},
    {NOTE_A5, MS_64},
    {NOTE_A3, MS_32},
    {NOTE_A3, MS_64},
    {NOTE_D4, MS_64},
    {NOTE_FS4, MS_64},
    {NOTE_REST, MS_64},
    {NOTE_D5, MS_32},
    {NOTE_REST, MS_32},
    {NOTE_A5, MS_64},
    {NOTE_A3, MS_64},
    {NOTE_REST, MS_32},
    {NOTE_A3, MS_64},
    {NOTE_CS4, MS_64},
    {NOTE_REST, MS_32},
    {NOTE_A5, MS_64},
    {NOTE_A3, MS_32},
    {NOTE_A3, MS_32},
    {NOTE_DS4, MS_64},
    {NOTE_C5, MS_64},
    {NOTE_REST, MS_32},
    {NOTE_CS2, MS_64},
    {NOTE_CS2, MS_64},
    {NOTE_REST, MS_32},
    {NOTE_CS2, MS_32},
    {NOTE_CS2, MS_64},
    {NOTE_REST, MS_64},
    {NOTE_D2, MS_32},
    {NOTE_D2, MS_32},
    {NOTE_D2, MS_64},
    {NOTE_D2, MS_64},
    {NOTE_D2, MS_64},
    {NOTE_D2, MS_64},
    {NOTE_FS5, MS_64},
    {NOTE_REST, MS_64},
    {NOTE_CS2, MS_64},
    {NOTE_CS2, MS_64},
    {NOTE_CS2, MS_64},
    {NOTE_A5, MS_64},
    {NOTE_REST, MS_32},
    {NOTE_CS2, MS_32},
    {NOTE_CS4, MS_64},
    {NOTE_REST, MS_64},
    {NOTE_D2, MS_64},
    {NOTE_D2, MS_32},
    {NOTE_D2, MS_32},
    {NOTE_D2, MS_64},
    {NOTE_D2, MS_64},
    {NOTE_A6, MS_64},
    {NOTE_REST, MS_64},
    {NOTE_CS2, MS_64},
    {NOTE_CS2, MS_64},
    {NOTE_CS5, MS_64},
    {NOTE_A5, MS_64},
    {NOTE_REST, MS_64},
    {NOTE_CS2, MS_64},
    {NOTE_CS2, MS_64},
    {NOTE_CS2, MS_64},
    {NOTE_CS2, MS_64},
    {NOTE_REST, MS_64},
    {NOTE_C2, MS_64},
    {NOTE_C2, MS_64},
    {NOTE_C2, MS_64},
    {NOTE_C2, MS_64},
    {NOTE_A5, MS_64},
    {NOTE_REST, MS_64},
    {NOTE_C2, MS_64},
    {NOTE_C2, MS_64},
    {NOTE_C2, MS_64},
    {NOTE_C2, MS_64},
    {NOTE_REST, MS_64},
    {NOTE_CS2, MS_64},
    {NOTE_CS2, MS_32},
    {NOTE_CS2, MS_64},
    {NOTE_CS2, MS_64},
    {NOTE_CS2, MS_64},
    {NOTE_REST, MS_16},
    {NOTE_D2, MS_64},
    {NOTE_D2, MS_32},
    {NOTE_D2, MS_64},
    {NOTE_D2, MS_64},
    {NOTE_D2, MS_64},
    {NOTE_D2, MS_64},
    {NOTE_D2, MS_64},
    {NOTE_REST, MS_32},
    {NOTE_CS2, MS_64},
    {NOTE_CS2, MS_32},
    {NOTE_CS2, MS_64},
    {NOTE_CS2, MS_64},
    {NOTE_REST, MS_16},
    {NOTE_B1, MS_64},
    {NOTE_B1, MS_64},
    {NOTE_G3, MS_64},
    {NOTE_A5, MS_64},
    {NOTE_REST, MS_64},
    {NOTE_G3, MS_64},
    {NOTE_B1, MS_64},
    {NOTE_B1, MS_64},
    {NOTE_REST, MS_32},
    {NOTE_B1, MS_64},
    {NOTE_B1, MS_64},
    {NOTE_G3, MS_64},
    {NOTE_REST, MS_64},
    {NOTE_G1, MS_64},
    {NOTE_G1, MS_64},
    {NOTE_REST, MS_64},
    {NOTE_B1, MS_32},
    {NOTE_B1, MS_64},
    {NOTE_B1, MS_64},
    {NOTE_G2, MS_64},
    {NOTE_REST, MS_16},
    {NOTE_B1, MS_64},
    {NOTE_B1, MS_64},
    {NOTE_B1, MS_64},
    {NOTE_B1, MS_64},
    {NOTE_B1, MS_64},
    {NOTE_REST, MS_16},
    {NOTE_AS1, MS_64},
    {NOTE_AS1, MS_64},
    {NOTE_A1, MS_64},
    {NOTE_A1, MS_64},
    {NOTE_A1, MS_64},
    {NOTE_A1, MS_64},
    {NOTE_REST, MS_64},
    {NOTE_GS1, MS_64},
    {NOTE_GS1, MS_64},
    {NOTE_GS1, MS_64},
    {NOTE_GS1, MS_64},
    {NOTE_G1, MS_64},
    {NOTE_G1, MS_64},
    {NOTE_G1, MS_64},
    {NOTE_REST, MS_64},
    {NOTE_A5, MS_64},
    {NOTE_FS1, MS_64},
    {NOTE_FS1, MS_64},
    {NOTE_FS1, MS_64},
    {NOTE_FS1, MS_64},
    {NOTE_FS1, MS_64},
    {NOTE_FS1, MS_64},
    {NOTE_FS1, MS_64},
    {NOTE_REST, MS_32},
    {NOTE_A5, MS_64},
    {NOTE_D1, MS_64},
    {NOTE_D1, MS_64},
    {NOTE_D1, MS_64},
    {NOTE_D1, MS_64},
    {NOTE_D1, MS_64},
    {NOTE_D1, MS_64},
    {NOTE_D1, MS_64},
    {NOTE_D1, MS_64},
    {NOTE_FS4, MS_64},
    {NOTE_REST, MS_32},
    {NOTE_G1, MS_64},
    {NOTE_G1, MS_64},
    {NOTE_G1, MS_64},
    {NOTE_G1, MS_64},
    {NOTE_G1, MS_64},
    {NOTE_G1, MS_64},
    {NOTE_B1, MS_64},
    {NOTE_B1, MS_64},
    {NOTE_REST, MS_32},
    {NOTE_B3, MS_32},
    {NOTE_B3, MS_64},
    {NOTE_REST, MS_32},
    {NOTE_B3, MS_32},
    {NOTE_B3, MS_32},
    {NOTE_C4, MS_16},
    {NOTE_B3, MS_64},
    {NOTE_B3, MS_64},
    {NOTE_B3, MS_64},
    {NOTE_REST, MS_64},
    {NOTE_D3, MS_32},
    {NOTE_D5, MS_64},
    {NOTE_REST, MS_32},
    {NOTE_D3, MS_64},
    {NOTE_D5, MS_64},
    {NOTE_REST, MS_32},
    {NOTE_E3, MS_16},
    {NOTE_E4, MS_64},
    {NOTE_D3, MS_32},
    {NOTE_D5, MS_32},
    {NOTE_REST, MS_64},
    {NOTE_B3, MS_32},
    {NOTE_B3, MS_64},
    {NOTE_REST, MS_32},
    {NOTE_B3, MS_32},
    {NOTE_B3, MS_32},
    {NOTE_C4, MS_16},
    {NOTE_B3, MS_32},
    {NOTE_REST, MS_32},
    {NOTE_D3, MS_64},
    {NOTE_C4, MS_64},
    {NOTE_C4, MS_64},
    {NOTE_REST, MS_32},
    {NOTE_D3, MS_64},
    {NOTE_D5, MS_64},
    {NOTE_REST, MS_32},
    {NOTE_E3, MS_32},
    {NOTE_E4, MS_64},
    {NOTE_E5, MS_64},
    {NOTE_D3, MS_32},
    {NOTE_D5, MS_64},
    {NOTE_REST, MS_64},
    {NOTE_G3, MS_64},
    {NOTE_G3, MS_64},
    {NOTE_G3, MS_64},
    {NOTE_REST, MS_32},
    {NOTE_G3, MS_32},
    {NOTE_G3, MS_64},
    {NOTE_G3, MS_64},
    {NOTE_B3, MS_64},
    {NOTE_A3, MS_16},
    {NOTE_A3, MS_64},
    {NOTE_G3, MS_64},
    {NOTE_G3, MS_32},
    {NOTE_G3, MS_64},
    {NOTE_B3, MS_64},
    {NOTE_FS3, MS_64},
    {NOTE_FS3, MS_32},
    {NOTE_A3, MS_64},
    {NOTE_A3, MS_64},
    {NOTE_E3, MS_64},
    {NOTE_E3, MS_32},
    {NOTE_E3, MS_64},
    {NOTE_E3, MS_64},
    {NOTE_E3, MS_64},
    {NOTE_D3, MS_32},
    {NOTE_D3, MS_64},
    {NOTE_FS3, MS_64},
    {NOTE_D4, MS_64},
    {NOTE_D4, MS_64},
    {NOTE_REST, MS_16},
    {NOTE_C5, MS_32},
    {NOTE_REST, MS_32},
    {NOTE_C5, MS_32},
    {NOTE_REST, MS_32},
    {NOTE_C5, MS_16},
    {NOTE_A4, MS_Q},
    {NOTE_F4, MS_Q},
    {NOTE_D4, MS_16},
    {NOTE_D4, MS_32},
    {NOTE_C4, MS_Q},
    {NOTE_C5, MS_64},
    {NOTE_C5, MS_64},
    {NOTE_C5, MS_64},
    {NOTE_REST, MS_32},
    {NOTE_CS3, MS_32},
    {NOTE_REST, MS_Q},
    {NOTE_C3, MS_64},
    {NOTE_REST, MS_32},
    {NOTE_C3, MS_64},
    {NOTE_REST, MS_32},
    {NOTE_B2, MS_64},
    {NOTE_FS4, MS_64},
    {NOTE_REST, MS_16},
    {NOTE_C3, MS_32},
    {NOTE_G4, MS_64},
    {NOTE_REST, MS_16},
    {NOTE_CS3, MS_32},
    {NOTE_F4, MS_64},
    {NOTE_CS5, MS_64},
    {NOTE_REST, MS_16},
    {NOTE_C3, MS_64},
    {NOTE_C3, MS_64},
    {NOTE_C5, MS_64},
    {NOTE_REST, MS_32},
    {NOTE_C3, MS_64},
    {NOTE_C3, MS_64},
    {NOTE_G4, MS_64},
    {NOTE_REST, MS_32},
    {NOTE_B2, MS_16},
    {NOTE_B2, MS_64},
    {NOTE_B2, MS_32},
    {NOTE_B2, MS_64},
    {NOTE_REST, MS_64},
    {NOTE_C3, MS_16},
    {NOTE_C3, MS_64},
    {NOTE_C3, MS_64},
    {NOTE_C3, MS_32},
    {NOTE_G4, MS_64},
    {NOTE_F1, MS_64},
    {NOTE_F1, MS_64},
    {NOTE_F1, MS_64},
    {NOTE_F1, MS_64},
    {NOTE_F1, MS_64},
    {NOTE_F1, MS_64},
    {NOTE_F1, MS_64},
    {NOTE_F1, MS_64},
    {NOTE_AS4, MS_64},
    {NOTE_AS4, MS_64},
    {NOTE_D6, MS_32},
    {NOTE_REST, MS_64},
    {NOTE_F1, MS_64},
    {NOTE_F1, MS_64},
    {NOTE_A5, MS_64},
    {NOTE_REST, MS_32},
    {NOTE_F1, MS_64},
    {NOTE_F1, MS_64},
    {NOTE_A5, MS_64},
    {NOTE_REST, MS_32},
    {NOTE_F1, MS_64},
    {NOTE_F1, MS_64},
    {NOTE_F1, MS_32},
    {NOTE_F1, MS_64},
    {NOTE_F1, MS_64},
    {NOTE_F1, MS_64},
    {NOTE_F1, MS_64},
    {NOTE_B5, MS_64},
    {NOTE_REST, MS_32},
    {NOTE_F1, MS_64},
    {NOTE_F1, MS_64},
    {NOTE_F1, MS_64},
    {NOTE_F1, MS_32},
    {NOTE_F1, MS_64},
    {NOTE_F1, MS_64},
    {NOTE_C6, MS_64},
    {NOTE_REST, MS_64},
    {NOTE_F1, MS_64},
    {NOTE_F1, MS_64},
    {NOTE_REST, MS_32},
    {NOTE_F1, MS_64},
    {NOTE_F1, MS_64},
    {NOTE_F1, MS_64},
    {NOTE_REST, MS_32},
    {NOTE_F1, MS_64},
    {NOTE_F1, MS_64},
    {NOTE_F1, MS_64},
    {NOTE_F1, MS_64},
    {NOTE_F1, MS_64},
    {NOTE_F1, MS_64},
    {NOTE_F1, MS_64},
    {NOTE_F1, MS_64},
    {NOTE_C6, MS_32},
    {NOTE_REST, MS_64},
    {NOTE_F1, MS_64},
    {NOTE_F1, MS_64},
    {NOTE_F1, MS_64},
    {NOTE_REST, MS_32},
    {NOTE_F1, MS_32},
    {NOTE_REST, MS_64},
    {NOTE_F1, MS_32},
    {NOTE_F1, MS_64},
    {NOTE_F1, MS_64},
    {NOTE_F1, MS_64},
    {NOTE_F1, MS_64},
    {NOTE_F1, MS_64},
    {NOTE_F1, MS_64},
    {NOTE_F1, MS_32},
    {NOTE_REST, MS_64},
    {NOTE_AS1, MS_64},
    {NOTE_AS1, MS_64},
    {NOTE_AS1, MS_64},
    {NOTE_AS1, MS_64},
    {NOTE_AS1, MS_32},
    {NOTE_AS1, MS_64},
    {NOTE_AS1, MS_64},
    {NOTE_B1, MS_32},
    {NOTE_AS1, MS_64},
    {NOTE_AS1, MS_64},
    {NOTE_AS1, MS_64},
    {NOTE_AS1, MS_64},
    {NOTE_B1, MS_64},
    {NOTE_B1, MS_64},
    {NOTE_AS1, MS_64},
    {NOTE_AS1, MS_64},
    {NOTE_AS1, MS_64},
    {NOTE_B1, MS_64},
    {NOTE_A1, MS_32},
    {NOTE_A1, MS_64},
    {NOTE_A1, MS_32},
    {NOTE_A1, MS_64},
    {NOTE_B1, MS_32},
    {NOTE_A1, MS_64},
    {NOTE_A1, MS_64},
    {NOTE_A1, MS_64},
    {NOTE_B1, MS_64},
    {NOTE_B1, MS_64},
    {NOTE_A1, MS_64},
    {NOTE_A1, MS_64},
    {NOTE_A1, MS_64},
    {NOTE_A1, MS_64},
    {NOTE_B1, MS_64},
    {NOTE_G1, MS_64},
    {NOTE_G1, MS_64},
    {NOTE_G1, MS_64},
    {NOTE_G1, MS_64},
    {NOTE_G1, MS_64},
    {NOTE_G1, MS_64},
    {NOTE_G1, MS_32},
    {NOTE_CS3, MS_32},
    {NOTE_G1, MS_64},
    {NOTE_G1, MS_64},
    {NOTE_G3, MS_64},
    {NOTE_G3, MS_64},
    {NOTE_REST, MS_64},
    {NOTE_G1, MS_64},
    {NOTE_G1, MS_64},
    {NOTE_G1, MS_64},
    {NOTE_G1, MS_32},
    {NOTE_B1, MS_64},
    {NOTE_B1, MS_64},
    {NOTE_B1, MS_64},
    {NOTE_B1, MS_64},
    {NOTE_B1, MS_64},
    {NOTE_B1, MS_16},
    {NOTE_B1, MS_32},
    {NOTE_B1, MS_32},
    {NOTE_B1, MS_64},
    {NOTE_C5, MS_32},
    {NOTE_REST, MS_64},
    {NOTE_AS4, MS_16},
    {NOTE_AS4, MS_64},
    {NOTE_AS4, MS_16},
    {NOTE_A4, MS_16},
    {NOTE_A4, MS_32},
    {NOTE_F5, MS_64},
    {NOTE_GS4, MS_16},
    {NOTE_GS4, MS_64},
    {NOTE_GS4, MS_16},
    {NOTE_G4, MS_64},
    {NOTE_G4, MS_16},
    {NOTE_AS4, MS_64},
    {NOTE_AS4, MS_64},
    {NOTE_F5, MS_64},
    {NOTE_REST, MS_32},
    {NOTE_CS2, MS_64},
    {NOTE_CS2, MS_64},
    {NOTE_CS2, MS_64},
    {NOTE_CS2, MS_64},
    {NOTE_CS2, MS_64},
    {NOTE_REST, MS_32},
    {NOTE_CS2, MS_64},
    {NOTE_CS2, MS_64},
    {NOTE_CS2, MS_64},
    {NOTE_CS2, MS_64},
    {NOTE_REST, MS_64},
    {NOTE_C2, MS_64},
    {NOTE_REST, MS_Q},
    {NOTE_B1, MS_64},
    {NOTE_B3, MS_64},
    {NOTE_FS4, MS_64},
    {NOTE_REST, MS_32},
    {NOTE_B1, MS_64},
    {NOTE_B3, MS_64},
    {NOTE_B3, MS_32},
    {NOTE_C2, MS_32},
    {NOTE_C4, MS_64},
    {NOTE_REST, MS_16},
    {NOTE_CS2, MS_64},
    {NOTE_CS2, MS_64},
    {NOTE_CS4, MS_64},
    {NOTE_REST, MS_32},
    {NOTE_CS2, MS_64},
    {NOTE_CS2, MS_64},
    {NOTE_CS4, MS_64},
    {NOTE_REST, MS_64},
    {NOTE_C2, MS_64},
    {NOTE_REST, MS_32},
    {NOTE_C2, MS_32},
    {NOTE_C4, MS_32},
    {NOTE_REST, MS_64},
    {NOTE_B1, MS_64},
    {NOTE_B1, MS_64},
    {NOTE_B1, MS_32},
    {NOTE_B3, MS_64},
    {NOTE_B3, MS_64},
    {NOTE_B3, MS_32},
    {NOTE_REST, MS_64},
    {NOTE_B1, MS_64},
    {NOTE_CS3, MS_64},
    {NOTE_CS3, MS_64},
    {NOTE_REST, MS_16},
    {NOTE_F1, MS_64},
    {NOTE_F1, MS_64},
    {NOTE_F1, MS_64},
    {NOTE_REST, MS_16},
    {NOTE_B1, MS_64},
    {NOTE_B1, MS_64},
    {NOTE_B1, MS_64},
    {NOTE_B1, MS_64},
    {NOTE_B1, MS_64},
    {NOTE_CS3, MS_64},
    {NOTE_REST, MS_16},
    {NOTE_F1, MS_64},
    {NOTE_F1, MS_64},
    {NOTE_F1, MS_64},
    {NOTE_F1, MS_16},
    {NOTE_F1, MS_64},
    {NOTE_F1, MS_32},
    {NOTE_F1, MS_32},
    {NOTE_REST, MS_64},
    {NOTE_C2, MS_64},
    {NOTE_C2, MS_64},
    {NOTE_A5, MS_64},
    {NOTE_REST, MS_32},
    {NOTE_C2, MS_64},
    {NOTE_C2, MS_64},
    {NOTE_E4, MS_64},
    {NOTE_G4, MS_64},
    {NOTE_REST, MS_32},
    {NOTE_C2, MS_64},
    {NOTE_REST, MS_32},
    {NOTE_C2, MS_64},
    {NOTE_REST, MS_32},
    {NOTE_A5, MS_64},
    {NOTE_C2, MS_32},
    {NOTE_REST, MS_32},
    {NOTE_C2, MS_64},
    {NOTE_C2, MS_64},
    {NOTE_C4, MS_64},
    {NOTE_REST, MS_32},
    {NOTE_F1, MS_64},
    {NOTE_F1, MS_64},
    {NOTE_F3, MS_64},
    {NOTE_REST, MS_64},
    {NOTE_F1, MS_64},
    {NOTE_F1, MS_64},
    {NOTE_F3, MS_64},
    {NOTE_REST, MS_64},
    {NOTE_F1, MS_64},
    {NOTE_F1, MS_64},
    {NOTE_F1, MS_16},
    {NOTE_F1, MS_64},
    {NOTE_F1, MS_64},
    {NOTE_F1, MS_64},
    {NOTE_F1, MS_16},
    {NOTE_REST, MS_64},
    {NOTE_B1, MS_64},
    {NOTE_B1, MS_64},
    {NOTE_B1, MS_64},
    {NOTE_B1, MS_64},
    {NOTE_B1, MS_64},
    {NOTE_B1, MS_64},
    {NOTE_G2, MS_64},
    {NOTE_REST, MS_16},
    {NOTE_F1, MS_64},
    {NOTE_F1, MS_64},
    {NOTE_F1, MS_64},
    {NOTE_F1, MS_64},
    {NOTE_G2, MS_64},
    {NOTE_REST, MS_16},
    {NOTE_B1, MS_64},
    {NOTE_B1, MS_64},
    {NOTE_B1, MS_64},
    {NOTE_B1, MS_64},
    {NOTE_B1, MS_64},
    {NOTE_REST, MS_16},
    {NOTE_F1, MS_64},
    {NOTE_F1, MS_64},
    {NOTE_F1, MS_64},
    {NOTE_F1, MS_64},
    {NOTE_F1, MS_16},
    {NOTE_F1, MS_64},
    {NOTE_F1, MS_64},
    {NOTE_F1, MS_32},
    {NOTE_B1, MS_64},
    {NOTE_B1, MS_64},
    {NOTE_B1, MS_64},
    {NOTE_B1, MS_64},
    {NOTE_B1, MS_32},
    {NOTE_B1, MS_64},
    {NOTE_B1, MS_64},
    {NOTE_B1, MS_64},
    {NOTE_C4, MS_64},
    {NOTE_C4, MS_64},
    {NOTE_G4, MS_64},
    {NOTE_REST, MS_64},
    {NOTE_A5, MS_64},
    {NOTE_C2, MS_64},
    {NOTE_C2, MS_64},
    {NOTE_A4, MS_64},
    {NOTE_REST, MS_64},
    {NOTE_A5, MS_64},
    {NOTE_C2, MS_64},
    {NOTE_C2, MS_64},
    {NOTE_G4, MS_64},
    {NOTE_G4, MS_64},
    {NOTE_REST, MS_64},
    {NOTE_A5, MS_64},
    {NOTE_C2, MS_64},
    {NOTE_C2, MS_64},
    {NOTE_C2, MS_64},
    {NOTE_A4, MS_64},
    {NOTE_REST, MS_64},
    {NOTE_A5, MS_64},
    {NOTE_C2, MS_64},
    {NOTE_C2, MS_64},
    {NOTE_C4, MS_64},
    {NOTE_REST, MS_64},
    {NOTE_F1, MS_64},
    {NOTE_F1, MS_64},
    {NOTE_F1, MS_64},
    {NOTE_F5, MS_64},
    {NOTE_REST, MS_32},
    {NOTE_F1, MS_64},
    {NOTE_F1, MS_64},
    {NOTE_REST, MS_32},
    {NOTE_F1, MS_64},
    {NOTE_F1, MS_64},
    {NOTE_F1, MS_32},
    {NOTE_F1, MS_64},
    {NOTE_F1, MS_64},
    {NOTE_F2, MS_64},
    {NOTE_G4, MS_64},
    {NOTE_F5, MS_64},
    {NOTE_F5, MS_64},
    {NOTE_C2, MS_64},
    {NOTE_C2, MS_64},
    {NOTE_C4, MS_64},
    {NOTE_C4, MS_64},
    {NOTE_A4, MS_64},
    {NOTE_REST, MS_32},
    {NOTE_C2, MS_64},
    {NOTE_C2, MS_64},
    {NOTE_C2, MS_64},
    {NOTE_G4, MS_64},
    {NOTE_G4, MS_64},
    {NOTE_REST, MS_32},
    {NOTE_C2, MS_64},
    {NOTE_C2, MS_64},
    {NOTE_C2, MS_64},
    {NOTE_C4, MS_64},
    {NOTE_A4, MS_64},
    {NOTE_REST, MS_32},
    {NOTE_C2, MS_64},
    {NOTE_C2, MS_64},
    {NOTE_C2, MS_64},
    {NOTE_C2, MS_64},
    {NOTE_C4, MS_64},
    {NOTE_C4, MS_64},
    {NOTE_REST, MS_64},
    {NOTE_F1, MS_64},
    {NOTE_F1, MS_64},
    {NOTE_F1, MS_64},
    {NOTE_C5, MS_64},
    {NOTE_REST, MS_64},
    {NOTE_F1, MS_64},
    {NOTE_F1, MS_64},
    {NOTE_C5, MS_32},
    {NOTE_F1, MS_64},
    {NOTE_F1, MS_64},
    {NOTE_F1, MS_64},
    {NOTE_F1, MS_64},
    {NOTE_F1, MS_64},
    {NOTE_F1, MS_64},
    {NOTE_F1, MS_64},
    {NOTE_F1, MS_64},
    {NOTE_F1, MS_64},
    {NOTE_F5, MS_64},
    {NOTE_C2, MS_64},
    {NOTE_C2, MS_64},
    {NOTE_C4, MS_64},
    {NOTE_A4, MS_64},
    {NOTE_F5, MS_32},
    {NOTE_C2, MS_64},
    {NOTE_C2, MS_64},
    {NOTE_C2, MS_64},
    {NOTE_G4, MS_64},
    {NOTE_G4, MS_64},
    {NOTE_F5, MS_32},
    {NOTE_C2, MS_64},
    {NOTE_A4, MS_64},
    {NOTE_F5, MS_32},
    {NOTE_C2, MS_64},
    {NOTE_C2, MS_64},
    {NOTE_C3, MS_64},
    {NOTE_C4, MS_64},
    {NOTE_C4, MS_64},
    {NOTE_F5, MS_64},
    {NOTE_REST, MS_64},
    {NOTE_F4, MS_32},
    {NOTE_REST, MS_32},
    {NOTE_F4, MS_32},
    {NOTE_REST, MS_32},
    {NOTE_F4, MS_16},
    {NOTE_F5, MS_64},
    {NOTE_REST, MS_16},
    {NOTE_C5, MS_Q},
    {NOTE_GS4, MS_Q},
    {NOTE_F4, MS_Q},
    {NOTE_DS4, MS_64},
    {NOTE_F4, MS_Q},
    {NOTE_F4, MS_64},
    {NOTE_F4, MS_64},
    {NOTE_REST, MS_16},
    {NOTE_B1, MS_32},
    {NOTE_B1, MS_32},
    {NOTE_B1, MS_64},
    {NOTE_B1, MS_64},
    {NOTE_REST, MS_16},
    {NOTE_B1, MS_32},
    {NOTE_B1, MS_64},
    {NOTE_B1, MS_64},
    {NOTE_B1, MS_64},
    {NOTE_F2, MS_32},
    {NOTE_REST, MS_64},
    {NOTE_B1, MS_32},
    {NOTE_B1, MS_64},
    {NOTE_B1, MS_64},
    {NOTE_D2, MS_64},
    {NOTE_GS2, MS_64},
    {NOTE_REST, MS_32},
    {NOTE_B1, MS_32},
    {NOTE_B1, MS_64},
    {NOTE_B1, MS_64},
    {NOTE_B1, MS_64},
    {NOTE_B1, MS_64},
    {NOTE_G3, MS_64},
    {NOTE_REST, MS_32},
    {NOTE_GS1, MS_32},
    {NOTE_GS1, MS_64},
    {NOTE_GS1, MS_64},
    {NOTE_GS1, MS_64},
    {NOTE_REST, MS_32},
    {NOTE_G1, MS_32},
    {NOTE_G1, MS_64},
    {NOTE_G1, MS_64},
    {NOTE_G1, MS_64},
    {NOTE_G1, MS_64},
    {NOTE_G1, MS_64},
    {NOTE_D2, MS_64},
    {NOTE_REST, MS_32},
    {NOTE_C0, MS_32},
    {NOTE_C0, MS_64},
    {NOTE_C0, MS_64},
    {NOTE_C0, MS_64},
    {NOTE_C0, MS_64},
    {NOTE_C0, MS_16},
    {NOTE_G5, MS_32},
    {NOTE_REST, MS_32},
    {NOTE_G5, MS_16},
    {NOTE_REST, MS_64},
    {NOTE_A5, MS_16},
    {NOTE_REST, MS_64},
    {NOTE_G5, MS_16},
    {NOTE_G2, MS_64},
    {NOTE_G3, MS_64},
    {NOTE_G5, MS_32},
    {NOTE_G2, MS_32},
    {NOTE_G4, MS_32},
    {NOTE_A2, MS_16},
    {NOTE_A2, MS_64},
    {NOTE_G3, MS_32},
    {NOTE_G3, MS_64},
    {NOTE_C2, MS_64},
    {NOTE_C2, MS_64},
    {NOTE_C2, MS_64},
    {NOTE_E3, MS_64},
    {NOTE_G4, MS_64},
    {NOTE_C2, MS_64},
    {NOTE_C2, MS_64},
    {NOTE_E3, MS_64},
    {NOTE_E3, MS_64},
    {NOTE_G5, MS_64},
    {NOTE_C2, MS_64},
    {NOTE_C2, MS_64},
    {NOTE_F3, MS_64},
    {NOTE_REST, MS_64},
    {NOTE_C2, MS_64},
    {NOTE_C2, MS_64},
    {NOTE_G2, MS_64},
    {NOTE_E3, MS_64},
    {NOTE_E3, MS_64},
    {NOTE_REST, MS_64},
    {NOTE_C2, MS_64},
    {NOTE_C2, MS_64},
    {NOTE_D3, MS_64},
    {NOTE_D3, MS_64},
    {NOTE_REST, MS_64},
    {NOTE_C2, MS_64},
    {NOTE_C2, MS_64},
    {NOTE_G3, MS_64},
    {NOTE_REST, MS_64},
    {NOTE_C2, MS_64},
    {NOTE_C2, MS_64},
    {NOTE_D2, MS_64},
    {NOTE_D2, MS_64},
    {NOTE_D2, MS_64},
    {NOTE_D2, MS_64},
    {NOTE_D2, MS_64},
    {NOTE_REST, MS_32},
    {NOTE_G3, MS_32},
    {NOTE_G3, MS_32},
    {NOTE_B4, MS_64},
    {NOTE_REST, MS_64},
    {NOTE_B1, MS_64},
    {NOTE_B1, MS_64},
    {NOTE_B1, MS_64},
    {NOTE_B1, MS_64},
    {NOTE_B1, MS_16},
    {NOTE_B1, MS_64},
    {NOTE_B1, MS_64},
    {NOTE_B1, MS_64},
    {NOTE_B1, MS_64},
    {NOTE_E3, MS_64},
    {NOTE_E3, MS_64},
    {NOTE_B1, MS_32},
    {NOTE_B1, MS_64},
    {NOTE_B1, MS_64},
    {NOTE_B1, MS_64},
    {NOTE_A1, MS_32},
    {NOTE_A1, MS_64},
    {NOTE_A1, MS_64},
    {NOTE_A1, MS_64},
    {NOTE_A1, MS_64},
    {NOTE_A1, MS_16},
    {NOTE_A1, MS_64},
    {NOTE_A1, MS_64},
    {NOTE_E3, MS_64},
    {NOTE_E3, MS_64},
    {NOTE_E3, MS_64},
    {NOTE_E3, MS_64},
    {NOTE_A1, MS_64},
    {NOTE_A1, MS_64},
    {NOTE_A1, MS_64},
    {NOTE_C4, MS_64},
    {NOTE_C5, MS_64},
    {NOTE_REST, MS_64},
    {NOTE_B1, MS_64},
    {NOTE_B1, MS_64},
    {NOTE_B1, MS_64},
    {NOTE_B1, MS_64},
    {NOTE_B1, MS_64},
    {NOTE_B1, MS_64},
    {NOTE_B1, MS_64},
    {NOTE_GS4, MS_64},
    {NOTE_REST, MS_64},
    {NOTE_B1, MS_64},
    {NOTE_B1, MS_64},
    {NOTE_CS3, MS_64},
    {NOTE_CS3, MS_64},
    {NOTE_CS3, MS_64},
    {NOTE_B1, MS_64},
    {NOTE_B1, MS_64},
    {NOTE_C2, MS_64},
    {NOTE_GS3, MS_64},
    {NOTE_GS3, MS_64},
    {NOTE_GS4, MS_64},
    {NOTE_B5, MS_64},
    {NOTE_REST, MS_64},
    {NOTE_B1, MS_64},
    {NOTE_B1, MS_64},
    {NOTE_B1, MS_64},
    {NOTE_B1, MS_64},
    {NOTE_B1, MS_64},
    {NOTE_B1, MS_16},
    {NOTE_B1, MS_64},
    {NOTE_B1, MS_64},
    {NOTE_B1, MS_64},
    {NOTE_B1, MS_64},
    {NOTE_B1, MS_64},
    {NOTE_B1, MS_64},
    {NOTE_B1, MS_64},
    {NOTE_B1, MS_32},
    {NOTE_E2, MS_64},
    {NOTE_E2, MS_64},
    {NOTE_REST, MS_64},
    {NOTE_B1, MS_64},
    {NOTE_B1, MS_64},
    {NOTE_B1, MS_64},
    {NOTE_B1, MS_64},
    {NOTE_B1, MS_64},
    {NOTE_B1, MS_32},
    {NOTE_CS3, MS_32},
    {NOTE_B1, MS_64},
    {NOTE_B1, MS_64},
    {NOTE_B1, MS_64},
    {NOTE_B1, MS_32},
    {NOTE_CS3, MS_16},
    {NOTE_B1, MS_64},
    {NOTE_B1, MS_64},
    {NOTE_B1, MS_32},
    {NOTE_B1, MS_64},
    {NOTE_B1, MS_64},
    {NOTE_CS3, MS_32},
    {NOTE_B1, MS_64},
    {NOTE_B1, MS_64},
    {NOTE_B1, MS_32},
    {NOTE_B1, MS_64},
    {NOTE_B1, MS_64},
    {NOTE_C3, MS_64},
    {NOTE_C3, MS_64},
    {NOTE_C3, MS_64},
    {NOTE_E3, MS_64},
    {NOTE_D5, MS_64},
    {NOTE_D5, MS_64},
    {NOTE_B1, MS_32},
    {NOTE_B1, MS_32},
    {NOTE_B1, MS_64},
    {NOTE_E3, MS_64},
    {NOTE_E3, MS_32},
    {NOTE_E3, MS_64},
    {NOTE_B1, MS_64},
    {NOTE_B1, MS_64},
    {NOTE_B1, MS_64},
    {NOTE_B1, MS_64},
    {NOTE_B1, MS_32},
    {NOTE_E3, MS_32},
    {NOTE_E3, MS_64},
    {NOTE_E3, MS_64},
    {NOTE_B1, MS_64},
    {NOTE_B1, MS_64},
    {NOTE_B1, MS_64},
    {NOTE_B1, MS_64},
    {NOTE_B1, MS_32},
    {NOTE_B1, MS_64},
    {NOTE_E3, MS_64},
    {NOTE_E3, MS_64},
    {NOTE_E3, MS_32},
    {NOTE_B1, MS_64},
    {NOTE_B1, MS_64},
    {NOTE_B1, MS_64},
    {NOTE_B1, MS_32},
    {NOTE_B1, MS_64},
    {NOTE_B1, MS_64},
    {NOTE_C2, MS_64},
    {NOTE_C5, MS_32},
    {NOTE_B1, MS_64},
    {NOTE_B1, MS_64},
    {NOTE_B1, MS_64},
    {NOTE_B1, MS_32},
    {NOTE_B1, MS_64},
    {NOTE_B1, MS_64},
    {NOTE_B1, MS_64},
    {NOTE_B1, MS_64},
    {NOTE_CS3, MS_32},
    {NOTE_CS3, MS_64},
    {NOTE_B1, MS_64},
    {NOTE_B1, MS_64},
    {NOTE_B1, MS_64},
    {NOTE_B1, MS_64},
    {NOTE_B1, MS_64},
    {NOTE_B1, MS_64},
    {NOTE_B1, MS_64},
    {NOTE_B1, MS_64},
    {NOTE_CS3, MS_64},
    {NOTE_CS3, MS_64},
    {NOTE_B1, MS_64},
    {NOTE_B1, MS_64},
    {NOTE_B1, MS_64},
    {NOTE_B1, MS_64},
    {NOTE_B1, MS_64},
    {NOTE_B1, MS_64},
    {NOTE_B1, MS_64},
    {NOTE_B1, MS_64},
    {NOTE_B1, MS_64},
    {NOTE_CS3, MS_64},
    {NOTE_CS3, MS_64},
    {NOTE_B1, MS_64},
    {NOTE_B1, MS_64},
    {NOTE_B1, MS_64},
    {NOTE_B1, MS_64},
    {NOTE_B1, MS_64},
    {NOTE_B1, MS_64},
    {NOTE_B1, MS_64},
    {NOTE_B1, MS_64},
    {NOTE_B1, MS_64},
    {NOTE_B4, MS_64},
    {NOTE_A5, MS_64},
    {NOTE_B1, MS_64},
    {NOTE_B1, MS_16},
    {NOTE_B1, MS_64},
    {NOTE_CS3, MS_64},
    {NOTE_CS3, MS_16},
    {NOTE_CS3, MS_64},
    {NOTE_CS3, MS_32},
    {NOTE_C3, MS_64},
    {NOTE_CS3, MS_64},
    {NOTE_C3, MS_64},
    {NOTE_CS3, MS_64},
    {NOTE_C3, MS_64},
    {NOTE_CS3, MS_64},
    {NOTE_C3, MS_64},
    {NOTE_CS3, MS_64},
    {NOTE_CS3, MS_64},
    {NOTE_E2, MS_64},
    {NOTE_C3, MS_64},
    {NOTE_CS3, MS_64},
    {NOTE_C3, MS_64},
    {NOTE_E2, MS_64},
    {NOTE_E2, MS_64},
    {NOTE_E5, MS_64},
    {NOTE_C3, MS_64},
    {NOTE_E5, MS_64},
    {NOTE_A2, MS_64},
    {NOTE_A2, MS_64},
    {NOTE_C3, MS_64},
    {NOTE_C3, MS_64},
    {NOTE_REST, MS_64},
    {NOTE_B1, MS_32},
    {NOTE_B1, MS_64},
    {NOTE_F2, MS_64},
    {NOTE_F2, MS_64},
    {NOTE_A1, MS_64},
    {NOTE_A1, MS_32},
    {NOTE_A1, MS_64},
    {NOTE_A1, MS_64},
    {NOTE_B1, MS_64},
    {NOTE_AS1, MS_64},
    {NOTE_AS1, MS_64},
    {NOTE_AS1, MS_32},
    {NOTE_AS1, MS_64},
    {NOTE_AS1, MS_64},
    {NOTE_AS1, MS_64},
    {NOTE_B1, MS_32},
    {NOTE_B1, MS_32},
    {NOTE_E2, MS_64},
    {NOTE_E2, MS_64},
    {NOTE_C2, MS_32},
    {NOTE_C2, MS_64},
    {NOTE_C2, MS_64},
    {NOTE_D2, MS_64},
    {NOTE_D2, MS_64},
    {NOTE_FS2, MS_64},
    {NOTE_E2, MS_64},
    {NOTE_E2, MS_64},
    {NOTE_FS2, MS_64},
    {NOTE_F2, MS_64},
    {NOTE_F2, MS_64},
    {NOTE_FS2, MS_64},
    {NOTE_FS2, MS_64},
    {NOTE_FS2, MS_64},
    {NOTE_B1, MS_64},
    {NOTE_B1, MS_64},
    {NOTE_B1, MS_64},
    {NOTE_B1, MS_64},
    {NOTE_B1, MS_64},
    {NOTE_F2, MS_64},
    {NOTE_F2, MS_64},
    {NOTE_F2, MS_64},
    {NOTE_A1, MS_32},
    {NOTE_A1, MS_64},
    {NOTE_A1, MS_64},
    {NOTE_A1, MS_64},
    {NOTE_A1, MS_64},
    {NOTE_AS1, MS_64},
    {NOTE_AS1, MS_32},
    {NOTE_AS1, MS_64},
    {NOTE_E2, MS_64},
    {NOTE_B1, MS_32},
    {NOTE_C2, MS_64},
    {NOTE_C2, MS_64},
    {NOTE_C2, MS_64},
    {NOTE_C2, MS_64},
    {NOTE_E2, MS_64},
    {NOTE_B1, MS_64},
    {NOTE_B1, MS_32},
    {NOTE_B1, MS_64},
    {NOTE_B1, MS_64},
    {NOTE_B1, MS_64},
    {NOTE_C2, MS_64},
    {NOTE_C2, MS_32},
    {NOTE_C2, MS_64},
    {NOTE_C2, MS_64},
    {NOTE_B1, MS_64},
    {NOTE_C2, MS_64},
    {NOTE_B1, MS_64},
    {NOTE_B1, MS_32},
    {NOTE_B1, MS_64},
    {NOTE_E2, MS_64},
    {NOTE_E2, MS_64},
    {NOTE_A1, MS_64},
    {NOTE_A1, MS_32},
    {NOTE_A1, MS_64},
    {NOTE_A1, MS_64},
    {NOTE_A1, MS_64},
    {NOTE_AS1, MS_32},
    {NOTE_AS1, MS_32},
    {NOTE_AS1, MS_64},
    {NOTE_AS1, MS_64},
    {NOTE_AS1, MS_64},
    {NOTE_B1, MS_64},
    {NOTE_B1, MS_32},
    {NOTE_E2, MS_64},
    {NOTE_E2, MS_64},
    {NOTE_E2, MS_64},
    {NOTE_B1, MS_64},
    {NOTE_B1, MS_32},
    {NOTE_B1, MS_64},
    {NOTE_B1, MS_64},
    {NOTE_B1, MS_64},
    {NOTE_B1, MS_64},
    {NOTE_B1, MS_64},
    {NOTE_B1, MS_64},
    {NOTE_B1, MS_64},
    {NOTE_B1, MS_64},
    {NOTE_B1, MS_64},
    {NOTE_B1, MS_64},
    {NOTE_F2, MS_64},
    {NOTE_F2, MS_64},
    {NOTE_F2, MS_64},
    {NOTE_FS2, MS_64},
    {NOTE_FS2, MS_64},
    {NOTE_B1, MS_64},
    {NOTE_B1, MS_64},
    {NOTE_B1, MS_64},
    {NOTE_FS2, MS_64},
    {NOTE_G2, MS_64},
    {NOTE_G2, MS_64},
    {NOTE_G2, MS_64},
    {NOTE_B1, MS_32},
    {NOTE_B1, MS_64},
    {NOTE_B1, MS_64},
    {NOTE_B1, MS_64},
    {NOTE_B1, MS_64},
    {NOTE_C2, MS_64},
    {NOTE_C2, MS_32},
    {NOTE_E2, MS_64},
    {NOTE_E2, MS_64},
    {NOTE_B1, MS_64},
    {NOTE_B1, MS_64},
    {NOTE_CS2, MS_64},
    {NOTE_CS2, MS_64},
    {NOTE_FS2, MS_64},
    {NOTE_D2, MS_64},
    {NOTE_D2, MS_64},
    {NOTE_D2, MS_64},
    {NOTE_CS3, MS_64},
    {NOTE_E2, MS_64},
    {NOTE_CS3, MS_64},
    {NOTE_CS3, MS_64},
    {NOTE_D3, MS_64},
    {NOTE_E3, MS_64},
    {NOTE_D2, MS_64},
    {NOTE_D2, MS_64},
    {NOTE_D2, MS_64},
    {NOTE_D2, MS_64},
    {NOTE_D2, MS_64},
    {NOTE_D2, MS_64},
    {NOTE_D2, MS_64},
    {NOTE_D2, MS_32},
    {NOTE_A2, MS_64},
    {NOTE_B1, MS_16},
    {NOTE_B1, MS_64},
    {NOTE_CS3, MS_64},
    {NOTE_G2, MS_64},
    {NOTE_B1, MS_64},
    {NOTE_B1, MS_64},
    {NOTE_B1, MS_64},
    {NOTE_B1, MS_64},
    {NOTE_B1, MS_64},
    {NOTE_B1, MS_64},
    {NOTE_B1, MS_64},
    {NOTE_E2, MS_64},
    {NOTE_C2, MS_64},
    {NOTE_E2, MS_64},
    {NOTE_E2, MS_64},
    {NOTE_B1, MS_64},
    {NOTE_B1, MS_32},
    {NOTE_C2, MS_64},
    {NOTE_E2, MS_64},
    {NOTE_B1, MS_64},
    {NOTE_B1, MS_64},
    {NOTE_B1, MS_64},
    {NOTE_B1, MS_64},
    {NOTE_B1, MS_64},
    {NOTE_B1, MS_32},
    {NOTE_B1, MS_64},
    {NOTE_B1, MS_64},
    {NOTE_B1, MS_64},
    {NOTE_C2, MS_64},
    {NOTE_E2, MS_64},
    {NOTE_B1, MS_64},
    {NOTE_B1, MS_32},
    {NOTE_C2, MS_64},
    {NOTE_E2, MS_64},
    {NOTE_E2, MS_64},
    {NOTE_B1, MS_64},
    {NOTE_B1, MS_64},
    {NOTE_B1, MS_64},
    {NOTE_B1, MS_64},
    {NOTE_B1, MS_64},
    {NOTE_B1, MS_64},
    {NOTE_B1, MS_32},
    {NOTE_B1, MS_64},
    {NOTE_B1, MS_32},
    {NOTE_E2, MS_64},
    {NOTE_C2, MS_64},
    {NOTE_C2, MS_32},
    {NOTE_F1, MS_64},
    {NOTE_F1, MS_64},
    {NOTE_F1, MS_32},
    {NOTE_F1, MS_64},
    {NOTE_F1, MS_64},
    {NOTE_F1, MS_64},
    {NOTE_B1, MS_64},
    {NOTE_B1, MS_64},
    {NOTE_F1, MS_16},
    {NOTE_F1, MS_64},
    {NOTE_F1, MS_64},
    {NOTE_F1, MS_64},
    {NOTE_F1, MS_64},
    {NOTE_F1, MS_64},
    {NOTE_E2, MS_64},
    {NOTE_B1, MS_64},
    {NOTE_B1, MS_32},
    {NOTE_C2, MS_64},
    {NOTE_E2, MS_64},
    {NOTE_E2, MS_64},
    {NOTE_E2, MS_64},
    {NOTE_G2, MS_64},
    {NOTE_B1, MS_64},
    {NOTE_B1, MS_64},
    {NOTE_B1, MS_64},
    {NOTE_B1, MS_64},
    {NOTE_B1, MS_64},
    {NOTE_B1, MS_64},
    {NOTE_B1, MS_64},
    {NOTE_B1, MS_32},
    {NOTE_E2, MS_64},
    {NOTE_C2, MS_64},
    {NOTE_C2, MS_64},
    {NOTE_E2, MS_64},
    {NOTE_B1, MS_32},
    {NOTE_C2, MS_64},
    {NOTE_E2, MS_32},
    {NOTE_B1, MS_64},
    {NOTE_B1, MS_64},
    {NOTE_B1, MS_64},
    {NOTE_B1, MS_32},
    {NOTE_C2, MS_64},
    {NOTE_E2, MS_64},
    {NOTE_E2, MS_64},
    {NOTE_B1, MS_64},
    {NOTE_B1, MS_64},
    {NOTE_C2, MS_64},
    {NOTE_C2, MS_64},
    {NOTE_G1, MS_64},
    {NOTE_G1, MS_64},
    {NOTE_G2, MS_64},
    {NOTE_AS1, MS_64},
    {NOTE_AS1, MS_64},
    {NOTE_AS1, MS_64},
    {NOTE_G2, MS_64},
    {NOTE_G2, MS_64},
    {NOTE_C2, MS_64},
    {NOTE_C2, MS_64},
    {NOTE_G2, MS_64},
    {NOTE_G2, MS_64},
    {NOTE_REST, MS_64},
    {NOTE_C2, MS_64},
    {NOTE_C2, MS_64},
    {NOTE_C2, MS_64},
    {NOTE_C2, MS_64},
    {NOTE_AS1, MS_64},
    {NOTE_AS1, MS_64},
    {NOTE_AS1, MS_64},
    {NOTE_AS1, MS_64},
    {NOTE_B1, MS_64},
    {NOTE_B1, MS_64},
    {NOTE_B1, MS_64},
    {NOTE_DS2, MS_64},
    {NOTE_DS2, MS_64},
    {NOTE_DS2, MS_64},
    {NOTE_DS2, MS_64},
    {NOTE_DS2, MS_Q},
    {NOTE_AS1, MS_64},
    {NOTE_AS1, MS_64},
    {NOTE_CS3, MS_64},
    {NOTE_CS3, MS_64},
    {NOTE_B1, MS_64},
    {NOTE_B1, MS_64},
    {NOTE_DS3, MS_64},
    {NOTE_B1, MS_64},
    {NOTE_B1, MS_16},
    {NOTE_B1, MS_64},
    {NOTE_G2, MS_64},
    {NOTE_G2, MS_64},
    {NOTE_B1, MS_64},
    {NOTE_B1, MS_32},
    {NOTE_B1, MS_64},
    {NOTE_B1, MS_32},
    {NOTE_B1, MS_32},
    {NOTE_E2, MS_64},
    {NOTE_B1, MS_64},
    {NOTE_B1, MS_64},
    {NOTE_C2, MS_64},
    {NOTE_E2, MS_64},
    {NOTE_B1, MS_64},
    {NOTE_B1, MS_16},
    {NOTE_B1, MS_64},
    {NOTE_E2, MS_64},
    {NOTE_B1, MS_64},
    {NOTE_B1, MS_64},
    {NOTE_B1, MS_64},
    {NOTE_B1, MS_64},
    {NOTE_B1, MS_64},
    {NOTE_B1, MS_32},
    {NOTE_B1, MS_64},
    {NOTE_B1, MS_64},
    {NOTE_AS1, MS_64},
    {NOTE_AS1, MS_64},
    {NOTE_E2, MS_64},
    {NOTE_E2, MS_64},
    {NOTE_B1, MS_64},
    {NOTE_B1, MS_64},
    {NOTE_E2, MS_64},
    {NOTE_E2, MS_64},
    {NOTE_E2, MS_64},
    {NOTE_B1, MS_64},
    {NOTE_B1, MS_32},
    {NOTE_B1, MS_64},
    {NOTE_E2, MS_64},
    {NOTE_B1, MS_64},
    {NOTE_B1, MS_64},
    {NOTE_B1, MS_64},
    {NOTE_B1, MS_64},
    {NOTE_B1, MS_32},
    {NOTE_B1, MS_64},
    {NOTE_B1, MS_64},
    {NOTE_C2, MS_64},
    {NOTE_E2, MS_32},
    {NOTE_B1, MS_64},
    {NOTE_B1, MS_64},
    {NOTE_B1, MS_64},
    {NOTE_C2, MS_64},
    {NOTE_E2, MS_64},
    {NOTE_F1, MS_64},
    {NOTE_F1, MS_32},
    {NOTE_F1, MS_64},
    {NOTE_E2, MS_64},
    {NOTE_F1, MS_64},
    {NOTE_F1, MS_64},
    {NOTE_F1, MS_64},
    {NOTE_B1, MS_64},
    {NOTE_F1, MS_64},
    {NOTE_F1, MS_32},
    {NOTE_F1, MS_64},
    {NOTE_F1, MS_64},
    {NOTE_F1, MS_64},
    {NOTE_E2, MS_64},
    {NOTE_F2, MS_64},
    {NOTE_F1, MS_64},
    {NOTE_F1, MS_64},
    {NOTE_E2, MS_64},
    {NOTE_AS1, MS_64},
    {NOTE_AS1, MS_32},
    {NOTE_B1, MS_64},
    {NOTE_B1, MS_64},
    {NOTE_E2, MS_64},
    {NOTE_AS1, MS_64},
    {NOTE_AS1, MS_64},
    {NOTE_AS1, MS_64},
    {NOTE_B1, MS_64},
    {NOTE_AS1, MS_64},
    {NOTE_AS1, MS_32},
    {NOTE_AS1, MS_64},
    {NOTE_E2, MS_32},
    {NOTE_AS1, MS_64},
    {NOTE_AS1, MS_64},
    {NOTE_E2, MS_64},
    {NOTE_AS1, MS_32},
    {NOTE_B1, MS_64},
    {NOTE_E2, MS_32},
    {NOTE_AS1, MS_64},
    {NOTE_AS1, MS_64},
    {NOTE_AS1, MS_64},
    {NOTE_B1, MS_64},
    {NOTE_AS1, MS_32},
    {NOTE_AS1, MS_64},
    {NOTE_E2, MS_64},
    {NOTE_AS1, MS_64},
    {NOTE_AS1, MS_32},
    {NOTE_G2, MS_64},
    {NOTE_A1, MS_64},
    {NOTE_A1, MS_64},
    {NOTE_A1, MS_64},
    {NOTE_G1, MS_64},
    {NOTE_G1, MS_64},
    {NOTE_G1, MS_64},
    {NOTE_G1, MS_64},
    {NOTE_G1, MS_64},
    {NOTE_G1, MS_64},
    {NOTE_G1, MS_64},
    {NOTE_G2, MS_64},
    {NOTE_G1, MS_64},
    {NOTE_B1, MS_64},
    {NOTE_B1, MS_64},
    {NOTE_G1, MS_64},
    {NOTE_G1, MS_32},
    {NOTE_E2, MS_32},
    {NOTE_G1, MS_32},
    {NOTE_E2, MS_64},
    {NOTE_G1, MS_16},
    {NOTE_B1, MS_64},
    {NOTE_E2, MS_32},
    {NOTE_G1, MS_64},
    {NOTE_G1, MS_64},
    {NOTE_G1, MS_64},
    {NOTE_B1, MS_64},
    {NOTE_G1, MS_64},
    {NOTE_G1, MS_64},
    {NOTE_E2, MS_64},
    {NOTE_AS1, MS_64},
    {NOTE_AS1, MS_32},
    {NOTE_E2, MS_64},
    {NOTE_B1, MS_64},
    {NOTE_B1, MS_64},
    {NOTE_B1, MS_64},
    {NOTE_B1, MS_64},
    {NOTE_E2, MS_64},
    {NOTE_B1, MS_64},
    {NOTE_B1, MS_16},
    {NOTE_E2, MS_64},
    {NOTE_B1, MS_64},
    {NOTE_B1, MS_64},
    {NOTE_B1, MS_64},
    {NOTE_B1, MS_64},
    {NOTE_B1, MS_64},
    {NOTE_C2, MS_32},
    {NOTE_E2, MS_32},
    {NOTE_B1, MS_64},
    {NOTE_E2, MS_64},
    {NOTE_B1, MS_16},
    {NOTE_E2, MS_32},
    {NOTE_B1, MS_64},
    {NOTE_B1, MS_64},
    {NOTE_B1, MS_32},
    {NOTE_B1, MS_16},
    {NOTE_C2, MS_64},
    {NOTE_E2, MS_64},
    {NOTE_B1, MS_64},
    {NOTE_B1, MS_64},
    {NOTE_C2, MS_64},
    {NOTE_G1, MS_64},
    {NOTE_G1, MS_32},
    {NOTE_B1, MS_64},
    {NOTE_E2, MS_64},
    {NOTE_G1, MS_64},
    {NOTE_G1, MS_64},
    {NOTE_B1, MS_64},
    {NOTE_G1, MS_32},
    {NOTE_G1, MS_64},
    {NOTE_G1, MS_64},
    {NOTE_E2, MS_32},
    {NOTE_G1, MS_64},
    {NOTE_G1, MS_64},
    {NOTE_E2, MS_64},
    {NOTE_E2, MS_64},
    {NOTE_G1, MS_64},
    {NOTE_G1, MS_32},
    {NOTE_E2, MS_64},
    {NOTE_E2, MS_64},
    {NOTE_G1, MS_64},
    {NOTE_G1, MS_64},
    {NOTE_G1, MS_64},
    {NOTE_B1, MS_64},
    {NOTE_G1, MS_32},
    {NOTE_G1, MS_64},
    {NOTE_B1, MS_64},
    {NOTE_AS1, MS_64},
    {NOTE_AS1, MS_64},
    {NOTE_AS1, MS_64},
    {NOTE_E2, MS_64},
    {NOTE_B1, MS_64},
    {NOTE_B1, MS_64},
    {NOTE_B1, MS_64},
    {NOTE_E2, MS_64},
    {NOTE_E2, MS_64},
    {NOTE_B1, MS_64},
    {NOTE_B1, MS_32},
    {NOTE_B1, MS_64},
    {NOTE_E2, MS_64},
    {NOTE_E2, MS_64},
    {NOTE_B1, MS_64},
    {NOTE_B1, MS_64},
    {NOTE_B1, MS_64},
    {NOTE_B1, MS_64},
    {NOTE_B1, MS_32},
    {NOTE_C2, MS_64},
    {NOTE_E2, MS_32},
    {NOTE_B1, MS_64},
    {NOTE_B1, MS_64},
    {NOTE_B1, MS_64},
    {NOTE_E2, MS_64},
    {NOTE_B1, MS_16},
    {NOTE_E2, MS_32},
    {NOTE_B1, MS_64},
    {NOTE_B1, MS_64},
    {NOTE_B1, MS_64},
    {NOTE_B1, MS_64},
    {NOTE_B1, MS_64},
    {NOTE_C2, MS_32},
    {NOTE_E2, MS_32},
    {NOTE_B1, MS_64},
    {NOTE_B1, MS_64},
    {NOTE_B1, MS_64},
    {NOTE_C2, MS_64},
    {NOTE_E2, MS_64},
    {NOTE_G1, MS_64},
    {NOTE_G1, MS_16},
    {NOTE_G1, MS_64},
    {NOTE_G1, MS_64},
    {NOTE_G1, MS_64},
    {NOTE_G1, MS_64},
    {NOTE_G1, MS_64},
    {NOTE_G1, MS_64},
    {NOTE_G1, MS_64},
    {NOTE_G1, MS_64},
    {NOTE_G1, MS_32},
    {NOTE_G1, MS_64},
    {NOTE_G1, MS_32},
    {NOTE_G1, MS_64},
    {NOTE_G1, MS_64},
    {NOTE_G1, MS_64},
    {NOTE_G1, MS_64},
    {NOTE_G1, MS_64},
    {NOTE_G1, MS_64},
    {NOTE_G1, MS_64},
    {NOTE_B1, MS_64},
    {NOTE_B1, MS_32},
    {NOTE_B1, MS_64},
    {NOTE_B1, MS_64},
    {NOTE_B1, MS_64},
    {NOTE_B1, MS_64},
    {NOTE_B1, MS_16},
    {NOTE_C2, MS_64},
    {NOTE_C2, MS_64},
    {NOTE_C2, MS_64},
    {NOTE_B1, MS_64},
    {NOTE_B1, MS_64},
    {NOTE_B1, MS_64},
    {NOTE_B1, MS_64},
    {NOTE_C2, MS_64},
    {NOTE_C2, MS_64},
    {NOTE_G1, MS_64},
    {NOTE_G1, MS_32},
    {NOTE_G1, MS_64},
    {NOTE_G1, MS_64},
    {NOTE_G1, MS_64},
    {NOTE_G1, MS_64},
    {NOTE_G1, MS_64},
    {NOTE_G1, MS_64},
    {NOTE_G1, MS_32},
    {NOTE_G1, MS_32},
    {NOTE_G1, MS_64},
    {NOTE_G1, MS_64},
    {NOTE_G1, MS_64},
    {NOTE_G1, MS_64},
    {NOTE_G1, MS_64},
    {NOTE_G1, MS_64},
    {NOTE_G1, MS_64},
    {NOTE_B1, MS_64},
    {NOTE_B1, MS_64},
    {NOTE_C2, MS_64},
    {NOTE_C2, MS_64},
    {NOTE_B1, MS_64},
    {NOTE_B1, MS_64},
    {NOTE_C2, MS_64},
    {NOTE_C2, MS_32},
    {NOTE_C2, MS_64},
    {NOTE_B1, MS_64},
    {NOTE_B1, MS_64},
    {NOTE_B1, MS_64},
    {NOTE_G1, MS_64},
    {NOTE_G1, MS_64},
    {NOTE_G1, MS_64},
    {NOTE_G1, MS_64},
    {NOTE_E2, MS_64},
    {NOTE_E2, MS_64},
    {NOTE_B1, MS_64},
    {NOTE_B1, MS_32},
    {NOTE_B1, MS_64},
    {NOTE_E2, MS_64},
    {NOTE_A1, MS_64},
    {NOTE_A1, MS_32},
    {NOTE_A1, MS_64},
    {NOTE_A1, MS_64},
    {NOTE_A1, MS_64},
    {NOTE_AS1, MS_32},
    {NOTE_AS1, MS_32},
    {NOTE_E2, MS_64},
    {NOTE_B1, MS_16},
    {NOTE_E2, MS_64},
    {NOTE_E2, MS_64},
    {NOTE_B1, MS_64},
    {NOTE_B1, MS_32},
    {NOTE_B1, MS_64},
    {NOTE_B1, MS_64},
    {NOTE_B1, MS_64},
    {NOTE_B1, MS_64},
    {NOTE_B1, MS_64},
    {NOTE_B1, MS_64},
    {NOTE_E2, MS_64},
    {NOTE_F2, MS_64},
    {NOTE_F2, MS_64},
    {NOTE_CS3, MS_64},
    {NOTE_CS3, MS_64},
    {NOTE_B1, MS_64},
    {NOTE_B1, MS_64},
    {NOTE_B1, MS_64},
    {NOTE_B1, MS_64},
    {NOTE_F2, MS_64},
    {NOTE_F2, MS_64},
    {NOTE_A1, MS_64},
    {NOTE_A1, MS_32},
    {NOTE_A1, MS_64},
    {NOTE_A1, MS_64},
    {NOTE_A1, MS_64},
    {NOTE_A1, MS_64},
    {NOTE_AS1, MS_64},
    {NOTE_AS1, MS_64},
    {NOTE_AS1, MS_64},
    {NOTE_AS1, MS_64},
    {NOTE_AS1, MS_64},
    {NOTE_B1, MS_32},
    {NOTE_E2, MS_64},
    {NOTE_C2, MS_64},
    {NOTE_C2, MS_64},
    {NOTE_C2, MS_64},
    {NOTE_C2, MS_64},
    {NOTE_E2, MS_64},
    {NOTE_B1, MS_64},
    {NOTE_B1, MS_64},
    {NOTE_B1, MS_64},
    {NOTE_B1, MS_64},
    {NOTE_B1, MS_64},
    {NOTE_B1, MS_64},
    {NOTE_B1, MS_32},
    {NOTE_B1, MS_64},
    {NOTE_C2, MS_64},
    {NOTE_C2, MS_32},
    {NOTE_E2, MS_64},
    {NOTE_B1, MS_32},
    {NOTE_E2, MS_32},
    {NOTE_E2, MS_64},
    {NOTE_A1, MS_64},
    {NOTE_A1, MS_32},
    {NOTE_A1, MS_64},
    {NOTE_A1, MS_64},
    {NOTE_A1, MS_64},
    {NOTE_AS1, MS_64},
    {NOTE_AS1, MS_64},
    {NOTE_AS1, MS_64},
    {NOTE_AS1, MS_64},
    {NOTE_E2, MS_64},
    {NOTE_B1, MS_32},
    {NOTE_E2, MS_64},
    {NOTE_E2, MS_64},
    {NOTE_E2, MS_64},
    {NOTE_B1, MS_64},
    {NOTE_B1, MS_64},
    {NOTE_B1, MS_32},
    {NOTE_B1, MS_64},
    {NOTE_B1, MS_64},
    {NOTE_B1, MS_64},
    {NOTE_B1, MS_64},
    {NOTE_B1, MS_64},
    {NOTE_E2, MS_64},
    {NOTE_AS2, MS_64},
    {NOTE_F2, MS_64},
    {NOTE_F2, MS_64},
    {NOTE_F3, MS_64},
    {NOTE_REST, MS_64},
    {NOTE_B1, MS_64},
    {NOTE_B1, MS_64},
    {NOTE_G2, MS_64},
    {NOTE_G2, MS_64},
    {NOTE_G2, MS_64},
    {NOTE_G2, MS_64},
    {NOTE_G3, MS_64},
    {NOTE_B1, MS_32},
    {NOTE_B1, MS_64},
    {NOTE_B1, MS_64},
    {NOTE_B1, MS_64},
    {NOTE_C2, MS_32},
    {NOTE_C2, MS_64},
    {NOTE_C2, MS_64},
    {NOTE_E2, MS_64},
    {NOTE_B1, MS_16},
    {NOTE_D2, MS_64},
    {NOTE_D2, MS_64},
    {NOTE_E2, MS_64},
    {NOTE_E2, MS_64},
    {NOTE_B1, MS_64},
    {NOTE_B1, MS_32},
    {NOTE_DS2, MS_64},
    {NOTE_E2, MS_64},
    {NOTE_E2, MS_64},
    {NOTE_F2, MS_64},
    {NOTE_F2, MS_64},
    {NOTE_F2, MS_64},
    {NOTE_F2, MS_64},
    {NOTE_A2, MS_64},
    {NOTE_A2, MS_64},
    {NOTE_B1, MS_64},
    {NOTE_B1, MS_64},
    {NOTE_B1, MS_64},
    {NOTE_B1, MS_64},
    {NOTE_B1, MS_64},
    {NOTE_B1, MS_64},
    {NOTE_B1, MS_64},
    {NOTE_B1, MS_64},
    {NOTE_B1, MS_64},
    {NOTE_B1, MS_64},
    {NOTE_B1, MS_64},
    {NOTE_B1, MS_64},
    {NOTE_B1, MS_64},
    {NOTE_E2, MS_64},
    {NOTE_E2, MS_64},
    {NOTE_E2, MS_64},
    {NOTE_GS2, MS_64},
    {NOTE_G2, MS_64},
    {NOTE_G2, MS_64},
    {NOTE_B1, MS_64},
    {NOTE_B1, MS_64},
    {NOTE_B1, MS_64},
    {NOTE_B1, MS_32},
    {NOTE_B1, MS_64},
    {NOTE_B1, MS_64},
    {NOTE_B1, MS_32},
    {NOTE_CS3, MS_64},
    {NOTE_CS3, MS_64},
    {NOTE_E2, MS_32},
    {NOTE_G2, MS_64},
    {NOTE_G2, MS_64},
    {NOTE_B1, MS_64},
    {NOTE_B1, MS_64},
    {NOTE_A3, MS_64},
    {NOTE_C4, MS_64},
    {NOTE_B1, MS_64},
    {NOTE_B1, MS_64},
    {NOTE_B1, MS_64},
    {NOTE_B1, MS_64},
    {NOTE_B1, MS_64},
    {NOTE_B1, MS_64},
    {NOTE_B1, MS_64},
    {NOTE_B1, MS_64},
    {NOTE_B1, MS_64},
    {NOTE_B1, MS_64},
    {NOTE_B1, MS_64},
    {NOTE_B1, MS_64},
    {NOTE_B1, MS_64},
    {NOTE_B1, MS_64},
    {NOTE_B1, MS_64},
    {NOTE_B1, MS_64},
    {NOTE_B1, MS_64},
    {NOTE_B1, MS_64},
    {NOTE_B1, MS_64},
    {NOTE_B1, MS_64},
    {NOTE_B1, MS_64},
    {NOTE_B1, MS_64},
    {NOTE_B1, MS_64},
    {NOTE_B1, MS_64},
    {NOTE_B1, MS_64},
    {NOTE_B1, MS_64},
    {NOTE_B1, MS_64},
    {NOTE_B1, MS_64},
    {NOTE_F3, MS_64},
    {NOTE_GS3, MS_64},
    {NOTE_GS3, MS_64},
    {NOTE_GS3, MS_64},
    {NOTE_AS3, MS_64},
    {NOTE_B3, MS_64},
    {NOTE_CS4, MS_64},
    {NOTE_GS1, MS_64},
    {NOTE_GS1, MS_64},
    {NOTE_GS1, MS_64},
    {NOTE_GS1, MS_64},
    {NOTE_GS1, MS_64},
    {NOTE_GS1, MS_64},
    {NOTE_GS1, MS_32},
    {NOTE_GS1, MS_64},
    {NOTE_GS1, MS_64},
    {NOTE_GS1, MS_64},
    {NOTE_GS1, MS_64},
    {NOTE_GS1, MS_64},
    {NOTE_GS1, MS_64},
    {NOTE_GS1, MS_64},
    {NOTE_GS1, MS_64},
    {NOTE_GS1, MS_64},
    {NOTE_GS1, MS_64},
    {NOTE_GS1, MS_64},
    {NOTE_GS1, MS_64},
    {NOTE_GS1, MS_64},
    {NOTE_GS1, MS_64},
    {NOTE_GS1, MS_64},
    {NOTE_GS1, MS_64},
    {NOTE_GS1, MS_64},
    {NOTE_GS1, MS_64},
    {NOTE_GS1, MS_16},
    {NOTE_AS2, MS_64},
    {NOTE_AS1, MS_64},
    {NOTE_AS1, MS_64},
    {NOTE_AS1, MS_64},
    {NOTE_AS1, MS_64},
    {NOTE_AS1, MS_64},
    {NOTE_AS1, MS_64},
    {NOTE_AS1, MS_64},
    {NOTE_AS1, MS_64},
    {NOTE_AS1, MS_64},
    {NOTE_AS1, MS_64},
    {NOTE_AS1, MS_64},
    {NOTE_AS1, MS_64},
    {NOTE_AS1, MS_64},
    {NOTE_AS1, MS_64},
    {NOTE_AS1, MS_64},
    {NOTE_AS1, MS_64},
    {NOTE_AS1, MS_64},
    {NOTE_AS1, MS_64},
    {NOTE_AS1, MS_64},
    {NOTE_AS1, MS_64},
    {NOTE_AS1, MS_64},
    {NOTE_AS1, MS_64},
    {NOTE_AS1, MS_64},
    {NOTE_AS1, MS_64},
    {NOTE_AS1, MS_64},
    {NOTE_AS1, MS_64},
    {NOTE_AS1, MS_64},
    {NOTE_AS1, MS_64},
    {NOTE_AS1, MS_64},
    {NOTE_AS1, MS_64},
    {NOTE_AS1, MS_64},
    {NOTE_AS1, MS_64},
    {NOTE_AS1, MS_64},
    {NOTE_AS1, MS_64},
    {NOTE_AS1, MS_64},
    {NOTE_AS1, MS_64},
    {NOTE_AS1, MS_64},
    {NOTE_AS1, MS_64},
    {NOTE_AS1, MS_64},
    {NOTE_AS1, MS_64},
    {NOTE_AS1, MS_64},
    {NOTE_AS1, MS_64},
    {NOTE_AS1, MS_64},
    {NOTE_AS1, MS_64},
    {NOTE_AS1, MS_64},
    {NOTE_AS1, MS_64},
    {NOTE_AS1, MS_64},
    {NOTE_AS1, MS_64},
    {NOTE_AS1, MS_64},
    {NOTE_AS1, MS_64},
    {NOTE_AS1, MS_64},
    {NOTE_AS1, MS_64},
    {NOTE_AS1, MS_64},
    {NOTE_AS1, MS_64},
    {NOTE_AS1, MS_64},
    {NOTE_AS1, MS_64},
    {NOTE_AS1, MS_64},
    {NOTE_AS1, MS_64},
    {NOTE_AS1, MS_64},
    {NOTE_AS1, MS_64},
    {NOTE_AS1, MS_64},
    {NOTE_AS1, MS_Q},
    {NOTE_B1, MS_32},
    {NOTE_DS5, MS_H},
    {NOTE_DS5, MS_16},
    {NOTE_AS2, MS_16},
    {NOTE_A2, MS_16},
    {NOTE_AS2, MS_16},
    {NOTE_C3, MS_16},
    {NOTE_AS2, MS_16},
    {NOTE_D3, MS_16},
    {NOTE_AS2, MS_16},
    {NOTE_DS3, MS_16},
    {NOTE_AS2, MS_16},
    {NOTE_F3, MS_16},
    {NOTE_AS2, MS_16},
    {NOTE_B1, MS_64},
    {NOTE_B1, MS_16},
    {NOTE_B1, MS_16},
    {NOTE_B1, MS_64},
    {NOTE_B1, MS_32},
    {NOTE_B1, MS_64},
    {NOTE_B1, MS_64},
    {NOTE_B1, MS_32},
    {NOTE_B1, MS_64},
    {NOTE_B1, MS_64},
    {NOTE_B1, MS_32},
    {NOTE_B1, MS_64},
    {NOTE_B1, MS_64},
    {NOTE_B1, MS_64},
    {NOTE_E2, MS_64},
    {NOTE_E2, MS_32},
    {NOTE_B1, MS_64},
    {NOTE_B1, MS_64},
    {NOTE_B1, MS_64},
    {NOTE_B1, MS_64},
    {NOTE_DS2, MS_64},
    {NOTE_DS2, MS_16},
    {NOTE_DS2, MS_64},
    {NOTE_B1, MS_32},
    {NOTE_B1, MS_32},
    {NOTE_B1, MS_64},
    {NOTE_B1, MS_32},
    {NOTE_B1, MS_64},
    {NOTE_B1, MS_64},
    {NOTE_B1, MS_64},
    {NOTE_B1, MS_64},
    {NOTE_B1, MS_32},
    {NOTE_B1, MS_64},
    {NOTE_B1, MS_64},
    {NOTE_B1, MS_32},
    {NOTE_B1, MS_64},
    {NOTE_B1, MS_64},
    {NOTE_B1, MS_64},
    {NOTE_B1, MS_64},
    {NOTE_B1, MS_64},
    {NOTE_E2, MS_64},
    {NOTE_E2, MS_64},
    {NOTE_E2, MS_64},
    {NOTE_E2, MS_64},
    {NOTE_E2, MS_32},
    {NOTE_B1, MS_64},
    {NOTE_B1, MS_64},
    {NOTE_B1, MS_32},
    {NOTE_D2, MS_64},
    {NOTE_D2, MS_64},
    {NOTE_D2, MS_32},
    {NOTE_B1, MS_16},
    {NOTE_B1, MS_64},
    {NOTE_B1, MS_16},
    {NOTE_B1, MS_64},
    {NOTE_B1, MS_64},
    {NOTE_B1, MS_64},
    {NOTE_B1, MS_64},
    {NOTE_B1, MS_64},
    {NOTE_B1, MS_64},
    {NOTE_B1, MS_16},
    {NOTE_B1, MS_64},
    {NOTE_B1, MS_16},
    {NOTE_C2, MS_64},
    {NOTE_E2, MS_64},
    {NOTE_E2, MS_32},
    {NOTE_B1, MS_64},
    {NOTE_B1, MS_64},
    {NOTE_B1, MS_64},
    {NOTE_C2, MS_64},
    {NOTE_C2, MS_64},
    {NOTE_C2, MS_64},
    {NOTE_C2, MS_16},
    {NOTE_AS2, MS_64},
    {NOTE_G1, MS_Q},
    {NOTE_G1, MS_32},
    {NOTE_G1, MS_64},
    {NOTE_G1, MS_32},
    {NOTE_G1, MS_64},
    {NOTE_G1, MS_64},
    {NOTE_G2, MS_64},
    {NOTE_B1, MS_64},
    {NOTE_B1, MS_64},
    {NOTE_B1, MS_16},
    {NOTE_B1, MS_64},
    {NOTE_C2, MS_64},
    {NOTE_C2, MS_64},
    {NOTE_E3, MS_64},
    {NOTE_REST, MS_Q},
    {NOTE_B1, MS_DQ},
    {NOTE_G2, MS_64},
    {NOTE_G2, MS_64},
    {NOTE_G2, MS_64},
    {NOTE_G2, MS_64},
    {NOTE_D4, MS_64},
    {NOTE_B1, MS_64},
    {NOTE_B1, MS_16},
    {NOTE_B1, MS_64},
    {NOTE_C2, MS_64},
    {NOTE_C2, MS_64},
    {NOTE_C2, MS_64},
    {NOTE_C2, MS_64},
    {NOTE_C2, MS_64},
    {NOTE_C2, MS_32},
    {NOTE_C2, MS_16},
    {NOTE_AS1, MS_Q},
    {NOTE_AS1, MS_64},
    {NOTE_AS1, MS_64},
    {NOTE_AS1, MS_64},
    {NOTE_AS1, MS_32},
    {NOTE_AS1, MS_64},
    {NOTE_AS1, MS_64},
    {NOTE_F3, MS_64},
    {NOTE_AS4, MS_64},
    {NOTE_B1, MS_64},
    {NOTE_B1, MS_Q},
    {NOTE_B1, MS_64},
    {NOTE_B1, MS_64},
    {NOTE_B1, MS_64},
    {NOTE_DS2, MS_32},
    {NOTE_DS2, MS_64},
    {NOTE_DS2, MS_64},
    {NOTE_DS2, MS_32},
    {NOTE_B1, MS_64},
    {NOTE_B1, MS_H},
    {NOTE_AS1, MS_64},
    {NOTE_AS1, MS_64},
    {NOTE_AS1, MS_64},
    {NOTE_AS1, MS_16},
    {NOTE_AS1, MS_64},
    {NOTE_AS1, MS_32},
    {NOTE_A1, MS_64},
    {NOTE_A1, MS_64},
    {NOTE_A1, MS_32},
    {NOTE_A1, MS_64},
    {NOTE_A1, MS_64},
    {NOTE_A1, MS_64},
    {NOTE_A1, MS_64},
    {NOTE_A1, MS_32},
    {NOTE_G1, MS_64},
    {NOTE_G1, MS_32},
    {NOTE_G1, MS_16},
    {NOTE_G1, MS_64},
    {NOTE_B1, MS_64},
    {NOTE_B1, MS_64},
    {NOTE_B1, MS_16},
    {NOTE_B1, MS_64},
    {NOTE_B1, MS_64},
    {NOTE_E2, MS_64},
    {NOTE_E2, MS_32},
    {NOTE_E2, MS_64},
    {NOTE_G2, MS_32},
    {NOTE_D3, MS_64},
    {NOTE_G1, MS_32},
    {NOTE_G1, MS_64},
    {NOTE_G1, MS_16},
    {NOTE_G1, MS_64},
    {NOTE_D3, MS_64},
    {NOTE_GS1, MS_Q},
    {NOTE_GS1, MS_16},
    {NOTE_GS1, MS_16},
    {NOTE_GS1, MS_32},
    {NOTE_GS1, MS_32},
    {NOTE_GS1, MS_32},
    {NOTE_E2, MS_64},
    {NOTE_E2, MS_64},
    {NOTE_GS1, MS_64},
    {NOTE_GS1, MS_64},
    {NOTE_GS1, MS_64},
    {NOTE_GS1, MS_64},
    {NOTE_GS1, MS_64},
    {NOTE_GS1, MS_32},
    {NOTE_GS1, MS_64},
    {NOTE_E2, MS_64},
    {NOTE_B1, MS_64},
    {NOTE_B1, MS_64},
    {NOTE_B1, MS_64},
    {NOTE_B1, MS_16},
    {NOTE_B1, MS_64},
    {NOTE_B1, MS_32},
    {NOTE_B1, MS_32},
    {NOTE_B1, MS_16},
    {NOTE_B1, MS_32},
    {NOTE_B1, MS_32},
    {NOTE_DS2, MS_64},
    {NOTE_DS2, MS_64},
    {NOTE_DS2, MS_64},
    {NOTE_B1, MS_32},
    {NOTE_B1, MS_64},
    {NOTE_B1, MS_64},
    {NOTE_B1, MS_32},
    {NOTE_B1, MS_16},
    {NOTE_AS4, MS_64},
    {NOTE_B1, MS_Q},
    {NOTE_B1, MS_64},
    {NOTE_B1, MS_64},
    {NOTE_B1, MS_Q},
    {NOTE_B1, MS_64},
    {NOTE_B1, MS_64},
    {NOTE_B1, MS_32},
    {NOTE_C2, MS_32},
    {NOTE_E2, MS_32},
    {NOTE_E2, MS_32},
    {NOTE_B1, MS_64},
    {NOTE_B1, MS_32},
    {NOTE_B1, MS_64},
    {NOTE_C2, MS_16},
    {NOTE_G1, MS_64},
    {NOTE_G1, MS_16},
    {NOTE_G1, MS_16},
    {NOTE_G1, MS_32},
    {NOTE_G1, MS_64},
    {NOTE_G1, MS_64},
    {NOTE_G1, MS_32},
    {NOTE_G1, MS_16},
    {NOTE_G1, MS_64},
    {NOTE_G1, MS_16},
    {NOTE_G1, MS_64},
    {NOTE_G1, MS_64},
    {NOTE_G1, MS_64},
    {NOTE_AS1, MS_32},
    {NOTE_AS1, MS_64},
    {NOTE_AS1, MS_32},
    {NOTE_AS1, MS_32},
    {NOTE_AS1, MS_64},
    {NOTE_AS1, MS_64},
    {NOTE_B1, MS_16},
    {NOTE_B1, MS_16},
    {NOTE_B1, MS_64},
    {NOTE_B1, MS_32},
    {NOTE_B1, MS_32},
    {NOTE_B1, MS_16},
    {NOTE_B1, MS_64},
    {NOTE_B1, MS_64},
    {NOTE_B1, MS_32},
    {NOTE_C2, MS_32},
    {NOTE_C2, MS_32},
    {NOTE_E2, MS_64},
    {NOTE_B1, MS_64},
    {NOTE_B1, MS_64},
    {NOTE_B1, MS_64},
    {NOTE_B1, MS_64},
    {NOTE_C2, MS_64},
    {NOTE_C2, MS_32},
    {NOTE_E2, MS_64},
    {NOTE_G1, MS_32},
    {NOTE_G1, MS_16},
    {NOTE_G1, MS_64},
    {NOTE_G1, MS_32},
    {NOTE_G1, MS_Q},
    {NOTE_G1, MS_16},
    {NOTE_G1, MS_16},
    {NOTE_G1, MS_64},
    {NOTE_G1, MS_64},
    {NOTE_G1, MS_32},
    {NOTE_AS1, MS_32},
    {NOTE_AS1, MS_32},
    {NOTE_AS1, MS_32},
    {NOTE_B1, MS_Q},
    {NOTE_B1, MS_64},
    {NOTE_B1, MS_16},
    {NOTE_B1, MS_16},
    {NOTE_B1, MS_16},
    {NOTE_B1, MS_32},
    {NOTE_B1, MS_32},
    {NOTE_B1, MS_64},
    {NOTE_C2, MS_64},
    {NOTE_C2, MS_64},
    {NOTE_C2, MS_64},
    {NOTE_C2, MS_64},
    {NOTE_C2, MS_64},
    {NOTE_C2, MS_64},
    {NOTE_C2, MS_64},
    {NOTE_C3, MS_64},
    {NOTE_GS1, MS_32},
    {NOTE_GS1, MS_32},
    {NOTE_GS1, MS_W},
    {NOTE_GS1, MS_16},
    {NOTE_GS1, MS_16},
    {NOTE_GS1, MS_Q},
    {NOTE_GS1, MS_32},
    {NOTE_GS1, MS_16},
    {NOTE_GS1, MS_32},
    {NOTE_GS1, MS_64},
    {NOTE_GS1, MS_64},
    {NOTE_GS1, MS_64},
    {NOTE_GS1, MS_64},
    {NOTE_GS1, MS_32},
    {NOTE_GS1, MS_64},
    {NOTE_AS1, MS_64},
    {NOTE_AS1, MS_16},
    {NOTE_AS1, MS_Q},
    {NOTE_AS1, MS_64},
    {NOTE_AS1, MS_64},
    {NOTE_AS1, MS_64},
    {NOTE_AS1, MS_64},
    {NOTE_AS1, MS_16},
    {NOTE_AS1, MS_16},
    {NOTE_AS1, MS_64},
    {NOTE_AS1, MS_64},
    {NOTE_AS1, MS_64},
    {NOTE_AS1, MS_16},
    {NOTE_AS1, MS_64},
    {NOTE_AS1, MS_32},
    {NOTE_AS1, MS_Q},
    {NOTE_AS1, MS_16},
    {NOTE_AS1, MS_DQ},
    {NOTE_AS1, MS_64},
    {NOTE_AS1, MS_64},
    {NOTE_AS1, MS_64},
    {NOTE_AS1, MS_16},
    {NOTE_AS1, MS_32},
    {NOTE_AS1, MS_64},
    {NOTE_AS1, MS_64},
    {NOTE_B1, MS_32},
    {NOTE_B1, MS_16},
    {NOTE_B1, MS_16},
    {NOTE_B1, MS_64},
    {NOTE_B1, MS_32},
    {NOTE_B1, MS_64},
    {NOTE_B1, MS_16},
    {NOTE_DS3, MS_64},
    {NOTE_B1, MS_64},
    {NOTE_B1, MS_16},
    {NOTE_AS4, MS_32},
    {NOTE_AS4, MS_64},
    {NOTE_B1, MS_64},
    {NOTE_B1, MS_Q},
    {NOTE_B1, MS_64},
    {NOTE_B1, MS_64},
    {NOTE_B1, MS_16},
    {NOTE_B1, MS_64},
    {NOTE_B1, MS_Q},
    {NOTE_B1, MS_64},
    {NOTE_B1, MS_16},
    {NOTE_B1, MS_64},
    {NOTE_GS3, MS_32},
    {NOTE_B1, MS_32},
    {NOTE_B1, MS_64},
    {NOTE_B1, MS_16},
    {NOTE_B1, MS_32},
    {NOTE_B1, MS_64},
    {NOTE_B1, MS_16},
    {NOTE_B1, MS_Q},
    {NOTE_DS3, MS_64},
    {NOTE_B1, MS_64},
    {NOTE_B1, MS_16},
    {NOTE_B1, MS_64},
    {NOTE_G3, MS_32},
    {NOTE_B1, MS_Q},
    {NOTE_B1, MS_64},
    {NOTE_B1, MS_64},
    {NOTE_B1, MS_16},
    {NOTE_B1, MS_64},
    {NOTE_B1, MS_Q},
    {NOTE_B1, MS_64},
    {NOTE_B1, MS_64},
    {NOTE_B1, MS_32},
    {NOTE_B1, MS_64},
    {NOTE_FS3, MS_32},
    {NOTE_B1, MS_64},
    {NOTE_B1, MS_64},
    {NOTE_B1, MS_64},
    {NOTE_B1, MS_Q},
    {NOTE_B1, MS_64},
    {NOTE_B1, MS_32},
    {NOTE_B1, MS_16},
    {NOTE_B1, MS_32},
    {NOTE_B1, MS_16},
    {NOTE_B1, MS_64},
    {NOTE_B1, MS_32},
    {NOTE_B1, MS_32},
    {NOTE_B1, MS_64},
    {NOTE_B1, MS_64},
    {NOTE_F3, MS_64},
    {NOTE_B1, MS_Q},
    {NOTE_B1, MS_64},
    {NOTE_B1, MS_64},
    {NOTE_B1, MS_16},
    {NOTE_B1, MS_32},
    {NOTE_B1, MS_16},
    {NOTE_DS3, MS_32},
    {NOTE_DS3, MS_64},
    {NOTE_B1, MS_64},
    {NOTE_B1, MS_64},
    {NOTE_B1, MS_32},
    {NOTE_B1, MS_32},
    {NOTE_F3, MS_32},
    {NOTE_B1, MS_64},
    {NOTE_B1, MS_16},
    {NOTE_B1, MS_32},
    {NOTE_B1, MS_32},
    {NOTE_B1, MS_64},
    {NOTE_B1, MS_16},
    {NOTE_B1, MS_32},
    {NOTE_B1, MS_Q},
    {NOTE_B1, MS_32},
    {NOTE_B1, MS_32},
    {NOTE_B1, MS_64},
    {NOTE_B1, MS_32},
    {NOTE_B1, MS_64},
    {NOTE_B1, MS_Q},
    {NOTE_B1, MS_64},
    {NOTE_B1, MS_16},
    {NOTE_B1, MS_32},
    {NOTE_B1, MS_64},
    {NOTE_B1, MS_16},
    {NOTE_B1, MS_32},
    {NOTE_B1, MS_64},
    {NOTE_B1, MS_32},
    {NOTE_B1, MS_64},
    {NOTE_B1, MS_32},
    {NOTE_B1, MS_32},
    {NOTE_B1, MS_Q},
    {NOTE_B1, MS_64},
    {NOTE_B1, MS_16},
    {NOTE_B1, MS_32},
    {NOTE_B1, MS_32},
    {NOTE_B1, MS_64},
    {NOTE_B1, MS_Q},
    {NOTE_AS1, MS_Q},
    {NOTE_AS1, MS_64},
    {NOTE_AS1, MS_64},
    {NOTE_A1, MS_64},
    {NOTE_A1, MS_64},
    {NOTE_A1, MS_64},
    {NOTE_A1, MS_Q},
    {NOTE_A1, MS_64},
    {NOTE_A1, MS_Q},
    {NOTE_A1, MS_64},
    {NOTE_A1, MS_Q},
    {NOTE_A1, MS_64},
    {NOTE_A1, MS_64},
    {NOTE_A1, MS_16},
    {NOTE_C3, MS_32},
    {NOTE_C3, MS_64},
    {NOTE_AS2, MS_64},
    {NOTE_AS2, MS_64},
    {NOTE_AS2, MS_64},
    {NOTE_AS2, MS_Q},
    {NOTE_AS2, MS_64},
    {NOTE_AS2, MS_16},
    {NOTE_AS2, MS_16},
    {NOTE_A2, MS_64},
    {NOTE_A2, MS_64},
    {NOTE_A2, MS_Q},
    {NOTE_A2, MS_32},
    {NOTE_A2, MS_32},
    {NOTE_A2, MS_Q},
    {NOTE_A2, MS_32},
    {NOTE_A2, MS_64},
    {NOTE_GS2, MS_64},
    {NOTE_GS2, MS_DQ},
    {NOTE_GS2, MS_DQ},
    {NOTE_GS2, MS_64},
    {NOTE_GS2, MS_32},
    {NOTE_GS2, MS_32},
    {NOTE_G2, MS_32},
    {NOTE_G2, MS_32},
    {NOTE_G2, MS_H},
    {NOTE_G2, MS_DH},
    {NOTE_G2, MS_16},
    {NOTE_G2, MS_Q},
    {NOTE_F2, MS_64},
    {NOTE_F2, MS_64},
    {NOTE_F2, MS_64},
    {NOTE_F2, MS_64},
    {NOTE_F2, MS_64},
    {NOTE_F2, MS_W},
    {NOTE_F3, MS_64},
    {NOTE_A3, MS_64},
    {NOTE_C4, MS_H},
};

#define SONG_QUEEN___BOHEMIAN_RHAPSODY_MELODY_LEN (sizeof(song_queen___bohemian_rhapsody_melody) / sizeof(Step))
#define SONG_QUEEN___BOHEMIAN_RHAPSODY_HARMONY_LEN (sizeof(song_queen___bohemian_rhapsody_harmony) / sizeof(Step))
#define SONG_QUEEN___BOHEMIAN_RHAPSODY_BASS_LEN (sizeof(song_queen___bohemian_rhapsody_bass) / sizeof(Step))