// Auto-generated by midi_to_3motors.py v2
// Song: Tetris   A Theme
#pragma once
#include "../notes.h"
#include "../player.h"   // for Step typedef

// Duration uses standard macros (MS_Q, MS_H, etc.)
// MELODY
static const Step song_tetris___a_theme_melody[] = {
    {NOTE_E6, MS_16},
    {NOTE_E6, MS_64},
    {NOTE_E6, MS_16},
    {NOTE_E6, MS_64},
    {NOTE_B5, MS_16},
    {NOTE_B5, MS_64},
    {NOTE_C6, MS_16},
    {NOTE_C6, MS_64},
    {NOTE_D6, MS_16},
    {NOTE_D6, MS_64},
    {NOTE_E6, MS_32},
    {NOTE_B3, MS_32},
    {NOTE_C5, MS_16},
    {NOTE_C6, MS_64},
    {NOTE_B5, MS_16},
    {NOTE_B5, MS_64},
    {NOTE_A5, MS_16},
    {NOTE_A5, MS_64},
    {NOTE_A5, MS_16},
    {NOTE_A5, MS_64},
    {NOTE_A5, MS_16},
    {NOTE_A5, MS_64},
    {NOTE_C6, MS_16},
    {NOTE_C6, MS_64},
    {NOTE_E6, MS_16},
    {NOTE_E6, MS_64},
    {NOTE_E6, MS_16},
    {NOTE_E6, MS_64},
    {NOTE_D6, MS_16},
    {NOTE_D6, MS_64},
    {NOTE_C6, MS_16},
    {NOTE_C6, MS_64},
    {NOTE_B5, MS_16},
    {NOTE_B5, MS_64},
    {NOTE_B5, MS_16},
    {NOTE_B5, MS_64},
    {NOTE_B5, MS_16},
    {NOTE_B5, MS_64},
    {NOTE_C6, MS_16},
    {NOTE_C6, MS_64},
    {NOTE_D6, MS_16},
    {NOTE_D6, MS_64},
    {NOTE_D6, MS_16},
    {NOTE_D6, MS_64},
    {NOTE_E6, MS_16},
    {NOTE_E6, MS_64},
    {NOTE_E6, MS_16},
    {NOTE_E6, MS_64},
    {NOTE_C6, MS_16},
    {NOTE_C6, MS_64},
    {NOTE_C5, MS_16},
    {NOTE_C5, MS_64},
    {NOTE_A4, MS_16},
    {NOTE_A4, MS_64},
    {NOTE_A4, MS_16},
    {NOTE_A4, MS_64},
    {NOTE_A4, MS_16},
    {NOTE_A5, MS_64},
    {NOTE_A5, MS_16},
    {NOTE_A5, MS_64},
    {NOTE_A5, MS_32},
    {NOTE_B5, MS_32},
    {NOTE_C6, MS_32},
    {NOTE_D6, MS_32},
    {NOTE_E6, MS_16},
    {NOTE_E6, MS_64},
    {NOTE_D6, MS_16},
    {NOTE_D6, MS_64},
    {NOTE_D6, MS_16},
    {NOTE_D6, MS_64},
    {NOTE_F6, MS_16},
    {NOTE_F6, MS_64},
    {NOTE_A6, MS_16},
    {NOTE_A6, MS_64},
    {NOTE_A6, MS_16},
    {NOTE_A6, MS_64},
    {NOTE_G6, MS_16},
    {NOTE_G6, MS_64},
    {NOTE_F6, MS_16},
    {NOTE_F6, MS_64},
    {NOTE_E6, MS_16},
    {NOTE_E6, MS_64},
    {NOTE_E6, MS_16},
    {NOTE_E6, MS_16},
    {NOTE_E6, MS_64},
    {NOTE_C6, MS_16},
    {NOTE_C6, MS_64},
    {NOTE_E6, MS_16},
    {NOTE_E6, MS_64},
    {NOTE_E6, MS_16},
    {NOTE_E6, MS_64},
    {NOTE_D6, MS_16},
    {NOTE_D6, MS_64},
    {NOTE_C6, MS_16},
    {NOTE_C6, MS_64},
    {NOTE_B5, MS_16},
    {NOTE_B5, MS_64},
    {NOTE_B5, MS_16},
    {NOTE_B5, MS_16},
    {NOTE_B5, MS_64},
    {NOTE_C6, MS_16},
    {NOTE_C6, MS_64},
    {NOTE_D6, MS_16},
    {NOTE_D6, MS_64},
    {NOTE_D6, MS_16},
    {NOTE_D6, MS_64},
    {NOTE_E6, MS_16},
    {NOTE_E6, MS_64},
    {NOTE_E6, MS_16},
    {NOTE_E6, MS_64},
    {NOTE_C6, MS_16},
    {NOTE_C6, MS_64},
    {NOTE_C6, MS_16},
    {NOTE_C6, MS_64},
    {NOTE_A5, MS_16},
    {NOTE_A5, MS_64},
    {NOTE_A5, MS_16},
    {NOTE_A5, MS_64},
    {NOTE_A5, MS_16},
    {NOTE_A5, MS_64},
    {NOTE_A5, MS_16},
    {NOTE_A5, MS_64},
    {NOTE_E3, MS_32},
    {NOTE_D3, MS_32},
    {NOTE_C3, MS_32},
    {NOTE_B2, MS_32},
    {NOTE_E2, MS_16},
    {NOTE_E2, MS_64},
    {NOTE_E3, MS_16},
    {NOTE_B3, MS_64},
    {NOTE_E2, MS_16},
    {NOTE_E2, MS_64},
    {NOTE_E3, MS_16},
    {NOTE_B3, MS_64},
    {NOTE_E2, MS_16},
    {NOTE_E2, MS_64},
    {NOTE_E3, MS_32},
    {NOTE_E3, MS_32},
    {NOTE_E2, MS_16},
    {NOTE_E2, MS_64},
    {NOTE_E3, MS_16},
    {NOTE_B3, MS_64},
    {NOTE_A2, MS_16},
    {NOTE_A2, MS_64},
    {NOTE_E3, MS_16},
    {NOTE_C4, MS_64},
    {NOTE_A2, MS_16},
    {NOTE_A2, MS_64},
    {NOTE_C3, MS_16},
    {NOTE_A3, MS_64},
    {NOTE_A2, MS_16},
    {NOTE_A2, MS_64},
    {NOTE_E3, MS_16},
    {NOTE_C4, MS_64},
    {NOTE_A2, MS_16},
    {NOTE_A2, MS_64},
    {NOTE_A3, MS_16},
    {NOTE_E4, MS_64},
    {NOTE_B5, MS_16},
    {NOTE_B5, MS_64},
    {NOTE_B5, MS_16},
    {NOTE_B5, MS_64},
    {NOTE_B5, MS_16},
    {NOTE_B6, MS_64},
    {NOTE_C7, MS_16},
    {NOTE_C7, MS_64},
    {NOTE_D7, MS_16},
    {NOTE_D7, MS_64},
    {NOTE_D7, MS_16},
    {NOTE_D7, MS_64},
    {NOTE_E7, MS_16},
    {NOTE_E7, MS_64},
    {NOTE_E7, MS_16},
    {NOTE_E7, MS_64},
    {NOTE_C7, MS_16},
    {NOTE_C7, MS_64},
    {NOTE_C7, MS_16},
    {NOTE_C7, MS_64},
    {NOTE_A6, MS_16},
    {NOTE_A6, MS_64},
    {NOTE_A6, MS_16},
    {NOTE_A6, MS_64},
    {NOTE_A6, MS_16},
    {NOTE_A6, MS_64},
    {NOTE_A6, MS_16},
    {NOTE_A6, MS_32},
    {NOTE_B6, MS_32},
    {NOTE_C7, MS_32},
    {NOTE_D7, MS_32},
    {NOTE_E7, MS_16},
    {NOTE_E7, MS_64},
    {NOTE_D7, MS_16},
    {NOTE_D7, MS_64},
    {NOTE_D7, MS_16},
    {NOTE_D7, MS_64},
    {NOTE_F7, MS_16},
    {NOTE_F7, MS_64},
    {NOTE_A7, MS_16},
    {NOTE_A7, MS_64},
    {NOTE_A7, MS_16},
    {NOTE_A7, MS_64},
    {NOTE_G7, MS_16},
    {NOTE_G7, MS_64},
    {NOTE_F7, MS_16},
    {NOTE_F7, MS_64},
    {NOTE_E7, MS_16},
    {NOTE_E7, MS_64},
    {NOTE_E7, MS_16},
    {NOTE_E7, MS_16},
    {NOTE_E7, MS_64},
    {NOTE_C7, MS_16},
    {NOTE_C7, MS_64},
    {NOTE_E7, MS_16},
    {NOTE_E7, MS_64},
    {NOTE_E7, MS_16},
    {NOTE_E7, MS_64},
    {NOTE_D7, MS_16},
    {NOTE_D7, MS_64},
    {NOTE_C7, MS_16},
    {NOTE_C7, MS_64},
    {NOTE_B6, MS_16},
    {NOTE_B6, MS_64},
    {NOTE_B6, MS_16},
    {NOTE_B6, MS_16},
    {NOTE_B6, MS_64},
    {NOTE_C7, MS_16},
    {NOTE_C7, MS_64},
    {NOTE_D7, MS_16},
    {NOTE_D7, MS_64},
    {NOTE_D7, MS_16},
    {NOTE_D7, MS_64},
    {NOTE_E7, MS_16},
    {NOTE_E7, MS_64},
    {NOTE_E7, MS_16},
    {NOTE_E7, MS_64},
    {NOTE_C7, MS_16},
    {NOTE_C7, MS_64},
    {NOTE_C7, MS_16},
    {NOTE_C7, MS_64},
    {NOTE_A6, MS_16},
    {NOTE_A6, MS_64},
    {NOTE_A6, MS_16},
    {NOTE_A6, MS_64},
    {NOTE_A6, MS_16},
    {NOTE_A6, MS_64},
    {NOTE_A6, MS_16},
    {NOTE_A6, MS_64},
    {NOTE_A1, MS_Q},
    {NOTE_E3, MS_32},
    {NOTE_E3, MS_32},
    {NOTE_E3, MS_32},
    {NOTE_E3, MS_32},
    {NOTE_E3, MS_32},
    {NOTE_E3, MS_32},
    {NOTE_E3, MS_32},
    {NOTE_E3, MS_32},
    {NOTE_E3, MS_32},
    {NOTE_E3, MS_32},
    {NOTE_E3, MS_32},
    {NOTE_E3, MS_32},
    {NOTE_E3, MS_32},
    {NOTE_E3, MS_32},
    {NOTE_E3, MS_32},
    {NOTE_E3, MS_32},
    {NOTE_E6, MS_32},
    {NOTE_GS5, MS_32},
    {NOTE_GS6, MS_32},
    {NOTE_GS5, MS_32},
    {NOTE_D6, MS_32},
    {NOTE_GS5, MS_32},
    {NOTE_GS6, MS_32},
    {NOTE_GS5, MS_32},
    {NOTE_E6, MS_32},
    {NOTE_GS5, MS_32},
    {NOTE_GS6, MS_32},
    {NOTE_GS5, MS_32},
    {NOTE_B5, MS_32},
    {NOTE_GS5, MS_32},
    {NOTE_GS6, MS_32},
    {NOTE_GS5, MS_32},
    {NOTE_E6, MS_32},
    {NOTE_A5, MS_32},
    {NOTE_A6, MS_32},
    {NOTE_A5, MS_32},
    {NOTE_C6, MS_32},
    {NOTE_A5, MS_32},
    {NOTE_A6, MS_32},
    {NOTE_A5, MS_32},
    {NOTE_E6, MS_32},
    {NOTE_A5, MS_32},
    {NOTE_A6, MS_32},
    {NOTE_A5, MS_32},
    {NOTE_C6, MS_32},
    {NOTE_A5, MS_32},
    {NOTE_A6, MS_32},
    {NOTE_A5, MS_32},
    {NOTE_E6, MS_32},
    {NOTE_GS5, MS_32},
    {NOTE_GS6, MS_32},
    {NOTE_GS5, MS_32},
    {NOTE_D6, MS_32},
    {NOTE_GS5, MS_32},
    {NOTE_GS6, MS_32},
    {NOTE_GS5, MS_32},
    {NOTE_E6, MS_32},
    {NOTE_GS5, MS_32},
    {NOTE_GS6, MS_32},
    {NOTE_GS6, MS_32},
    {NOTE_GS7, MS_32},
    {NOTE_GS6, MS_32},
    {NOTE_GS6, MS_32},
    {NOTE_GS5, MS_32},
    {NOTE_E6, MS_32},
    {NOTE_A5, MS_32},
    {NOTE_A6, MS_32},
    {NOTE_A5, MS_32},
    {NOTE_C6, MS_32},
    {NOTE_A5, MS_32},
    {NOTE_A6, MS_32},
    {NOTE_A5, MS_32},
    {NOTE_E6, MS_32},
    {NOTE_A5, MS_32},
    {NOTE_A6, MS_32},
    {NOTE_A5, MS_32},
    {NOTE_C6, MS_32},
    {NOTE_A5, MS_32},
    {NOTE_A6, MS_32},
    {NOTE_A5, MS_32},
    {NOTE_E6, MS_32},
    {NOTE_GS5, MS_32},
    {NOTE_GS6, MS_32},
    {NOTE_GS5, MS_32},
    {NOTE_D6, MS_32},
    {NOTE_GS5, MS_32},
    {NOTE_GS6, MS_32},
    {NOTE_GS5, MS_32},
    {NOTE_E6, MS_32},
    {NOTE_GS5, MS_32},
    {NOTE_GS6, MS_32},
    {NOTE_GS5, MS_32},
    {NOTE_B5, MS_32},
    {NOTE_GS5, MS_32},
    {NOTE_GS6, MS_32},
    {NOTE_GS5, MS_32},
    {NOTE_E6, MS_32},
    {NOTE_A5, MS_32},
    {NOTE_A6, MS_32},
    {NOTE_A5, MS_32},
    {NOTE_C6, MS_32},
    {NOTE_A5, MS_32},
    {NOTE_A6, MS_32},
    {NOTE_A5, MS_32},
    {NOTE_E6, MS_32},
    {NOTE_A5, MS_32},
    {NOTE_A4, MS_32},
    {NOTE_A4, MS_32},
    {NOTE_A4, MS_32},
    {NOTE_A4, MS_32},
    {NOTE_A4, MS_32},
    {NOTE_A4, MS_32},
    {NOTE_E6, MS_32},
    {NOTE_GS5, MS_32},
    {NOTE_GS4, MS_32},
    {NOTE_GS4, MS_32},
    {NOTE_GS4, MS_32},
    {NOTE_GS4, MS_32},
    {NOTE_GS4, MS_32},
    {NOTE_GS4, MS_32},
    {NOTE_E6, MS_32},
    {NOTE_GS5, MS_32},
    {NOTE_GS6, MS_32},
    {NOTE_GS6, MS_32},
    {NOTE_A6, MS_64},
    {NOTE_G6, MS_64},
    {NOTE_F6, MS_64},
    {NOTE_E6, MS_64},
    {NOTE_D6, MS_64},
    {NOTE_C6, MS_64},
    {NOTE_B5, MS_64},
    {NOTE_A5, MS_64},
    {NOTE_G5, MS_64},
    {NOTE_F5, MS_64},
    {NOTE_E5, MS_16},
    {NOTE_E5, MS_64},
    {NOTE_E5, MS_16},
    {NOTE_E6, MS_64},
    {NOTE_B5, MS_16},
    {NOTE_B5, MS_64},
    {NOTE_C6, MS_16},
    {NOTE_C6, MS_64},
    {NOTE_D6, MS_16},
    {NOTE_D6, MS_64},
    {NOTE_E6, MS_32},
    {NOTE_B3, MS_32},
    {NOTE_C5, MS_16},
    {NOTE_C6, MS_64},
    {NOTE_B5, MS_16},
    {NOTE_B5, MS_64},
    {NOTE_A5, MS_16},
    {NOTE_A5, MS_64},
    {NOTE_A5, MS_16},
    {NOTE_A5, MS_64},
    {NOTE_A5, MS_16},
    {NOTE_A5, MS_64},
    {NOTE_C6, MS_16},
    {NOTE_C6, MS_64},
    {NOTE_E6, MS_16},
    {NOTE_E6, MS_64},
    {NOTE_E6, MS_16},
    {NOTE_E6, MS_64},
    {NOTE_D6, MS_16},
    {NOTE_D6, MS_64},
    {NOTE_C6, MS_16},
    {NOTE_C6, MS_64},
    {NOTE_B5, MS_16},
    {NOTE_B5, MS_64},
    {NOTE_B5, MS_16},
    {NOTE_B5, MS_64},
    {NOTE_B5, MS_16},
    {NOTE_B5, MS_64},
    {NOTE_C6, MS_16},
    {NOTE_C6, MS_64},
    {NOTE_D6, MS_16},
    {NOTE_D6, MS_64},
    {NOTE_D6, MS_16},
    {NOTE_D6, MS_64},
    {NOTE_E6, MS_16},
    {NOTE_E6, MS_64},
    {NOTE_E6, MS_16},
    {NOTE_E6, MS_64},
    {NOTE_C6, MS_16},
    {NOTE_C6, MS_64},
    {NOTE_C5, MS_16},
    {NOTE_C5, MS_64},
    {NOTE_A4, MS_16},
    {NOTE_A4, MS_64},
    {NOTE_A4, MS_16},
    {NOTE_A4, MS_64},
    {NOTE_A4, MS_16},
    {NOTE_A5, MS_64},
    {NOTE_A5, MS_16},
    {NOTE_A5, MS_64},
    {NOTE_A5, MS_32},
    {NOTE_B5, MS_32},
    {NOTE_C6, MS_32},
    {NOTE_D6, MS_32},
    {NOTE_E6, MS_16},
    {NOTE_E6, MS_64},
    {NOTE_D6, MS_16},
    {NOTE_D6, MS_64},
    {NOTE_D6, MS_16},
    {NOTE_D6, MS_64},
    {NOTE_F6, MS_16},
    {NOTE_F6, MS_64},
    {NOTE_A6, MS_16},
    {NOTE_A6, MS_64},
    {NOTE_A6, MS_16},
    {NOTE_A6, MS_64},
    {NOTE_G6, MS_16},
    {NOTE_G6, MS_64},
    {NOTE_F6, MS_16},
    {NOTE_F6, MS_64},
    {NOTE_E6, MS_16},
    {NOTE_E6, MS_64},
    {NOTE_E6, MS_16},
    {NOTE_E6, MS_16},
    {NOTE_E6, MS_64},
    {NOTE_C6, MS_16},
    {NOTE_C6, MS_64},
    {NOTE_E6, MS_16},
    {NOTE_E6, MS_64},
    {NOTE_E6, MS_16},
    {NOTE_E6, MS_64},
    {NOTE_D6, MS_16},
    {NOTE_D6, MS_64},
    {NOTE_C6, MS_16},
    {NOTE_C6, MS_64},
    {NOTE_B5, MS_16},
    {NOTE_B5, MS_64},
    {NOTE_B5, MS_16},
    {NOTE_B5, MS_16},
    {NOTE_B5, MS_64},
    {NOTE_C6, MS_16},
    {NOTE_C6, MS_64},
    {NOTE_D6, MS_16},
    {NOTE_D6, MS_64},
    {NOTE_D6, MS_16},
    {NOTE_D6, MS_64},
    {NOTE_E6, MS_16},
    {NOTE_E6, MS_64},
    {NOTE_E6, MS_16},
    {NOTE_E6, MS_64},
    {NOTE_C6, MS_16},
    {NOTE_C6, MS_64},
    {NOTE_C6, MS_16},
    {NOTE_C6, MS_64},
    {NOTE_A5, MS_16},
    {NOTE_A5, MS_64},
    {NOTE_A5, MS_16},
    {NOTE_A5, MS_64},
    {NOTE_A5, MS_16},
    {NOTE_A5, MS_64},
    {NOTE_A5, MS_16},
    {NOTE_A5, MS_64},
    {NOTE_E3, MS_32},
    {NOTE_D3, MS_32},
    {NOTE_C3, MS_32},
    {NOTE_B2, MS_32},
    {NOTE_E2, MS_16},
    {NOTE_E2, MS_64},
    {NOTE_E3, MS_16},
    {NOTE_B3, MS_64},
    {NOTE_E2, MS_16},
    {NOTE_E2, MS_64},
    {NOTE_E3, MS_16},
    {NOTE_B3, MS_64},
    {NOTE_E2, MS_16},
    {NOTE_E2, MS_64},
    {NOTE_E3, MS_32},
    {NOTE_E3, MS_32},
    {NOTE_E2, MS_16},
    {NOTE_E2, MS_64},
    {NOTE_E3, MS_16},
    {NOTE_B3, MS_64},
    {NOTE_A2, MS_16},
    {NOTE_A2, MS_64},
    {NOTE_E3, MS_16},
    {NOTE_C4, MS_64},
    {NOTE_A2, MS_16},
    {NOTE_A2, MS_64},
    {NOTE_C3, MS_16},
    {NOTE_A3, MS_64},
    {NOTE_A2, MS_16},
    {NOTE_A2, MS_64},
    {NOTE_E3, MS_16},
    {NOTE_C4, MS_64},
    {NOTE_A2, MS_16},
    {NOTE_A2, MS_64},
    {NOTE_A3, MS_16},
    {NOTE_E4, MS_64},
    {NOTE_B5, MS_16},
    {NOTE_B5, MS_64},
    {NOTE_B5, MS_16},
    {NOTE_B5, MS_64},
    {NOTE_B5, MS_16},
    {NOTE_B6, MS_64},
    {NOTE_C7, MS_16},
    {NOTE_C7, MS_64},
    {NOTE_D7, MS_16},
    {NOTE_D7, MS_64},
    {NOTE_D7, MS_16},
    {NOTE_D7, MS_64},
    {NOTE_E7, MS_16},
    {NOTE_E7, MS_64},
    {NOTE_E7, MS_16},
    {NOTE_E7, MS_64},
    {NOTE_C7, MS_16},
    {NOTE_C7, MS_64},
    {NOTE_C7, MS_16},
    {NOTE_C7, MS_64},
    {NOTE_A6, MS_16},
    {NOTE_A6, MS_64},
    {NOTE_A6, MS_16},
    {NOTE_A6, MS_64},
    {NOTE_A6, MS_16},
    {NOTE_A6, MS_64},
    {NOTE_A6, MS_16},
    {NOTE_A6, MS_32},
    {NOTE_B6, MS_32},
    {NOTE_C7, MS_32},
    {NOTE_D7, MS_32},
    {NOTE_E7, MS_16},
    {NOTE_E7, MS_64},
    {NOTE_D7, MS_16},
    {NOTE_D7, MS_64},
    {NOTE_D7, MS_16},
    {NOTE_D7, MS_64},
    {NOTE_F7, MS_16},
    {NOTE_F7, MS_64},
    {NOTE_A7, MS_16},
    {NOTE_A7, MS_64},
    {NOTE_A7, MS_16},
    {NOTE_A7, MS_64},
    {NOTE_G7, MS_16},
    {NOTE_G7, MS_64},
    {NOTE_F7, MS_16},
    {NOTE_F7, MS_64},
    {NOTE_E7, MS_16},
    {NOTE_E7, MS_64},
    {NOTE_E7, MS_16},
    {NOTE_E7, MS_16},
    {NOTE_E7, MS_64},
    {NOTE_C7, MS_16},
    {NOTE_C7, MS_64},
    {NOTE_E7, MS_16},
    {NOTE_E7, MS_64},
    {NOTE_E7, MS_16},
    {NOTE_E7, MS_64},
    {NOTE_D7, MS_16},
    {NOTE_D7, MS_64},
    {NOTE_C7, MS_16},
    {NOTE_C7, MS_64},
    {NOTE_B6, MS_16},
    {NOTE_B6, MS_64},
    {NOTE_B6, MS_16},
    {NOTE_B6, MS_16},
    {NOTE_B6, MS_64},
    {NOTE_C7, MS_16},
    {NOTE_C7, MS_64},
    {NOTE_D7, MS_16},
    {NOTE_D7, MS_64},
    {NOTE_D7, MS_16},
    {NOTE_D7, MS_64},
    {NOTE_E7, MS_16},
    {NOTE_E7, MS_64},
    {NOTE_E7, MS_16},
    {NOTE_E7, MS_64},
    {NOTE_C7, MS_16},
    {NOTE_C7, MS_64},
    {NOTE_C7, MS_16},
    {NOTE_C7, MS_64},
    {NOTE_A6, MS_16},
    {NOTE_A6, MS_64},
    {NOTE_A6, MS_16},
    {NOTE_A6, MS_64},
    {NOTE_A6, MS_16},
    {NOTE_A6, MS_64},
    {NOTE_A6, MS_64},
    {NOTE_A5, MS_64},
    {NOTE_A5, MS_64},
    {NOTE_A5, MS_64},
    {NOTE_A6, MS_Q},
    {NOTE_A5, MS_32},
    {NOTE_C6, MS_32},
    {NOTE_E6, MS_32},
    {NOTE_A6, MS_32},
    {NOTE_C7, MS_32},
    {NOTE_A6, MS_32},
    {NOTE_E6, MS_32},
    {NOTE_C6, MS_32},
    {NOTE_A5, MS_32},
    {NOTE_C6, MS_32},
    {NOTE_E6, MS_32},
    {NOTE_A6, MS_32},
    {NOTE_C7, MS_32},
    {NOTE_A6, MS_32},
    {NOTE_E6, MS_32},
    {NOTE_C6, MS_32},
    {NOTE_GS5, MS_32},
    {NOTE_B5, MS_32},
    {NOTE_D6, MS_32},
    {NOTE_E6, MS_32},
    {NOTE_GS6, MS_32},
    {NOTE_B6, MS_32},
    {NOTE_GS6, MS_32},
    {NOTE_E6, MS_32},
    {NOTE_B5, MS_32},
    {NOTE_GS5, MS_32},
    {NOTE_B5, MS_32},
    {NOTE_E6, MS_32},
    {NOTE_GS6, MS_32},
    {NOTE_B6, MS_32},
    {NOTE_GS6, MS_32},
    {NOTE_E6, MS_32},
    {NOTE_A5, MS_32},
    {NOTE_C6, MS_32},
    {NOTE_E6, MS_32},
    {NOTE_A6, MS_32},
    {NOTE_C7, MS_32},
    {NOTE_A6, MS_32},
    {NOTE_E6, MS_32},
    {NOTE_C6, MS_32},
    {NOTE_A5, MS_32},
    {NOTE_C6, MS_32},
    {NOTE_E6, MS_32},
    {NOTE_A6, MS_32},
    {NOTE_C7, MS_32},
    {NOTE_A6, MS_32},
    {NOTE_E6, MS_32},
    {NOTE_C6, MS_32},
    {NOTE_GS5, MS_32},
    {NOTE_GS4, MS_32},
    {NOTE_GS3, MS_32},
    {NOTE_GS3, MS_32},
    {NOTE_E2, MS_32},
    {NOTE_E2, MS_32},
    {NOTE_E2, MS_32},
    {NOTE_E2, MS_32},
    {NOTE_B2, MS_32},
    {NOTE_B2, MS_32},
    {NOTE_B2, MS_32},
    {NOTE_B2, MS_32},
    {NOTE_E3, MS_32},
    {NOTE_E3, MS_32},
    {NOTE_E3, MS_32},
    {NOTE_E3, MS_32},
    {NOTE_A5, MS_32},
    {NOTE_A4, MS_32},
    {NOTE_E4, MS_32},
    {NOTE_E4, MS_32},
    {NOTE_A6, MS_32},
    {NOTE_A5, MS_32},
    {NOTE_A6, MS_32},
    {NOTE_A6, MS_32},
    {NOTE_A7, MS_32},
    {NOTE_A6, MS_32},
    {NOTE_A6, MS_32},
    {NOTE_A5, MS_32},
    {NOTE_A5, MS_32},
    {NOTE_A4, MS_32},
    {NOTE_A5, MS_32},
    {NOTE_A4, MS_32},
    {NOTE_E5, MS_32},
    {NOTE_E4, MS_32},
    {NOTE_B3, MS_32},
    {NOTE_B3, MS_32},
    {NOTE_E6, MS_32},
    {NOTE_E5, MS_32},
    {NOTE_E6, MS_32},
    {NOTE_E6, MS_32},
    {NOTE_B6, MS_32},
    {NOTE_B5, MS_32},
    {NOTE_B5, MS_32},
    {NOTE_B4, MS_32},
    {NOTE_B5, MS_32},
    {NOTE_E6, MS_32},
    {NOTE_E5, MS_32},
    {NOTE_E6, MS_32},
    {NOTE_A6, MS_32},
    {NOTE_GS6, MS_32},
    {NOTE_A6, MS_32},
    {NOTE_GS6, MS_32},
    {NOTE_A6, MS_32},
    {NOTE_GS6, MS_32},
    {NOTE_A6, MS_32},
    {NOTE_GS6, MS_32},
    {NOTE_A6, MS_32},
    {NOTE_GS6, MS_32},
    {NOTE_A6, MS_32},
    {NOTE_GS6, MS_32},
    {NOTE_A6, MS_32},
    {NOTE_GS6, MS_32},
    {NOTE_A6, MS_32},
    {NOTE_GS6, MS_32},
    {NOTE_A6, MS_32},
    {NOTE_E6, MS_32},
    {NOTE_E6, MS_64},
    {NOTE_C6, MS_32},
    {NOTE_A5, MS_32},
    {NOTE_A5, MS_64},
    {NOTE_C6, MS_32},
    {NOTE_A5, MS_32},
    {NOTE_A5, MS_64},
    {NOTE_C6, MS_32},
    {NOTE_E6, MS_32},
    {NOTE_E6, MS_64},
    {NOTE_C6, MS_32},
    {NOTE_A5, MS_32},
    {NOTE_A5, MS_64},
    {NOTE_E5, MS_32},
    {NOTE_C5, MS_32},
    {NOTE_C5, MS_64},
    {NOTE_E5, MS_32},
    {NOTE_C5, MS_32},
    {NOTE_C5, MS_64},
    {NOTE_A4, MS_32},
    {NOTE_E4, MS_32},
    {NOTE_REST, MS_64},
    {NOTE_E5, MS_32},
    {NOTE_E5, MS_32},
    {NOTE_E5, MS_32},
    {NOTE_E5, MS_32},
    {NOTE_B4, MS_32},
    {NOTE_B4, MS_32},
    {NOTE_C6, MS_32},
    {NOTE_C6, MS_32},
    {NOTE_D6, MS_32},
    {NOTE_D6, MS_32},
    {NOTE_E6, MS_32},
    {NOTE_D6, MS_32},
    {NOTE_C6, MS_32},
    {NOTE_C6, MS_32},
    {NOTE_B5, MS_32},
    {NOTE_B5, MS_32},
    {NOTE_A5, MS_32},
    {NOTE_A5, MS_32},
    {NOTE_C5, MS_32},
    {NOTE_C5, MS_32},
    {NOTE_C5, MS_32},
    {NOTE_C5, MS_32},
    {NOTE_C5, MS_32},
    {NOTE_C5, MS_32},
    {NOTE_E5, MS_32},
    {NOTE_E5, MS_32},
    {NOTE_E5, MS_32},
    {NOTE_E5, MS_32},
    {NOTE_D5, MS_32},
    {NOTE_D5, MS_32},
    {NOTE_C6, MS_32},
    {NOTE_C6, MS_32},
    {NOTE_B5, MS_32},
    {NOTE_B5, MS_32},
    {NOTE_B4, MS_32},
    {NOTE_B4, MS_32},
    {NOTE_B4, MS_32},
    {NOTE_B4, MS_32},
    {NOTE_E5, MS_32},
    {NOTE_E5, MS_32},
    {NOTE_G5, MS_32},
    {NOTE_G5, MS_32},
    {NOTE_D5, MS_32},
    {NOTE_D5, MS_32},
    {NOTE_E5, MS_32},
    {NOTE_E5, MS_32},
    {NOTE_E5, MS_32},
    {NOTE_E5, MS_32},
    {NOTE_E5, MS_32},
    {NOTE_E5, MS_32},
    {NOTE_A4, MS_32},
    {NOTE_A4, MS_32},
    {NOTE_A4, MS_32},
    {NOTE_A4, MS_32},
    {NOTE_A4, MS_32},
    {NOTE_A4, MS_32},
    {NOTE_A4, MS_32},
    {NOTE_A4, MS_32},
    {NOTE_A4, MS_32},
    {NOTE_A4, MS_32},
    {NOTE_A4, MS_32},
    {NOTE_B4, MS_32},
    {NOTE_C5, MS_32},
    {NOTE_D5, MS_32},
    {NOTE_C5, MS_32},
    {NOTE_C5, MS_32},
    {NOTE_D5, MS_32},
    {NOTE_D5, MS_32},
    {NOTE_D5, MS_32},
    {NOTE_D5, MS_32},
    {NOTE_F5, MS_32},
    {NOTE_F5, MS_32},
    {NOTE_F5, MS_32},
    {NOTE_F5, MS_32},
    {NOTE_F5, MS_32},
    {NOTE_F5, MS_32},
    {NOTE_G5, MS_32},
    {NOTE_G5, MS_32},
    {NOTE_F5, MS_32},
    {NOTE_F5, MS_32},
    {NOTE_E5, MS_32},
    {NOTE_E5, MS_32},
    {NOTE_E5, MS_32},
    {NOTE_E5, MS_32},
    {NOTE_A4, MS_32},
    {NOTE_A4, MS_32},
    {NOTE_A4, MS_32},
    {NOTE_A4, MS_32},
    {NOTE_A4, MS_32},
    {NOTE_A4, MS_32},
    {NOTE_A4, MS_32},
    {NOTE_A4, MS_32},
    {NOTE_D5, MS_32},
    {NOTE_D5, MS_32},
    {NOTE_C5, MS_32},
    {NOTE_C5, MS_32},
    {NOTE_B4, MS_32},
    {NOTE_B4, MS_32},
    {NOTE_B4, MS_32},
    {NOTE_B4, MS_32},
    {NOTE_B4, MS_32},
    {NOTE_B4, MS_32},
    {NOTE_C5, MS_32},
    {NOTE_C5, MS_32},
    {NOTE_D5, MS_32},
    {NOTE_D5, MS_32},
    {NOTE_D5, MS_32},
    {NOTE_D5, MS_32},
    {NOTE_C5, MS_32},
    {NOTE_C5, MS_32},
    {NOTE_C5, MS_32},
    {NOTE_C5, MS_32},
    {NOTE_C5, MS_32},
    {NOTE_C5, MS_32},
    {NOTE_C5, MS_32},
    {NOTE_C5, MS_32},
    {NOTE_C5, MS_32},
    {NOTE_C5, MS_32},
    {NOTE_C5, MS_32},
    {NOTE_C5, MS_32},
    {NOTE_C5, MS_32},
    {NOTE_C5, MS_32},
    {NOTE_C5, MS_32},
    {NOTE_C5, MS_32},
    {NOTE_A4, MS_32},
    {NOTE_B3, MS_32},
    {NOTE_C4, MS_32},
    {NOTE_D4, MS_32},
    {NOTE_C4, MS_16},
    {NOTE_C4, MS_64},
    {NOTE_D4, MS_16},
    {NOTE_D4, MS_64},
    {NOTE_D4, MS_16},
    {NOTE_A4, MS_64},
    {NOTE_F5, MS_16},
    {NOTE_A5, MS_64},
    {NOTE_A5, MS_16},
    {NOTE_A5, MS_16},
    {NOTE_A5, MS_64},
    {NOTE_G5, MS_16},
    {NOTE_G4, MS_64},
    {NOTE_F4, MS_16},
    {NOTE_F4, MS_64},
    {NOTE_E4, MS_16},
    {NOTE_E4, MS_64},
    {NOTE_E5, MS_16},
    {NOTE_E5, MS_16},
    {NOTE_E5, MS_64},
    {NOTE_C5, MS_16},
    {NOTE_C4, MS_64},
    {NOTE_C4, MS_Q},
    {NOTE_D4, MS_16},
    {NOTE_D4, MS_64},
    {NOTE_C4, MS_16},
    {NOTE_C4, MS_64},
    {NOTE_B3, MS_Q},
    {NOTE_B3, MS_16},
    {NOTE_B3, MS_64},
    {NOTE_C4, MS_16},
    {NOTE_C4, MS_64},
    {NOTE_D4, MS_Q},
    {NOTE_C4, MS_Q},
    {NOTE_C4, MS_Q},
    {NOTE_A3, MS_16},
    {NOTE_A3, MS_64},
    {NOTE_A3, MS_64},
    {NOTE_A3, MS_64},
    {NOTE_A2, MS_H},
};

// HARMONY
static const Step song_tetris___a_theme_harmony[] = {
    {NOTE_E5, MS_16},
    {NOTE_E5, MS_64},
    {NOTE_E5, MS_16},
    {NOTE_E5, MS_64},
    {NOTE_B4, MS_16},
    {NOTE_REST, MS_64},
    {NOTE_C5, MS_16},
    {NOTE_REST, MS_64},
    {NOTE_D5, MS_16},
    {NOTE_REST, MS_64},
    {NOTE_B3, MS_32},
    {NOTE_D6, MS_32},
    {NOTE_C6, MS_16},
    {NOTE_REST, MS_64},
    {NOTE_B4, MS_16},
    {NOTE_REST, MS_64},
    {NOTE_A4, MS_16},
    {NOTE_A4, MS_64},
    {NOTE_A4, MS_16},
    {NOTE_A4, MS_64},
    {NOTE_A4, MS_16},
    {NOTE_REST, MS_64},
    {NOTE_C5, MS_16},
    {NOTE_REST, MS_64},
    {NOTE_E5, MS_16},
    {NOTE_E5, MS_64},
    {NOTE_E5, MS_16},
    {NOTE_E5, MS_64},
    {NOTE_D5, MS_16},
    {NOTE_REST, MS_64},
    {NOTE_C5, MS_16},
    {NOTE_REST, MS_64},
    {NOTE_B4, MS_16},
    {NOTE_B4, MS_64},
    {NOTE_B4, MS_16},
    {NOTE_B4, MS_64},
    {NOTE_B4, MS_16},
    {NOTE_REST, MS_64},
    {NOTE_C5, MS_16},
    {NOTE_REST, MS_64},
    {NOTE_D5, MS_16},
    {NOTE_D5, MS_64},
    {NOTE_D5, MS_16},
    {NOTE_D5, MS_64},
    {NOTE_E5, MS_16},
    {NOTE_E5, MS_64},
    {NOTE_E5, MS_16},
    {NOTE_E5, MS_64},
    {NOTE_C5, MS_16},
    {NOTE_C5, MS_64},
    {NOTE_A4, MS_16},
    {NOTE_A4, MS_64},
    {NOTE_A5, MS_16},
    {NOTE_A5, MS_64},
    {NOTE_E5, MS_16},
    {NOTE_E5, MS_64},
    {NOTE_A5, MS_16},
    {NOTE_REST, MS_64},
    {NOTE_E5, MS_16},
    {NOTE_A4, MS_64},
    {NOTE_REST, MS_32},
    {NOTE_REST, MS_32},
    {NOTE_REST, MS_32},
    {NOTE_REST, MS_32},
    {NOTE_E5, MS_16},
    {NOTE_REST, MS_64},
    {NOTE_D5, MS_16},
    {NOTE_D5, MS_64},
    {NOTE_D5, MS_16},
    {NOTE_D5, MS_64},
    {NOTE_F5, MS_16},
    {NOTE_REST, MS_64},
    {NOTE_A5, MS_16},
    {NOTE_A5, MS_64},
    {NOTE_A5, MS_16},
    {NOTE_A5, MS_64},
    {NOTE_G5, MS_16},
    {NOTE_REST, MS_64},
    {NOTE_F5, MS_16},
    {NOTE_REST, MS_64},
    {NOTE_E5, MS_16},
    {NOTE_E5, MS_64},
    {NOTE_E5, MS_16},
    {NOTE_E5, MS_16},
    {NOTE_E5, MS_64},
    {NOTE_C5, MS_16},
    {NOTE_C4, MS_64},
    {NOTE_E5, MS_16},
    {NOTE_E5, MS_64},
    {NOTE_E5, MS_16},
    {NOTE_E5, MS_64},
    {NOTE_D5, MS_16},
    {NOTE_REST, MS_64},
    {NOTE_C5, MS_16},
    {NOTE_REST, MS_64},
    {NOTE_B4, MS_16},
    {NOTE_B4, MS_64},
    {NOTE_B4, MS_16},
    {NOTE_B4, MS_16},
    {NOTE_REST, MS_64},
    {NOTE_C5, MS_16},
    {NOTE_REST, MS_64},
    {NOTE_D5, MS_16},
    {NOTE_D5, MS_64},
    {NOTE_D5, MS_16},
    {NOTE_D5, MS_64},
    {NOTE_E5, MS_16},
    {NOTE_E5, MS_64},
    {NOTE_E5, MS_16},
    {NOTE_E5, MS_64},
    {NOTE_C5, MS_16},
    {NOTE_C5, MS_64},
    {NOTE_C5, MS_16},
    {NOTE_C5, MS_64},
    {NOTE_A4, MS_16},
    {NOTE_A4, MS_64},
    {NOTE_A4, MS_16},
    {NOTE_A4, MS_64},
    {NOTE_A4, MS_16},
    {NOTE_A4, MS_64},
    {NOTE_A4, MS_16},
    {NOTE_A4, MS_64},
    {NOTE_REST, MS_32},
    {NOTE_REST, MS_32},
    {NOTE_REST, MS_32},
    {NOTE_REST, MS_32},
    {NOTE_E7, MS_16},
    {NOTE_E7, MS_64},
    {NOTE_E7, MS_16},
    {NOTE_E7, MS_64},
    {NOTE_B6, MS_16},
    {NOTE_B6, MS_64},
    {NOTE_C7, MS_16},
    {NOTE_C7, MS_64},
    {NOTE_D7, MS_16},
    {NOTE_D7, MS_64},
    {NOTE_E7, MS_32},
    {NOTE_D7, MS_32},
    {NOTE_C7, MS_16},
    {NOTE_C7, MS_64},
    {NOTE_B6, MS_16},
    {NOTE_B6, MS_64},
    {NOTE_A6, MS_16},
    {NOTE_A6, MS_64},
    {NOTE_A6, MS_16},
    {NOTE_A6, MS_64},
    {NOTE_A6, MS_16},
    {NOTE_A6, MS_64},
    {NOTE_C7, MS_16},
    {NOTE_C7, MS_64},
    {NOTE_E7, MS_16},
    {NOTE_E7, MS_64},
    {NOTE_E7, MS_16},
    {NOTE_E7, MS_64},
    {NOTE_D7, MS_16},
    {NOTE_D7, MS_64},
    {NOTE_C7, MS_16},
    {NOTE_C7, MS_64},
    {NOTE_B6, MS_16},
    {NOTE_B6, MS_64},
    {NOTE_B6, MS_16},
    {NOTE_B6, MS_64},
    {NOTE_B6, MS_16},
    {NOTE_REST, MS_64},
    {NOTE_C6, MS_16},
    {NOTE_REST, MS_64},
    {NOTE_D6, MS_16},
    {NOTE_D6, MS_64},
    {NOTE_D6, MS_16},
    {NOTE_D6, MS_64},
    {NOTE_E6, MS_16},
    {NOTE_E6, MS_64},
    {NOTE_E6, MS_16},
    {NOTE_E6, MS_64},
    {NOTE_C6, MS_16},
    {NOTE_C6, MS_64},
    {NOTE_C6, MS_16},
    {NOTE_C6, MS_64},
    {NOTE_A5, MS_16},
    {NOTE_A5, MS_64},
    {NOTE_A5, MS_16},
    {NOTE_A5, MS_64},
    {NOTE_A5, MS_16},
    {NOTE_A5, MS_64},
    {NOTE_A5, MS_16},
    {NOTE_REST, MS_32},
    {NOTE_REST, MS_32},
    {NOTE_REST, MS_32},
    {NOTE_REST, MS_32},
    {NOTE_E6, MS_16},
    {NOTE_REST, MS_64},
    {NOTE_D6, MS_16},
    {NOTE_D6, MS_64},
    {NOTE_D6, MS_16},
    {NOTE_D6, MS_64},
    {NOTE_F6, MS_16},
    {NOTE_REST, MS_64},
    {NOTE_A6, MS_16},
    {NOTE_A6, MS_64},
    {NOTE_A6, MS_16},
    {NOTE_A6, MS_64},
    {NOTE_G6, MS_16},
    {NOTE_REST, MS_64},
    {NOTE_F6, MS_16},
    {NOTE_REST, MS_64},
    {NOTE_E6, MS_16},
    {NOTE_E6, MS_64},
    {NOTE_E6, MS_16},
    {NOTE_E6, MS_16},
    {NOTE_E6, MS_64},
    {NOTE_C6, MS_16},
    {NOTE_C4, MS_64},
    {NOTE_E6, MS_16},
    {NOTE_E6, MS_64},
    {NOTE_E6, MS_16},
    {NOTE_E6, MS_64},
    {NOTE_D6, MS_16},
    {NOTE_REST, MS_64},
    {NOTE_C6, MS_16},
    {NOTE_REST, MS_64},
    {NOTE_B5, MS_16},
    {NOTE_B5, MS_64},
    {NOTE_B5, MS_16},
    {NOTE_B5, MS_16},
    {NOTE_REST, MS_64},
    {NOTE_C6, MS_16},
    {NOTE_REST, MS_64},
    {NOTE_D6, MS_16},
    {NOTE_D6, MS_64},
    {NOTE_D6, MS_16},
    {NOTE_D6, MS_64},
    {NOTE_E6, MS_16},
    {NOTE_E6, MS_64},
    {NOTE_E6, MS_16},
    {NOTE_E6, MS_64},
    {NOTE_C6, MS_16},
    {NOTE_C6, MS_64},
    {NOTE_C6, MS_16},
    {NOTE_C6, MS_64},
    {NOTE_A5, MS_16},
    {NOTE_A5, MS_64},
    {NOTE_A5, MS_16},
    {NOTE_A5, MS_64},
    {NOTE_A5, MS_16},
    {NOTE_A5, MS_64},
    {NOTE_A5, MS_16},
    {NOTE_A5, MS_64},
    {NOTE_REST, MS_Q},
    {NOTE_E6, MS_32},
    {NOTE_A5, MS_32},
    {NOTE_A6, MS_32},
    {NOTE_A5, MS_32},
    {NOTE_C6, MS_32},
    {NOTE_A5, MS_32},
    {NOTE_A6, MS_32},
    {NOTE_A5, MS_32},
    {NOTE_E6, MS_32},
    {NOTE_A5, MS_32},
    {NOTE_A6, MS_32},
    {NOTE_A5, MS_32},
    {NOTE_C6, MS_32},
    {NOTE_A5, MS_32},
    {NOTE_A6, MS_32},
    {NOTE_A5, MS_32},
    {NOTE_B3, MS_32},
    {NOTE_B3, MS_32},
    {NOTE_B3, MS_32},
    {NOTE_B3, MS_32},
    {NOTE_B3, MS_32},
    {NOTE_B3, MS_32},
    {NOTE_B3, MS_32},
    {NOTE_B3, MS_32},
    {NOTE_GS3, MS_32},
    {NOTE_GS3, MS_32},
    {NOTE_GS3, MS_32},
    {NOTE_GS3, MS_32},
    {NOTE_GS3, MS_32},
    {NOTE_GS3, MS_32},
    {NOTE_GS3, MS_32},
    {NOTE_GS3, MS_32},
    {NOTE_C4, MS_32},
    {NOTE_C4, MS_32},
    {NOTE_C4, MS_32},
    {NOTE_C4, MS_32},
    {NOTE_C4, MS_32},
    {NOTE_C4, MS_32},
    {NOTE_C4, MS_32},
    {NOTE_C4, MS_32},
    {NOTE_A3, MS_32},
    {NOTE_A3, MS_32},
    {NOTE_A3, MS_32},
    {NOTE_A3, MS_32},
    {NOTE_A3, MS_32},
    {NOTE_A3, MS_32},
    {NOTE_A3, MS_32},
    {NOTE_A3, MS_32},
    {NOTE_GS3, MS_32},
    {NOTE_GS3, MS_32},
    {NOTE_GS3, MS_32},
    {NOTE_GS3, MS_32},
    {NOTE_GS3, MS_32},
    {NOTE_GS3, MS_32},
    {NOTE_GS3, MS_32},
    {NOTE_GS3, MS_32},
    {NOTE_B3, MS_32},
    {NOTE_B3, MS_32},
    {NOTE_B3, MS_32},
    {NOTE_B3, MS_32},
    {NOTE_B3, MS_32},
    {NOTE_B3, MS_32},
    {NOTE_B3, MS_32},
    {NOTE_B3, MS_32},
    {NOTE_E4, MS_32},
    {NOTE_E4, MS_32},
    {NOTE_E4, MS_32},
    {NOTE_E4, MS_32},
    {NOTE_E4, MS_32},
    {NOTE_E4, MS_32},
    {NOTE_E4, MS_32},
    {NOTE_E4, MS_32},
    {NOTE_C4, MS_32},
    {NOTE_C4, MS_32},
    {NOTE_C4, MS_32},
    {NOTE_C4, MS_32},
    {NOTE_C4, MS_32},
    {NOTE_C4, MS_32},
    {NOTE_C4, MS_32},
    {NOTE_C4, MS_32},
    {NOTE_B3, MS_32},
    {NOTE_B3, MS_32},
    {NOTE_B3, MS_32},
    {NOTE_B3, MS_32},
    {NOTE_B3, MS_32},
    {NOTE_B3, MS_32},
    {NOTE_B3, MS_32},
    {NOTE_B3, MS_32},
    {NOTE_GS3, MS_32},
    {NOTE_GS3, MS_32},
    {NOTE_GS3, MS_32},
    {NOTE_GS3, MS_32},
    {NOTE_GS3, MS_32},
    {NOTE_GS3, MS_32},
    {NOTE_GS3, MS_32},
    {NOTE_GS3, MS_32},
    {NOTE_C4, MS_32},
    {NOTE_C4, MS_32},
    {NOTE_C4, MS_32},
    {NOTE_C4, MS_32},
    {NOTE_E4, MS_32},
    {NOTE_E4, MS_32},
    {NOTE_E4, MS_32},
    {NOTE_E4, MS_32},
    {NOTE_A4, MS_32},
    {NOTE_A4, MS_32},
    {NOTE_A6, MS_32},
    {NOTE_A5, MS_32},
    {NOTE_C6, MS_32},
    {NOTE_A5, MS_32},
    {NOTE_A6, MS_32},
    {NOTE_A5, MS_32},
    {NOTE_GS4, MS_32},
    {NOTE_GS4, MS_32},
    {NOTE_GS6, MS_32},
    {NOTE_GS5, MS_32},
    {NOTE_B5, MS_32},
    {NOTE_GS5, MS_32},
    {NOTE_GS6, MS_32},
    {NOTE_GS5, MS_32},
    {NOTE_GS2, MS_32},
    {NOTE_GS2, MS_32},
    {NOTE_GS2, MS_32},
    {NOTE_GS2, MS_32},
    {NOTE_A7, MS_64},
    {NOTE_G7, MS_64},
    {NOTE_F7, MS_64},
    {NOTE_E7, MS_64},
    {NOTE_D7, MS_64},
    {NOTE_C7, MS_64},
    {NOTE_B6, MS_64},
    {NOTE_A6, MS_64},
    {NOTE_G6, MS_64},
    {NOTE_F6, MS_64},
    {NOTE_E6, MS_16},
    {NOTE_E6, MS_64},
    {NOTE_E6, MS_16},
    {NOTE_REST, MS_64},
    {NOTE_B4, MS_16},
    {NOTE_REST, MS_64},
    {NOTE_C5, MS_16},
    {NOTE_REST, MS_64},
    {NOTE_D5, MS_16},
    {NOTE_REST, MS_64},
    {NOTE_B3, MS_32},
    {NOTE_D6, MS_32},
    {NOTE_C6, MS_16},
    {NOTE_REST, MS_64},
    {NOTE_B4, MS_16},
    {NOTE_REST, MS_64},
    {NOTE_A4, MS_16},
    {NOTE_A4, MS_64},
    {NOTE_A4, MS_16},
    {NOTE_A4, MS_64},
    {NOTE_A4, MS_16},
    {NOTE_REST, MS_64},
    {NOTE_C5, MS_16},
    {NOTE_REST, MS_64},
    {NOTE_E5, MS_16},
    {NOTE_E5, MS_64},
    {NOTE_E5, MS_16},
    {NOTE_E5, MS_64},
    {NOTE_D5, MS_16},
    {NOTE_REST, MS_64},
    {NOTE_C5, MS_16},
    {NOTE_REST, MS_64},
    {NOTE_B4, MS_16},
    {NOTE_B4, MS_64},
    {NOTE_B4, MS_16},
    {NOTE_B4, MS_64},
    {NOTE_B4, MS_16},
    {NOTE_REST, MS_64},
    {NOTE_C5, MS_16},
    {NOTE_REST, MS_64},
    {NOTE_D5, MS_16},
    {NOTE_D5, MS_64},
    {NOTE_D5, MS_16},
    {NOTE_D5, MS_64},
    {NOTE_E5, MS_16},
    {NOTE_E5, MS_64},
    {NOTE_E5, MS_16},
    {NOTE_E5, MS_64},
    {NOTE_C5, MS_16},
    {NOTE_C5, MS_64},
    {NOTE_A4, MS_16},
    {NOTE_A4, MS_64},
    {NOTE_A5, MS_16},
    {NOTE_A5, MS_64},
    {NOTE_E5, MS_16},
    {NOTE_E5, MS_64},
    {NOTE_A5, MS_16},
    {NOTE_REST, MS_64},
    {NOTE_E5, MS_16},
    {NOTE_A4, MS_64},
    {NOTE_REST, MS_32},
    {NOTE_REST, MS_32},
    {NOTE_REST, MS_32},
    {NOTE_REST, MS_32},
    {NOTE_E5, MS_16},
    {NOTE_REST, MS_64},
    {NOTE_D5, MS_16},
    {NOTE_D5, MS_64},
    {NOTE_D5, MS_16},
    {NOTE_D5, MS_64},
    {NOTE_F5, MS_16},
    {NOTE_REST, MS_64},
    {NOTE_A5, MS_16},
    {NOTE_A5, MS_64},
    {NOTE_A5, MS_16},
    {NOTE_A5, MS_64},
    {NOTE_G5, MS_16},
    {NOTE_REST, MS_64},
    {NOTE_F5, MS_16},
    {NOTE_REST, MS_64},
    {NOTE_E5, MS_16},
    {NOTE_E5, MS_64},
    {NOTE_E5, MS_16},
    {NOTE_E5, MS_16},
    {NOTE_E5, MS_64},
    {NOTE_C5, MS_16},
    {NOTE_C4, MS_64},
    {NOTE_E5, MS_16},
    {NOTE_E5, MS_64},
    {NOTE_E5, MS_16},
    {NOTE_E5, MS_64},
    {NOTE_D5, MS_16},
    {NOTE_REST, MS_64},
    {NOTE_C5, MS_16},
    {NOTE_REST, MS_64},
    {NOTE_B4, MS_16},
    {NOTE_B4, MS_64},
    {NOTE_B4, MS_16},
    {NOTE_B4, MS_16},
    {NOTE_REST, MS_64},
    {NOTE_C5, MS_16},
    {NOTE_REST, MS_64},
    {NOTE_D5, MS_16},
    {NOTE_D5, MS_64},
    {NOTE_D5, MS_16},
    {NOTE_D5, MS_64},
    {NOTE_E5, MS_16},
    {NOTE_E5, MS_64},
    {NOTE_E5, MS_16},
    {NOTE_E5, MS_64},
    {NOTE_C5, MS_16},
    {NOTE_C5, MS_64},
    {NOTE_C5, MS_16},
    {NOTE_C5, MS_64},
    {NOTE_A4, MS_16},
    {NOTE_A4, MS_64},
    {NOTE_A4, MS_16},
    {NOTE_A4, MS_64},
    {NOTE_A4, MS_16},
    {NOTE_A4, MS_64},
    {NOTE_A4, MS_16},
    {NOTE_A4, MS_64},
    {NOTE_REST, MS_32},
    {NOTE_REST, MS_32},
    {NOTE_REST, MS_32},
    {NOTE_REST, MS_32},
    {NOTE_E7, MS_16},
    {NOTE_E7, MS_64},
    {NOTE_E7, MS_16},
    {NOTE_E7, MS_64},
    {NOTE_B6, MS_16},
    {NOTE_B6, MS_64},
    {NOTE_C7, MS_16},
    {NOTE_C7, MS_64},
    {NOTE_D7, MS_16},
    {NOTE_D7, MS_64},
    {NOTE_E7, MS_32},
    {NOTE_D7, MS_32},
    {NOTE_C7, MS_16},
    {NOTE_C7, MS_64},
    {NOTE_B6, MS_16},
    {NOTE_B6, MS_64},
    {NOTE_A6, MS_16},
    {NOTE_A6, MS_64},
    {NOTE_A6, MS_16},
    {NOTE_A6, MS_64},
    {NOTE_A6, MS_16},
    {NOTE_A6, MS_64},
    {NOTE_C7, MS_16},
    {NOTE_C7, MS_64},
    {NOTE_E7, MS_16},
    {NOTE_E7, MS_64},
    {NOTE_E7, MS_16},
    {NOTE_E7, MS_64},
    {NOTE_D7, MS_16},
    {NOTE_D7, MS_64},
    {NOTE_C7, MS_16},
    {NOTE_C7, MS_64},
    {NOTE_B6, MS_16},
    {NOTE_B6, MS_64},
    {NOTE_B6, MS_16},
    {NOTE_B6, MS_64},
    {NOTE_B6, MS_16},
    {NOTE_REST, MS_64},
    {NOTE_C6, MS_16},
    {NOTE_REST, MS_64},
    {NOTE_D6, MS_16},
    {NOTE_D6, MS_64},
    {NOTE_D6, MS_16},
    {NOTE_D6, MS_64},
    {NOTE_E6, MS_16},
    {NOTE_E6, MS_64},
    {NOTE_E6, MS_16},
    {NOTE_E6, MS_64},
    {NOTE_C6, MS_16},
    {NOTE_C6, MS_64},
    {NOTE_C6, MS_16},
    {NOTE_C6, MS_64},
    {NOTE_A5, MS_16},
    {NOTE_A5, MS_64},
    {NOTE_A5, MS_16},
    {NOTE_A5, MS_64},
    {NOTE_A5, MS_16},
    {NOTE_A5, MS_64},
    {NOTE_A5, MS_16},
    {NOTE_REST, MS_32},
    {NOTE_REST, MS_32},
    {NOTE_REST, MS_32},
    {NOTE_REST, MS_32},
    {NOTE_E6, MS_16},
    {NOTE_REST, MS_64},
    {NOTE_D6, MS_16},
    {NOTE_D6, MS_64},
    {NOTE_D6, MS_16},
    {NOTE_D6, MS_64},
    {NOTE_F6, MS_16},
    {NOTE_REST, MS_64},
    {NOTE_A6, MS_16},
    {NOTE_A6, MS_64},
    {NOTE_A6, MS_16},
    {NOTE_A6, MS_64},
    {NOTE_G6, MS_16},
    {NOTE_REST, MS_64},
    {NOTE_F6, MS_16},
    {NOTE_REST, MS_64},
    {NOTE_E6, MS_16},
    {NOTE_E6, MS_64},
    {NOTE_E6, MS_16},
    {NOTE_E6, MS_16},
    {NOTE_E6, MS_64},
    {NOTE_C6, MS_16},
    {NOTE_C4, MS_64},
    {NOTE_E6, MS_16},
    {NOTE_E6, MS_64},
    {NOTE_E6, MS_16},
    {NOTE_E6, MS_64},
    {NOTE_D6, MS_16},
    {NOTE_REST, MS_64},
    {NOTE_C6, MS_16},
    {NOTE_REST, MS_64},
    {NOTE_B5, MS_16},
    {NOTE_B5, MS_64},
    {NOTE_B5, MS_16},
    {NOTE_B5, MS_16},
    {NOTE_REST, MS_64},
    {NOTE_C6, MS_16},
    {NOTE_REST, MS_64},
    {NOTE_D6, MS_16},
    {NOTE_D6, MS_64},
    {NOTE_D6, MS_16},
    {NOTE_D6, MS_64},
    {NOTE_E6, MS_16},
    {NOTE_E6, MS_64},
    {NOTE_E6, MS_16},
    {NOTE_E6, MS_64},
    {NOTE_C6, MS_16},
    {NOTE_C6, MS_64},
    {NOTE_C6, MS_16},
    {NOTE_C6, MS_64},
    {NOTE_A5, MS_16},
    {NOTE_A5, MS_64},
    {NOTE_A5, MS_16},
    {NOTE_A5, MS_64},
    {NOTE_A5, MS_16},
    {NOTE_A5, MS_64},
    {NOTE_A5, MS_64},
    {NOTE_E7, MS_64},
    {NOTE_F7, MS_64},
    {NOTE_G7, MS_64},
    {NOTE_A7, MS_Q},
    {NOTE_E4, MS_32},
    {NOTE_E4, MS_32},
    {NOTE_E4, MS_32},
    {NOTE_E4, MS_32},
    {NOTE_A2, MS_32},
    {NOTE_A2, MS_32},
    {NOTE_A2, MS_32},
    {NOTE_A2, MS_32},
    {NOTE_C4, MS_32},
    {NOTE_C4, MS_32},
    {NOTE_C4, MS_32},
    {NOTE_C4, MS_32},
    {NOTE_A2, MS_32},
    {NOTE_A2, MS_32},
    {NOTE_A2, MS_32},
    {NOTE_A2, MS_32},
    {NOTE_B3, MS_32},
    {NOTE_B3, MS_32},
    {NOTE_B3, MS_32},
    {NOTE_B3, MS_32},
    {NOTE_E2, MS_32},
    {NOTE_E2, MS_32},
    {NOTE_E2, MS_32},
    {NOTE_E2, MS_32},
    {NOTE_GS3, MS_32},
    {NOTE_GS3, MS_32},
    {NOTE_GS3, MS_32},
    {NOTE_GS3, MS_32},
    {NOTE_E2, MS_32},
    {NOTE_E2, MS_32},
    {NOTE_E2, MS_32},
    {NOTE_E2, MS_32},
    {NOTE_C4, MS_32},
    {NOTE_C4, MS_32},
    {NOTE_C4, MS_32},
    {NOTE_C4, MS_32},
    {NOTE_A2, MS_32},
    {NOTE_A2, MS_32},
    {NOTE_A2, MS_32},
    {NOTE_A2, MS_32},
    {NOTE_A3, MS_32},
    {NOTE_A3, MS_32},
    {NOTE_A3, MS_32},
    {NOTE_A3, MS_32},
    {NOTE_A2, MS_32},
    {NOTE_A2, MS_32},
    {NOTE_A2, MS_32},
    {NOTE_A2, MS_32},
    {NOTE_GS3, MS_32},
    {NOTE_GS3, MS_32},
    {NOTE_GS5, MS_32},
    {NOTE_GS5, MS_32},
    {NOTE_GS6, MS_32},
    {NOTE_GS5, MS_32},
    {NOTE_E6, MS_32},
    {NOTE_E5, MS_32},
    {NOTE_E5, MS_32},
    {NOTE_E4, MS_32},
    {NOTE_E5, MS_32},
    {NOTE_E5, MS_32},
    {NOTE_E6, MS_32},
    {NOTE_E6, MS_32},
    {NOTE_E7, MS_32},
    {NOTE_E6, MS_32},
    {NOTE_E4, MS_32},
    {NOTE_E4, MS_32},
    {NOTE_A5, MS_32},
    {NOTE_A5, MS_32},
    {NOTE_A2, MS_32},
    {NOTE_A2, MS_32},
    {NOTE_A2, MS_32},
    {NOTE_A2, MS_32},
    {NOTE_C4, MS_32},
    {NOTE_C4, MS_32},
    {NOTE_C4, MS_32},
    {NOTE_C4, MS_32},
    {NOTE_A2, MS_32},
    {NOTE_A2, MS_32},
    {NOTE_A2, MS_32},
    {NOTE_A2, MS_32},
    {NOTE_B3, MS_32},
    {NOTE_B3, MS_32},
    {NOTE_E5, MS_32},
    {NOTE_E5, MS_32},
    {NOTE_E2, MS_32},
    {NOTE_E2, MS_32},
    {NOTE_E2, MS_32},
    {NOTE_E2, MS_32},
    {NOTE_GS3, MS_32},
    {NOTE_GS3, MS_32},
    {NOTE_GS3, MS_32},
    {NOTE_GS3, MS_32},
    {NOTE_E2, MS_32},
    {NOTE_E2, MS_32},
    {NOTE_E2, MS_32},
    {NOTE_E2, MS_32},
    {NOTE_A5, MS_32},
    {NOTE_E6, MS_32},
    {NOTE_A5, MS_32},
    {NOTE_B5, MS_32},
    {NOTE_A5, MS_32},
    {NOTE_E6, MS_32},
    {NOTE_A5, MS_32},
    {NOTE_B5, MS_32},
    {NOTE_A5, MS_32},
    {NOTE_E6, MS_32},
    {NOTE_A5, MS_32},
    {NOTE_B5, MS_32},
    {NOTE_A5, MS_32},
    {NOTE_D6, MS_32},
    {NOTE_A5, MS_32},
    {NOTE_E6, MS_32},
    {NOTE_GS4, MS_32},
    {NOTE_GS4, MS_32},
    {NOTE_GS4, MS_64},
    {NOTE_REST, MS_32},
    {NOTE_REST, MS_32},
    {NOTE_REST, MS_64},
    {NOTE_REST, MS_32},
    {NOTE_REST, MS_32},
    {NOTE_REST, MS_64},
    {NOTE_REST, MS_32},
    {NOTE_REST, MS_32},
    {NOTE_REST, MS_64},
    {NOTE_REST, MS_32},
    {NOTE_REST, MS_32},
    {NOTE_REST, MS_64},
    {NOTE_REST, MS_32},
    {NOTE_REST, MS_32},
    {NOTE_REST, MS_64},
    {NOTE_REST, MS_32},
    {NOTE_REST, MS_32},
    {NOTE_REST, MS_64},
    {NOTE_REST, MS_32},
    {NOTE_REST, MS_32},
    {NOTE_REST, MS_64},
    {NOTE_E6, MS_32},
    {NOTE_E6, MS_32},
    {NOTE_E6, MS_32},
    {NOTE_E6, MS_32},
    {NOTE_B5, MS_32},
    {NOTE_B5, MS_32},
    {NOTE_C5, MS_32},
    {NOTE_C5, MS_32},
    {NOTE_D5, MS_32},
    {NOTE_D5, MS_32},
    {NOTE_E5, MS_32},
    {NOTE_D5, MS_32},
    {NOTE_A5, MS_32},
    {NOTE_A5, MS_32},
    {NOTE_GS5, MS_32},
    {NOTE_GS5, MS_32},
    {NOTE_E5, MS_32},
    {NOTE_E5, MS_32},
    {NOTE_A4, MS_32},
    {NOTE_A4, MS_32},
    {NOTE_A5, MS_32},
    {NOTE_A5, MS_32},
    {NOTE_C6, MS_32},
    {NOTE_C6, MS_32},
    {NOTE_E6, MS_32},
    {NOTE_E6, MS_32},
    {NOTE_E6, MS_32},
    {NOTE_E6, MS_32},
    {NOTE_D6, MS_32},
    {NOTE_D6, MS_32},
    {NOTE_C5, MS_32},
    {NOTE_C5, MS_32},
    {NOTE_GS5, MS_32},
    {NOTE_GS5, MS_32},
    {NOTE_E4, MS_32},
    {NOTE_E4, MS_32},
    {NOTE_B5, MS_32},
    {NOTE_B5, MS_32},
    {NOTE_C6, MS_32},
    {NOTE_C6, MS_32},
    {NOTE_D6, MS_32},
    {NOTE_D6, MS_32},
    {NOTE_A4, MS_32},
    {NOTE_A4, MS_32},
    {NOTE_E6, MS_32},
    {NOTE_E6, MS_32},
    {NOTE_A4, MS_32},
    {NOTE_A4, MS_32},
    {NOTE_C6, MS_32},
    {NOTE_C6, MS_32},
    {NOTE_E4, MS_32},
    {NOTE_E4, MS_32},
    {NOTE_A5, MS_32},
    {NOTE_A5, MS_32},
    {NOTE_E4, MS_32},
    {NOTE_E4, MS_32},
    {NOTE_A5, MS_32},
    {NOTE_A5, MS_32},
    {NOTE_E4, MS_32},
    {NOTE_E4, MS_32},
    {NOTE_A3, MS_32},
    {NOTE_B3, MS_32},
    {NOTE_C4, MS_32},
    {NOTE_D4, MS_32},
    {NOTE_E5, MS_32},
    {NOTE_E5, MS_32},
    {NOTE_A4, MS_32},
    {NOTE_A4, MS_32},
    {NOTE_A4, MS_32},
    {NOTE_A4, MS_32},
    {NOTE_F4, MS_32},
    {NOTE_F4, MS_32},
    {NOTE_A5, MS_32},
    {NOTE_A5, MS_32},
    {NOTE_A5, MS_32},
    {NOTE_A5, MS_32},
    {NOTE_G4, MS_32},
    {NOTE_G4, MS_32},
    {NOTE_F4, MS_32},
    {NOTE_F4, MS_32},
    {NOTE_E4, MS_32},
    {NOTE_E4, MS_32},
    {NOTE_C5, MS_32},
    {NOTE_C5, MS_32},
    {NOTE_E4, MS_32},
    {NOTE_E4, MS_32},
    {NOTE_C5, MS_32},
    {NOTE_C5, MS_32},
    {NOTE_E5, MS_32},
    {NOTE_E5, MS_32},
    {NOTE_E5, MS_32},
    {NOTE_E5, MS_32},
    {NOTE_D4, MS_32},
    {NOTE_D4, MS_32},
    {NOTE_C4, MS_32},
    {NOTE_C4, MS_32},
    {NOTE_GS4, MS_32},
    {NOTE_GS4, MS_32},
    {NOTE_GS4, MS_32},
    {NOTE_GS4, MS_32},
    {NOTE_GS4, MS_32},
    {NOTE_GS4, MS_32},
    {NOTE_A4, MS_32},
    {NOTE_A4, MS_32},
    {NOTE_D4, MS_32},
    {NOTE_D4, MS_32},
    {NOTE_D4, MS_32},
    {NOTE_D4, MS_32},
    {NOTE_E5, MS_32},
    {NOTE_E5, MS_32},
    {NOTE_E5, MS_32},
    {NOTE_E5, MS_32},
    {NOTE_A4, MS_32},
    {NOTE_A4, MS_32},
    {NOTE_A4, MS_32},
    {NOTE_A4, MS_32},
    {NOTE_A5, MS_32},
    {NOTE_A5, MS_32},
    {NOTE_A5, MS_32},
    {NOTE_A5, MS_32},
    {NOTE_A5, MS_32},
    {NOTE_A5, MS_32},
    {NOTE_A5, MS_32},
    {NOTE_A5, MS_32},
    {NOTE_A5, MS_32},
    {NOTE_B5, MS_32},
    {NOTE_C6, MS_32},
    {NOTE_D6, MS_32},
    {NOTE_E6, MS_16},
    {NOTE_E6, MS_64},
    {NOTE_D6, MS_16},
    {NOTE_D6, MS_64},
    {NOTE_A4, MS_16},
    {NOTE_D2, MS_64},
    {NOTE_F6, MS_16},
    {NOTE_F6, MS_64},
    {NOTE_A6, MS_16},
    {NOTE_A6, MS_16},
    {NOTE_A6, MS_64},
    {NOTE_G6, MS_16},
    {NOTE_G6, MS_64},
    {NOTE_F6, MS_16},
    {NOTE_F6, MS_64},
    {NOTE_E6, MS_16},
    {NOTE_E6, MS_64},
    {NOTE_E6, MS_16},
    {NOTE_C5, MS_16},
    {NOTE_C5, MS_64},
    {NOTE_C6, MS_16},
    {NOTE_C6, MS_64},
    {NOTE_E6, MS_Q},
    {NOTE_D6, MS_16},
    {NOTE_D6, MS_64},
    {NOTE_C6, MS_16},
    {NOTE_C6, MS_64},
    {NOTE_B5, MS_Q},
    {NOTE_B5, MS_16},
    {NOTE_B5, MS_64},
    {NOTE_C6, MS_16},
    {NOTE_C6, MS_64},
    {NOTE_D6, MS_Q},
    {NOTE_E6, MS_Q},
    {NOTE_C6, MS_Q},
    {NOTE_A6, MS_16},
    {NOTE_E7, MS_64},
    {NOTE_F7, MS_64},
    {NOTE_G7, MS_64},
    {NOTE_A7, MS_H},
};

// BASS
static const Step song_tetris___a_theme_bass[] = {
    {NOTE_E1, MS_16},
    {NOTE_E2, MS_64},
    {NOTE_E3, MS_16},
    {NOTE_B3, MS_64},
    {NOTE_E1, MS_16},
    {NOTE_E2, MS_64},
    {NOTE_E3, MS_16},
    {NOTE_B3, MS_64},
    {NOTE_E1, MS_16},
    {NOTE_E2, MS_64},
    {NOTE_E3, MS_32},
    {NOTE_E3, MS_32},
    {NOTE_E1, MS_16},
    {NOTE_E2, MS_64},
    {NOTE_E3, MS_16},
    {NOTE_B3, MS_64},
    {NOTE_A1, MS_16},
    {NOTE_A2, MS_64},
    {NOTE_E3, MS_16},
    {NOTE_C4, MS_64},
    {NOTE_A1, MS_16},
    {NOTE_A2, MS_64},
    {NOTE_C3, MS_16},
    {NOTE_A3, MS_64},
    {NOTE_A1, MS_16},
    {NOTE_A2, MS_64},
    {NOTE_E3, MS_16},
    {NOTE_C4, MS_64},
    {NOTE_A1, MS_16},
    {NOTE_A2, MS_64},
    {NOTE_A3, MS_16},
    {NOTE_E4, MS_64},
    {NOTE_GS1, MS_16},
    {NOTE_GS2, MS_64},
    {NOTE_E3, MS_16},
    {NOTE_B3, MS_64},
    {NOTE_E1, MS_16},
    {NOTE_E2, MS_64},
    {NOTE_E3, MS_16},
    {NOTE_B3, MS_64},
    {NOTE_GS1, MS_16},
    {NOTE_GS2, MS_64},
    {NOTE_E3, MS_16},
    {NOTE_B3, MS_64},
    {NOTE_E1, MS_16},
    {NOTE_E2, MS_64},
    {NOTE_E3, MS_16},
    {NOTE_B3, MS_64},
    {NOTE_A1, MS_16},
    {NOTE_A2, MS_64},
    {NOTE_C3, MS_16},
    {NOTE_E3, MS_64},
    {NOTE_A0, MS_16},
    {NOTE_A1, MS_64},
    {NOTE_E3, MS_16},
    {NOTE_A3, MS_64},
    {NOTE_A1, MS_16},
    {NOTE_A2, MS_64},
    {NOTE_A3, MS_16},
    {NOTE_A3, MS_64},
    {NOTE_A3, MS_32},
    {NOTE_B3, MS_32},
    {NOTE_C4, MS_32},
    {NOTE_D4, MS_32},
    {NOTE_E3, MS_16},
    {NOTE_E4, MS_64},
    {NOTE_D2, MS_16},
    {NOTE_A2, MS_64},
    {NOTE_D3, MS_16},
    {NOTE_F4, MS_64},
    {NOTE_D2, MS_16},
    {NOTE_A2, MS_64},
    {NOTE_A3, MS_16},
    {NOTE_A4, MS_64},
    {NOTE_D2, MS_16},
    {NOTE_A2, MS_64},
    {NOTE_A2, MS_16},
    {NOTE_A3, MS_64},
    {NOTE_F2, MS_16},
    {NOTE_F3, MS_64},
    {NOTE_C2, MS_16},
    {NOTE_C3, MS_64},
    {NOTE_C3, MS_16},
    {NOTE_C2, MS_16},
    {NOTE_C3, MS_64},
    {NOTE_C3, MS_16},
    {NOTE_C3, MS_64},
    {NOTE_C2, MS_16},
    {NOTE_C3, MS_64},
    {NOTE_E3, MS_16},
    {NOTE_C4, MS_64},
    {NOTE_G1, MS_16},
    {NOTE_G2, MS_64},
    {NOTE_E3, MS_16},
    {NOTE_C4, MS_64},
    {NOTE_B1, MS_16},
    {NOTE_B2, MS_64},
    {NOTE_B2, MS_16},
    {NOTE_B1, MS_16},
    {NOTE_B2, MS_64},
    {NOTE_B2, MS_16},
    {NOTE_B3, MS_64},
    {NOTE_D3, MS_16},
    {NOTE_D4, MS_64},
    {NOTE_E2, MS_16},
    {NOTE_E3, MS_64},
    {NOTE_E3, MS_16},
    {NOTE_GS3, MS_64},
    {NOTE_GS2, MS_16},
    {NOTE_GS3, MS_64},
    {NOTE_A1, MS_16},
    {NOTE_A2, MS_64},
    {NOTE_C3, MS_16},
    {NOTE_A3, MS_64},
    {NOTE_A1, MS_16},
    {NOTE_A2, MS_64},
    {NOTE_E3, MS_16},
    {NOTE_C4, MS_64},
    {NOTE_A1, MS_16},
    {NOTE_A2, MS_64},
    {NOTE_A3, MS_16},
    {NOTE_E4, MS_64},
    {NOTE_E2, MS_32},
    {NOTE_D2, MS_32},
    {NOTE_C2, MS_32},
    {NOTE_B1, MS_32},
    {NOTE_E1, MS_16},
    {NOTE_E2, MS_64},
    {NOTE_E3, MS_16},
    {NOTE_B3, MS_64},
    {NOTE_E1, MS_16},
    {NOTE_E2, MS_64},
    {NOTE_E3, MS_16},
    {NOTE_B3, MS_64},
    {NOTE_E1, MS_16},
    {NOTE_E2, MS_64},
    {NOTE_E3, MS_32},
    {NOTE_E3, MS_32},
    {NOTE_E1, MS_16},
    {NOTE_E2, MS_64},
    {NOTE_E3, MS_16},
    {NOTE_B3, MS_64},
    {NOTE_A1, MS_16},
    {NOTE_A2, MS_64},
    {NOTE_E3, MS_16},
    {NOTE_C4, MS_64},
    {NOTE_A1, MS_16},
    {NOTE_A2, MS_64},
    {NOTE_C3, MS_16},
    {NOTE_A3, MS_64},
    {NOTE_A1, MS_16},
    {NOTE_A2, MS_64},
    {NOTE_E3, MS_16},
    {NOTE_C4, MS_64},
    {NOTE_A1, MS_16},
    {NOTE_A2, MS_64},
    {NOTE_A3, MS_16},
    {NOTE_E4, MS_64},
    {NOTE_GS1, MS_16},
    {NOTE_GS2, MS_64},
    {NOTE_E3, MS_16},
    {NOTE_B3, MS_64},
    {NOTE_E1, MS_16},
    {NOTE_E2, MS_64},
    {NOTE_E3, MS_16},
    {NOTE_B3, MS_64},
    {NOTE_GS1, MS_16},
    {NOTE_GS2, MS_64},
    {NOTE_E3, MS_16},
    {NOTE_B3, MS_64},
    {NOTE_E1, MS_16},
    {NOTE_E2, MS_64},
    {NOTE_E3, MS_16},
    {NOTE_B3, MS_64},
    {NOTE_A1, MS_16},
    {NOTE_A2, MS_64},
    {NOTE_C3, MS_16},
    {NOTE_E3, MS_64},
    {NOTE_A0, MS_16},
    {NOTE_A1, MS_64},
    {NOTE_E3, MS_16},
    {NOTE_A3, MS_64},
    {NOTE_A1, MS_16},
    {NOTE_A2, MS_64},
    {NOTE_A3, MS_16},
    {NOTE_A3, MS_32},
    {NOTE_B3, MS_32},
    {NOTE_C4, MS_32},
    {NOTE_D4, MS_32},
    {NOTE_E3, MS_16},
    {NOTE_E4, MS_64},
    {NOTE_D2, MS_16},
    {NOTE_A2, MS_64},
    {NOTE_D3, MS_16},
    {NOTE_F4, MS_64},
    {NOTE_D2, MS_16},
    {NOTE_A2, MS_64},
    {NOTE_A3, MS_16},
    {NOTE_A4, MS_64},
    {NOTE_D2, MS_16},
    {NOTE_A2, MS_64},
    {NOTE_A2, MS_16},
    {NOTE_A3, MS_64},
    {NOTE_F2, MS_16},
    {NOTE_F3, MS_64},
    {NOTE_C2, MS_16},
    {NOTE_C3, MS_64},
    {NOTE_C3, MS_16},
    {NOTE_C2, MS_16},
    {NOTE_C3, MS_64},
    {NOTE_C3, MS_16},
    {NOTE_C3, MS_64},
    {NOTE_C2, MS_16},
    {NOTE_C3, MS_64},
    {NOTE_E3, MS_16},
    {NOTE_C4, MS_64},
    {NOTE_G1, MS_16},
    {NOTE_G2, MS_64},
    {NOTE_E3, MS_16},
    {NOTE_C4, MS_64},
    {NOTE_B1, MS_16},
    {NOTE_B2, MS_64},
    {NOTE_B2, MS_16},
    {NOTE_B1, MS_16},
    {NOTE_B2, MS_64},
    {NOTE_B2, MS_16},
    {NOTE_B3, MS_64},
    {NOTE_D3, MS_16},
    {NOTE_D4, MS_64},
    {NOTE_E2, MS_16},
    {NOTE_E3, MS_64},
    {NOTE_E3, MS_16},
    {NOTE_GS3, MS_64},
    {NOTE_GS2, MS_16},
    {NOTE_GS3, MS_64},
    {NOTE_A1, MS_16},
    {NOTE_A2, MS_64},
    {NOTE_C3, MS_16},
    {NOTE_A3, MS_64},
    {NOTE_A1, MS_16},
    {NOTE_A2, MS_64},
    {NOTE_E3, MS_16},
    {NOTE_C4, MS_64},
    {NOTE_A1, MS_16},
    {NOTE_A2, MS_64},
    {NOTE_A3, MS_16},
    {NOTE_E4, MS_64},
    {NOTE_A0, MS_Q},
    {NOTE_E3, MS_32},
    {NOTE_E3, MS_32},
    {NOTE_E3, MS_32},
    {NOTE_E3, MS_32},
    {NOTE_E3, MS_32},
    {NOTE_E3, MS_32},
    {NOTE_E3, MS_32},
    {NOTE_E3, MS_32},
    {NOTE_C3, MS_32},
    {NOTE_C3, MS_32},
    {NOTE_C3, MS_32},
    {NOTE_C3, MS_32},
    {NOTE_C3, MS_32},
    {NOTE_C3, MS_32},
    {NOTE_C3, MS_32},
    {NOTE_C3, MS_32},
    {NOTE_D3, MS_32},
    {NOTE_D3, MS_32},
    {NOTE_D3, MS_32},
    {NOTE_D3, MS_32},
    {NOTE_D3, MS_32},
    {NOTE_D3, MS_32},
    {NOTE_D3, MS_32},
    {NOTE_D3, MS_32},
    {NOTE_B2, MS_32},
    {NOTE_B2, MS_32},
    {NOTE_B2, MS_32},
    {NOTE_B2, MS_32},
    {NOTE_B2, MS_32},
    {NOTE_B2, MS_32},
    {NOTE_B2, MS_32},
    {NOTE_B2, MS_32},
    {NOTE_C3, MS_32},
    {NOTE_C3, MS_32},
    {NOTE_C3, MS_32},
    {NOTE_C3, MS_32},
    {NOTE_C3, MS_32},
    {NOTE_C3, MS_32},
    {NOTE_C3, MS_32},
    {NOTE_C3, MS_32},
    {NOTE_A2, MS_32},
    {NOTE_A2, MS_32},
    {NOTE_A2, MS_32},
    {NOTE_A2, MS_32},
    {NOTE_A2, MS_32},
    {NOTE_A2, MS_32},
    {NOTE_A2, MS_32},
    {NOTE_A2, MS_32},
    {NOTE_GS2, MS_32},
    {NOTE_GS2, MS_32},
    {NOTE_GS2, MS_32},
    {NOTE_GS2, MS_32},
    {NOTE_GS2, MS_32},
    {NOTE_GS2, MS_32},
    {NOTE_GS2, MS_32},
    {NOTE_GS2, MS_32},
    {NOTE_B2, MS_32},
    {NOTE_B2, MS_32},
    {NOTE_B2, MS_32},
    {NOTE_B2, MS_32},
    {NOTE_B2, MS_32},
    {NOTE_B2, MS_32},
    {NOTE_B2, MS_32},
    {NOTE_B2, MS_32},
    {NOTE_E3, MS_32},
    {NOTE_E3, MS_32},
    {NOTE_E3, MS_32},
    {NOTE_E3, MS_32},
    {NOTE_E3, MS_32},
    {NOTE_E3, MS_32},
    {NOTE_E3, MS_32},
    {NOTE_E3, MS_32},
    {NOTE_C3, MS_32},
    {NOTE_C3, MS_32},
    {NOTE_C3, MS_32},
    {NOTE_C3, MS_32},
    {NOTE_C3, MS_32},
    {NOTE_C3, MS_32},
    {NOTE_C3, MS_32},
    {NOTE_C3, MS_32},
    {NOTE_D3, MS_32},
    {NOTE_D3, MS_32},
    {NOTE_D3, MS_32},
    {NOTE_D3, MS_32},
    {NOTE_D3, MS_32},
    {NOTE_D3, MS_32},
    {NOTE_D3, MS_32},
    {NOTE_D3, MS_32},
    {NOTE_B2, MS_32},
    {NOTE_B2, MS_32},
    {NOTE_B2, MS_32},
    {NOTE_B2, MS_32},
    {NOTE_B2, MS_32},
    {NOTE_B2, MS_32},
    {NOTE_B2, MS_32},
    {NOTE_B2, MS_32},
    {NOTE_C3, MS_32},
    {NOTE_C3, MS_32},
    {NOTE_C3, MS_32},
    {NOTE_C3, MS_32},
    {NOTE_E3, MS_32},
    {NOTE_E3, MS_32},
    {NOTE_E3, MS_32},
    {NOTE_E3, MS_32},
    {NOTE_A3, MS_32},
    {NOTE_A3, MS_32},
    {NOTE_A3, MS_32},
    {NOTE_A3, MS_32},
    {NOTE_A3, MS_32},
    {NOTE_A3, MS_32},
    {NOTE_A3, MS_32},
    {NOTE_A3, MS_32},
    {NOTE_GS3, MS_32},
    {NOTE_GS3, MS_32},
    {NOTE_GS3, MS_32},
    {NOTE_GS3, MS_32},
    {NOTE_GS3, MS_32},
    {NOTE_GS3, MS_32},
    {NOTE_GS3, MS_32},
    {NOTE_GS3, MS_32},
    {NOTE_GS1, MS_32},
    {NOTE_GS1, MS_32},
    {NOTE_GS1, MS_32},
    {NOTE_GS1, MS_32},
    {NOTE_GS1, MS_64},
    {NOTE_GS1, MS_64},
    {NOTE_GS1, MS_64},
    {NOTE_GS1, MS_64},
    {NOTE_GS1, MS_64},
    {NOTE_GS1, MS_64},
    {NOTE_GS1, MS_64},
    {NOTE_GS1, MS_64},
    {NOTE_GS1, MS_64},
    {NOTE_GS1, MS_64},
    {NOTE_E1, MS_16},
    {NOTE_E2, MS_64},
    {NOTE_E3, MS_16},
    {NOTE_B3, MS_64},
    {NOTE_E1, MS_16},
    {NOTE_E2, MS_64},
    {NOTE_E3, MS_16},
    {NOTE_B3, MS_64},
    {NOTE_E1, MS_16},
    {NOTE_E2, MS_64},
    {NOTE_E3, MS_32},
    {NOTE_E3, MS_32},
    {NOTE_E1, MS_16},
    {NOTE_E2, MS_64},
    {NOTE_E3, MS_16},
    {NOTE_B3, MS_64},
    {NOTE_A1, MS_16},
    {NOTE_A2, MS_64},
    {NOTE_E3, MS_16},
    {NOTE_C4, MS_64},
    {NOTE_A1, MS_16},
    {NOTE_A2, MS_64},
    {NOTE_C3, MS_16},
    {NOTE_A3, MS_64},
    {NOTE_A1, MS_16},
    {NOTE_A2, MS_64},
    {NOTE_E3, MS_16},
    {NOTE_C4, MS_64},
    {NOTE_A1, MS_16},
    {NOTE_A2, MS_64},
    {NOTE_A3, MS_16},
    {NOTE_E4, MS_64},
    {NOTE_GS1, MS_16},
    {NOTE_GS2, MS_64},
    {NOTE_E3, MS_16},
    {NOTE_B3, MS_64},
    {NOTE_E1, MS_16},
    {NOTE_E2, MS_64},
    {NOTE_E3, MS_16},
    {NOTE_B3, MS_64},
    {NOTE_GS1, MS_16},
    {NOTE_GS2, MS_64},
    {NOTE_E3, MS_16},
    {NOTE_B3, MS_64},
    {NOTE_E1, MS_16},
    {NOTE_E2, MS_64},
    {NOTE_E3, MS_16},
    {NOTE_B3, MS_64},
    {NOTE_A1, MS_16},
    {NOTE_A2, MS_64},
    {NOTE_C3, MS_16},
    {NOTE_E3, MS_64},
    {NOTE_A0, MS_16},
    {NOTE_A1, MS_64},
    {NOTE_E3, MS_16},
    {NOTE_A3, MS_64},
    {NOTE_A1, MS_16},
    {NOTE_A2, MS_64},
    {NOTE_A3, MS_16},
    {NOTE_A3, MS_64},
    {NOTE_A3, MS_32},
    {NOTE_B3, MS_32},
    {NOTE_C4, MS_32},
    {NOTE_D4, MS_32},
    {NOTE_E3, MS_16},
    {NOTE_E4, MS_64},
    {NOTE_D2, MS_16},
    {NOTE_A2, MS_64},
    {NOTE_D3, MS_16},
    {NOTE_F4, MS_64},
    {NOTE_D2, MS_16},
    {NOTE_A2, MS_64},
    {NOTE_A3, MS_16},
    {NOTE_A4, MS_64},
    {NOTE_D2, MS_16},
    {NOTE_A2, MS_64},
    {NOTE_A2, MS_16},
    {NOTE_A3, MS_64},
    {NOTE_F2, MS_16},
    {NOTE_F3, MS_64},
    {NOTE_C2, MS_16},
    {NOTE_C3, MS_64},
    {NOTE_C3, MS_16},
    {NOTE_C2, MS_16},
    {NOTE_C3, MS_64},
    {NOTE_C3, MS_16},
    {NOTE_C3, MS_64},
    {NOTE_C2, MS_16},
    {NOTE_C3, MS_64},
    {NOTE_E3, MS_16},
    {NOTE_C4, MS_64},
    {NOTE_G1, MS_16},
    {NOTE_G2, MS_64},
    {NOTE_E3, MS_16},
    {NOTE_C4, MS_64},
    {NOTE_B1, MS_16},
    {NOTE_B2, MS_64},
    {NOTE_B2, MS_16},
    {NOTE_B1, MS_16},
    {NOTE_B2, MS_64},
    {NOTE_B2, MS_16},
    {NOTE_B3, MS_64},
    {NOTE_D3, MS_16},
    {NOTE_D4, MS_64},
    {NOTE_E2, MS_16},
    {NOTE_E3, MS_64},
    {NOTE_E3, MS_16},
    {NOTE_GS3, MS_64},
    {NOTE_GS2, MS_16},
    {NOTE_GS3, MS_64},
    {NOTE_A1, MS_16},
    {NOTE_A2, MS_64},
    {NOTE_C3, MS_16},
    {NOTE_A3, MS_64},
    {NOTE_A1, MS_16},
    {NOTE_A2, MS_64},
    {NOTE_E3, MS_16},
    {NOTE_C4, MS_64},
    {NOTE_A1, MS_16},
    {NOTE_A2, MS_64},
    {NOTE_A3, MS_16},
    {NOTE_E4, MS_64},
    {NOTE_E2, MS_32},
    {NOTE_D2, MS_32},
    {NOTE_C2, MS_32},
    {NOTE_B1, MS_32},
    {NOTE_E1, MS_16},
    {NOTE_E2, MS_64},
    {NOTE_E3, MS_16},
    {NOTE_B3, MS_64},
    {NOTE_E1, MS_16},
    {NOTE_E2, MS_64},
    {NOTE_E3, MS_16},
    {NOTE_B3, MS_64},
    {NOTE_E1, MS_16},
    {NOTE_E2, MS_64},
    {NOTE_E3, MS_32},
    {NOTE_E3, MS_32},
    {NOTE_E1, MS_16},
    {NOTE_E2, MS_64},
    {NOTE_E3, MS_16},
    {NOTE_B3, MS_64},
    {NOTE_A1, MS_16},
    {NOTE_A2, MS_64},
    {NOTE_E3, MS_16},
    {NOTE_C4, MS_64},
    {NOTE_A1, MS_16},
    {NOTE_A2, MS_64},
    {NOTE_C3, MS_16},
    {NOTE_A3, MS_64},
    {NOTE_A1, MS_16},
    {NOTE_A2, MS_64},
    {NOTE_E3, MS_16},
    {NOTE_C4, MS_64},
    {NOTE_A1, MS_16},
    {NOTE_A2, MS_64},
    {NOTE_A3, MS_16},
    {NOTE_E4, MS_64},
    {NOTE_GS1, MS_16},
    {NOTE_GS2, MS_64},
    {NOTE_E3, MS_16},
    {NOTE_B3, MS_64},
    {NOTE_E1, MS_16},
    {NOTE_E2, MS_64},
    {NOTE_E3, MS_16},
    {NOTE_B3, MS_64},
    {NOTE_GS1, MS_16},
    {NOTE_GS2, MS_64},
    {NOTE_E3, MS_16},
    {NOTE_B3, MS_64},
    {NOTE_E1, MS_16},
    {NOTE_E2, MS_64},
    {NOTE_E3, MS_16},
    {NOTE_B3, MS_64},
    {NOTE_A1, MS_16},
    {NOTE_A2, MS_64},
    {NOTE_C3, MS_16},
    {NOTE_E3, MS_64},
    {NOTE_A0, MS_16},
    {NOTE_A1, MS_64},
    {NOTE_E3, MS_16},
    {NOTE_A3, MS_64},
    {NOTE_A1, MS_16},
    {NOTE_A2, MS_64},
    {NOTE_A3, MS_16},
    {NOTE_A3, MS_32},
    {NOTE_B3, MS_32},
    {NOTE_C4, MS_32},
    {NOTE_D4, MS_32},
    {NOTE_E3, MS_16},
    {NOTE_E4, MS_64},
    {NOTE_D2, MS_16},
    {NOTE_A2, MS_64},
    {NOTE_D3, MS_16},
    {NOTE_F4, MS_64},
    {NOTE_D2, MS_16},
    {NOTE_A2, MS_64},
    {NOTE_A3, MS_16},
    {NOTE_A4, MS_64},
    {NOTE_D2, MS_16},
    {NOTE_A2, MS_64},
    {NOTE_A2, MS_16},
    {NOTE_A3, MS_64},
    {NOTE_F2, MS_16},
    {NOTE_F3, MS_64},
    {NOTE_C2, MS_16},
    {NOTE_C3, MS_64},
    {NOTE_C3, MS_16},
    {NOTE_C2, MS_16},
    {NOTE_C3, MS_64},
    {NOTE_C3, MS_16},
    {NOTE_C3, MS_64},
    {NOTE_C2, MS_16},
    {NOTE_C3, MS_64},
    {NOTE_E3, MS_16},
    {NOTE_C4, MS_64},
    {NOTE_G1, MS_16},
    {NOTE_G2, MS_64},
    {NOTE_E3, MS_16},
    {NOTE_C4, MS_64},
    {NOTE_B1, MS_16},
    {NOTE_B2, MS_64},
    {NOTE_B2, MS_16},
    {NOTE_B1, MS_16},
    {NOTE_B2, MS_64},
    {NOTE_B2, MS_16},
    {NOTE_B3, MS_64},
    {NOTE_D3, MS_16},
    {NOTE_D4, MS_64},
    {NOTE_E2, MS_16},
    {NOTE_E3, MS_64},
    {NOTE_E3, MS_16},
    {NOTE_GS3, MS_64},
    {NOTE_GS2, MS_16},
    {NOTE_GS3, MS_64},
    {NOTE_A1, MS_16},
    {NOTE_A2, MS_64},
    {NOTE_C3, MS_16},
    {NOTE_A3, MS_64},
    {NOTE_A1, MS_16},
    {NOTE_A2, MS_64},
    {NOTE_E3, MS_16},
    {NOTE_C4, MS_64},
    {NOTE_A1, MS_16},
    {NOTE_A2, MS_64},
    {NOTE_A3, MS_64},
    {NOTE_A3, MS_64},
    {NOTE_A3, MS_64},
    {NOTE_A3, MS_64},
    {NOTE_A0, MS_Q},
    {NOTE_E3, MS_32},
    {NOTE_E3, MS_32},
    {NOTE_E3, MS_32},
    {NOTE_E3, MS_32},
    {NOTE_A1, MS_32},
    {NOTE_A1, MS_32},
    {NOTE_A1, MS_32},
    {NOTE_A1, MS_32},
    {NOTE_C3, MS_32},
    {NOTE_C3, MS_32},
    {NOTE_C3, MS_32},
    {NOTE_C3, MS_32},
    {NOTE_A1, MS_32},
    {NOTE_A1, MS_32},
    {NOTE_A1, MS_32},
    {NOTE_A1, MS_32},
    {NOTE_D3, MS_32},
    {NOTE_D3, MS_32},
    {NOTE_D3, MS_32},
    {NOTE_D3, MS_32},
    {NOTE_E1, MS_32},
    {NOTE_E1, MS_32},
    {NOTE_E1, MS_32},
    {NOTE_E1, MS_32},
    {NOTE_B2, MS_32},
    {NOTE_B2, MS_32},
    {NOTE_B2, MS_32},
    {NOTE_B2, MS_32},
    {NOTE_E1, MS_32},
    {NOTE_E1, MS_32},
    {NOTE_E1, MS_32},
    {NOTE_E1, MS_32},
    {NOTE_C3, MS_32},
    {NOTE_C3, MS_32},
    {NOTE_C3, MS_32},
    {NOTE_C3, MS_32},
    {NOTE_A1, MS_32},
    {NOTE_A1, MS_32},
    {NOTE_A1, MS_32},
    {NOTE_A1, MS_32},
    {NOTE_A2, MS_32},
    {NOTE_A2, MS_32},
    {NOTE_A2, MS_32},
    {NOTE_A2, MS_32},
    {NOTE_A1, MS_32},
    {NOTE_A1, MS_32},
    {NOTE_A1, MS_32},
    {NOTE_A1, MS_32},
    {NOTE_GS2, MS_32},
    {NOTE_GS2, MS_32},
    {NOTE_GS2, MS_32},
    {NOTE_GS2, MS_32},
    {NOTE_E1, MS_32},
    {NOTE_E1, MS_32},
    {NOTE_E1, MS_32},
    {NOTE_E1, MS_32},
    {NOTE_B2, MS_32},
    {NOTE_B2, MS_32},
    {NOTE_B2, MS_32},
    {NOTE_B2, MS_32},
    {NOTE_E2, MS_32},
    {NOTE_E2, MS_32},
    {NOTE_E2, MS_32},
    {NOTE_E2, MS_32},
    {NOTE_E3, MS_32},
    {NOTE_E3, MS_32},
    {NOTE_E3, MS_32},
    {NOTE_E3, MS_32},
    {NOTE_A1, MS_32},
    {NOTE_A1, MS_32},
    {NOTE_A1, MS_32},
    {NOTE_A1, MS_32},
    {NOTE_C3, MS_32},
    {NOTE_C3, MS_32},
    {NOTE_C3, MS_32},
    {NOTE_C3, MS_32},
    {NOTE_A1, MS_32},
    {NOTE_A1, MS_32},
    {NOTE_A1, MS_32},
    {NOTE_A1, MS_32},
    {NOTE_D3, MS_32},
    {NOTE_D3, MS_32},
    {NOTE_D3, MS_32},
    {NOTE_D3, MS_32},
    {NOTE_E1, MS_32},
    {NOTE_E1, MS_32},
    {NOTE_E1, MS_32},
    {NOTE_E1, MS_32},
    {NOTE_B2, MS_32},
    {NOTE_B2, MS_32},
    {NOTE_B2, MS_32},
    {NOTE_B2, MS_32},
    {NOTE_E1, MS_32},
    {NOTE_E1, MS_32},
    {NOTE_E1, MS_32},
    {NOTE_E1, MS_32},
    {NOTE_C3, MS_32},
    {NOTE_C3, MS_32},
    {NOTE_C3, MS_32},
    {NOTE_C3, MS_32},
    {NOTE_E3, MS_32},
    {NOTE_E3, MS_32},
    {NOTE_E3, MS_32},
    {NOTE_E3, MS_32},
    {NOTE_A3, MS_32},
    {NOTE_A3, MS_32},
    {NOTE_A3, MS_32},
    {NOTE_A3, MS_32},
    {NOTE_A0, MS_32},
    {NOTE_A0, MS_32},
    {NOTE_A0, MS_32},
    {NOTE_A0, MS_32},
    {NOTE_GS3, MS_32},
    {NOTE_GS3, MS_32},
    {NOTE_E4, MS_64},
    {NOTE_E2, MS_32},
    {NOTE_E2, MS_32},
    {NOTE_A5, MS_64},
    {NOTE_GS2, MS_32},
    {NOTE_GS2, MS_32},
    {NOTE_A5, MS_64},
    {NOTE_B2, MS_32},
    {NOTE_B2, MS_32},
    {NOTE_E6, MS_64},
    {NOTE_E3, MS_32},
    {NOTE_E3, MS_32},
    {NOTE_A5, MS_64},
    {NOTE_GS3, MS_32},
    {NOTE_GS3, MS_32},
    {NOTE_C5, MS_64},
    {NOTE_B3, MS_32},
    {NOTE_B3, MS_32},
    {NOTE_C5, MS_64},
    {NOTE_E4, MS_32},
    {NOTE_E4, MS_32},
    {NOTE_REST, MS_64},
    {NOTE_E5, MS_32},
    {NOTE_B4, MS_32},
    {NOTE_A4, MS_32},
    {NOTE_G4, MS_32},
    {NOTE_F4, MS_32},
    {NOTE_E4, MS_32},
    {NOTE_D4, MS_32},
    {NOTE_C4, MS_32},
    {NOTE_B3, MS_32},
    {NOTE_A3, MS_32},
    {NOTE_G3, MS_32},
    {NOTE_F3, MS_32},
    {NOTE_E3, MS_32},
    {NOTE_D3, MS_32},
    {NOTE_C3, MS_32},
    {NOTE_B2, MS_32},
    {NOTE_E4, MS_32},
    {NOTE_D4, MS_32},
    {NOTE_C4, MS_32},
    {NOTE_B3, MS_32},
    {NOTE_A3, MS_32},
    {NOTE_G3, MS_32},
    {NOTE_F3, MS_32},
    {NOTE_E3, MS_32},
    {NOTE_D3, MS_32},
    {NOTE_C3, MS_32},
    {NOTE_B2, MS_32},
    {NOTE_A2, MS_32},
    {NOTE_G2, MS_32},
    {NOTE_F2, MS_32},
    {NOTE_E2, MS_32},
    {NOTE_D2, MS_32},
    {NOTE_B3, MS_32},
    {NOTE_A3, MS_32},
    {NOTE_GS3, MS_32},
    {NOTE_FS3, MS_32},
    {NOTE_E3, MS_32},
    {NOTE_D3, MS_32},
    {NOTE_C3, MS_32},
    {NOTE_B2, MS_32},
    {NOTE_A2, MS_32},
    {NOTE_G2, MS_32},
    {NOTE_F2, MS_32},
    {NOTE_E2, MS_32},
    {NOTE_D2, MS_32},
    {NOTE_C2, MS_32},
    {NOTE_B1, MS_32},
    {NOTE_A1, MS_32},
    {NOTE_A3, MS_32},
    {NOTE_G3, MS_32},
    {NOTE_F3, MS_32},
    {NOTE_E3, MS_32},
    {NOTE_D3, MS_32},
    {NOTE_C3, MS_32},
    {NOTE_B2, MS_32},
    {NOTE_A2, MS_32},
    {NOTE_B2, MS_32},
    {NOTE_C3, MS_32},
    {NOTE_D3, MS_32},
    {NOTE_E3, MS_32},
    {NOTE_A1, MS_32},
    {NOTE_B1, MS_32},
    {NOTE_C2, MS_32},
    {NOTE_D2, MS_32},
    {NOTE_E3, MS_32},
    {NOTE_D3, MS_32},
    {NOTE_C3, MS_32},
    {NOTE_B2, MS_32},
    {NOTE_A2, MS_32},
    {NOTE_G2, MS_32},
    {NOTE_F2, MS_32},
    {NOTE_E2, MS_32},
    {NOTE_F2, MS_32},
    {NOTE_G2, MS_32},
    {NOTE_A2, MS_32},
    {NOTE_B2, MS_32},
    {NOTE_C3, MS_32},
    {NOTE_D3, MS_32},
    {NOTE_E3, MS_32},
    {NOTE_F3, MS_32},
    {NOTE_G3, MS_32},
    {NOTE_A3, MS_32},
    {NOTE_G3, MS_32},
    {NOTE_F3, MS_32},
    {NOTE_E3, MS_32},
    {NOTE_D3, MS_32},
    {NOTE_C3, MS_32},
    {NOTE_B2, MS_32},
    {NOTE_A2, MS_32},
    {NOTE_B2, MS_32},
    {NOTE_C3, MS_32},
    {NOTE_D3, MS_32},
    {NOTE_E3, MS_32},
    {NOTE_F3, MS_32},
    {NOTE_G3, MS_32},
    {NOTE_A3, MS_32},
    {NOTE_GS3, MS_32},
    {NOTE_FS3, MS_32},
    {NOTE_E3, MS_32},
    {NOTE_D3, MS_32},
    {NOTE_C3, MS_32},
    {NOTE_B2, MS_32},
    {NOTE_GS2, MS_32},
    {NOTE_FS2, MS_32},
    {NOTE_E2, MS_32},
    {NOTE_F2, MS_32},
    {NOTE_G2, MS_32},
    {NOTE_A2, MS_32},
    {NOTE_B2, MS_32},
    {NOTE_C3, MS_32},
    {NOTE_D3, MS_32},
    {NOTE_E3, MS_32},
    {NOTE_A3, MS_32},
    {NOTE_G3, MS_32},
    {NOTE_F3, MS_32},
    {NOTE_E3, MS_32},
    {NOTE_D3, MS_32},
    {NOTE_C3, MS_32},
    {NOTE_B2, MS_32},
    {NOTE_A2, MS_32},
    {NOTE_B2, MS_32},
    {NOTE_C3, MS_32},
    {NOTE_D3, MS_32},
    {NOTE_E3, MS_32},
    {NOTE_A2, MS_32},
    {NOTE_B2, MS_32},
    {NOTE_C3, MS_32},
    {NOTE_D3, MS_32},
    {NOTE_E3, MS_16},
    {NOTE_A3, MS_64},
    {NOTE_D3, MS_16},
    {NOTE_D3, MS_64},
    {NOTE_D1, MS_16},
    {NOTE_D1, MS_64},
    {NOTE_D1, MS_16},
    {NOTE_D1, MS_64},
    {NOTE_A2, MS_16},
    {NOTE_D2, MS_16},
    {NOTE_D3, MS_64},
    {NOTE_G3, MS_16},
    {NOTE_G4, MS_64},
    {NOTE_F3, MS_16},
    {NOTE_F4, MS_64},
    {NOTE_E3, MS_16},
    {NOTE_E3, MS_64},
    {NOTE_E1, MS_16},
    {NOTE_E1, MS_16},
    {NOTE_E1, MS_64},
    {NOTE_C3, MS_16},
    {NOTE_C4, MS_64},
    {NOTE_E3, MS_Q},
    {NOTE_D3, MS_16},
    {NOTE_D4, MS_64},
    {NOTE_C3, MS_16},
    {NOTE_C4, MS_64},
    {NOTE_B2, MS_Q},
    {NOTE_B2, MS_16},
    {NOTE_B3, MS_64},
    {NOTE_C3, MS_16},
    {NOTE_C4, MS_64},
    {NOTE_D3, MS_Q},
    {NOTE_E3, MS_Q},
    {NOTE_C3, MS_Q},
    {NOTE_A2, MS_16},
    {NOTE_A2, MS_64},
    {NOTE_A2, MS_64},
    {NOTE_A2, MS_64},
    {NOTE_A1, MS_H},
};

#define SONG_TETRIS___A_THEME_MELODY_LEN (sizeof(song_tetris___a_theme_melody) / sizeof(Step))
#define SONG_TETRIS___A_THEME_HARMONY_LEN (sizeof(song_tetris___a_theme_harmony) / sizeof(Step))
#define SONG_TETRIS___A_THEME_BASS_LEN (sizeof(song_tetris___a_theme_bass) / sizeof(Step))