// Auto-generated by midi_to_3motors.py
// Song: Tokyo Ghoul
#pragma once
#include "../notes.h"
#include "../player.h"

// Duration uses standard macros
// MELODY
static const Step song_tokyo_ghoul___unravel_melody[] = {
    {NOTE_AS5, MS_Q},
    {NOTE_C6, MS_Q},
    {NOTE_AS5, MS_Q},
    {NOTE_AS5, MS_16},
    {NOTE_G5, MS_16},
    {NOTE_REST, MS_16},
    {NOTE_C6, MS_Q},
    {NOTE_AS5, MS_Q},
    {NOTE_A5, MS_Q},
    {NOTE_G5, MS_Q},
    {NOTE_G5, MS_16},
    {NOTE_F5, MS_16},
    {NOTE_REST, MS_Q},
    {NOTE_F5, MS_16},
    {NOTE_DS5, MS_Q},
    {NOTE_F5, MS_16},
    {NOTE_D5, MS_DH},
    {NOTE_REST, MS_DQ},
    {NOTE_D5, MS_16},
    {NOTE_D5, MS_Q},
    {NOTE_D5, MS_16},
    {NOTE_D5, MS_Q},
    {NOTE_C6, MS_16},
    {NOTE_C6, MS_Q},
    {NOTE_REST, MS_W},
    {NOTE_AS5, MS_16},
    {NOTE_A5, MS_Q},
    {NOTE_A5, MS_16},
    {NOTE_A5, MS_Q},
    {NOTE_AS5, MS_Q},
    {NOTE_AS5, MS_Q},
    {NOTE_REST, MS_DH},
    {NOTE_AS5, MS_16},
    {NOTE_C6, MS_Q},
    {NOTE_AS5, MS_Q},
    {NOTE_A5, MS_16},
    {NOTE_G5, MS_16},
    {NOTE_REST, MS_16},
    {NOTE_C6, MS_Q},
    {NOTE_AS5, MS_Q},
    {NOTE_A5, MS_Q},
    {NOTE_G5, MS_Q},
    {NOTE_G5, MS_16},
    {NOTE_F5, MS_Q},
    {NOTE_REST, MS_16},
    {NOTE_F5, MS_16},
    {NOTE_DS5, MS_Q},
    {NOTE_F5, MS_16},
    {NOTE_D5, MS_H},
    {NOTE_REST, MS_H},
    {NOTE_D5, MS_16},
    {NOTE_D5, MS_Q},
    {NOTE_D5, MS_16},
    {NOTE_D5, MS_Q},
    {NOTE_C6, MS_16},
    {NOTE_C6, MS_Q},
    {NOTE_REST, MS_W},
    {NOTE_AS5, MS_16},
    {NOTE_A5, MS_Q},
    {NOTE_A5, MS_16},
    {NOTE_A5, MS_Q},
    {NOTE_AS5, MS_Q},
    {NOTE_AS5, MS_16},
    {NOTE_D5, MS_32},
    {NOTE_D5, MS_32},
    {NOTE_REST, MS_32},
    {NOTE_D5, MS_32},
    {NOTE_REST, MS_32},
    {NOTE_D5, MS_32},
    {NOTE_D5, MS_32},
    {NOTE_REST, MS_32},
    {NOTE_D5, MS_32},
    {NOTE_D5, MS_32},
    {NOTE_REST, MS_32},
    {NOTE_D5, MS_32},
    {NOTE_REST, MS_32},
    {NOTE_D5, MS_32},
    {NOTE_D5, MS_32},
    {NOTE_REST, MS_32},
    {NOTE_D5, MS_32},
    {NOTE_G4, MS_32},
    {NOTE_G4, MS_32},
    {NOTE_A4, MS_32},
    {NOTE_G4, MS_32},
    {NOTE_G4, MS_32},
    {NOTE_AS4, MS_32},
    {NOTE_A4, MS_32},
    {NOTE_D5, MS_32},
    {NOTE_G4, MS_32},
    {NOTE_G4, MS_32},
    {NOTE_A4, MS_32},
    {NOTE_G4, MS_32},
    {NOTE_G4, MS_32},
    {NOTE_A4, MS_32},
    {NOTE_G4, MS_32},
    {NOTE_D5, MS_32},
    {NOTE_D5, MS_32},
    {NOTE_REST, MS_32},
    {NOTE_D5, MS_32},
    {NOTE_REST, MS_32},
    {NOTE_D5, MS_32},
    {NOTE_D5, MS_32},
    {NOTE_REST, MS_32},
    {NOTE_D5, MS_32},
    {NOTE_D5, MS_32},
    {NOTE_REST, MS_32},
    {NOTE_D5, MS_32},
    {NOTE_REST, MS_32},
    {NOTE_D5, MS_32},
    {NOTE_D5, MS_32},
    {NOTE_REST, MS_32},
    {NOTE_D5, MS_32},
    {NOTE_AS5, MS_32},
    {NOTE_REST, MS_32},
    {NOTE_D5, MS_32},
    {NOTE_G5, MS_16},
    {NOTE_AS4, MS_32},
    {NOTE_AS4, MS_32},
    {NOTE_C5, MS_32},
    {NOTE_AS4, MS_32},
    {NOTE_G5, MS_32},
    {NOTE_AS4, MS_32},
    {NOTE_AS4, MS_32},
    {NOTE_F5, MS_32},
    {NOTE_AS4, MS_16},
    {NOTE_AS4, MS_32},
    {NOTE_AS5, MS_32},
    {NOTE_REST, MS_32},
    {NOTE_D5, MS_32},
    {NOTE_G5, MS_16},
    {NOTE_AS4, MS_32},
    {NOTE_AS4, MS_32},
    {NOTE_C5, MS_32},
    {NOTE_AS4, MS_32},
    {NOTE_G5, MS_32},
    {NOTE_AS4, MS_32},
    {NOTE_AS4, MS_32},
    {NOTE_G5, MS_32},
    {NOTE_AS4, MS_16},
    {NOTE_AS4, MS_32},
    {NOTE_AS5, MS_32},
    {NOTE_REST, MS_32},
    {NOTE_D5, MS_32},
    {NOTE_G5, MS_16},
    {NOTE_AS4, MS_32},
    {NOTE_AS4, MS_32},
    {NOTE_C5, MS_32},
    {NOTE_AS4, MS_32},
    {NOTE_G5, MS_32},
    {NOTE_AS4, MS_32},
    {NOTE_AS4, MS_32},
    {NOTE_G5, MS_32},
    {NOTE_AS4, MS_16},
    {NOTE_AS4, MS_32},
    {NOTE_AS5, MS_32},
    {NOTE_REST, MS_32},
    {NOTE_D5, MS_32},
    {NOTE_G5, MS_16},
    {NOTE_AS4, MS_32},
    {NOTE_AS4, MS_32},
    {NOTE_C5, MS_32},
    {NOTE_AS4, MS_32},
    {NOTE_G5, MS_32},
    {NOTE_AS4, MS_32},
    {NOTE_AS4, MS_32},
    {NOTE_G5, MS_32},
    {NOTE_AS4, MS_16},
    {NOTE_F5, MS_32},
    {NOTE_G5, MS_32},
    {NOTE_REST, MS_32},
    {NOTE_DS5, MS_32},
    {NOTE_REST, MS_16},
    {NOTE_A5, MS_32},
    {NOTE_REST, MS_32},
    {NOTE_F5, MS_32},
    {NOTE_G5, MS_32},
    {NOTE_REST, MS_32},
    {NOTE_DS5, MS_32},
    {NOTE_REST, MS_16},
    {NOTE_A5, MS_16},
    {NOTE_AS5, MS_Q},
    {NOTE_AS5, MS_Q},
    {NOTE_AS5, MS_16},
    {NOTE_REST, MS_Q},
    {NOTE_AS5, MS_16},
    {NOTE_D6, MS_16},
    {NOTE_D6, MS_Q},
    {NOTE_C6, MS_Q},
    {NOTE_C6, MS_16},
    {NOTE_REST, MS_DQ},
    {NOTE_AS5, MS_16},
    {NOTE_C6, MS_Q},
    {NOTE_AS5, MS_Q},
    {NOTE_A5, MS_Q},
    {NOTE_F5, MS_Q},
    {NOTE_D5, MS_16},
    {NOTE_REST, MS_W},
    {NOTE_A5, MS_16},
    {NOTE_AS5, MS_16},
    {NOTE_AS5, MS_32},
    {NOTE_AS5, MS_Q},
    {NOTE_REST, MS_Q},
    {NOTE_AS5, MS_16},
    {NOTE_REST, MS_16},
    {NOTE_D6, MS_16},
    {NOTE_D6, MS_Q},
    {NOTE_C6, MS_Q},
    {NOTE_C6, MS_Q},
    {NOTE_AS5, MS_16},
    {NOTE_REST, MS_Q},
    {NOTE_D6, MS_Q},
    {NOTE_C6, MS_16},
    {NOTE_C6, MS_DQ},
    {NOTE_A5, MS_16},
    {NOTE_AS5, MS_16},
    {NOTE_REST, MS_W},
    {NOTE_F6, MS_16},
    {NOTE_F6, MS_16},
    {NOTE_D6, MS_32},
    {NOTE_D6, MS_32},
    {NOTE_REST, MS_16},
    {NOTE_D6, MS_16},
    {NOTE_C6, MS_16},
    {NOTE_D6, MS_32},
    {NOTE_D6, MS_32},
    {NOTE_REST, MS_16},
    {NOTE_F6, MS_16},
    {NOTE_F6, MS_16},
    {NOTE_D6, MS_32},
    {NOTE_D6, MS_32},
    {NOTE_REST, MS_16},
    {NOTE_D6, MS_16},
    {NOTE_C6, MS_16},
    {NOTE_D6, MS_32},
    {NOTE_D6, MS_32},
    {NOTE_REST, MS_16},
    {NOTE_F6, MS_16},
    {NOTE_F6, MS_16},
    {NOTE_D6, MS_32},
    {NOTE_D6, MS_32},
    {NOTE_REST, MS_16},
    {NOTE_D6, MS_16},
    {NOTE_C6, MS_Q},
    {NOTE_C6, MS_Q},
    {NOTE_C6, MS_16},
    {NOTE_D6, MS_DQ},
    {NOTE_D6, MS_16},
    {NOTE_D6, MS_Q},
    {NOTE_C6, MS_Q},
    {NOTE_C6, MS_16},
    {NOTE_D6, MS_Q},
    {NOTE_C6, MS_Q},
    {NOTE_C6, MS_16},
    {NOTE_C6, MS_Q},
    {NOTE_AS5, MS_Q},
    {NOTE_AS5, MS_16},
    {NOTE_A5, MS_Q},
    {NOTE_AS5, MS_Q},
    {NOTE_A5, MS_Q},
    {NOTE_F5, MS_Q},
    {NOTE_F5, MS_16},
    {NOTE_D6, MS_Q},
    {NOTE_C6, MS_Q},
    {NOTE_C6, MS_16},
    {NOTE_C6, MS_Q},
    {NOTE_AS5, MS_Q},
    {NOTE_AS5, MS_16},
    {NOTE_A5, MS_Q},
    {NOTE_AS5, MS_Q},
    {NOTE_F6, MS_Q},
    {NOTE_A5, MS_Q},
    {NOTE_A5, MS_16},
    {NOTE_G6, MS_Q},
    {NOTE_F6, MS_Q},
    {NOTE_F6, MS_16},
    {NOTE_F6, MS_Q},
    {NOTE_D6, MS_Q},
    {NOTE_AS5, MS_16},
    {NOTE_AS5, MS_Q},
    {NOTE_A5, MS_Q},
    {NOTE_G5, MS_Q},
    {NOTE_A5, MS_Q},
    {NOTE_AS5, MS_H},
    {NOTE_REST, MS_H},
    {NOTE_AS5, MS_16},
    {NOTE_A5, MS_Q},
    {NOTE_AS5, MS_Q},
    {NOTE_A5, MS_Q},
    {NOTE_F5, MS_Q},
    {NOTE_REST, MS_16},
    {NOTE_D6, MS_Q},
    {NOTE_C6, MS_Q},
    {NOTE_C6, MS_16},
    {NOTE_C6, MS_Q},
    {NOTE_AS5, MS_Q},
    {NOTE_AS5, MS_16},
    {NOTE_A5, MS_Q},
    {NOTE_AS5, MS_Q},
    {NOTE_A5, MS_Q},
    {NOTE_F5, MS_Q},
    {NOTE_F5, MS_16},
    {NOTE_D6, MS_Q},
    {NOTE_C6, MS_Q},
    {NOTE_C6, MS_16},
    {NOTE_C6, MS_Q},
    {NOTE_AS5, MS_Q},
    {NOTE_AS5, MS_16},
    {NOTE_A5, MS_Q},
    {NOTE_AS5, MS_Q},
    {NOTE_F6, MS_Q},
    {NOTE_A5, MS_Q},
    {NOTE_A5, MS_16},
    {NOTE_G6, MS_Q},
    {NOTE_F6, MS_Q},
    {NOTE_F6, MS_16},
    {NOTE_F6, MS_Q},
    {NOTE_D6, MS_Q},
    {NOTE_AS5, MS_16},
    {NOTE_AS5, MS_Q},
    {NOTE_A5, MS_Q},
    {NOTE_G5, MS_Q},
    {NOTE_A5, MS_Q},
    {NOTE_AS5, MS_W},
};

// HARMONY
static const Step song_tokyo_ghoul___unravel_harmony[] = {
    {NOTE_REST, MS_Q},
    {NOTE_REST, MS_Q},
    {NOTE_REST, MS_Q},
    {NOTE_REST, MS_16},
    {NOTE_REST, MS_16},
    {NOTE_REST, MS_16},
    {NOTE_REST, MS_Q},
    {NOTE_REST, MS_Q},
    {NOTE_REST, MS_Q},
    {NOTE_REST, MS_Q},
    {NOTE_REST, MS_16},
    {NOTE_REST, MS_16},
    {NOTE_REST, MS_Q},
    {NOTE_REST, MS_16},
    {NOTE_REST, MS_Q},
    {NOTE_REST, MS_16},
    {NOTE_REST, MS_DH},
    {NOTE_REST, MS_DQ},
    {NOTE_REST, MS_16},
    {NOTE_REST, MS_Q},
    {NOTE_REST, MS_16},
    {NOTE_REST, MS_Q},
    {NOTE_REST, MS_16},
    {NOTE_REST, MS_Q},
    {NOTE_REST, MS_W},
    {NOTE_REST, MS_16},
    {NOTE_REST, MS_Q},
    {NOTE_REST, MS_16},
    {NOTE_REST, MS_Q},
    {NOTE_REST, MS_Q},
    {NOTE_REST, MS_Q},
    {NOTE_REST, MS_DH},
    {NOTE_REST, MS_16},
    {NOTE_REST, MS_Q},
    {NOTE_REST, MS_Q},
    {NOTE_REST, MS_16},
    {NOTE_REST, MS_16},
    {NOTE_REST, MS_16},
    {NOTE_REST, MS_Q},
    {NOTE_REST, MS_Q},
    {NOTE_REST, MS_Q},
    {NOTE_REST, MS_Q},
    {NOTE_REST, MS_16},
    {NOTE_REST, MS_Q},
    {NOTE_REST, MS_16},
    {NOTE_REST, MS_16},
    {NOTE_REST, MS_Q},
    {NOTE_REST, MS_16},
    {NOTE_REST, MS_H},
    {NOTE_REST, MS_H},
    {NOTE_REST, MS_16},
    {NOTE_REST, MS_Q},
    {NOTE_REST, MS_16},
    {NOTE_REST, MS_Q},
    {NOTE_REST, MS_16},
    {NOTE_REST, MS_Q},
    {NOTE_REST, MS_W},
    {NOTE_REST, MS_16},
    {NOTE_REST, MS_Q},
    {NOTE_REST, MS_16},
    {NOTE_REST, MS_Q},
    {NOTE_REST, MS_Q},
    {NOTE_REST, MS_16},
    {NOTE_REST, MS_32},
    {NOTE_REST, MS_32},
    {NOTE_REST, MS_32},
    {NOTE_REST, MS_32},
    {NOTE_REST, MS_32},
    {NOTE_REST, MS_32},
    {NOTE_REST, MS_32},
    {NOTE_REST, MS_32},
    {NOTE_REST, MS_32},
    {NOTE_REST, MS_32},
    {NOTE_REST, MS_32},
    {NOTE_REST, MS_32},
    {NOTE_REST, MS_32},
    {NOTE_REST, MS_32},
    {NOTE_REST, MS_32},
    {NOTE_REST, MS_32},
    {NOTE_REST, MS_32},
    {NOTE_REST, MS_32},
    {NOTE_REST, MS_32},
    {NOTE_REST, MS_32},
    {NOTE_REST, MS_32},
    {NOTE_REST, MS_32},
    {NOTE_REST, MS_32},
    {NOTE_REST, MS_32},
    {NOTE_REST, MS_32},
    {NOTE_REST, MS_32},
    {NOTE_REST, MS_32},
    {NOTE_REST, MS_32},
    {NOTE_REST, MS_32},
    {NOTE_REST, MS_32},
    {NOTE_REST, MS_32},
    {NOTE_REST, MS_32},
    {NOTE_REST, MS_32},
    {NOTE_REST, MS_32},
    {NOTE_REST, MS_32},
    {NOTE_REST, MS_32},
    {NOTE_REST, MS_32},
    {NOTE_REST, MS_32},
    {NOTE_REST, MS_32},
    {NOTE_REST, MS_32},
    {NOTE_REST, MS_32},
    {NOTE_REST, MS_32},
    {NOTE_REST, MS_32},
    {NOTE_REST, MS_32},
    {NOTE_REST, MS_32},
    {NOTE_REST, MS_32},
    {NOTE_REST, MS_32},
    {NOTE_REST, MS_32},
    {NOTE_REST, MS_32},
    {NOTE_REST, MS_32},
    {NOTE_REST, MS_32},
    {NOTE_REST, MS_32},
    {NOTE_REST, MS_16},
    {NOTE_REST, MS_32},
    {NOTE_REST, MS_32},
    {NOTE_REST, MS_32},
    {NOTE_REST, MS_32},
    {NOTE_REST, MS_32},
    {NOTE_REST, MS_32},
    {NOTE_REST, MS_32},
    {NOTE_REST, MS_32},
    {NOTE_REST, MS_16},
    {NOTE_REST, MS_32},
    {NOTE_REST, MS_32},
    {NOTE_REST, MS_32},
    {NOTE_REST, MS_32},
    {NOTE_REST, MS_16},
    {NOTE_REST, MS_32},
    {NOTE_REST, MS_32},
    {NOTE_REST, MS_32},
    {NOTE_REST, MS_32},
    {NOTE_REST, MS_32},
    {NOTE_REST, MS_32},
    {NOTE_REST, MS_32},
    {NOTE_REST, MS_32},
    {NOTE_REST, MS_16},
    {NOTE_REST, MS_32},
    {NOTE_REST, MS_32},
    {NOTE_REST, MS_32},
    {NOTE_REST, MS_32},
    {NOTE_REST, MS_16},
    {NOTE_REST, MS_32},
    {NOTE_REST, MS_32},
    {NOTE_REST, MS_32},
    {NOTE_REST, MS_32},
    {NOTE_REST, MS_32},
    {NOTE_REST, MS_32},
    {NOTE_REST, MS_32},
    {NOTE_REST, MS_32},
    {NOTE_REST, MS_16},
    {NOTE_REST, MS_32},
    {NOTE_REST, MS_32},
    {NOTE_REST, MS_32},
    {NOTE_REST, MS_32},
    {NOTE_REST, MS_16},
    {NOTE_REST, MS_32},
    {NOTE_REST, MS_32},
    {NOTE_REST, MS_32},
    {NOTE_REST, MS_32},
    {NOTE_REST, MS_32},
    {NOTE_REST, MS_32},
    {NOTE_REST, MS_32},
    {NOTE_REST, MS_32},
    {NOTE_REST, MS_16},
    {NOTE_REST, MS_32},
    {NOTE_REST, MS_32},
    {NOTE_REST, MS_32},
    {NOTE_REST, MS_32},
    {NOTE_REST, MS_16},
    {NOTE_REST, MS_32},
    {NOTE_REST, MS_32},
    {NOTE_REST, MS_32},
    {NOTE_REST, MS_32},
    {NOTE_REST, MS_32},
    {NOTE_REST, MS_32},
    {NOTE_REST, MS_16},
    {NOTE_REST, MS_16},
    {NOTE_REST, MS_Q},
    {NOTE_REST, MS_Q},
    {NOTE_REST, MS_16},
    {NOTE_REST, MS_Q},
    {NOTE_REST, MS_16},
    {NOTE_REST, MS_16},
    {NOTE_REST, MS_Q},
    {NOTE_REST, MS_Q},
    {NOTE_REST, MS_16},
    {NOTE_REST, MS_DQ},
    {NOTE_REST, MS_16},
    {NOTE_REST, MS_Q},
    {NOTE_REST, MS_Q},
    {NOTE_REST, MS_Q},
    {NOTE_REST, MS_Q},
    {NOTE_REST, MS_16},
    {NOTE_REST, MS_W},
    {NOTE_REST, MS_16},
    {NOTE_REST, MS_16},
    {NOTE_REST, MS_32},
    {NOTE_REST, MS_Q},
    {NOTE_REST, MS_Q},
    {NOTE_REST, MS_16},
    {NOTE_REST, MS_16},
    {NOTE_REST, MS_16},
    {NOTE_REST, MS_Q},
    {NOTE_REST, MS_Q},
    {NOTE_REST, MS_Q},
    {NOTE_REST, MS_16},
    {NOTE_REST, MS_Q},
    {NOTE_REST, MS_Q},
    {NOTE_REST, MS_16},
    {NOTE_REST, MS_DQ},
    {NOTE_REST, MS_16},
    {NOTE_REST, MS_16},
    {NOTE_REST, MS_W},
    {NOTE_REST, MS_16},
    {NOTE_REST, MS_16},
    {NOTE_REST, MS_32},
    {NOTE_REST, MS_32},
    {NOTE_REST, MS_16},
    {NOTE_REST, MS_16},
    {NOTE_REST, MS_16},
    {NOTE_REST, MS_32},
    {NOTE_REST, MS_32},
    {NOTE_REST, MS_16},
    {NOTE_REST, MS_16},
    {NOTE_REST, MS_16},
    {NOTE_REST, MS_32},
    {NOTE_REST, MS_32},
    {NOTE_REST, MS_16},
    {NOTE_REST, MS_16},
    {NOTE_REST, MS_16},
    {NOTE_REST, MS_32},
    {NOTE_REST, MS_32},
    {NOTE_REST, MS_16},
    {NOTE_REST, MS_16},
    {NOTE_REST, MS_16},
    {NOTE_REST, MS_32},
    {NOTE_REST, MS_32},
    {NOTE_REST, MS_16},
    {NOTE_REST, MS_16},
    {NOTE_REST, MS_Q},
    {NOTE_REST, MS_Q},
    {NOTE_REST, MS_16},
    {NOTE_REST, MS_DQ},
    {NOTE_REST, MS_16},
    {NOTE_REST, MS_Q},
    {NOTE_REST, MS_Q},
    {NOTE_REST, MS_16},
    {NOTE_REST, MS_Q},
    {NOTE_REST, MS_Q},
    {NOTE_REST, MS_16},
    {NOTE_REST, MS_Q},
    {NOTE_REST, MS_Q},
    {NOTE_REST, MS_16},
    {NOTE_REST, MS_Q},
    {NOTE_REST, MS_Q},
    {NOTE_REST, MS_Q},
    {NOTE_REST, MS_Q},
    {NOTE_REST, MS_16},
    {NOTE_REST, MS_Q},
    {NOTE_REST, MS_Q},
    {NOTE_REST, MS_16},
    {NOTE_REST, MS_Q},
    {NOTE_REST, MS_Q},
    {NOTE_REST, MS_16},
    {NOTE_REST, MS_Q},
    {NOTE_REST, MS_Q},
    {NOTE_REST, MS_Q},
    {NOTE_REST, MS_Q},
    {NOTE_REST, MS_16},
    {NOTE_REST, MS_Q},
    {NOTE_REST, MS_Q},
    {NOTE_REST, MS_16},
    {NOTE_REST, MS_Q},
    {NOTE_REST, MS_Q},
    {NOTE_REST, MS_16},
    {NOTE_REST, MS_Q},
    {NOTE_REST, MS_Q},
    {NOTE_REST, MS_Q},
    {NOTE_REST, MS_Q},
    {NOTE_REST, MS_H},
    {NOTE_REST, MS_H},
    {NOTE_REST, MS_16},
    {NOTE_REST, MS_Q},
    {NOTE_REST, MS_Q},
    {NOTE_REST, MS_Q},
    {NOTE_REST, MS_Q},
    {NOTE_REST, MS_16},
    {NOTE_REST, MS_Q},
    {NOTE_REST, MS_Q},
    {NOTE_REST, MS_16},
    {NOTE_REST, MS_Q},
    {NOTE_REST, MS_Q},
    {NOTE_REST, MS_16},
    {NOTE_REST, MS_Q},
    {NOTE_REST, MS_Q},
    {NOTE_REST, MS_Q},
    {NOTE_REST, MS_Q},
    {NOTE_REST, MS_16},
    {NOTE_REST, MS_Q},
    {NOTE_REST, MS_Q},
    {NOTE_REST, MS_16},
    {NOTE_REST, MS_Q},
    {NOTE_REST, MS_Q},
    {NOTE_REST, MS_16},
    {NOTE_REST, MS_Q},
    {NOTE_REST, MS_Q},
    {NOTE_REST, MS_Q},
    {NOTE_REST, MS_Q},
    {NOTE_REST, MS_16},
    {NOTE_REST, MS_Q},
    {NOTE_REST, MS_Q},
    {NOTE_REST, MS_16},
    {NOTE_REST, MS_Q},
    {NOTE_REST, MS_Q},
    {NOTE_REST, MS_16},
    {NOTE_REST, MS_Q},
    {NOTE_REST, MS_Q},
    {NOTE_REST, MS_Q},
    {NOTE_REST, MS_Q},
    {NOTE_REST, MS_W},
};

// BASS
static const Step song_tokyo_ghoul___unravel_bass[] = {
    {NOTE_AS5, MS_Q},
    {NOTE_C6, MS_Q},
    {NOTE_AS5, MS_Q},
    {NOTE_AS5, MS_16},
    {NOTE_G5, MS_16},
    {NOTE_REST, MS_16},
    {NOTE_C6, MS_Q},
    {NOTE_AS5, MS_Q},
    {NOTE_A5, MS_Q},
    {NOTE_G5, MS_Q},
    {NOTE_G5, MS_16},
    {NOTE_F5, MS_16},
    {NOTE_REST, MS_Q},
    {NOTE_F5, MS_16},
    {NOTE_DS5, MS_Q},
    {NOTE_F5, MS_16},
    {NOTE_D5, MS_DH},
    {NOTE_REST, MS_DQ},
    {NOTE_D5, MS_16},
    {NOTE_D5, MS_Q},
    {NOTE_D5, MS_16},
    {NOTE_D5, MS_Q},
    {NOTE_C6, MS_16},
    {NOTE_C6, MS_Q},
    {NOTE_REST, MS_W},
    {NOTE_AS5, MS_16},
    {NOTE_A5, MS_Q},
    {NOTE_A5, MS_16},
    {NOTE_A5, MS_Q},
    {NOTE_AS5, MS_Q},
    {NOTE_AS5, MS_Q},
    {NOTE_REST, MS_DH},
    {NOTE_AS5, MS_16},
    {NOTE_C6, MS_Q},
    {NOTE_AS5, MS_Q},
    {NOTE_A5, MS_16},
    {NOTE_G5, MS_16},
    {NOTE_REST, MS_16},
    {NOTE_C6, MS_Q},
    {NOTE_AS5, MS_Q},
    {NOTE_A5, MS_Q},
    {NOTE_G5, MS_Q},
    {NOTE_G5, MS_16},
    {NOTE_F5, MS_Q},
    {NOTE_REST, MS_16},
    {NOTE_F5, MS_16},
    {NOTE_DS5, MS_Q},
    {NOTE_F5, MS_16},
    {NOTE_D5, MS_H},
    {NOTE_REST, MS_H},
    {NOTE_D5, MS_16},
    {NOTE_D5, MS_Q},
    {NOTE_D5, MS_16},
    {NOTE_D5, MS_Q},
    {NOTE_C6, MS_16},
    {NOTE_C6, MS_Q},
    {NOTE_REST, MS_W},
    {NOTE_AS5, MS_16},
    {NOTE_A5, MS_Q},
    {NOTE_A5, MS_16},
    {NOTE_A5, MS_Q},
    {NOTE_AS5, MS_Q},
    {NOTE_AS5, MS_16},
    {NOTE_D5, MS_32},
    {NOTE_D5, MS_32},
    {NOTE_REST, MS_32},
    {NOTE_D5, MS_32},
    {NOTE_REST, MS_32},
    {NOTE_D5, MS_32},
    {NOTE_D5, MS_32},
    {NOTE_REST, MS_32},
    {NOTE_D5, MS_32},
    {NOTE_D5, MS_32},
    {NOTE_REST, MS_32},
    {NOTE_D5, MS_32},
    {NOTE_REST, MS_32},
    {NOTE_D5, MS_32},
    {NOTE_D5, MS_32},
    {NOTE_REST, MS_32},
    {NOTE_D5, MS_32},
    {NOTE_G4, MS_32},
    {NOTE_G4, MS_32},
    {NOTE_A4, MS_32},
    {NOTE_G4, MS_32},
    {NOTE_G4, MS_32},
    {NOTE_AS4, MS_32},
    {NOTE_A4, MS_32},
    {NOTE_D5, MS_32},
    {NOTE_G4, MS_32},
    {NOTE_G4, MS_32},
    {NOTE_A4, MS_32},
    {NOTE_G4, MS_32},
    {NOTE_G4, MS_32},
    {NOTE_A4, MS_32},
    {NOTE_G4, MS_32},
    {NOTE_D5, MS_32},
    {NOTE_D5, MS_32},
    {NOTE_REST, MS_32},
    {NOTE_D5, MS_32},
    {NOTE_REST, MS_32},
    {NOTE_D5, MS_32},
    {NOTE_D5, MS_32},
    {NOTE_REST, MS_32},
    {NOTE_D5, MS_32},
    {NOTE_D5, MS_32},
    {NOTE_REST, MS_32},
    {NOTE_D5, MS_32},
    {NOTE_REST, MS_32},
    {NOTE_D5, MS_32},
    {NOTE_D5, MS_32},
    {NOTE_REST, MS_32},
    {NOTE_D5, MS_32},
    {NOTE_AS5, MS_32},
    {NOTE_REST, MS_32},
    {NOTE_D5, MS_32},
    {NOTE_G5, MS_16},
    {NOTE_AS4, MS_32},
    {NOTE_AS4, MS_32},
    {NOTE_C5, MS_32},
    {NOTE_AS4, MS_32},
    {NOTE_G5, MS_32},
    {NOTE_AS4, MS_32},
    {NOTE_AS4, MS_32},
    {NOTE_F5, MS_32},
    {NOTE_AS4, MS_16},
    {NOTE_AS4, MS_32},
    {NOTE_AS5, MS_32},
    {NOTE_REST, MS_32},
    {NOTE_D5, MS_32},
    {NOTE_G5, MS_16},
    {NOTE_AS4, MS_32},
    {NOTE_AS4, MS_32},
    {NOTE_C5, MS_32},
    {NOTE_AS4, MS_32},
    {NOTE_G5, MS_32},
    {NOTE_AS4, MS_32},
    {NOTE_AS4, MS_32},
    {NOTE_G5, MS_32},
    {NOTE_AS4, MS_16},
    {NOTE_AS4, MS_32},
    {NOTE_AS5, MS_32},
    {NOTE_REST, MS_32},
    {NOTE_D5, MS_32},
    {NOTE_G5, MS_16},
    {NOTE_AS4, MS_32},
    {NOTE_AS4, MS_32},
    {NOTE_C5, MS_32},
    {NOTE_AS4, MS_32},
    {NOTE_G5, MS_32},
    {NOTE_AS4, MS_32},
    {NOTE_AS4, MS_32},
    {NOTE_G5, MS_32},
    {NOTE_AS4, MS_16},
    {NOTE_AS4, MS_32},
    {NOTE_AS5, MS_32},
    {NOTE_REST, MS_32},
    {NOTE_D5, MS_32},
    {NOTE_G5, MS_16},
    {NOTE_AS4, MS_32},
    {NOTE_AS4, MS_32},
    {NOTE_C5, MS_32},
    {NOTE_AS4, MS_32},
    {NOTE_G5, MS_32},
    {NOTE_AS4, MS_32},
    {NOTE_AS4, MS_32},
    {NOTE_G5, MS_32},
    {NOTE_AS4, MS_16},
    {NOTE_F5, MS_32},
    {NOTE_G5, MS_32},
    {NOTE_REST, MS_32},
    {NOTE_DS5, MS_32},
    {NOTE_REST, MS_16},
    {NOTE_A5, MS_32},
    {NOTE_REST, MS_32},
    {NOTE_F5, MS_32},
    {NOTE_G5, MS_32},
    {NOTE_REST, MS_32},
    {NOTE_DS5, MS_32},
    {NOTE_REST, MS_16},
    {NOTE_A5, MS_16},
    {NOTE_AS5, MS_Q},
    {NOTE_AS5, MS_Q},
    {NOTE_AS5, MS_16},
    {NOTE_REST, MS_Q},
    {NOTE_AS5, MS_16},
    {NOTE_D6, MS_16},
    {NOTE_D6, MS_Q},
    {NOTE_C6, MS_Q},
    {NOTE_C6, MS_16},
    {NOTE_REST, MS_DQ},
    {NOTE_AS5, MS_16},
    {NOTE_C6, MS_Q},
    {NOTE_AS5, MS_Q},
    {NOTE_A5, MS_Q},
    {NOTE_F5, MS_Q},
    {NOTE_D5, MS_16},
    {NOTE_REST, MS_W},
    {NOTE_A5, MS_16},
    {NOTE_AS5, MS_16},
    {NOTE_AS5, MS_32},
    {NOTE_AS5, MS_Q},
    {NOTE_REST, MS_Q},
    {NOTE_AS5, MS_16},
    {NOTE_REST, MS_16},
    {NOTE_D6, MS_16},
    {NOTE_D6, MS_Q},
    {NOTE_C6, MS_Q},
    {NOTE_C6, MS_Q},
    {NOTE_AS5, MS_16},
    {NOTE_REST, MS_Q},
    {NOTE_D6, MS_Q},
    {NOTE_C6, MS_16},
    {NOTE_C6, MS_DQ},
    {NOTE_A5, MS_16},
    {NOTE_AS5, MS_16},
    {NOTE_REST, MS_W},
    {NOTE_F6, MS_16},
    {NOTE_F6, MS_16},
    {NOTE_D6, MS_32},
    {NOTE_D6, MS_32},
    {NOTE_REST, MS_16},
    {NOTE_D6, MS_16},
    {NOTE_C6, MS_16},
    {NOTE_D6, MS_32},
    {NOTE_D6, MS_32},
    {NOTE_REST, MS_16},
    {NOTE_F6, MS_16},
    {NOTE_F6, MS_16},
    {NOTE_D6, MS_32},
    {NOTE_D6, MS_32},
    {NOTE_REST, MS_16},
    {NOTE_D6, MS_16},
    {NOTE_C6, MS_16},
    {NOTE_D6, MS_32},
    {NOTE_D6, MS_32},
    {NOTE_REST, MS_16},
    {NOTE_F6, MS_16},
    {NOTE_F6, MS_16},
    {NOTE_D6, MS_32},
    {NOTE_D6, MS_32},
    {NOTE_REST, MS_16},
    {NOTE_D6, MS_16},
    {NOTE_C6, MS_Q},
    {NOTE_C6, MS_Q},
    {NOTE_C6, MS_16},
    {NOTE_D6, MS_DQ},
    {NOTE_D6, MS_16},
    {NOTE_D6, MS_Q},
    {NOTE_C6, MS_Q},
    {NOTE_C6, MS_16},
    {NOTE_D6, MS_Q},
    {NOTE_C6, MS_Q},
    {NOTE_C6, MS_16},
    {NOTE_C6, MS_Q},
    {NOTE_AS5, MS_Q},
    {NOTE_AS5, MS_16},
    {NOTE_A5, MS_Q},
    {NOTE_AS5, MS_Q},
    {NOTE_A5, MS_Q},
    {NOTE_F5, MS_Q},
    {NOTE_F5, MS_16},
    {NOTE_D6, MS_Q},
    {NOTE_C6, MS_Q},
    {NOTE_C6, MS_16},
    {NOTE_C6, MS_Q},
    {NOTE_AS5, MS_Q},
    {NOTE_AS5, MS_16},
    {NOTE_A5, MS_Q},
    {NOTE_AS5, MS_Q},
    {NOTE_F6, MS_Q},
    {NOTE_A5, MS_Q},
    {NOTE_A5, MS_16},
    {NOTE_G6, MS_Q},
    {NOTE_F6, MS_Q},
    {NOTE_F6, MS_16},
    {NOTE_F6, MS_Q},
    {NOTE_D6, MS_Q},
    {NOTE_AS5, MS_16},
    {NOTE_AS5, MS_Q},
    {NOTE_A5, MS_Q},
    {NOTE_G5, MS_Q},
    {NOTE_A5, MS_Q},
    {NOTE_AS5, MS_H},
    {NOTE_REST, MS_H},
    {NOTE_AS5, MS_16},
    {NOTE_A5, MS_Q},
    {NOTE_AS5, MS_Q},
    {NOTE_A5, MS_Q},
    {NOTE_F5, MS_Q},
    {NOTE_REST, MS_16},
    {NOTE_D6, MS_Q},
    {NOTE_C6, MS_Q},
    {NOTE_C6, MS_16},
    {NOTE_C6, MS_Q},
    {NOTE_AS5, MS_Q},
    {NOTE_AS5, MS_16},
    {NOTE_A5, MS_Q},
    {NOTE_AS5, MS_Q},
    {NOTE_A5, MS_Q},
    {NOTE_F5, MS_Q},
    {NOTE_F5, MS_16},
    {NOTE_D6, MS_Q},
    {NOTE_C6, MS_Q},
    {NOTE_C6, MS_16},
    {NOTE_C6, MS_Q},
    {NOTE_AS5, MS_Q},
    {NOTE_AS5, MS_16},
    {NOTE_A5, MS_Q},
    {NOTE_AS5, MS_Q},
    {NOTE_F6, MS_Q},
    {NOTE_A5, MS_Q},
    {NOTE_A5, MS_16},
    {NOTE_G6, MS_Q},
    {NOTE_F6, MS_Q},
    {NOTE_F6, MS_16},
    {NOTE_F6, MS_Q},
    {NOTE_D6, MS_Q},
    {NOTE_AS5, MS_16},
    {NOTE_AS5, MS_Q},
    {NOTE_A5, MS_Q},
    {NOTE_G5, MS_Q},
    {NOTE_A5, MS_Q},
    {NOTE_AS5, MS_W},
};

#define SONG_TOKYO_GHOUL___UNRAVEL_MELODY_LEN (sizeof(song_tokyo_ghoul___unravel_melody) / sizeof(Step))
#define SONG_TOKYO_GHOUL___UNRAVEL_HARMONY_LEN (sizeof(song_tokyo_ghoul___unravel_harmony) / sizeof(Step))
#define SONG_TOKYO_GHOUL___UNRAVEL_BASS_LEN (sizeof(song_tokyo_ghoul___unravel_bass) / sizeof(Step))